<svg width="147" height="118" viewBox="0 0 147 118" fill="none" xmlns="http://www.w3.org/2000/svg">
<path d="M143.823 0.27832H35.9747C34.8253 0.27832 33.8936 1.19142 33.8936 2.31779V77.9341C33.8936 79.0605 34.8253 79.9736 35.9747 79.9736H143.823C144.973 79.9736 145.904 79.0605 145.904 77.9341V2.31779C145.904 1.19142 144.973 0.27832 143.823 0.27832Z" fill="white"/>
<path d="M143.591 80.2516H36.2097C34.7768 80.2516 33.6108 79.109 33.6108 77.7047V2.54684C33.6108 1.14258 34.7768 0 36.2097 0H143.591C145.024 0 146.189 1.14258 146.189 2.54684V77.7047C146.189 79.109 145.024 80.2516 143.591 80.2516ZM36.2097 0.555312C35.0896 0.555312 34.1785 1.44821 34.1785 2.54684V77.7047C34.1785 78.8024 35.0896 79.6963 36.2097 79.6963H143.591C144.711 79.6963 145.622 78.8034 145.622 77.7047V2.54684C145.622 1.4492 144.711 0.555312 143.591 0.555312H36.2097Z" fill="#42444B"/>
<path d="M143.145 2.98486H36.6548V77.2689H143.145V2.98486Z" fill="white"/>
<path d="M143.145 77.5463H36.6549C36.498 77.5463 36.3716 77.4225 36.3716 77.2687V2.98469C36.3716 2.83088 36.498 2.70703 36.6549 2.70703H143.145C143.302 2.70703 143.428 2.83088 143.428 2.98469V77.2687C143.428 77.4225 143.302 77.5463 143.145 77.5463ZM36.9382 76.991H142.862V3.26234H36.9382V76.991Z" fill="#42444B"/>
<path d="M143.145 2.98486H36.6548V11.4534H143.145V2.98486Z" fill="white"/>
<path d="M143.145 11.7309H36.6549C36.498 11.7309 36.3716 11.607 36.3716 11.4532V2.98469C36.3716 2.83088 36.498 2.70703 36.6549 2.70703H143.145C143.302 2.70703 143.428 2.83088 143.428 2.98469V11.4532C143.428 11.607 143.302 11.7309 143.145 11.7309ZM36.9382 11.1755H142.862V3.26234H36.9382V11.1755Z" fill="#42444B"/>
<path d="M55.916 5.20459C54.7827 5.20459 53.8613 6.10747 53.8613 7.2181C53.8613 8.32872 54.7827 9.2316 55.916 9.2316H123.805C124.939 9.2316 125.86 8.32872 125.86 7.2181C125.86 6.10747 124.939 5.20459 123.805 5.20459H55.916Z" fill="#15CBB9"/>
<path d="M41.7484 8.72242L43.7633 5.61028C43.9692 5.29267 44.441 5.29267 44.6469 5.61028L46.6618 8.72242C46.8829 9.064 46.6322 9.50945 46.2205 9.50945H42.1907C41.778 9.50945 41.5283 9.063 41.7494 8.72242H41.7484Z" fill="#EA8696"/>
<path d="M139.496 5.11084H134.535C134.361 5.11084 134.22 5.24901 134.22 5.41946V6.27739C134.22 6.44784 134.361 6.58601 134.535 6.58601H139.496C139.67 6.58601 139.811 6.44784 139.811 6.27739V5.41946C139.811 5.24901 139.67 5.11084 139.496 5.11084Z" fill="#EA8696"/>
<path d="M139.496 7.8501H134.535C134.361 7.8501 134.22 7.98827 134.22 8.15872V9.01665C134.22 9.1871 134.361 9.32527 134.535 9.32527H139.496C139.67 9.32527 139.811 9.1871 139.811 9.01665V8.15872C139.811 7.98827 139.67 7.8501 139.496 7.8501Z" fill="#EA8696"/>
<path d="M121.767 14.7817H57.9991C57.2623 14.7817 56.665 15.3671 56.665 16.0891V113.885C56.665 114.607 57.2623 115.192 57.9991 115.192H121.767C122.504 115.192 123.101 114.607 123.101 113.885V16.0891C123.101 15.3671 122.504 14.7817 121.767 14.7817Z" fill="#15CBB9"/>
<path d="M115.773 25.7104H85.4058C85.0118 25.7104 84.6924 26.0235 84.6924 26.4096V28.3542C84.6924 28.7403 85.0118 29.0533 85.4058 29.0533H115.773C116.167 29.0533 116.486 28.7403 116.486 28.3542V26.4096C116.486 26.0235 116.167 25.7104 115.773 25.7104Z" fill="white"/>
<path d="M115.773 34.5439H85.4058C85.0118 34.5439 84.6924 34.857 84.6924 35.2431V37.1877C84.6924 37.5738 85.0118 37.8868 85.4058 37.8868H115.773C116.167 37.8868 116.486 37.5738 116.486 37.1877V35.2431C116.486 34.857 116.167 34.5439 115.773 34.5439Z" fill="white"/>
<path d="M88.6255 84.3613H65.2041C64.8101 84.3613 64.4907 84.6743 64.4907 85.0605V87.0051C64.4907 87.3912 64.8101 87.7042 65.2041 87.7042H88.6255C89.0195 87.7042 89.3389 87.3912 89.3389 87.0051V85.0605C89.3389 84.6743 89.0195 84.3613 88.6255 84.3613Z" fill="white"/>
<path d="M88.6255 93.1943H65.2041C64.8101 93.1943 64.4907 93.5073 64.4907 93.8935V95.8381C64.4907 96.2242 64.8101 96.5372 65.2041 96.5372H88.6255C89.0195 96.5372 89.3389 96.2242 89.3389 95.8381V93.8935C89.3389 93.5073 89.0195 93.1943 88.6255 93.1943Z" fill="white"/>
<path d="M88.6255 102.028H65.2041C64.8101 102.028 64.4907 102.341 64.4907 102.727V104.672C64.4907 105.058 64.8101 105.371 65.2041 105.371H88.6255C89.0195 105.371 89.3389 105.058 89.3389 104.672V102.727C89.3389 102.341 89.0195 102.028 88.6255 102.028Z" fill="white"/>
<path d="M76.8434 39.7964H70.7835L69.2935 43.301H65.7417L73.9867 24.6831H74.1855L82.4305 43.301H78.258L76.8424 39.7964H76.8434ZM75.651 36.8271L73.8879 32.4705L72.0503 36.8271H75.651Z" fill="white"/>
<path d="M115.4 46.8613H65.5771C64.9771 46.8613 64.4907 47.338 64.4907 47.926V79.0165C64.4907 79.6045 64.9771 80.0812 65.5771 80.0812H115.4C116 80.0812 116.486 79.6045 116.486 79.0165V47.926C116.486 47.338 116 46.8613 115.4 46.8613Z" fill="white"/>
<path d="M113.413 84.23H96.3237C94.6268 84.23 93.251 85.5783 93.251 87.2412V104.219C93.251 105.882 94.6268 107.23 96.3237 107.23H113.413C115.11 107.23 116.486 105.882 116.486 104.219V87.2412C116.486 85.5783 115.11 84.23 113.413 84.23ZM94.9061 85.7061H114.83C114.912 85.7061 114.979 85.7721 114.979 85.853V101.994L110.664 97.6883C109.993 97.0181 108.904 97.0181 108.233 97.6883L105.919 99.9964L100.107 94.1976C99.4352 93.5275 98.3468 93.5275 97.6752 94.1976L94.7563 97.11V85.853C94.7563 85.7721 94.8235 85.7061 94.9061 85.7061Z" fill="white"/>
<path d="M106.571 94.8209C107.898 94.8209 108.973 93.7477 108.973 92.4239C108.973 91.1 107.898 90.0269 106.571 90.0269C105.244 90.0269 104.169 91.1 104.169 92.4239C104.169 93.7477 105.244 94.8209 106.571 94.8209Z" fill="white"/>
<path d="M9.06045 100.032L7.00684 108.38L9.93387 108.98L12.9924 101.445L9.06045 100.032Z" fill="white"/>
<path d="M9.93539 109.258C9.91603 109.258 9.89667 109.256 9.8773 109.252L6.95027 108.653C6.87485 108.638 6.80963 108.593 6.76886 108.529C6.72809 108.465 6.71484 108.388 6.73319 108.315L8.7868 99.9663C8.80616 99.8894 8.85712 99.8235 8.92846 99.7866C8.9998 99.7496 9.08439 99.7436 9.15981 99.7706L13.0917 101.184C13.1631 101.21 13.2212 101.263 13.2528 101.332C13.2844 101.401 13.2854 101.478 13.2579 101.547L10.1994 109.083C10.1555 109.191 10.0506 109.258 9.93641 109.258H9.93539ZM7.35182 108.167L9.7601 108.661L12.6229 101.607L9.26275 100.4L7.35284 108.167H7.35182Z" fill="#42444B"/>
<path d="M19.1531 116.217V117.416H4.12451C4.12451 117.416 4.12451 116.851 4.17343 115.96C4.29165 113.83 4.69015 109.836 6.04665 107.269H11.595C11.595 107.269 13.0666 111.524 17.8017 114.011C18.5538 114.406 19.0532 115.139 19.1398 115.96C19.149 116.045 19.1541 116.131 19.1541 116.217H19.1531Z" fill="#15CBB9"/>
<path d="M19.1531 116.218V117.417H4.12451C4.12451 117.417 4.12451 116.852 4.17343 115.961H19.1398C19.149 116.046 19.1541 116.132 19.1541 116.218H19.1531Z" fill="white"/>
<path d="M19.1527 117.693H4.12415C3.9672 117.693 3.84082 117.569 3.84082 117.415C3.84082 117.393 3.84082 116.832 3.88974 115.944C3.89789 115.796 4.02223 115.682 4.17307 115.682H19.1395C19.2852 115.682 19.4065 115.79 19.4218 115.931C19.4319 116.029 19.437 116.125 19.437 116.216V117.415C19.437 117.569 19.3107 117.693 19.1537 117.693H19.1527ZM4.41053 117.138H18.8694V116.237H4.44213C4.42378 116.623 4.41461 116.933 4.41053 117.138Z" fill="#42444B"/>
<path d="M21.5316 86.6075C21.4837 86.9641 20.9955 88.2375 20.3015 89.9214C18.3559 94.6526 14.7899 102.627 14.7899 102.627L7.67815 100.093L12.2032 84.2535C12.2032 84.2535 8.04709 71.5812 7.58541 68.0515C7.12373 64.5219 8.78598 59.0007 8.78598 59.0007C11.7415 50.6731 18.2988 52.0314 19.2222 56.5568C19.9703 60.2202 21.1413 76.7498 21.4623 83.6372C21.5377 85.2592 21.5663 86.3469 21.5316 86.6045V86.6075Z" fill="#15CBB9"/>
<path d="M16.3263 85.506C16.3039 85.506 16.2825 85.503 16.26 85.498L12.8795 84.7C12.7276 84.664 12.6339 84.5142 12.6706 84.3644C12.7072 84.2156 12.8601 84.1237 13.013 84.1596L16.3935 84.9577C16.5454 84.9936 16.6392 85.1434 16.6025 85.2932C16.5709 85.4201 16.4547 85.506 16.3273 85.506H16.3263Z" fill="#42444B"/>
<path d="M13.0486 100.374C13.014 100.374 12.9793 100.368 12.9457 100.355C12.7999 100.299 12.7276 100.138 12.7847 99.9956L18.4043 85.918L17.3118 71.395C17.3006 71.2422 17.4178 71.1094 17.5737 71.0974C17.7306 71.0864 17.8662 71.2013 17.8774 71.3541L18.975 85.94C18.9781 85.981 18.972 86.0229 18.9567 86.0619L13.3136 100.198C13.2698 100.308 13.1628 100.375 13.0496 100.375L13.0486 100.374Z" fill="#42444B"/>
<path d="M9.47112 63.5632C9.47112 63.5632 9.22551 64.6228 9.02881 67.2726C9.02881 67.2726 9.91344 68.6698 11.486 69.5847C11.486 69.5847 12.6163 69.1033 14.4844 67.9947L15.0256 64.0935C15.0256 64.0935 11.3392 63.3714 9.47112 63.5632Z" fill="white"/>
<path d="M21.5314 86.607C21.4835 86.9636 20.9953 88.237 20.3013 89.9209C19.4829 89.2937 18.9458 88.242 18.9458 87.0514C18.9458 85.3605 20.0292 83.9513 21.4621 83.6387C21.5375 85.2607 21.5661 86.3483 21.5314 86.606V86.607Z" fill="white"/>
<path d="M7.88136 97.3779L16.4005 100.675L14.4346 104.785L6.87646 101.83L7.88136 97.3779Z" fill="white"/>
<path d="M14.435 105.062C14.4004 105.062 14.3647 105.056 14.33 105.042L6.77194 102.088C6.64251 102.037 6.57014 101.903 6.60072 101.77L7.60561 97.3178C7.62396 97.2379 7.67594 97.171 7.74931 97.132C7.82269 97.0941 7.90932 97.0891 7.98678 97.119L16.5059 100.416C16.5783 100.444 16.6364 100.501 16.6649 100.572C16.6935 100.643 16.6914 100.723 16.6578 100.792L14.6918 104.902C14.6439 105.002 14.542 105.062 14.435 105.062ZM7.2061 101.659L14.2923 104.429L16.0168 100.823L8.08666 97.7552L7.2061 101.659Z" fill="#42444B"/>
<path d="M28.2399 100.193L27.3257 108.735L30.3078 108.952L32.3277 101.087L28.2399 100.193Z" fill="white"/>
<path d="M30.3084 109.229C30.3013 109.229 30.2942 109.229 30.287 109.229L27.305 109.012C27.2285 109.006 27.1572 108.971 27.1083 108.913C27.0594 108.856 27.0359 108.781 27.0441 108.707L27.9583 100.166C27.9664 100.087 28.0092 100.016 28.0744 99.9695C28.1397 99.9226 28.2232 99.9066 28.3017 99.9236L32.3896 100.817C32.464 100.833 32.5292 100.879 32.5689 100.943C32.6087 101.007 32.6209 101.084 32.6026 101.157L30.5826 109.021C30.551 109.145 30.4369 109.231 30.3074 109.231L30.3084 109.229ZM27.6382 108.479L30.0914 108.658L31.9819 101.297L28.4892 100.533L27.6382 108.479Z" fill="#42444B"/>
<path d="M39.5071 116.217V117.416H24.4775C24.4775 117.416 24.4775 116.851 24.5265 115.96C24.6447 113.83 25.0432 109.836 26.3997 107.269H31.948C31.948 107.269 33.4197 111.524 38.1547 114.011C38.9068 114.406 39.4062 115.139 39.4928 115.96C39.502 116.045 39.5071 116.131 39.5071 116.217Z" fill="#15CBB9"/>
<path d="M39.5071 116.218V117.417H24.4775C24.4775 117.417 24.4775 116.852 24.5265 115.961H39.4928C39.502 116.046 39.5071 116.132 39.5071 116.218Z" fill="white"/>
<path d="M39.5067 117.693H24.4772C24.3202 117.693 24.1938 117.569 24.1938 117.415C24.1938 117.393 24.1938 116.832 24.2428 115.944C24.2509 115.796 24.3753 115.682 24.5261 115.682H39.4925C39.6382 115.682 39.7595 115.79 39.7748 115.931C39.785 116.029 39.7901 116.125 39.7901 116.216V117.415C39.7901 117.569 39.6637 117.693 39.5067 117.693ZM24.7646 117.138H39.2234V116.237H24.7962C24.7778 116.623 24.7687 116.933 24.7646 117.138Z" fill="#42444B"/>
<path d="M36.9216 85.7442C36.9318 86.1038 36.6525 87.4361 36.2357 89.2059C35.0698 94.1768 32.8195 102.599 32.8195 102.599L25.3908 101.187L27.3333 84.8493C27.3333 84.8493 19.3299 71.8794 18.3097 68.4646C17.2905 65.0489 18.1843 59.0832 18.1843 59.0832C19.7742 50.406 28.2119 52.0899 29.8466 56.4185C31.1695 59.9222 34.9638 76.0692 36.3804 82.8228C36.7137 84.4139 36.9155 85.4825 36.9216 85.7432V85.7442Z" fill="#15CBB9"/>
<path d="M20.3418 73.1064C20.2398 73.1064 20.141 73.0524 20.09 72.9575C18.9802 70.8741 18.2902 69.389 18.0374 68.543C17.0122 65.1093 17.8662 59.2895 17.9039 59.0438C17.9263 58.892 18.0701 58.7871 18.226 58.8091C18.3809 58.831 18.4879 58.9729 18.4655 59.1247C18.4563 59.1836 17.5931 65.0703 18.5827 68.3872C18.8252 69.1982 19.501 70.6494 20.5935 72.6999C20.6659 72.8357 20.6118 73.0035 20.4732 73.0744C20.4314 73.0964 20.3866 73.1064 20.3428 73.1064H20.3418Z" fill="#42444B"/>
<path d="M31.5609 85.457C31.5537 85.457 31.5456 85.457 31.5385 85.457L28.0723 85.1864C27.9164 85.1744 27.8002 85.0406 27.8124 84.8877C27.8246 84.7349 27.9612 84.6221 28.1171 84.6331L31.5833 84.9037C31.7392 84.9157 31.8554 85.0495 31.8432 85.2024C31.831 85.3482 31.7076 85.458 31.5609 85.458V85.457Z" fill="#42444B"/>
<path d="M30.6967 100.645C30.6763 100.645 30.6559 100.643 30.6355 100.638C30.4826 100.605 30.3858 100.457 30.4195 100.307L33.7236 85.5425L27.8186 61.8229C27.7819 61.6741 27.8746 61.5233 28.0265 61.4873C28.1783 61.4514 28.3322 61.5423 28.3689 61.6911L34.2892 85.4726C34.2994 85.5136 34.3004 85.5565 34.2902 85.5975L30.9718 100.425C30.9423 100.555 30.8251 100.644 30.6957 100.644L30.6967 100.645Z" fill="#42444B"/>
<path d="M29.2892 66.8349C29.2097 66.8349 29.1313 66.803 29.0752 66.7401C28.9723 66.6242 28.9845 66.4494 29.1027 66.3485L29.6623 65.8701C29.9262 65.6444 30.0332 65.2869 29.9354 64.9573L29.1792 62.4104C29.1353 62.2626 29.222 62.1088 29.3718 62.0658C29.5226 62.0229 29.6796 62.1078 29.7234 62.2546L30.4796 64.8015C30.6386 65.3378 30.4643 65.9211 30.0342 66.2886L29.4747 66.767C29.4207 66.813 29.3545 66.8349 29.2882 66.8349H29.2892Z" fill="#42444B"/>
<path d="M21.1172 64.6514C21.1172 64.6514 21.2578 65.9159 21.4861 68.5626C21.4861 68.5626 22.5827 69.807 24.2827 70.4692C24.2827 70.4692 25.3222 69.82 26.9906 68.4397L26.9132 64.976C26.9132 64.976 23.5683 64.2879 21.1182 64.6514H21.1172Z" fill="white"/>
<path d="M36.922 85.7441C36.9322 86.1037 36.653 87.436 36.2361 89.2058C35.328 88.7114 34.6299 87.7556 34.4393 86.5801C34.1693 84.9101 35.0141 83.3521 36.3798 82.8237C36.7131 84.4148 36.9149 85.4834 36.921 85.7441H36.922Z" fill="white"/>
<path d="M25.1583 98.4741L34.0984 100.425L32.8122 104.785L24.876 103.025L25.1583 98.4741Z" fill="white"/>
<path d="M32.8133 105.064C32.7929 105.064 32.7715 105.062 32.7501 105.057L24.8139 103.297C24.6783 103.267 24.5856 103.145 24.5938 103.009L24.8761 98.4578C24.8812 98.3769 24.9219 98.302 24.9882 98.253C25.0544 98.2041 25.139 98.1861 25.2205 98.2041L34.1606 100.155C34.2371 100.172 34.3033 100.219 34.3431 100.285C34.3828 100.35 34.393 100.429 34.3716 100.503L33.0854 104.864C33.0497 104.985 32.9366 105.065 32.8133 105.065V105.064ZM25.1737 102.807L32.6146 104.457L33.7428 100.632L25.4213 98.8163L25.1737 102.807Z" fill="#42444B"/>
<path d="M17.9335 37.6749L12.7878 39.0891L14.5428 34.5597L10.7597 34.2231C10.7597 34.2231 5.32548 40.1548 5.66894 43.4587C6.0124 46.7626 11.7115 46.7926 18.2464 45.9157C24.7813 45.0397 17.9325 37.6759 17.9325 37.6759L17.9335 37.6749Z" fill="white"/>
<path d="M12.095 46.6797C9.39527 46.6797 7.56995 46.2682 6.49168 45.4363C5.84247 44.9359 5.4715 44.2797 5.38895 43.4847C5.03632 40.0979 10.3247 34.2821 10.55 34.0354C10.6101 33.9705 10.6967 33.9365 10.7864 33.9445L14.5696 34.2811C14.6582 34.2891 14.7377 34.337 14.7846 34.4109C14.8315 34.4848 14.8406 34.5757 14.8091 34.6566L13.2528 38.6717L17.8574 37.4062C17.9603 37.3783 18.0714 37.4092 18.1437 37.4861C18.3078 37.6629 22.1531 41.8377 21.2043 44.3996C20.8435 45.3754 19.861 45.9766 18.2864 46.1883C15.8537 46.5149 13.8001 46.6787 12.096 46.6787L12.095 46.6797ZM10.8781 34.5108C10.1668 35.3108 5.64883 40.5174 5.95254 43.4288C6.01981 44.077 6.31129 44.5903 6.84227 44.9998C8.45051 46.2403 12.1684 46.449 18.209 45.639C19.5594 45.4582 20.3879 44.9778 20.6713 44.2118C21.4204 42.1893 18.4658 38.6976 17.839 37.9885L12.8655 39.3558C12.7626 39.3838 12.6525 39.3528 12.5801 39.2759C12.5078 39.198 12.4864 39.0881 12.5241 38.9903L14.1466 34.8024L10.8781 34.5108Z" fill="#42444B"/>
<path d="M65.6418 69.5771L67.7454 72.5385L64.27 71.318C64.5819 71.1242 65.3891 70.541 65.6418 69.5781V69.5771Z" fill="#42444B"/>
<path d="M53.6856 67.4222L56.6065 64.1972C56.6116 64.1913 56.6167 64.1853 56.6218 64.1783L59.0352 60.5737L65.4549 69.6085C65.2164 70.4066 64.5774 70.9149 64.2461 71.1327L53.6846 67.4222H53.6856Z" fill="white"/>
<path d="M64.247 71.4096C64.2144 71.4096 64.1828 71.4046 64.1512 71.3937L53.5897 67.6833C53.501 67.6523 53.4337 67.5804 53.4103 67.4905C53.3868 67.4006 53.4103 67.3067 53.4725 67.2368L56.3883 64.0178L58.7976 60.4203C58.8496 60.3434 58.9362 60.2964 59.031 60.2954C59.1288 60.2954 59.2134 60.3384 59.2674 60.4143L65.6871 69.4491C65.736 69.518 65.7503 69.6049 65.7269 69.6858C65.4659 70.5597 64.7862 71.111 64.404 71.3627C64.3571 71.3937 64.301 71.4096 64.246 71.4096H64.247ZM54.1757 67.2987L64.2042 70.8224C64.5079 70.6026 64.935 70.2131 65.1429 69.6528L59.0432 61.0695L56.8591 64.3304C56.8479 64.3474 56.8337 64.3654 56.8194 64.3813L54.1757 67.2997V67.2987Z" fill="#42444B"/>
<path d="M59.0402 60.8707L65.2693 69.6358C65.0431 70.296 64.5131 70.7414 64.2227 70.9462L53.9811 67.3476L56.7359 64.3074C56.7471 64.2954 56.7573 64.2824 56.7655 64.2694L59.0413 60.8707M59.0331 60.2754L56.4811 64.0857L53.3931 67.4945L64.2706 71.3157C64.5824 71.122 65.3896 70.5387 65.6424 69.5759L59.0331 60.2754Z" fill="#42444B"/>
<path d="M14.4069 26.7188L58.7546 59.9915C59.5221 60.5678 59.5363 61.8982 58.9106 63.3454C58.6588 63.9297 58.3021 64.5329 57.8486 65.1142C57.3951 65.6945 56.8937 66.1889 56.3841 66.5804C55.1213 67.5502 53.8076 67.8838 53.0392 67.3075L8.69141 34.0337C9.06646 34.3153 10.0031 33.6122 11.0192 32.5435C11.9079 31.6087 12.8567 30.3942 13.5457 29.3095C14.3335 28.0691 14.7809 27.0004 14.4069 26.7188Z" fill="#15CBB9"/>
<path d="M55.9433 66.5274C55.8832 66.5274 55.823 66.5084 55.7711 66.4704L11.8646 33.5282C11.7402 33.4353 11.7168 33.2606 11.8116 33.1387C11.9064 33.0169 12.0847 32.9939 12.2091 33.0868L56.1155 66.028C56.2399 66.1209 56.2633 66.2956 56.1685 66.4175C56.1125 66.4884 56.0289 66.5264 55.9433 66.5264V66.5274Z" fill="#42444B"/>
<path d="M58.5712 63.3681C58.5111 63.3681 58.4509 63.3491 58.399 63.3111L14.3529 30.2641C14.2285 30.1712 14.2051 29.9964 14.2999 29.8746C14.3946 29.7527 14.573 29.7297 14.6973 29.8226L58.7434 62.8687C58.8678 62.9616 58.8912 63.1364 58.7964 63.2582C58.7404 63.3291 58.6568 63.3671 58.5712 63.3671V63.3681Z" fill="#42444B"/>
<path d="M10.504 23.791L14.4074 26.7194C15.4846 27.5274 15.08 29.8215 13.5013 31.842C11.9237 33.8615 9.77019 34.8433 8.69294 34.0353L4.78955 31.107C5.86782 31.916 8.02029 30.9332 9.59795 28.9137C11.1766 26.8932 11.5823 24.601 10.504 23.791Z" fill="#EA8696"/>
<path d="M6.60164 20.8618L10.504 23.7902C11.5823 24.5992 11.1767 26.8923 9.59798 28.9128C8.02032 30.9323 5.86785 31.9151 4.78958 31.1061L0.887207 28.1778C1.96446 28.9858 4.11795 28.004 5.69561 25.9845C7.27429 23.964 7.6789 21.6708 6.60164 20.8618Z" fill="white"/>
<path d="M5.72026 31.6673C5.30241 31.6673 4.92532 31.5575 4.61753 31.3257L0.71516 28.3974C0.590823 28.3045 0.567382 28.1297 0.662164 28.0079C0.756946 27.886 0.935299 27.863 1.05964 27.9559C1.49278 28.2805 2.17664 28.2575 2.98483 27.889C3.85214 27.4935 4.73575 26.7564 5.47159 25.8146C6.92695 23.9519 7.36621 21.7856 6.43164 21.0824C6.3073 20.9895 6.28386 20.8148 6.37864 20.6929C6.47342 20.5711 6.65177 20.5481 6.77611 20.641L10.6775 23.5684C11.2869 24.0258 11.5183 24.8687 11.3277 25.9434C11.1493 26.9542 10.6153 28.0678 9.82442 29.0805C8.55455 30.7055 6.95752 31.6663 5.72128 31.6663L5.72026 31.6673ZM2.08287 28.725L4.96201 30.8853C5.8976 31.5874 7.91757 30.6066 9.37395 28.7439C10.1098 27.8011 10.6051 26.7734 10.7692 25.8495C10.921 24.9886 10.7661 24.3364 10.333 24.0108L7.45487 21.8515C7.64342 23.013 7.10224 24.643 5.92206 26.1542C5.13221 27.1659 4.17419 27.9619 3.22434 28.3944C2.82177 28.5781 2.43856 28.688 2.08389 28.726L2.08287 28.725Z" fill="#42444B"/>
<path d="M6.6017 20.8625C7.67895 21.6705 7.27435 23.9647 5.69566 25.9852C4.118 28.0047 1.96452 28.9865 0.887262 28.1785C-0.189992 27.3705 0.214616 25.0763 1.79228 23.0568C3.37096 21.0363 5.52445 20.0545 6.6017 20.8635V20.8625Z" fill="white"/>
<path d="M1.81456 28.7397C1.39161 28.7397 1.01758 28.6259 0.714886 28.3982C0.105428 27.9417 -0.124902 27.0978 0.0646616 26.0241C0.243015 25.0134 0.777055 23.8997 1.56691 22.888C3.26585 20.7127 5.55284 19.7269 6.7738 20.6428C7.99475 21.5586 7.6197 23.9796 5.92076 26.1539C5.13091 27.1657 4.1729 27.9617 3.22304 28.3942C2.71754 28.6249 2.24057 28.7407 1.81456 28.7407V28.7397ZM5.67107 20.8555C4.63152 20.8555 3.15272 21.7724 2.01737 23.2246C1.28154 24.1664 0.786228 25.1941 0.623162 26.118C0.471307 26.9789 0.626219 27.6311 1.05936 27.9567C1.49251 28.2813 2.17636 28.2583 2.98456 27.8898C3.85186 27.4943 4.73548 26.7572 5.47131 25.8154C6.92667 23.9517 7.36593 21.7844 6.43034 21.0822C6.22447 20.9274 5.9656 20.8545 5.67209 20.8545L5.67107 20.8555Z" fill="#42444B"/>
<path d="M27.8111 34.3847C24.3867 34.8181 14.5426 38.133 14.5426 38.133C14.5426 38.133 12.4105 43.5933 17.2251 46.5596C17.2251 46.5596 25.4792 44.605 28.5061 43.1888C31.5331 41.7725 33.9933 33.6026 27.8111 34.3847Z" fill="#EA8696"/>
<path d="M32.1489 34.468L34.2219 31.4907L36.2765 32.0181L34.972 35.7634L32.1489 34.468Z" fill="white"/>
<path d="M34.9716 36.0411C34.9309 36.0411 34.8891 36.0321 34.8514 36.0151L32.0283 34.7197C31.9529 34.6847 31.8968 34.6198 31.8754 34.5419C31.854 34.464 31.8683 34.3791 31.9152 34.3122L33.9882 31.3359C34.0554 31.239 34.1777 31.1941 34.2939 31.224L36.3485 31.7514C36.425 31.7713 36.4892 31.8203 36.5269 31.8882C36.5646 31.9561 36.5707 32.036 36.5452 32.1089L35.2407 35.8543C35.2142 35.9292 35.1571 35.9891 35.0838 36.0201C35.0481 36.0351 35.0104 36.0421 34.9727 36.0421L34.9716 36.0411ZM32.5705 34.3541L34.8055 35.3799L35.9093 32.2108L34.3428 31.8083L32.5705 34.3541Z" fill="#42444B"/>
<path d="M35.149 31.3951C35.1123 31.8196 36.0784 35.2124 38.4011 34.7919C40.7238 34.3714 41.8673 29.6083 40.7951 28.4178C39.7229 27.2273 35.6494 25.6512 35.149 31.3941V31.3951Z" fill="white"/>
<path d="M38.0035 35.1067C37.4175 35.1067 36.8753 34.888 36.3851 34.4525C35.3139 33.5007 34.8309 31.7708 34.8655 31.3713C35.1213 28.429 36.3076 27.4442 37.2575 27.1376C38.7159 26.6651 40.3567 27.5131 41.007 28.2352C41.7265 29.0342 41.542 30.852 41.0651 32.2023C40.4933 33.8253 39.5404 34.868 38.4509 35.0657C38.2991 35.0937 38.1492 35.1067 38.0025 35.1067H38.0035ZM35.4311 31.4183C35.4189 31.657 35.8388 33.242 36.7968 34.068C37.2626 34.4695 37.7854 34.6213 38.349 34.5194C39.2183 34.3616 40.0337 33.4278 40.53 32.0215C41.0243 30.6202 41.0467 29.1191 40.582 28.6027C40.0102 27.9675 38.5987 27.2894 37.4358 27.6659C36.3066 28.0314 35.6126 29.3288 35.4311 31.4193V31.4183Z" fill="#42444B"/>
<path d="M33.8262 31.6043C34.2033 31.9489 35.0268 32.4113 35.9349 32.5152L36.8643 31.7452C36.8643 31.7452 36.2926 29.5739 37.4361 29.2582C38.5796 28.9426 39.0087 30.3089 38.6866 31.2897C38.3646 32.2705 41.5454 32.3055 42.1884 30.7644C42.8315 29.2233 41.367 28.0328 41.367 28.0328C41.367 28.0328 40.8666 25.8615 37.6858 25.8964C34.505 25.9314 33.3972 28.628 33.8262 31.6043Z" fill="#42444B"/>
<path d="M30.0039 34.3983C30.0039 34.3983 32.0413 33.1379 34.0419 34.0827C36.0435 35.0285 35.8998 36.9192 35.8998 36.9192L30.0029 34.3973L30.0039 34.3983Z" fill="white"/>
<path d="M35.9017 37.1964C35.863 37.1964 35.8242 37.1884 35.7886 37.1734L29.8917 34.6515C29.7959 34.6106 29.7307 34.5207 29.7225 34.4178C29.7144 34.315 29.7653 34.2171 29.854 34.1621C29.9427 34.1072 32.0483 32.8308 34.1671 33.8316C36.3175 34.8473 36.1911 36.8538 36.185 36.9387C36.1779 37.0286 36.128 37.1095 36.0485 37.1564C36.0036 37.1834 35.9527 37.1964 35.9017 37.1964ZM30.6734 34.3799L35.5949 36.4843C35.5134 35.924 35.1842 34.9292 33.9205 34.3319C32.6608 33.7367 31.3675 34.0932 30.6734 34.3799Z" fill="#42444B"/>
<path d="M7.86279 59.546C7.86279 59.546 19.5923 59.0935 32.5224 64.9763C32.5224 64.9763 32.9841 56.287 33.1686 53.2098C33.1686 53.2098 37.7864 50.8567 38.2481 50.1326C38.7097 49.4085 37.6019 39.0903 37.1402 37.2806C36.6786 35.4708 31.3218 33.6601 27.8119 34.3842C24.3019 35.1083 15.0662 40.991 7.86279 59.546Z" fill="#EA8696"/>
<path d="M15.9971 44.4607C15.9401 44.4607 15.882 44.4437 15.832 44.4088C15.7046 44.3189 15.6761 44.1461 15.7668 44.0213C20.5008 37.5563 25.1828 34.6439 27.7521 34.1135C27.906 34.0816 28.0558 34.1784 28.0874 34.3283C28.12 34.4781 28.0212 34.6259 27.8683 34.6568C25.3979 35.1662 20.8657 38.0097 16.2264 44.3448C16.1714 44.4208 16.0838 44.4607 15.9961 44.4607H15.9971Z" fill="#42444B"/>
<path d="M31.7591 63.7794C31.7112 63.7794 31.6623 63.7674 31.6175 63.7414C22.7079 58.6717 9.38648 58.5329 9.25297 58.5319C9.09602 58.5319 8.97067 58.406 8.97169 58.2522C8.97169 58.0994 9.09908 57.9766 9.25501 57.9766H9.25705C9.39158 57.9766 22.8649 58.1184 31.9028 63.261C32.0384 63.3379 32.0842 63.5077 32.0058 63.6405C31.9528 63.7294 31.858 63.7794 31.7601 63.7794H31.7591Z" fill="#42444B"/>
<path d="M33.7353 26.4115C33.7353 26.4115 32.7702 22.769 29.4824 23.2245C26.1946 23.6799 25.4445 27.5671 25.6228 30.1589C25.8012 32.7507 23.3002 33.1711 21.7276 33.2411C20.155 33.311 19.4763 38.8791 25.2651 38.4246C31.0539 37.9692 30.9113 32.9264 31.0896 30.3696C31.268 27.8128 32.3044 27.1826 33.5916 27.5681C34.8788 27.9536 33.7343 26.4125 33.7343 26.4125L33.7353 26.4115Z" fill="#42444B"/>
<path d="M33.7112 26.5566L33.0681 27.4385C32.9672 27.5774 32.9967 27.7701 33.1363 27.873L33.8385 28.3914C33.9863 28.5012 34.1983 28.4643 34.3002 28.3125L34.9301 27.3716C35.0259 27.2278 34.9871 27.036 34.8424 26.9392L34.1545 26.4797C34.0098 26.3838 33.8141 26.4178 33.7122 26.5566H33.7112Z" fill="white"/>
<path d="M34.0322 28.7328C33.9018 28.7328 33.7733 28.6918 33.6674 28.6139L32.9651 28.0955C32.7012 27.9008 32.6451 27.5412 32.8367 27.2786L33.4798 26.3966C33.6694 26.137 34.0424 26.072 34.3115 26.2508L35.0004 26.7103C35.2715 26.891 35.3459 27.2566 35.1655 27.5242L34.5357 28.4651C34.444 28.6019 34.2982 28.6958 34.1341 28.7238C34.0995 28.7298 34.0658 28.7328 34.0312 28.7328H34.0322ZM33.9731 26.7033C33.9619 26.7033 33.9497 26.7083 33.9425 26.7192L33.2994 27.6012C33.2872 27.6171 33.2913 27.6401 33.3076 27.6521L34.0098 28.1704C34.0179 28.1764 34.0281 28.1794 34.0383 28.1774C34.0485 28.1754 34.0577 28.1704 34.0638 28.1615L34.6936 27.2206C34.7049 27.2036 34.6998 27.1817 34.6835 27.1697L33.9945 26.7103C33.9884 26.7063 33.9802 26.7043 33.9731 26.7043V26.7033Z" fill="#42444B"/>
<path d="M56.2991 63.3195C56.2105 63.3994 56.0963 63.4413 55.9801 63.4413C55.9047 63.4413 55.8283 63.4234 55.7579 63.3864L54.9936 62.9779C55.176 63.5822 55.2993 64.0616 55.3289 64.2314C55.4175 64.7577 55.5643 68.2184 55.0303 68.4521C54.4942 68.6858 53.5117 65.6286 53.5117 65.6286C53.5117 65.6286 53.7502 67.6102 53.5117 67.785C53.2743 67.9597 50.0027 66.6783 49.5859 66.153C49.1701 65.6286 48.5759 63.1807 48.5759 62.7732C48.5759 62.3657 48.6748 59.8338 48.6748 59.8338C48.6748 59.8338 41.1228 56.0455 40.4084 55.4053C39.6939 54.7641 34.9365 47.4791 33.154 43.6908C31.3694 39.9015 32.3121 34.2835 36.3307 36.0732C39.9701 37.6932 45.6407 51.0747 45.6407 51.0747C45.6407 51.0747 52.623 58.2678 53.4292 59.2336C53.5933 59.4303 56.3266 62.6773 56.3266 62.6773C56.4989 62.8631 56.4856 63.1497 56.2991 63.3205V63.3195Z" fill="white"/>
<path d="M54.9703 68.7416C54.9051 68.7416 54.8378 68.7276 54.7736 68.6986C54.477 68.5678 54.1642 68.0364 53.891 67.4342C53.8533 67.8796 53.7443 67.9605 53.6821 68.0065C53.5802 68.0814 53.3662 68.2392 51.5092 67.4871C50.9681 67.2684 49.6758 66.7161 49.3639 66.3226C48.9053 65.7453 48.2938 63.2304 48.2938 62.773C48.2938 62.4234 48.3631 60.5867 48.3865 60.0004C47.1014 59.3542 40.9039 56.2251 40.219 55.6098C39.4434 54.9137 34.6472 47.5219 32.8983 43.8075C31.6132 41.0788 31.7447 37.5742 33.1857 36.1539C33.7555 35.5926 34.7838 35.0793 36.4491 35.8214C40.0743 37.4344 45.4514 49.9059 45.8835 50.9217C46.4848 51.5419 52.8678 58.1217 53.6495 59.0586C53.8085 59.2493 56.4267 62.3595 56.5429 62.4963C56.8119 62.7929 56.7905 63.2524 56.494 63.524C56.494 63.524 56.4929 63.525 56.4919 63.526C56.2616 63.7328 55.9049 63.7787 55.6256 63.6329L55.4514 63.54C55.5309 63.8307 55.589 64.0654 55.6093 64.1872C55.6583 64.4749 55.7163 65.5026 55.698 66.4584C55.6623 68.2382 55.4126 68.5918 55.1466 68.7076C55.0906 68.7316 55.0315 68.7446 54.9703 68.7446V68.7416ZM53.5119 65.3498C53.6332 65.3498 53.7443 65.4267 53.782 65.5445C54.1703 66.751 54.6707 67.8667 54.9367 68.1393C55.1976 67.583 55.167 64.9772 55.0488 64.2771C55.0233 64.1243 54.902 63.6559 54.7216 63.0566C54.689 62.9487 54.7257 62.8329 54.8154 62.762C54.9051 62.6911 55.0284 62.6811 55.1293 62.734L55.8937 63.1425C55.9609 63.1775 56.0496 63.1665 56.1067 63.1155C56.179 63.0486 56.1841 62.9358 56.1169 62.8629C56.1138 62.8599 56.1108 62.8559 56.1077 62.8529C56.0802 62.8209 53.3723 59.6039 53.2092 59.4081C52.4194 58.4613 45.5043 51.3371 45.435 51.2652C45.4116 51.2403 45.3922 51.2113 45.379 51.1803C45.3229 51.0475 39.7094 37.8818 36.2127 36.3247C35.113 35.8353 34.2294 35.9082 33.5853 36.5435C32.3174 37.7929 32.2359 41.0778 33.411 43.5728C35.2169 47.409 39.9815 54.644 40.6001 55.1984C41.1036 55.6498 45.7826 58.0688 48.8044 59.5849C48.9022 59.6339 48.9624 59.7347 48.9583 59.8426C48.9583 59.8676 48.8594 62.3725 48.8594 62.771C48.8594 63.1295 49.4454 65.5206 49.8103 65.98C50.1059 66.3525 52.6313 67.3942 53.3183 67.5101C53.3621 67.1925 53.3142 66.3575 53.2306 65.6584C53.2133 65.5156 53.3101 65.3847 53.4528 65.3548C53.4732 65.3508 53.4925 65.3488 53.5119 65.3488V65.3498Z" fill="#42444B"/>
<path d="M36.9514 51.6121C36.9514 51.6121 39.3821 52.9075 41.8546 51.3614C44.3281 49.8154 44.0295 47.0578 44.0295 47.0578C44.0295 47.0578 40.0639 37.8652 37.1216 36.2352C34.1793 34.6052 31.8862 35.9705 31.7578 39.3973C31.5896 43.9137 36.9504 51.6121 36.9504 51.6121H36.9514Z" fill="#EA8696"/>
<path d="M38.6275 50.821C37.7296 50.821 37.0641 50.6093 37.0121 50.5923C36.8634 50.5434 36.7839 50.3866 36.8328 50.2407C36.8827 50.0949 37.0427 50.017 37.1915 50.065C37.2231 50.0749 39.3114 50.7281 40.9645 49.5826C42.7123 48.3701 42.5217 46.3945 42.5197 46.3745C42.5034 46.2217 42.6165 46.0849 42.7724 46.0689C42.9284 46.0529 43.068 46.1638 43.0843 46.3166C43.0945 46.4105 43.3085 48.6387 41.2926 50.036C40.4019 50.6542 39.4235 50.821 38.6275 50.821Z" fill="#42444B"/>
<path d="M36.2643 50.8495C36.1695 50.8495 36.0778 50.8036 36.0237 50.7187C34.6112 48.5084 31.3407 42.9803 31.4752 39.3867C31.5262 38.0104 31.9206 36.9018 32.6136 36.1787C32.7206 36.0668 32.9 36.0618 33.0142 36.1667C33.1283 36.2716 33.1334 36.4474 33.0264 36.5592C32.4281 37.1825 32.0877 38.1672 32.0419 39.4067C31.9135 42.8464 35.1197 48.2567 36.5048 50.4231C36.5884 50.5529 36.5476 50.7247 36.4151 50.8056C36.3682 50.8345 36.3162 50.8475 36.2653 50.8475L36.2643 50.8495Z" fill="#42444B"/>
<path d="M15.1095 5.86345C14.9525 5.86345 14.8262 5.7396 14.8262 5.58579V4.33234C14.8262 4.17853 14.9525 4.05469 15.1095 4.05469C15.2664 4.05469 15.3928 4.17853 15.3928 4.33234V5.58579C15.3928 5.7396 15.2664 5.86345 15.1095 5.86345Z" fill="#42444B"/>
<path d="M17.0389 6.50062H15.7599C15.6029 6.50062 15.4766 6.37678 15.4766 6.22297C15.4766 6.06916 15.6029 5.94531 15.7599 5.94531H17.0389C17.1959 5.94531 17.3223 6.06916 17.3223 6.22297C17.3223 6.37678 17.1959 6.50062 17.0389 6.50062Z" fill="#42444B"/>
<path d="M15.1095 8.39079C14.9525 8.39079 14.8262 8.26694 14.8262 8.11313V6.85969C14.8262 6.70588 14.9525 6.58203 15.1095 6.58203C15.2664 6.58203 15.3928 6.70588 15.3928 6.85969V8.11313C15.3928 8.26694 15.2664 8.39079 15.1095 8.39079Z" fill="#42444B"/>
<path d="M14.4589 6.50062H13.1798C13.0229 6.50062 12.8965 6.37678 12.8965 6.22297C12.8965 6.06916 13.0229 5.94531 13.1798 5.94531H14.4589C14.6158 5.94531 14.7422 6.06916 14.7422 6.22297C14.7422 6.37678 14.6158 6.50062 14.4589 6.50062Z" fill="#42444B"/>
<path d="M134.803 98.4567C134.646 98.4567 134.52 98.3329 134.52 98.1791V96.9256C134.52 96.7718 134.646 96.6479 134.803 96.6479C134.96 96.6479 135.086 96.7718 135.086 96.9256V98.1791C135.086 98.3329 134.96 98.4567 134.803 98.4567Z" fill="#42444B"/>
<path d="M136.733 99.0939H135.454C135.297 99.0939 135.17 98.97 135.17 98.8162C135.17 98.6624 135.297 98.5386 135.454 98.5386H136.733C136.89 98.5386 137.016 98.6624 137.016 98.8162C137.016 98.97 136.89 99.0939 136.733 99.0939Z" fill="#42444B"/>
<path d="M134.803 100.985C134.646 100.985 134.52 100.861 134.52 100.707V99.4534C134.52 99.2996 134.646 99.1758 134.803 99.1758C134.96 99.1758 135.086 99.2996 135.086 99.4534V100.707C135.086 100.861 134.96 100.985 134.803 100.985Z" fill="#42444B"/>
<path d="M134.153 99.0939H132.874C132.717 99.0939 132.59 98.97 132.59 98.8162C132.59 98.6624 132.717 98.5386 132.874 98.5386H134.153C134.31 98.5386 134.436 98.6624 134.436 98.8162C134.436 98.97 134.31 99.0939 134.153 99.0939Z" fill="#42444B"/>
<path d="M17.6073 21.3265C17.9213 21.3265 18.176 21.077 18.176 20.7692C18.176 20.4614 17.9213 20.2119 17.6073 20.2119C17.2932 20.2119 17.0386 20.4614 17.0386 20.7692C17.0386 21.077 17.2932 21.3265 17.6073 21.3265Z" fill="#15CBB9"/>
<path d="M128.611 91.7766C129.166 91.7766 129.615 91.3362 129.615 90.7929C129.615 90.2495 129.166 89.8091 128.611 89.8091C128.057 89.8091 127.607 90.2495 127.607 90.7929C127.607 91.3362 128.057 91.7766 128.611 91.7766Z" fill="#EA8696"/>
</svg>
