<svg width="127" height="127" viewBox="0 0 127 127" fill="none" xmlns="http://www.w3.org/2000/svg">
<g clip-path="url(#clip0_502_6560)">
<path d="M56.5963 122.613H40.571C40.571 122.613 38.8098 121.949 37.1813 120.935C35.6223 119.967 34.1842 118.678 34.5255 117.345C34.8016 116.269 35.863 116.302 36.9148 116.64C38.0779 117.016 39.2282 117.767 39.2849 117.803C39.2442 117.761 38.4203 116.91 37.2915 115.57C34.2677 111.981 29.0546 104.88 30.834 100.395C31.9757 97.5186 36.2375 98.8233 41.1124 102.566C43.1625 104.139 45.3197 106.143 47.3997 108.449C51.0377 112.481 54.435 117.433 56.5963 122.613Z" fill="#15CBB9"/>
<path d="M47.3997 108.449C47.3815 110.575 46.6218 112.747 44.1394 114.071C40.45 116.038 40.7154 120.162 41.2697 122.614H40.571C40.571 122.614 38.8097 121.949 37.1812 120.936C36.7885 119.712 36.5328 118.173 36.9148 116.64C38.0779 117.016 39.2281 117.767 39.2848 117.803C39.2442 117.762 38.4203 116.91 37.2914 115.57C37.7034 114.687 38.371 113.833 39.394 113.068C43.0951 110.303 42.0679 105.318 41.1124 102.566C43.1625 104.14 45.3196 106.144 47.3997 108.449Z" fill="#EA8696"/>
<path d="M46.1744 115.753C42.6349 118.285 43.5958 124.051 47.1085 120.499C50.6203 116.946 49.4979 113.375 46.1744 115.753Z" fill="#EA8696"/>
<path d="M52.588 122.614H51.7876C51.0621 121.811 49.8552 120.472 48.416 118.868C47.6189 117.978 46.7511 117.007 45.8545 116.002C45.2906 115.368 44.7149 114.72 44.1393 114.071C43.1688 112.975 42.1972 111.874 41.276 110.821C37.0762 106.02 33.9358 102.244 36.7541 104.777C38.22 106.095 39.931 107.853 41.6847 109.766C42.7964 110.978 43.9263 112.251 45.0209 113.514C45.5827 114.16 46.1337 114.804 46.6698 115.434C47.4391 116.34 48.1764 117.219 48.8601 118.041C50.5057 120.023 51.8432 121.682 52.588 122.614Z" fill="white"/>
<path d="M68.6561 119.134C67.3122 120.61 65.995 121.808 65.4012 122.33C65.1925 122.513 65.0738 122.613 65.0738 122.613H56.5962C57.4447 119.832 58.9159 117.325 60.6365 115.273C61.4015 114.36 62.2158 113.536 63.0461 112.819C66.6467 109.705 70.5532 108.578 72.0822 110.722C73.6145 112.871 71.0914 116.46 68.6561 119.134Z" fill="#15CBB9"/>
<path d="M68.6563 119.134C67.3124 120.61 65.9953 121.808 65.4014 122.33C65.6101 120.983 65.1756 119.515 63.0913 118.423C61.5163 117.598 60.8325 116.455 60.6367 115.273C61.4018 114.359 62.216 113.536 63.0463 112.818C62.75 114.124 62.9918 115.418 64.8546 115.811C67.199 116.305 68.2155 117.87 68.6563 119.134Z" fill="#EA8696"/>
<path d="M61.1008 122.613H59.8853C61.5748 120.329 66.5866 113.688 68.8187 112.223C70.1765 111.333 63.259 119.945 61.1008 122.613Z" fill="white"/>
<path d="M22.0518 9.04075L25.3731 24.6541C25.5453 25.4658 25.0264 26.1246 24.2143 26.1246H5.43689C4.62476 26.1246 3.82548 25.4658 3.65321 24.6541L0.330867 9.04075C0.158598 8.22907 0.677546 7.57031 1.48967 7.57031H20.2681C21.0802 7.57031 21.8795 8.22907 22.0518 9.04075Z" fill="white"/>
<path d="M24.2151 26.4217H5.43671C4.47692 26.4217 3.56528 25.6721 3.36198 24.716L0.0407145 9.10262C-0.0630751 8.61497 0.0353645 8.15298 0.319984 7.80328C0.596043 7.46214 1.01227 7.27393 1.49056 7.27393H20.269C21.2288 7.27393 22.1404 8.02358 22.3437 8.97964L25.665 24.593C25.7688 25.0807 25.6693 25.5427 25.3857 25.8924C25.1097 26.2335 24.6934 26.4217 24.2151 26.4217ZM1.48949 7.86745C1.19417 7.86745 0.942721 7.9776 0.781152 8.17651C0.612092 8.38504 0.556453 8.66951 0.621722 8.97857L3.94299 24.592C4.0853 25.2614 4.76903 25.8271 5.43671 25.8271H24.2151C24.5105 25.8271 24.7619 25.717 24.9235 25.5181C25.0925 25.3095 25.1482 25.0251 25.0829 24.716L21.7616 9.10262C21.6193 8.43317 20.9356 7.86745 20.2679 7.86745H1.48949Z" fill="#3F424A"/>
<path d="M22.0517 9.04075L22.3641 10.5112H0.644282L0.331844 9.04075C0.159574 8.22907 0.678522 7.57031 1.49065 7.57031H20.2691C21.0812 7.57031 21.8805 8.22907 22.0528 9.04075H22.0517Z" fill="#EA8696"/>
<path d="M22.3651 10.8083H0.644192C0.504023 10.8083 0.383113 10.7099 0.353153 10.5731L0.0407145 9.10262C-0.0630751 8.61497 0.0353645 8.15298 0.319984 7.80328C0.596043 7.46214 1.01227 7.27393 1.49056 7.27393H20.269C21.2288 7.27393 22.1404 8.02358 22.3437 8.97964L22.6562 10.4501C22.6743 10.5378 22.6529 10.6287 22.5962 10.6992C22.5395 10.7688 22.455 10.8094 22.3651 10.8094V10.8083ZM0.884942 10.2148H21.9981L21.7616 9.10262C21.6193 8.43317 20.9356 7.86745 20.2679 7.86745H1.48949C1.19417 7.86745 0.942721 7.9776 0.781152 8.17651C0.612093 8.38504 0.556453 8.66951 0.621722 8.97857L0.884942 10.2137V10.2148Z" fill="#EA8696"/>
<path d="M20.1932 24.5505L20.466 25.8306H9.06198L8.78913 24.5505C8.53126 23.34 9.04914 22.2545 10.0902 21.8235L13.602 20.3691L17.7322 21.8235C18.9562 22.2545 19.9353 23.34 20.1932 24.5505Z" fill="#15CBB9"/>
<path d="M11.4255 26.1278C11.2886 26.1278 11.1644 26.0326 11.1356 25.8925L10.8552 24.5772C10.821 24.4168 10.9237 24.2596 11.0842 24.2253C11.2447 24.1911 11.402 24.2938 11.4362 24.4542L11.7166 25.7696C11.7508 25.93 11.6481 26.0872 11.4876 26.1214C11.4673 26.1257 11.4459 26.1278 11.4255 26.1278Z" fill="#3F424A"/>
<path d="M15.8444 21.8136C16.1258 23.1344 14.6567 23.236 14.6567 23.236C14.6567 23.236 14.4341 22.097 13.9697 22.097C13.5053 22.097 13.7675 23.236 13.7675 23.236C13.7675 23.236 12.2556 23.1344 11.9742 21.8136C11.7548 20.7838 12.2963 20.2427 12.2963 20.2427H14.8546C14.8546 20.2427 15.6261 20.7838 15.8444 21.8136Z" fill="white"/>
<path d="M14.6557 23.5335C14.5144 23.5335 14.3914 23.434 14.3646 23.2939C14.2865 22.8972 14.1175 22.5229 14.0062 22.4202C13.973 22.5625 13.9923 22.8908 14.0565 23.171C14.0768 23.2629 14.0533 23.3581 13.9923 23.4298C13.9313 23.5014 13.8403 23.5399 13.7462 23.5335C13.1459 23.4928 11.9411 23.095 11.6822 21.877C11.4328 20.7028 12.0577 20.0611 12.0845 20.0344C12.1401 19.9788 12.2161 19.9478 12.2942 19.9478H14.8526C14.9135 19.9478 14.9735 19.967 15.0238 20.0012C15.0591 20.0258 15.8926 20.6226 16.1333 21.7529C16.2307 22.2106 16.1612 22.601 15.9258 22.9122C15.5053 23.4693 14.7081 23.5303 14.6749 23.5324C14.6685 23.5324 14.661 23.5324 14.6546 23.5324L14.6557 23.5335ZM13.9687 21.801C14.4877 21.801 14.7573 22.4587 14.8793 22.895C15.0633 22.8459 15.3084 22.7475 15.4539 22.5528C15.5812 22.3828 15.6133 22.1614 15.5534 21.8759C15.3972 21.1434 14.9275 20.6889 14.7509 20.5402H12.4386C12.3274 20.707 12.1283 21.1134 12.2642 21.7518C12.4162 22.4641 13.0068 22.7517 13.407 22.8662C13.3792 22.5689 13.392 22.2085 13.5611 21.9957C13.6617 21.8695 13.8061 21.8 13.9687 21.8V21.801Z" fill="#3F424A"/>
<path d="M14.7703 21.0439C14.7703 21.0439 14.7318 21.5808 13.8598 21.5808C12.9877 21.5808 12.7202 21.0439 12.7202 21.0439L12.6753 20.043H14.3894L14.7703 21.0439Z" fill="white"/>
<path d="M13.86 21.8779C12.8157 21.8779 12.469 21.2053 12.4551 21.1764C12.4369 21.139 12.4262 21.0983 12.4241 21.0577L12.3791 20.0567C12.3759 19.9754 12.4048 19.8963 12.4615 19.8386C12.5172 19.7797 12.5953 19.7466 12.6766 19.7466H14.3918C14.5149 19.7477 14.6251 19.8236 14.6689 19.9391L15.0499 20.939C15.0648 20.9796 15.0713 21.0224 15.068 21.0662C15.0477 21.3475 14.7695 21.879 13.8611 21.879L13.86 21.8779ZM13.0137 20.9518C13.0886 21.0481 13.3261 21.2844 13.86 21.2844C14.288 21.2844 14.4186 21.14 14.4592 21.0598L14.1853 20.3412H12.9869L13.0147 20.9518H13.0137Z" fill="#3F424A"/>
<path d="M18.1013 26.1278C17.9643 26.1278 17.8402 26.0326 17.8113 25.8925L17.531 24.5772C17.4968 24.4168 17.5995 24.2596 17.76 24.2253C17.9205 24.1911 18.0778 24.2938 18.112 24.4542L18.3923 25.7696C18.4266 25.93 18.3239 26.0872 18.1634 26.1214C18.143 26.1257 18.1216 26.1278 18.1013 26.1278Z" fill="#3F424A"/>
<path d="M10.2817 18.2154H10.1329C9.81515 18.2154 9.50271 17.9576 9.4353 17.6411L9.3069 17.0401C9.23949 16.7225 9.44172 16.4658 9.75951 16.4658H9.90824C10.226 16.4658 10.5385 16.7235 10.6059 17.0401L10.7343 17.6411C10.8017 17.9587 10.5995 18.2154 10.2817 18.2154Z" fill="white"/>
<path d="M10.2815 18.5116H10.1328C9.67592 18.5116 9.2415 18.1555 9.1452 17.7021L9.0168 17.1011C8.96544 16.8594 9.01787 16.6188 9.16232 16.4413C9.30356 16.2669 9.52184 16.1675 9.76045 16.1675H9.90918C10.3661 16.1675 10.8005 16.5236 10.8968 16.977L11.0241 17.578C11.0755 17.8197 11.023 18.0603 10.8786 18.2379C10.7374 18.4122 10.5191 18.5116 10.2805 18.5116H10.2815ZM9.76045 16.761C9.71765 16.761 9.65987 16.7706 9.62456 16.8145C9.59353 16.853 9.58497 16.9107 9.59888 16.977L9.72728 17.578C9.7658 17.7588 9.95626 17.9181 10.1339 17.9181H10.2826C10.3254 17.9181 10.3832 17.9085 10.4185 17.8646C10.4495 17.8261 10.4581 17.7684 10.4442 17.7021L10.3168 17.1011C10.2783 16.9203 10.0879 16.761 9.91025 16.761H9.76152H9.76045Z" fill="#3F424A"/>
<path d="M16.081 18.2154H15.9323C15.6145 18.2154 15.302 17.9576 15.2346 17.6411L15.1062 17.0401C15.0388 16.7225 15.241 16.4658 15.5588 16.4658H15.7076C16.0253 16.4658 16.3378 16.7235 16.4052 17.0401L16.5336 17.6411C16.601 17.9587 16.3988 18.2154 16.081 18.2154Z" fill="white"/>
<path d="M16.0808 18.5116H15.932C15.4751 18.5116 15.0407 18.1555 14.9444 17.7021L14.8171 17.1011C14.7657 16.8594 14.8182 16.6188 14.9626 16.4413C15.1039 16.2669 15.3221 16.1675 15.5607 16.1675H15.7095C16.1664 16.1675 16.6008 16.5236 16.6971 16.977L16.8244 17.578C16.8758 17.8197 16.8233 18.0603 16.6789 18.2379C16.5376 18.4122 16.3194 18.5116 16.0808 18.5116ZM15.5597 16.761C15.5169 16.761 15.4591 16.7706 15.4238 16.8145C15.3928 16.853 15.3842 16.9107 15.3981 16.977L15.5254 17.578C15.564 17.7588 15.7544 17.9181 15.932 17.9181H16.0808C16.1236 17.9181 16.1813 17.9085 16.2167 17.8646C16.2477 17.8261 16.2562 17.7684 16.2423 17.7021L16.115 17.1011C16.0765 16.9203 15.886 16.761 15.7084 16.761H15.5597Z" fill="#3F424A"/>
<path d="M13.9059 20.5895H13.3195C12.0633 20.5895 10.8296 19.5725 10.5621 18.317L10.0817 16.0606C9.81421 14.8051 10.6167 13.7881 11.8718 13.7881H12.4582C13.7143 13.7881 14.948 14.8051 15.2155 16.0606L15.696 18.317C15.9635 19.5725 15.161 20.5895 13.9059 20.5895Z" fill="white"/>
<path d="M13.9058 20.8868H13.3194C11.9327 20.8868 10.5653 19.7617 10.2721 18.379L9.79167 16.1225C9.64187 15.4167 9.78311 14.7516 10.1897 14.2489C10.5856 13.7602 11.1837 13.4907 11.8728 13.4907H12.4592C13.8459 13.4907 15.2133 14.6157 15.5065 15.9985L15.9869 18.2549C16.1367 18.9608 15.9955 19.6259 15.5889 20.1286C15.193 20.6173 14.5949 20.8868 13.9058 20.8868ZM11.8728 14.0853C11.3667 14.0853 10.9323 14.2767 10.6519 14.6232C10.3598 14.9836 10.2614 15.4723 10.3737 15.9996L10.8542 18.256C11.0928 19.3789 12.1992 20.2932 13.3205 20.2932H13.9069C14.413 20.2932 14.8474 20.1018 15.1277 19.7553C15.4199 19.3949 15.5183 18.9062 15.4059 18.379L14.9255 16.1225C14.6869 14.9997 13.5805 14.0853 12.4592 14.0853H11.8728Z" fill="#3F424A"/>
<path d="M10.3062 17.1127C10.3062 17.1127 9.18806 16.1171 9.14954 14.9397C9.11102 13.7622 10.0922 14.0488 10.0922 14.0488C10.0922 14.0488 9.88891 12.3132 12.0899 12.2223C14.2909 12.1314 17.4452 14.4713 15.4882 17.3383L14.9115 16.116C14.9115 16.116 12.2921 16.2967 10.5705 15.0894C10.5705 15.0894 11.0413 16.7341 10.3062 17.1116V17.1127Z" fill="#3F424A"/>
<path d="M14.9048 19.0142C14.7561 19.2142 14.4415 19.2227 14.1997 19.0324C14.0381 18.9041 13.8444 18.8335 13.6582 18.8335H12.8172C12.631 18.8335 12.4673 18.9051 12.3603 19.0324C12.1988 19.2227 11.881 19.2142 11.6477 19.0142L10.4985 18.0239C11.1256 20.9712 13.6582 20.8108 13.6582 20.8108C13.6582 20.8108 16.2594 20.9712 15.6324 18.0239L14.9048 19.0142ZM14.2981 20.1863C14.251 20.2451 14.1783 20.2782 14.0959 20.2782C14.0135 20.2782 13.9257 20.2462 13.854 20.1863L13.5491 20.043H13.4432L13.1992 20.1863C13.1521 20.2451 13.0794 20.2782 12.997 20.2782C12.9146 20.2782 12.8268 20.2462 12.7552 20.1863L12.3068 19.8173L12.4406 19.6462C12.57 19.4815 12.7723 19.3906 13.0045 19.3906H13.7096C13.9418 19.3906 14.1836 19.4826 14.3826 19.6462L14.5891 19.8173L14.2981 20.1863Z" fill="#3F424A"/>
<path d="M62.1585 15.713H28.9758C28.0631 15.713 27.1664 14.974 26.9727 14.0618C26.7791 13.1496 27.3611 12.4106 28.2738 12.4106H61.4566C62.3693 12.4106 63.2659 13.1496 63.4596 14.0618C63.6533 14.974 63.0712 15.713 62.1585 15.713Z" fill="white"/>
<path d="M62.1583 16.0101H28.9756C27.9142 16.0101 26.9063 15.1813 26.6816 14.1237C26.5671 13.5868 26.6762 13.0789 26.9865 12.6949C27.2904 12.3207 27.7462 12.1143 28.2726 12.1143H61.4554C62.5168 12.1143 63.5247 12.9431 63.7494 14.0007C63.8639 14.5375 63.7548 15.0455 63.4445 15.4294C63.1406 15.8037 62.6848 16.0101 62.1583 16.0101ZM28.2726 12.7078C27.9292 12.7078 27.6371 12.8361 27.4487 13.0682C27.2529 13.3109 27.1866 13.6414 27.2626 13.9996C27.4284 14.7803 28.1967 15.4155 28.9756 15.4155H62.1583C62.5018 15.4155 62.7939 15.2872 62.9822 15.0551C63.1781 14.8124 63.2444 14.4819 63.1684 14.1237C63.0026 13.343 62.2343 12.7078 61.4554 12.7078H28.2726Z" fill="#3F424A"/>
<path d="M43.3704 21.2848H30.1613C29.2486 21.2848 28.3519 20.5458 28.1583 19.6336C27.9646 18.7214 28.5467 17.9824 29.4594 17.9824H42.6685C43.5812 17.9824 44.4779 18.7214 44.6715 19.6336C44.8652 20.5458 44.2831 21.2848 43.3704 21.2848Z" fill="white"/>
<path d="M43.3703 21.5819H30.1612C29.0997 21.5819 28.0918 20.7531 27.8671 19.6955C27.7526 19.1586 27.8617 18.6506 28.1731 18.2667C28.477 17.8924 28.9328 17.686 29.4592 17.686H42.6694C43.7308 17.686 44.7388 18.5148 44.9635 19.5725C45.078 20.1093 44.9688 20.6173 44.6575 21.0012C44.3536 21.3755 43.8978 21.5819 43.3713 21.5819H43.3703ZM29.4582 18.2796C29.1147 18.2796 28.8226 18.4079 28.6343 18.6399C28.4385 18.8827 28.3721 19.2132 28.4481 19.5714C28.6139 20.3521 29.3822 20.9873 30.1612 20.9873H43.3703C43.7137 20.9873 44.0058 20.859 44.1942 20.6269C44.39 20.3842 44.4563 20.0537 44.3803 19.6955C44.2145 18.9148 43.4462 18.2796 42.6673 18.2796H29.4571H29.4582Z" fill="#3F424A"/>
<path d="M27.9961 36.9812L31.3174 52.5946C31.4897 53.4063 30.9707 54.065 30.1586 54.065H11.3802C10.568 54.065 9.76874 53.4063 9.59647 52.5946L6.2752 36.9812C6.10293 36.1695 6.62188 35.5107 7.43401 35.5107H26.2124C27.0246 35.5107 27.8239 36.1695 27.9961 36.9812Z" fill="white"/>
<path d="M30.1588 54.3622H11.3804C10.4206 54.3622 9.50897 53.6125 9.30567 52.6564L5.9844 37.043C5.88061 36.5554 5.98012 36.0934 6.26367 35.7437C6.53973 35.4026 6.95596 35.2144 7.43425 35.2144H26.2127C27.1725 35.2144 28.0841 35.964 28.2874 36.9201L31.6087 52.5335C31.7125 53.0211 31.613 53.4831 31.3294 53.8328C31.0533 54.1739 30.6371 54.3622 30.1588 54.3622ZM7.43318 35.8079C7.13786 35.8079 6.88641 35.918 6.72484 36.1169C6.55578 36.3255 6.50014 36.6099 6.56541 36.919L9.88668 52.5324C10.029 53.2018 10.7127 53.7676 11.3804 53.7676H30.1588C30.4541 53.7676 30.7056 53.6574 30.8672 53.4585C31.0362 53.25 31.0919 52.9655 31.0266 52.6564L27.7053 37.043C27.563 36.3736 26.8793 35.8079 26.2116 35.8079H7.43318Z" fill="#3F424A"/>
<path d="M27.9961 36.9812L28.3086 38.4516H6.58764L6.2752 36.9812C6.10293 36.1695 6.62188 35.5107 7.43401 35.5107H26.2124C27.0246 35.5107 27.8239 36.1695 27.9961 36.9812Z" fill="#EA8696"/>
<path d="M28.3088 38.7488H6.58788C6.44771 38.7488 6.3268 38.6504 6.29684 38.5135L5.9844 37.043C5.88061 36.5554 5.98012 36.0934 6.26367 35.7437C6.53973 35.4026 6.95596 35.2144 7.43425 35.2144H26.2127C27.1725 35.2144 28.0841 35.964 28.2874 36.9201L28.5998 38.3905C28.618 38.4782 28.5966 38.5691 28.5399 38.6397C28.4832 38.7092 28.3987 38.7498 28.3088 38.7498V38.7488ZM6.82863 38.1552H27.9418L27.7053 37.043C27.563 36.3736 26.8793 35.8079 26.2116 35.8079H7.43318C7.13786 35.8079 6.88641 35.918 6.72484 36.1169C6.55578 36.3255 6.50014 36.6099 6.56541 36.919L6.82863 38.1542V38.1552Z" fill="#EA8696"/>
<path d="M26.1365 52.491L26.4094 53.7711H15.0053L14.7325 52.491C14.4746 51.2804 14.9925 50.1949 16.0336 49.764L19.5453 48.3096L23.6755 49.764C24.8996 50.1949 25.8786 51.2804 26.1365 52.491Z" fill="#15CBB9"/>
<path d="M17.3689 54.0682C17.2319 54.0682 17.1078 53.9731 17.0789 53.833L16.7986 52.5176C16.7643 52.3572 16.8671 52.2 17.0276 52.1658C17.1881 52.1315 17.3453 52.2342 17.3796 52.3946L17.6599 53.71C17.6942 53.8704 17.5914 54.0276 17.4309 54.0618C17.4106 54.0661 17.3892 54.0682 17.3689 54.0682Z" fill="#3F424A"/>
<path d="M21.7882 49.7546C22.0696 51.0753 20.6005 51.1769 20.6005 51.1769C20.6005 51.1769 20.378 50.038 19.9136 50.038C19.4492 50.038 19.7113 51.1769 19.7113 51.1769C19.7113 51.1769 18.1994 51.0753 17.918 49.7546C17.6987 48.7247 18.2401 48.1836 18.2401 48.1836H20.7985C20.7985 48.1836 21.5699 48.7247 21.7882 49.7546Z" fill="white"/>
<path d="M20.5994 51.474C20.4582 51.474 20.3351 51.3746 20.3084 51.2345C20.2303 50.8377 20.0612 50.4623 19.9499 50.3608C19.9168 50.5041 19.936 50.8313 20.0002 51.1104C20.0216 51.2024 19.9981 51.2976 19.9371 51.3692C19.8761 51.4409 19.7852 51.4794 19.691 51.4729C19.0907 51.4323 17.8859 51.0345 17.627 49.8164C17.3777 48.6422 18.0026 48.0006 18.0293 47.9738C18.0849 47.9182 18.1609 47.8872 18.239 47.8872H20.7974C20.8584 47.8872 20.9183 47.9065 20.9686 47.9407C21.0039 47.9653 21.8385 48.562 22.0792 49.6924C22.1766 50.1501 22.1071 50.5404 21.8717 50.8516C21.4511 51.4088 20.654 51.4697 20.6208 51.4719C20.6144 51.4719 20.6069 51.4719 20.6005 51.4719L20.5994 51.474ZM19.9125 49.7416C20.4314 49.7416 20.7011 50.3993 20.8231 50.8356C21.0071 50.7864 21.2521 50.688 21.3976 50.4934C21.525 50.3233 21.5571 50.102 21.4972 49.8164C21.3409 49.0839 20.8712 48.6294 20.6947 48.4807H18.3824C18.2711 48.6476 18.0721 49.0539 18.208 49.6924C18.3599 50.4046 18.9506 50.6923 19.3507 50.8067C19.3229 50.5094 19.3358 50.149 19.5048 49.9362C19.6054 49.81 19.7499 49.7405 19.9125 49.7405V49.7416Z" fill="#3F424A"/>
<path d="M20.7137 48.9844C20.7137 48.9844 20.6752 49.5212 19.8031 49.5212C18.9311 49.5212 18.6636 48.9844 18.6636 48.9844L18.6187 47.9834H20.3328L20.7137 48.9844Z" fill="white"/>
<path d="M19.8034 49.8183C18.7591 49.8183 18.4124 49.1457 18.3985 49.1168C18.3803 49.0794 18.3696 49.0387 18.3674 48.9981L18.3225 47.9971C18.3193 47.9159 18.3482 47.8367 18.4049 47.779C18.4605 47.7202 18.5386 47.687 18.62 47.687H20.3352C20.4582 47.6881 20.5684 47.764 20.6123 47.8795L20.9932 48.8794C21.0082 48.92 21.0146 48.9628 21.0114 49.0067C20.9911 49.2879 20.7129 49.8194 19.8045 49.8194L19.8034 49.8183ZM18.957 48.8922C19.0319 48.9885 19.2695 49.2248 19.8034 49.2248C20.2314 49.2248 20.3619 49.0805 20.4026 49.0002L20.1287 48.2816H18.9303L18.9581 48.8922H18.957Z" fill="#3F424A"/>
<path d="M24.0447 54.0682C23.9077 54.0682 23.7836 53.9731 23.7547 53.833L23.4744 52.5176C23.4401 52.3572 23.5428 52.2 23.7033 52.1658C23.8638 52.1315 24.0211 52.2342 24.0554 52.3946L24.3357 53.71C24.3699 53.8704 24.2672 54.0276 24.1067 54.0618C24.0864 54.0661 24.065 54.0682 24.0447 54.0682Z" fill="#3F424A"/>
<path d="M16.2265 46.1558H16.0778C15.76 46.1558 15.4475 45.8981 15.3801 45.5815L15.2517 44.9805C15.1843 44.6629 15.3865 44.4062 15.7043 44.4062H15.8531C16.1709 44.4062 16.4833 44.664 16.5507 44.9805L16.6791 45.5815C16.7465 45.8991 16.5443 46.1558 16.2265 46.1558Z" fill="white"/>
<path d="M16.2263 46.4521H16.0775C15.6207 46.4521 15.1862 46.0959 15.0899 45.6425L14.9626 45.0415C14.9112 44.7998 14.9637 44.5592 15.1081 44.3817C15.2494 44.2074 15.4676 44.1079 15.7062 44.1079H15.855C16.3119 44.1079 16.7463 44.464 16.8426 44.9175L16.9699 45.5185C17.0213 45.7601 16.9688 46.0008 16.8244 46.1783C16.6832 46.3526 16.4649 46.4521 16.2263 46.4521ZM15.7052 44.7014C15.6624 44.7014 15.6046 44.7111 15.5693 44.7549C15.5383 44.7934 15.5297 44.8511 15.5436 44.9175L15.6709 45.5185C15.7095 45.6992 15.8999 45.8585 16.0775 45.8585H16.2263C16.2691 45.8585 16.3268 45.8489 16.3622 45.8051C16.3932 45.7666 16.4017 45.7088 16.3878 45.6425L16.2605 45.0415C16.222 44.8608 16.0315 44.7014 15.8539 44.7014H15.7052Z" fill="#3F424A"/>
<path d="M22.0248 46.1558H21.8761C21.5583 46.1558 21.2459 45.8981 21.1785 45.5815L21.0501 44.9805C20.9827 44.6629 21.1849 44.4062 21.5027 44.4062H21.6514C21.9692 44.4062 22.2816 44.664 22.349 44.9805L22.4774 45.5815C22.5449 45.8991 22.3426 46.1558 22.0248 46.1558Z" fill="white"/>
<path d="M22.0246 46.4521H21.8759C21.419 46.4521 20.9846 46.0959 20.8883 45.6425L20.7609 45.0415C20.7096 44.7998 20.762 44.5592 20.9065 44.3817C21.0477 44.2074 21.266 44.1079 21.5046 44.1079H21.6533C22.1102 44.1079 22.5446 44.464 22.6409 44.9175L22.7683 45.5185C22.8196 45.7601 22.7672 46.0008 22.6227 46.1783C22.4815 46.3526 22.2632 46.4521 22.0246 46.4521ZM21.5035 44.7014C21.4607 44.7014 21.4029 44.7111 21.3676 44.7549C21.3366 44.7934 21.328 44.8511 21.342 44.9175L21.4693 45.5185C21.5078 45.6992 21.6983 45.8585 21.8759 45.8585H22.0246C22.0674 45.8585 22.1252 45.8489 22.1605 45.8051C22.1915 45.7666 22.2001 45.7088 22.1862 45.6425L22.0588 45.0415C22.0203 44.8608 21.8299 44.7014 21.6522 44.7014H21.5035Z" fill="#3F424A"/>
<path d="M19.8492 48.53H19.2629C18.0067 48.53 16.773 47.513 16.5055 46.2575L16.0251 44.001C15.7576 42.7455 16.5601 41.7285 17.8152 41.7285H18.4015C19.6577 41.7285 20.8914 42.7455 21.1589 44.001L21.6393 46.2575C21.9068 47.513 21.1043 48.53 19.8492 48.53Z" fill="white"/>
<path d="M19.8492 48.8272H19.2628C17.8761 48.8272 16.5086 47.7022 16.2155 46.3194L15.735 44.063C15.5852 43.3572 15.7265 42.692 16.1331 42.1894C16.529 41.7006 17.1271 41.4312 17.8162 41.4312H18.4025C19.7892 41.4312 21.1567 42.5562 21.4499 43.9389L21.9303 46.1954C22.0801 46.9012 21.9389 47.5664 21.5323 48.069C21.1364 48.5577 20.5382 48.8272 19.8492 48.8272ZM17.8162 42.0257C17.3101 42.0257 16.8756 42.2172 16.5953 42.5637C16.3032 42.924 16.2048 43.4128 16.3171 43.94L16.7975 46.1964C17.0361 47.3193 18.1425 48.2337 19.2639 48.2337H19.8502C20.3563 48.2337 20.7908 48.0422 21.0711 47.6958C21.3632 47.3354 21.4617 46.8466 21.3493 46.3194L20.8689 44.063C20.6303 42.9401 19.5239 42.0257 18.4025 42.0257H17.8162Z" fill="#3F424A"/>
<path d="M16.2496 45.0531C16.2496 45.0531 15.1314 44.0575 15.0929 42.8801C15.0544 41.7027 16.0356 41.9893 16.0356 41.9893C16.0356 41.9893 15.8323 40.2536 18.0333 40.1627C20.2342 40.0718 23.3886 42.4117 21.4316 45.2788L20.8548 44.0564C20.8548 44.0564 18.2355 44.2372 16.5139 43.0298C16.5139 43.0298 16.9847 44.6746 16.2496 45.0521V45.0531Z" fill="#3F424A"/>
<path d="M68.1023 43.6534H34.9196C34.0069 43.6534 33.1102 42.9145 32.9166 42.0022C32.7229 41.09 33.305 40.3511 34.2177 40.3511H67.4004C68.3131 40.3511 69.2098 41.09 69.4034 42.0022C69.5971 42.9145 69.015 43.6534 68.1023 43.6534Z" fill="white"/>
<path d="M68.1022 43.9506H34.9195C33.858 43.9506 32.8501 43.1218 32.6254 42.0641C32.5109 41.5273 32.6201 41.0193 32.9303 40.6354C33.2342 40.2611 33.69 40.0547 34.2165 40.0547H67.3992C68.4606 40.0547 69.4675 40.8835 69.6933 41.9411C69.8078 42.478 69.6986 42.9859 69.3873 43.3699C69.0834 43.7442 68.6276 43.9506 68.1011 43.9506H68.1022ZM34.2165 40.6482C33.873 40.6482 33.5809 40.7765 33.3926 41.0086C33.1968 41.2514 33.1304 41.5818 33.2064 41.9401C33.3723 42.7207 34.1405 43.356 34.9195 43.356H68.1022C68.4457 43.356 68.7378 43.2276 68.9261 42.9956C69.1219 42.7528 69.1882 42.4224 69.1123 42.0641C68.9464 41.2834 68.1782 40.6482 67.3992 40.6482H34.2165Z" fill="#3F424A"/>
<path d="M49.3143 49.2252H36.1052C35.1924 49.2252 34.2958 48.4862 34.1021 47.574C33.9085 46.6618 34.4905 45.9229 35.4032 45.9229H48.6123C49.525 45.9229 50.4217 46.6618 50.6154 47.574C50.809 48.4862 50.227 49.2252 49.3143 49.2252Z" fill="white"/>
<path d="M49.3141 49.5214H36.105C35.0436 49.5214 34.0356 48.6926 33.8109 47.6349C33.6964 47.0981 33.8056 46.5901 34.1169 46.2062C34.4208 45.8319 34.8766 45.6255 35.4031 45.6255H48.6133C49.6747 45.6255 50.6816 46.4543 50.9073 47.5119C51.0218 48.0488 50.9127 48.5567 50.6013 48.9407C50.2974 49.315 49.8416 49.5214 49.3152 49.5214H49.3141ZM35.402 46.219C35.0585 46.219 34.7664 46.3473 34.5781 46.5794C34.3823 46.8222 34.316 47.1526 34.3919 47.5109C34.5578 48.2915 35.326 48.9268 36.105 48.9268H49.3141C49.6576 48.9268 49.9497 48.7984 50.138 48.5664C50.3338 48.3236 50.4002 47.9932 50.3242 47.6349C50.1583 46.8542 49.3901 46.219 48.6111 46.219H35.4009H35.402Z" fill="#3F424A"/>
<path d="M33.9405 64.9216L37.2617 80.535C37.434 81.3467 36.9151 82.0054 36.1029 82.0054H17.3245C16.5124 82.0054 15.7131 81.3467 15.5408 80.535L12.2195 64.9216C12.0473 64.1099 12.5662 63.4512 13.3783 63.4512H32.1568C32.9689 63.4512 33.7682 64.1099 33.9405 64.9216Z" fill="white"/>
<path d="M36.1041 82.3016H17.3257C16.3659 82.3016 15.4543 81.553 15.251 80.5959L11.9297 64.9825C11.8259 64.4949 11.9254 64.0329 12.209 63.6832C12.485 63.342 12.9013 63.1538 13.3796 63.1538H32.158C33.1178 63.1538 34.0294 63.9024 34.2327 64.8595L37.554 80.4729C37.6578 80.9606 37.5583 81.4226 37.2747 81.7723C36.9987 82.1134 36.5824 82.3016 36.1041 82.3016ZM13.3785 63.7473C13.0832 63.7473 12.8317 63.8575 12.6702 64.0564C12.5011 64.2649 12.4455 64.5494 12.5107 64.8584L15.832 80.4718C15.9743 81.1413 16.658 81.707 17.3257 81.707H36.1041C36.3995 81.707 36.6509 81.5969 36.8125 81.398C36.9815 81.1894 37.0372 80.905 36.9719 80.5959L33.6506 64.9825C33.5083 64.3131 32.8246 63.7473 32.1569 63.7473H13.3785Z" fill="#3F424A"/>
<path d="M33.94 64.9216L34.2524 66.3921H12.5315L12.2191 64.9216C12.0468 64.1099 12.5657 63.4512 13.3779 63.4512H32.1563C32.9684 63.4512 33.7677 64.1099 33.94 64.9216Z" fill="#EA8696"/>
<path d="M34.2527 66.6882H12.5317C12.3916 66.6882 12.2706 66.5898 12.2407 66.4529L11.9283 64.9825C11.8245 64.4949 11.924 64.0329 12.2075 63.6832C12.4836 63.342 12.8998 63.1538 13.3781 63.1538H32.1565C33.1163 63.1538 34.028 63.9024 34.2313 64.8595L34.5437 66.33C34.5619 66.4177 34.5405 66.5086 34.4838 66.5781C34.4271 66.6476 34.3425 66.6882 34.2527 66.6882ZM12.7725 66.0947H33.8856L33.6492 64.9825C33.5069 64.3131 32.8231 63.7473 32.1555 63.7473H13.3781C13.0828 63.7473 12.8313 63.8575 12.6698 64.0564C12.5007 64.2649 12.4451 64.5494 12.5103 64.8584L12.7735 66.0936L12.7725 66.0947Z" fill="#EA8696"/>
<path d="M21.396 70.7993L21.0386 70.8207L21.977 75.231C22.2199 76.3731 23.2203 77.3783 24.3887 77.6168C24.7921 77.6992 25.264 77.7505 25.8108 77.7505L24.332 70.7993H21.397H21.396Z" fill="#3F424A"/>
<path d="M27.266 70.7993L27.633 70.8207L28.5714 75.231C28.8142 76.3731 28.2418 77.3783 27.175 77.6168C26.8059 77.6992 26.3575 77.7505 25.8108 77.7505L24.332 70.7993H27.267H27.266Z" fill="#3F424A"/>
<path d="M32.0818 80.4314L32.3547 81.7115H20.9507L20.6778 80.4314C20.4199 79.2208 20.9378 78.1354 21.9789 77.7044L25.4906 76.25L29.6208 77.7044C30.8449 78.1354 31.824 79.2208 32.0818 80.4314Z" fill="#EA8696"/>
<path d="M23.3142 82.008C23.1772 82.008 23.0531 81.9128 23.0242 81.7727L22.7439 80.4574C22.7096 80.297 22.8124 80.1398 22.9729 80.1055C23.1334 80.0702 23.2907 80.174 23.3249 80.3344L23.6052 81.6498C23.6395 81.8102 23.5368 81.9674 23.3763 82.0016C23.3559 82.0059 23.3345 82.008 23.3142 82.008Z" fill="#3F424A"/>
<path d="M27.7325 77.695C28.014 79.0157 26.5449 79.1173 26.5449 79.1173C26.5449 79.1173 26.3223 77.9784 25.8579 77.9784C25.3935 77.9784 25.6557 79.1173 25.6557 79.1173C25.6557 79.1173 24.1438 79.0157 23.8624 77.695C23.643 76.6651 24.1844 76.124 24.1844 76.124H26.7428C26.7428 76.124 27.5143 76.6651 27.7325 77.695Z" fill="white"/>
<path d="M26.5447 79.4144C26.4035 79.4144 26.2805 79.315 26.2537 79.1749C26.1756 78.7781 26.0065 78.4028 25.8953 78.3012C25.8621 78.4445 25.8813 78.7717 25.9455 79.0508C25.9669 79.1428 25.9434 79.238 25.8824 79.3096C25.8214 79.3813 25.7305 79.4187 25.6363 79.4134C25.036 79.3727 23.8312 78.9749 23.5723 77.7569C23.323 76.5826 23.9479 75.941 23.9746 75.9143C24.0303 75.8586 24.1062 75.8276 24.1843 75.8276H26.7427C26.8037 75.8276 26.8636 75.8469 26.9139 75.8811C26.9492 75.9057 27.7838 76.5024 28.0245 77.6328C28.1219 78.0905 28.0524 78.4808 27.817 78.792C27.3965 79.3492 26.5993 79.4102 26.5661 79.4123C26.5597 79.4123 26.5522 79.4123 26.5458 79.4123L26.5447 79.4144ZM25.8578 77.682C26.3768 77.682 26.6464 78.3397 26.7684 78.776C26.9524 78.7268 27.1974 78.6284 27.343 78.4338C27.4703 78.2638 27.5024 78.0424 27.4425 77.7569C27.2863 77.0243 26.8165 76.5698 26.64 76.4212H24.3277C24.2164 76.588 24.0174 76.9944 24.1533 77.6328C24.3042 78.3408 24.8959 78.6295 25.2961 78.745C25.2693 78.4477 25.2811 78.0884 25.4501 77.8766C25.5507 77.7504 25.6952 77.6809 25.8578 77.6809V77.682Z" fill="#3F424A"/>
<path d="M26.659 76.9253C26.659 76.9253 26.6205 77.4621 25.7484 77.4621C24.8764 77.4621 24.6089 76.9253 24.6089 76.9253L24.564 75.9243H26.2781L26.659 76.9253Z" fill="white"/>
<path d="M25.7472 77.7593C24.7029 77.7593 24.3562 77.0866 24.3423 77.0577C24.3241 77.0203 24.3134 76.9797 24.3113 76.939L24.2664 75.9381C24.2631 75.8568 24.292 75.7776 24.3487 75.7199C24.4055 75.6621 24.4825 75.6279 24.5638 75.6279H26.279C26.4021 75.629 26.5123 75.7049 26.5561 75.8204L26.9371 76.8203C26.952 76.861 26.9585 76.9037 26.9553 76.9476C26.9349 77.2288 26.6567 77.7603 25.7483 77.7603L25.7472 77.7593ZM24.9009 76.8332C24.9758 76.9294 25.2133 77.1657 25.7472 77.1657C26.1752 77.1657 26.3058 77.0214 26.3464 76.9412L26.0725 76.2225H24.8741L24.9019 76.8332H24.9009Z" fill="#3F424A"/>
<path d="M29.989 82.008C29.852 82.008 29.7279 81.9128 29.699 81.7727L29.4187 80.4574C29.3845 80.297 29.4872 80.1398 29.6477 80.1055C29.8082 80.0702 29.9655 80.174 29.9997 80.3344L30.28 81.6498C30.3143 81.8102 30.2116 81.9674 30.0511 82.0016C30.0307 82.0059 30.0093 82.008 29.989 82.008Z" fill="#3F424A"/>
<path d="M22.1708 74.0953H22.0221C21.7043 74.0953 21.3919 73.8375 21.3245 73.521L21.1961 72.92C21.1287 72.6024 21.3309 72.3457 21.6487 72.3457H21.7974C22.1152 72.3457 22.4276 72.6034 22.495 72.92L22.6234 73.521C22.6908 73.8386 22.4886 74.0953 22.1708 74.0953Z" fill="white"/>
<path d="M22.1706 74.3925H22.0219C21.565 74.3925 21.1306 74.0364 21.0343 73.5829L20.9069 72.9819C20.8556 72.7403 20.908 72.4996 21.0525 72.3221C21.1937 72.1478 21.412 72.0483 21.6506 72.0483H21.7993C22.2562 72.0483 22.6906 72.4045 22.7869 72.8579L22.9143 73.4589C22.9656 73.7006 22.9132 73.9412 22.7687 74.1187C22.6275 74.293 22.4092 74.3925 22.1706 74.3925ZM21.6495 72.6419C21.6067 72.6419 21.5489 72.6515 21.5136 72.6953C21.4826 72.7338 21.474 72.7916 21.4879 72.8579L21.6153 73.4589C21.6538 73.6396 21.8443 73.799 22.0219 73.799H22.1706C22.2134 73.799 22.2712 73.7893 22.3065 73.7455C22.3375 73.707 22.3461 73.6493 22.3322 73.5829L22.2048 72.9819C22.1663 72.8012 21.9759 72.6419 21.7982 72.6419H21.6495Z" fill="#3F424A"/>
<path d="M27.9692 74.0953H27.8204C27.5027 74.0953 27.1902 73.8375 27.1228 73.521L26.9944 72.92C26.927 72.6024 27.1292 72.3457 27.447 72.3457H27.5957C27.9135 72.3457 28.226 72.6034 28.2934 72.92L28.4218 73.521C28.4892 73.8386 28.287 74.0953 27.9692 74.0953Z" fill="white"/>
<path d="M27.9689 74.3925H27.8202C27.3633 74.3925 26.9289 74.0364 26.8326 73.5829L26.7053 72.9819C26.6539 72.7403 26.7063 72.4996 26.8508 72.3221C26.992 72.1478 27.2103 72.0483 27.4489 72.0483H27.5977C28.0556 72.0483 28.489 72.4045 28.5853 72.8579L28.7137 73.4589C28.765 73.7006 28.7126 73.9412 28.5681 74.1187C28.4269 74.293 28.2086 74.3925 27.97 74.3925H27.9689ZM27.4479 72.6419C27.4051 72.6419 27.3473 72.6515 27.312 72.6953C27.2809 72.7338 27.2724 72.7916 27.2863 72.8579L27.4136 73.4589C27.4521 73.6396 27.6426 73.799 27.8202 73.799H27.9689C28.0117 73.799 28.0695 73.7893 28.1048 73.7455C28.1359 73.707 28.1444 73.6493 28.1305 73.5829L28.0021 72.9819C27.9636 72.8012 27.7731 72.6419 27.5955 72.6419H27.4468H27.4479Z" fill="#3F424A"/>
<path d="M25.7945 76.4704H25.2082C23.952 76.4704 22.7183 75.4534 22.4508 74.1979L21.9704 71.9414C21.7029 70.686 22.5054 69.6689 23.7605 69.6689H24.3468C25.603 69.6689 26.8367 70.686 27.1042 71.9414L27.5846 74.1979C27.8521 75.4534 27.0497 76.4704 25.7945 76.4704Z" fill="white"/>
<path d="M25.7945 76.7667H25.2081C23.8214 76.7667 22.455 75.6416 22.1608 74.2589L21.6803 72.0024C21.5305 71.2966 21.6718 70.6314 22.0784 70.1288C22.4743 69.6401 23.0724 69.3706 23.7615 69.3706H24.3478C25.7346 69.3706 27.102 70.4956 27.3952 71.8784L27.8756 74.1348C28.0254 74.8406 27.8842 75.5058 27.4776 76.0084C27.0817 76.4972 26.4836 76.7667 25.7945 76.7667ZM23.7615 69.9652C23.2554 69.9652 22.821 70.1566 22.5406 70.5031C22.2485 70.8635 22.1501 71.3522 22.2624 71.8794L22.7428 74.1359C22.9815 75.2588 24.0878 76.1731 25.2092 76.1731H25.7955C26.3017 76.1731 26.7361 75.9817 27.0164 75.6352C27.3085 75.2748 27.407 74.7861 27.2946 74.2589L26.8142 72.0024C26.5756 70.8795 25.4692 69.9652 24.3478 69.9652H23.7615Z" fill="#3F424A"/>
<path d="M27.4915 72.9936C27.4915 72.9936 28.1859 71.9979 27.7237 70.8205C27.2614 69.6431 26.4022 69.9297 26.4022 69.9297C26.4022 69.9297 25.8672 68.194 23.6277 68.1031C21.3882 68.0122 19.229 70.3521 22.4058 73.2192L22.4625 71.9969C22.4625 71.9969 25.1589 72.1776 26.3669 70.9702C26.3669 70.9702 26.5959 72.615 27.4915 72.9925V72.9936Z" fill="#3F424A"/>
<path d="M74.0472 71.5938H40.8644C39.9517 71.5938 39.0551 70.8549 38.8614 69.9427C38.6677 69.0305 39.2498 68.2915 40.1625 68.2915H73.3452C74.2579 68.2915 75.1546 69.0305 75.3483 69.9427C75.5419 70.8549 74.9599 71.5938 74.0472 71.5938Z" fill="white"/>
<path d="M74.047 71.891H40.8643C39.8028 71.891 38.7949 71.0622 38.5702 70.0045C38.4557 69.4677 38.5649 68.9597 38.8762 68.5758C39.1801 68.2015 39.6359 67.9951 40.1624 67.9951H73.3451C74.4065 67.9951 75.4145 68.8239 75.6392 69.8816C75.7537 70.4184 75.6445 70.9264 75.3342 71.3103C75.0303 71.6846 74.5745 71.891 74.0481 71.891H74.047ZM40.1613 68.5886C39.8178 68.5886 39.5257 68.717 39.3374 68.949C39.1416 69.1918 39.0752 69.5222 39.1512 69.8805C39.3171 70.6612 40.0853 71.2964 40.8643 71.2964H74.047C74.3905 71.2964 74.6826 71.1681 74.8709 70.936C75.0667 70.6932 75.1331 70.3628 75.0571 70.0045C74.8912 69.2239 74.123 68.5886 73.344 68.5886H40.1613Z" fill="#3F424A"/>
<path d="M55.2591 77.1651H42.05C41.1373 77.1651 40.2406 76.4262 40.0469 75.514C39.8533 74.6018 40.4354 73.8628 41.3481 73.8628H54.5572C55.4699 73.8628 56.3665 74.6018 56.5602 75.514C56.7539 76.4262 56.1718 77.1651 55.2591 77.1651Z" fill="white"/>
<path d="M55.2589 77.4613H42.0498C40.9884 77.4613 39.9815 76.6325 39.7558 75.5749C39.6413 75.038 39.7504 74.53 40.0618 74.1461C40.3657 73.7718 40.8215 73.5654 41.3479 73.5654H54.5581C55.6195 73.5654 56.6264 74.3942 56.8522 75.4519C56.9666 75.9887 56.8575 76.4967 56.5461 76.8806C56.2423 77.2549 55.7864 77.4613 55.26 77.4613H55.2589ZM41.3468 74.159C41.0034 74.159 40.7113 74.2873 40.5229 74.5193C40.3271 74.7621 40.2608 75.0925 40.3368 75.4508C40.5026 76.2315 41.2709 76.8667 42.0498 76.8667H55.2589C55.6024 76.8667 55.8945 76.7384 56.0828 76.5063C56.2786 76.2636 56.345 75.9331 56.269 75.5749C56.1032 74.7942 55.3349 74.159 54.5559 74.159H41.3458H41.3468Z" fill="#3F424A"/>
<path d="M82.8447 104.822L83.0833 110.944L85.8846 111.171L86.2676 104.544L82.8447 104.822Z" fill="white"/>
<path d="M85.8843 111.468C85.8769 111.468 85.8683 111.468 85.8608 111.468L83.0596 111.242C82.9098 111.23 82.7921 111.108 82.7867 110.957L82.5481 104.834C82.5417 104.675 82.6626 104.539 82.821 104.526L86.2439 104.248C86.3305 104.242 86.414 104.271 86.4761 104.331C86.537 104.391 86.5702 104.475 86.5649 104.561L86.1818 111.188C86.1775 111.269 86.1401 111.342 86.0802 111.395C86.0256 111.442 85.956 111.468 85.8854 111.468H85.8843ZM83.3699 110.67L85.6051 110.849L85.9507 104.866L83.1526 105.094L83.3699 110.67Z" fill="#3F424A"/>
<path d="M91.8453 68.471C91.6249 70.1157 87.9152 105.676 87.9152 105.676L81.2641 105.721L80.0186 88.2016L79.6741 83.3561L77.9728 59.4077C77.3158 51.324 90.6094 51.2845 91.7704 58.6891C92.2572 61.7979 92.0657 66.8241 91.8442 68.4699L91.8453 68.471Z" fill="#15CBB9"/>
<path d="M86.6013 103.441C86.5927 103.441 86.5831 103.441 86.5745 103.44C86.4108 103.425 86.291 103.28 86.306 103.117L90.2157 60.2205C90.2307 60.0569 90.3741 59.9361 90.5389 59.9521C90.7026 59.9671 90.8224 60.1115 90.8074 60.2751L86.8977 103.171C86.8838 103.325 86.7543 103.442 86.6023 103.442L86.6013 103.441Z" fill="#3F424A"/>
<path d="M90.0212 65.913C89.7066 65.913 89.4209 65.7793 89.1941 65.5269C88.0363 64.2351 88.4857 59.8077 88.5403 59.3072C88.5585 59.1447 88.7062 59.027 88.8677 59.0441C89.0304 59.0623 89.1481 59.2088 89.1309 59.3714C88.9897 60.6589 88.8057 64.203 89.6371 65.1302C89.7526 65.2585 89.8746 65.3184 90.0212 65.3184C90.1849 65.3184 90.3186 65.451 90.3186 65.6157C90.3186 65.7804 90.186 65.913 90.0212 65.913Z" fill="#3F424A"/>
<path d="M84.8644 85.4928C84.8986 87.5643 83.6499 89.2647 82.0738 89.2914C81.2756 89.3042 80.548 88.8861 80.0184 88.2006L79.6738 83.3551C80.1789 82.4194 81.0049 81.8034 81.9486 81.7884C83.5237 81.7617 84.8301 83.4193 84.8644 85.4918V85.4928Z" fill="white"/>
<path d="M87.4529 104.643H87.4518L81.9745 104.616C81.8108 104.616 81.6781 104.481 81.6792 104.318C81.6792 104.154 81.8162 104.018 81.9777 104.023L87.4551 104.049C87.6188 104.049 87.7514 104.184 87.7504 104.348C87.7504 104.511 87.6166 104.643 87.4529 104.643Z" fill="#3F424A"/>
<path d="M73.3644 121.309V122.614H86.8035C86.8035 122.614 86.8474 121.932 86.8891 120.787C86.9726 118.534 87.0528 114.482 86.8035 110.295L81.9008 109.866C81.9008 109.866 79.3906 114.084 76.1142 117.661C75.774 118.032 74.8752 118.643 74.4975 118.986C73.7742 119.645 73.3633 120.461 73.3633 121.309H73.3644Z" fill="#15CBB9"/>
<path d="M80.3973 117.958C80.3385 117.958 80.2796 117.941 80.2283 117.905C80.0934 117.81 80.0603 117.625 80.1534 117.491C82.4892 114.127 83.7881 110.42 83.801 110.382C83.8545 110.227 84.0235 110.145 84.1787 110.199C84.3338 110.253 84.4162 110.422 84.3617 110.577C84.3488 110.614 83.0231 114.4 80.6413 117.83C80.5835 117.913 80.4915 117.957 80.3973 117.957V117.958Z" fill="#3F424A"/>
<path d="M85.2734 117.806C85.7609 117.806 86.1561 116.913 86.1561 115.812C86.1561 114.71 85.7609 113.817 85.2734 113.817C84.7858 113.817 84.3906 114.71 84.3906 115.812C84.3906 116.913 84.7858 117.806 85.2734 117.806Z" fill="white"/>
<path d="M85.2735 118.138C84.4764 118.138 84.0591 116.967 84.0591 115.811C84.0591 114.655 84.4764 113.484 85.2735 113.484C86.0707 113.484 86.488 114.655 86.488 115.811C86.488 116.967 86.0707 118.138 85.2735 118.138ZM85.2735 114.15C85.1141 114.15 84.7236 114.732 84.7236 115.812C84.7236 116.893 85.1141 117.474 85.2735 117.474C85.433 117.474 85.8235 116.892 85.8235 115.812C85.8235 114.733 85.433 114.15 85.2735 114.15Z" fill="#3F424A"/>
<path d="M73.3643 121.308V122.613H86.8034C86.8034 122.613 86.8473 121.932 86.889 120.786H80.7333C80.7333 120.786 81.08 117.304 76.1152 117.66C75.775 118.031 74.8762 118.642 74.4985 118.985C73.7751 119.644 73.3643 120.46 73.3643 121.308Z" fill="white"/>
<path d="M86.8035 122.909H73.3644C73.2006 122.909 73.0669 122.777 73.0669 122.612V121.307C73.0669 120.391 73.5035 119.488 74.2974 118.765C74.4622 118.616 74.7104 118.425 74.9736 118.224C75.3203 117.959 75.713 117.659 75.8949 117.46C75.9463 117.404 76.0169 117.37 76.0928 117.363C77.9546 117.23 79.3253 117.603 80.1706 118.471C80.8618 119.181 81.0073 120.033 81.0309 120.489H86.888C86.9683 120.489 87.0464 120.522 87.102 120.58C87.1577 120.638 87.1876 120.717 87.1855 120.797C87.1438 121.933 87.0999 122.625 87.0999 122.631C87.0903 122.787 86.9597 122.909 86.8035 122.909ZM73.6618 122.316H86.5232C86.5371 122.06 86.5585 121.638 86.5799 121.084H80.7323C80.6489 121.084 80.5686 121.049 80.5119 120.987C80.4552 120.925 80.4285 120.841 80.437 120.758C80.437 120.748 80.5258 119.684 79.7394 118.881C79.0375 118.164 77.8626 117.851 76.248 117.95C76.0212 118.173 75.6734 118.439 75.3353 118.698C75.0828 118.892 74.8442 119.073 74.6986 119.206C74.0299 119.814 73.6618 120.562 73.6618 121.31V122.317V122.316Z" fill="#3F424A"/>
<path d="M107.527 104.894L108.485 110.945L105.781 111.712L104.115 105.286L107.527 104.894Z" fill="white"/>
<path d="M105.781 112.009C105.73 112.009 105.678 111.997 105.634 111.97C105.564 111.93 105.514 111.864 105.493 111.787L103.827 105.361C103.806 105.277 103.821 105.19 103.87 105.118C103.919 105.048 103.995 105 104.081 104.991L107.492 104.597C107.65 104.581 107.795 104.688 107.82 104.846L108.778 110.899C108.802 111.048 108.711 111.19 108.565 111.232L105.861 111.999C105.835 112.006 105.808 112.009 105.78 112.009H105.781ZM104.489 105.543L105.993 111.344L108.15 110.732L107.278 105.221L104.489 105.543Z" fill="#3F424A"/>
<path d="M91.6184 70.9887C92.1545 72.5586 102.72 106.717 102.72 106.717L109.252 105.466L107.061 88.0404L106.455 83.2206L103.459 59.3995C102.529 51.3425 89.4816 53.8899 89.7855 61.379C89.9128 64.523 91.0813 69.4167 91.6184 70.9876V70.9887Z" fill="#15CBB9"/>
<path d="M90.0061 66.0801C89.9997 66.0801 89.9922 66.0801 89.9858 66.0801C89.8221 66.0694 89.698 65.9272 89.7098 65.7636L90.2137 58.2606C90.2244 58.0969 90.3678 57.9729 90.5304 57.9847C90.6942 57.9954 90.8183 58.1376 90.8065 58.3012L90.3025 65.8042C90.2918 65.9614 90.1613 66.0812 90.0061 66.0812V66.0801Z" fill="#3F424A"/>
<path d="M103.516 104.274C103.389 104.274 103.271 104.192 103.231 104.063L91.7909 66.5806C91.7428 66.4234 91.8316 66.2576 91.9889 66.2095C92.1462 66.1624 92.312 66.2501 92.3602 66.4073L103.801 103.89C103.849 104.047 103.76 104.213 103.603 104.261C103.574 104.27 103.545 104.274 103.516 104.274Z" fill="#3F424A"/>
<path d="M101.78 86.327C102.151 88.3663 103.706 89.7908 105.257 89.5106C106.042 89.3684 106.674 88.8166 107.06 88.0412L106.454 83.2214C105.777 82.4022 104.846 81.9584 103.918 82.1274C102.369 82.4076 101.41 84.2876 101.779 86.327H101.78Z" fill="white"/>
<path d="M102.913 105.62C102.775 105.62 102.651 105.522 102.622 105.382C102.589 105.222 102.693 105.065 102.855 105.033L108.222 103.941C108.382 103.908 108.539 104.011 108.572 104.173C108.605 104.333 108.501 104.49 108.339 104.523L102.972 105.614C102.952 105.619 102.933 105.621 102.912 105.621L102.913 105.62Z" fill="#3F424A"/>
<path d="M118.205 121.309V122.614H104.766C104.766 122.614 104.722 121.932 104.68 120.787C104.597 118.534 104.516 114.482 104.766 110.295L109.668 109.866C109.668 109.866 112.179 114.084 115.455 117.661C115.795 118.032 116.694 118.643 117.072 118.986C117.795 119.645 118.206 120.461 118.206 121.309H118.205Z" fill="#15CBB9"/>
<path d="M111.171 117.958C111.077 117.958 110.985 117.913 110.927 117.831C108.545 114.402 107.219 110.617 107.205 110.578C107.152 110.423 107.234 110.254 107.388 110.201C107.543 110.147 107.712 110.23 107.766 110.384C107.779 110.421 109.08 114.132 111.414 117.492C111.507 117.627 111.474 117.812 111.339 117.906C111.287 117.941 111.227 117.959 111.17 117.959L111.171 117.958Z" fill="#3F424A"/>
<path d="M106.296 117.806C106.783 117.806 107.179 116.913 107.179 115.812C107.179 114.71 106.783 113.817 106.296 113.817C105.808 113.817 105.413 114.71 105.413 115.812C105.413 116.913 105.808 117.806 106.296 117.806Z" fill="white"/>
<path d="M106.296 118.138C105.497 118.138 105.08 116.967 105.08 115.811C105.08 114.655 105.497 113.484 106.296 113.484C107.094 113.484 107.51 114.655 107.51 115.811C107.51 116.967 107.093 118.138 106.296 118.138ZM106.296 114.15C106.136 114.15 105.746 114.732 105.746 115.812C105.746 116.893 106.136 117.474 106.296 117.474C106.455 117.474 106.846 116.892 106.846 115.812C106.846 114.733 106.455 114.15 106.296 114.15Z" fill="#3F424A"/>
<path d="M118.204 121.308V122.613H104.765C104.765 122.613 104.721 121.932 104.68 120.786H110.835C110.835 120.786 110.489 117.304 115.453 117.66C115.794 118.031 116.693 118.642 117.07 118.985C117.794 119.644 118.204 120.46 118.204 121.308Z" fill="white"/>
<path d="M118.205 122.909H104.766C104.609 122.909 104.479 122.787 104.469 122.631C104.469 122.625 104.425 121.933 104.384 120.797C104.38 120.717 104.41 120.638 104.467 120.58C104.523 120.522 104.601 120.489 104.681 120.489H110.538C110.562 120.033 110.706 119.182 111.398 118.471C112.244 117.603 113.615 117.23 115.476 117.363C115.552 117.369 115.623 117.403 115.674 117.46C115.856 117.659 116.249 117.959 116.595 118.224C116.859 118.425 117.107 118.616 117.272 118.765C118.066 119.488 118.502 120.391 118.502 121.307V122.612C118.502 122.776 118.369 122.909 118.205 122.909ZM105.046 122.316H117.907V121.308C117.907 120.561 117.539 119.814 116.87 119.205C116.725 119.072 116.486 118.889 116.234 118.697C115.896 118.438 115.548 118.172 115.321 117.949C113.705 117.851 112.532 118.164 111.83 118.88C111.042 119.683 111.131 120.747 111.132 120.758C111.139 120.841 111.112 120.923 111.056 120.985C110.999 121.047 110.92 121.083 110.837 121.083H104.989C105.011 121.637 105.032 122.06 105.046 122.315V122.316Z" fill="#3F424A"/>
<path d="M81.3485 26.7607C77.7854 28.2771 73.7751 39.5765 73.9645 43.8499C74.1592 48.258 80.1533 47.7575 82.1253 44.6103C85.5161 38.7788 85.0475 25.1865 81.3485 26.7607Z" fill="#EA8696"/>
<path d="M103.876 29.8493L104.263 61.1467C104.263 61.1467 103.385 61.2676 101.869 61.4076V57.8037C101.869 57.6594 101.809 57.5268 101.715 57.4316C101.598 57.3161 101.426 57.253 101.243 57.2872C100.99 57.3343 100.815 57.5685 100.815 57.8251V61.4996C95.8351 61.9049 86.2469 62.2931 77.3413 60.4345C77.3413 60.4345 78.4776 34.127 81.3463 26.7609C81.3463 26.7609 86.3838 23.8874 92.165 24.0039C96.0802 24.0831 100.054 25.9139 102.21 27.0871C103.225 27.6389 103.86 28.6954 103.874 29.8493H103.876Z" fill="#EA8696"/>
<path d="M78.6789 42.2972C78.6693 42.2972 78.6586 42.2972 78.6479 42.2962C78.4842 42.279 78.3654 42.1336 78.3825 41.9711C79.0416 35.5311 79.7981 30.8214 80.6295 27.9725C80.6755 27.8153 80.8403 27.7254 80.9976 27.7704C81.1549 27.8163 81.2458 27.981 81.1998 28.1382C80.378 30.9529 79.628 35.6273 78.9731 42.0309C78.9571 42.1839 78.8287 42.2972 78.6778 42.2972H78.6789Z" fill="#3F424A"/>
<path d="M93.1741 60.5658C85.3354 60.5658 78.5719 59.6333 78.4863 59.6216C78.3301 59.6002 78.222 59.4558 78.2434 59.2997C78.2648 59.1435 78.4103 59.0355 78.5655 59.0569C78.6725 59.0719 89.3939 60.5487 99.4604 59.7681C99.6177 59.7563 99.7546 59.8729 99.7664 60.0301C99.7782 60.1873 99.6615 60.3242 99.5042 60.3359C97.3878 60.4995 95.2425 60.5648 93.1731 60.5648L93.1741 60.5658Z" fill="#3F424A"/>
<path d="M95.5955 26.7097C94.8037 28.5502 93.3164 29.8303 92.3855 30.1222C92.1458 28.8101 91.4867 27.1589 91.4867 27.1589C90.7538 28.1663 90.3675 29.4998 90.2712 30.1073C87.899 29.456 87.6294 26.6424 87.6294 26.6424C87.9194 24.3592 89.8839 23.1743 91.5702 23.2309C95.297 23.3571 95.5944 26.7097 95.5944 26.7097H95.5955Z" fill="white"/>
<path d="M92.3857 30.4194C92.3322 30.4194 92.2787 30.4045 92.2316 30.3767C92.1588 30.3328 92.1085 30.259 92.0925 30.1756C91.9448 29.3629 91.626 28.4047 91.4152 27.8176C90.9315 28.6624 90.6459 29.6313 90.5645 30.1542C90.5517 30.2376 90.5035 30.3114 90.4319 30.3574C90.3612 30.4034 90.2735 30.4173 90.1922 30.3948C87.652 29.6965 87.3449 26.7952 87.3331 26.6711C87.331 26.6498 87.331 26.6273 87.3331 26.6059C87.6456 24.1388 89.7513 22.8747 91.5789 22.9357C95.5229 23.0694 95.8856 26.6487 95.8888 26.6851C95.8931 26.7342 95.8856 26.7834 95.8664 26.8284C95.0542 28.7159 93.5113 30.0804 92.4723 30.4066C92.4434 30.4162 92.4135 30.4205 92.3835 30.4205L92.3857 30.4194ZM87.9291 26.6444C87.9655 26.9225 88.2972 29.0281 90.0456 29.72C90.2039 29.0324 90.5817 27.8999 91.2461 26.9845C91.3093 26.8968 91.4152 26.8508 91.5233 26.8647C91.6303 26.8786 91.7223 26.9492 91.7629 27.0497C91.7875 27.1117 92.3268 28.4678 92.605 29.7115C93.4064 29.3105 94.5931 28.2378 95.2907 26.6658C95.2244 26.1899 94.7204 23.6362 91.5607 23.5292C90.0113 23.4758 88.2138 24.5505 87.9291 26.6455V26.6444Z" fill="#3F424A"/>
<path d="M89.2458 46.459L84.8535 45.2763C84.6662 45.226 84.4661 45.2388 84.2874 45.3126L81.1438 46.6098C80.6997 46.7927 80.4836 47.2964 80.658 47.7445L81.4038 49.6683C81.5739 50.1079 82.0608 50.3367 82.508 50.1859L83.914 49.7132L85.7426 50.1763C86.451 50.356 87.201 50.2779 87.857 49.956L89.2458 49.2748V46.459Z" fill="white"/>
<path d="M86.4983 50.5675C86.2201 50.5675 85.9419 50.5333 85.669 50.4638L83.9249 50.0221L82.6024 50.467C82.0032 50.668 81.3548 50.3643 81.1258 49.7751L80.38 47.8512C80.15 47.2577 80.441 46.5775 81.0295 46.3348L84.1732 45.0376C84.4118 44.9392 84.6804 44.9221 84.9307 44.9884L89.3231 46.1712C89.4525 46.2065 89.5424 46.3241 89.5424 46.4578V49.2735C89.5424 49.3869 89.4782 49.4906 89.3766 49.5398L87.9877 50.221C87.5212 50.4499 87.0119 50.5664 86.4983 50.5664V50.5675ZM83.9132 49.4158C83.9378 49.4158 83.9624 49.419 83.9859 49.4243L85.8146 49.8874C86.4544 50.0499 87.1328 49.9783 87.7256 49.6885L88.9486 49.0885V46.6855L84.7756 45.5627C84.6515 45.5295 84.5188 45.5381 84.4 45.5873L81.2564 46.8845C80.9643 47.0053 80.8198 47.3422 80.9343 47.6373L81.6801 49.5612C81.7935 49.8542 82.1156 50.005 82.413 49.9045L83.819 49.4318C83.85 49.4211 83.8821 49.4158 83.9142 49.4158H83.9132Z" fill="#3F424A"/>
<path d="M105.753 47.7847C105.279 48.975 104.687 49.8914 103.97 50.3823C103.032 51.024 101.82 51.3897 100.491 51.5661C95.4756 52.2281 88.7903 50.1973 88.7903 50.1973L88.6255 45.8256L98.0768 44.1049C98.0768 44.1049 99.0109 27.2103 102.144 27.3985C106.752 27.6755 107.545 43.2889 105.754 47.7858L105.753 47.7847Z" fill="#EA8696"/>
<path d="M105.753 47.7845C105.282 48.9769 104.687 49.8912 103.97 50.3821C103.032 51.0237 101.819 51.3895 100.49 51.5659C100.214 50.2837 100.668 48.8988 101.771 48.0379C102.954 47.1161 104.538 47.0637 105.753 47.7855V47.7845Z" fill="white"/>
<path d="M100.918 47.5514C100.837 47.5514 100.757 47.5183 100.698 47.4531L97.8561 44.3026C97.7458 44.1807 97.7555 43.9924 97.8775 43.8834C97.9994 43.7732 98.1867 43.7828 98.2969 43.9047L101.139 47.0552C101.249 47.1771 101.239 47.3654 101.117 47.4744C101.061 47.5258 100.989 47.5504 100.918 47.5504V47.5514Z" fill="#3F424A"/>
<path d="M98.2874 51.9973C93.7506 51.9973 88.9324 50.5515 88.7034 50.482C88.5825 50.4456 88.498 50.3354 88.4926 50.2093L88.3278 45.8364C88.3225 45.6889 88.4263 45.5595 88.5718 45.5327L97.7941 43.8537C97.9022 42.0817 98.6308 31.4218 100.667 28.1452C100.754 28.0062 100.937 27.9634 101.076 28.0489C101.215 28.1356 101.258 28.3184 101.171 28.4574C99.0749 31.8314 98.3794 43.997 98.373 44.12C98.3655 44.2569 98.2649 44.3713 98.1301 44.3959L88.9313 46.0706L89.0779 49.9718C90.1875 50.2873 95.6327 51.746 99.9715 51.3268C100.134 51.3108 100.28 51.4305 100.296 51.5941C100.312 51.7578 100.192 51.9021 100.028 51.9182C99.4601 51.9727 98.8748 51.9973 98.2863 51.9973H98.2874Z" fill="#3F424A"/>
<path d="M91.1345 49.3342C90.9793 49.3342 90.8488 49.2134 90.8381 49.0573L90.5973 45.432C90.5866 45.2683 90.7107 45.1272 90.8744 45.1165C91.0392 45.1047 91.1794 45.2298 91.1901 45.3935L91.4308 49.0188C91.4415 49.1824 91.3174 49.3236 91.1537 49.3342C91.1473 49.3342 91.1409 49.3342 91.1334 49.3342H91.1345Z" fill="#3F424A"/>
<path d="M89.876 49.5532C90.1449 49.5532 90.3629 49.3354 90.3629 49.0667C90.3629 48.7979 90.1449 48.5801 89.876 48.5801C89.6071 48.5801 89.3892 48.7979 89.3892 49.0667C89.3892 49.3354 89.6071 49.5532 89.876 49.5532Z" fill="white"/>
<path d="M89.8772 49.8495C89.8451 49.8495 89.812 49.8474 89.7799 49.8431C89.5723 49.8174 89.3872 49.7126 89.2577 49.5479C88.9913 49.2079 89.0523 48.7138 89.3936 48.4486C89.7339 48.1834 90.2282 48.2433 90.4936 48.5844C90.622 48.7491 90.6797 48.9544 90.6541 49.1619C90.6284 49.3693 90.5235 49.5543 90.3587 49.6837C90.2196 49.7928 90.0517 49.8495 89.8783 49.8495H89.8772ZM89.8751 48.8763C89.8344 48.8763 89.7927 48.8892 89.7585 48.9159C89.6761 48.9801 89.6611 49.0998 89.7253 49.1822C89.7563 49.2218 89.8013 49.2474 89.8516 49.2538C89.9019 49.2603 89.9511 49.2464 89.9917 49.2153C90.0313 49.1843 90.057 49.1394 90.0634 49.0892C90.0698 49.0389 90.0559 48.9897 90.0249 48.9491C89.9875 48.9009 89.9318 48.8763 89.8751 48.8763Z" fill="#3F424A"/>
<path d="M93.4228 18.9731L93.3618 21.2638L93.258 25.1811C91.9398 26.1018 90.6568 26.1992 89.4199 25.2709L89.6008 23.4508L89.8747 20.6949L93.4217 18.9731H93.4228Z" fill="white"/>
<path d="M91.2109 26.2197C90.5325 26.2197 89.8744 25.9823 89.2421 25.5075C89.1586 25.4454 89.1147 25.3439 89.1244 25.2401L89.5802 20.6641C89.5898 20.5614 89.6529 20.4716 89.746 20.4267L93.2931 18.705C93.3862 18.66 93.4964 18.6665 93.5841 18.7221C93.6708 18.7787 93.7232 18.8761 93.72 18.9798L93.5552 25.1877C93.5531 25.2818 93.506 25.3695 93.429 25.423C92.6693 25.9534 91.9288 26.2186 91.2109 26.2186V26.2197ZM89.7332 25.1289C90.7443 25.8208 91.8047 25.7844 92.9656 25.0198L93.1133 19.4525L90.1558 20.8876L89.7343 25.1278L89.7332 25.1289Z" fill="#3F424A"/>
<path d="M92.1982 19.5669C92.18 20.601 92.2753 24.1247 89.4976 24.5054L89.8774 20.6941L92.1993 19.5669H92.1982Z" fill="#3F424A"/>
<path d="M86.3733 20.384C86.9457 22.1891 87.944 24.282 90.0851 23.4756C92.6306 22.5164 93.9424 20.3006 93.4417 17.7928C92.9409 15.285 91.49 14.1151 88.5518 15.0305C88.2896 15.1118 88.0478 15.2102 87.8242 15.3235C86.1967 16.1502 85.6285 17.7607 86.0876 19.4151C86.171 19.7145 86.263 20.045 86.3722 20.385L86.3733 20.384Z" fill="white"/>
<path d="M89.1867 23.9495C88.8368 23.9495 88.5051 23.8704 88.1948 23.7132C86.883 23.048 86.2721 21.1862 85.8023 19.4922C85.2031 17.3352 86.2731 15.4274 88.4645 14.7451C88.6218 14.6959 88.7876 14.7836 88.8368 14.9398C88.8861 15.0959 88.7983 15.2627 88.641 15.3119C86.7493 15.9012 85.8601 17.4796 86.3748 19.334C86.6894 20.4686 87.2757 22.5807 88.4634 23.1838C88.9085 23.4095 89.405 23.4138 89.9807 23.1967C90.918 22.8427 91.6809 22.3187 92.2458 21.6364C92.3507 21.5102 92.538 21.4931 92.6642 21.5968C92.7905 21.7016 92.8076 21.8888 92.7038 22.015C92.08 22.7668 91.2112 23.3667 90.1904 23.7517C89.8416 23.8832 89.5067 23.9485 89.1867 23.9485V23.9495Z" fill="#3F424A"/>
<path d="M94.3246 18.0976C94.3246 18.0976 94.0657 18.736 93.689 19.3039L92.3794 19.6643L91.8989 18.7842C91.8989 18.7842 91.0494 18.9232 90.7551 18.3917C90.7551 18.3917 90.7476 18.3799 90.7358 18.3543C90.6524 18.1778 90.3057 17.3832 90.1613 16.0679C90.1613 16.0679 88.3241 17.3854 87.2466 17.7319C86.8593 17.857 86.3638 17.8014 85.8888 17.6795C84.9365 17.4346 83.8889 16.1876 83.8397 15.2059C83.8397 15.1995 83.8397 15.1931 83.8397 15.1867C83.7851 13.7451 84.7128 14.5579 84.7128 14.5579C84.7128 14.5579 84.685 13.3933 85.3709 13.1655C86.0589 12.9377 86.7212 13.8798 86.7212 13.8798C86.7212 13.8798 88.5017 12.973 90.799 12.8468C93.6013 12.6928 93.3177 14.7033 93.3177 14.7033C93.3177 14.7033 95.4492 14.9257 94.3257 18.0976H94.3246Z" fill="#3F424A"/>
<path d="M92.6375 19.4623C92.3047 18.441 92.8365 17.3149 93.8562 16.9759C94.0638 16.9064 94.2885 16.8711 94.5282 16.8839C95.8967 16.962 96.1899 20.0483 92.9703 20.4836L92.6375 19.4623Z" fill="white"/>
<path d="M92.9701 20.781C92.8235 20.781 92.6962 20.673 92.6759 20.5232C92.6534 20.3607 92.7679 20.211 92.9305 20.1896C94.6586 19.9565 95.2353 18.9384 95.2043 18.1363C95.1861 17.6797 94.9421 17.2049 94.5099 17.1803C94.3237 17.1696 94.1343 17.1952 93.9492 17.2573C93.0942 17.5417 92.632 18.4892 92.9188 19.3694C92.9691 19.5255 92.8845 19.6934 92.7283 19.7436C92.5721 19.7939 92.4052 19.7094 92.3538 19.5533C91.9665 18.363 92.5978 17.0808 93.7609 16.6937C94.0177 16.6081 94.2809 16.5728 94.543 16.5878C95.2374 16.6274 95.7639 17.269 95.7971 18.1139C95.8409 19.2464 94.9956 20.5104 93.0086 20.7778C92.9947 20.7799 92.9819 20.781 92.968 20.781H92.9701Z" fill="#3F424A"/>
<path d="M87.535 22.6651L88.5858 24.3441L91.9445 22.2908C92.2441 22.1068 92.6378 22.2341 92.7737 22.5592C92.8497 22.741 92.8272 22.9495 92.7127 23.111L92.2869 23.7142L93.1011 25.4701C93.4275 26.1749 93.2317 27.0122 92.6261 27.4988L90.2057 29.4441L88.7024 31.1316L86.0435 28.7372L87.5051 27.132L86.9679 25.7739L86.556 23.0265C86.5175 22.7688 86.6705 22.5207 86.9187 22.4405C87.152 22.3646 87.4066 22.4576 87.5361 22.6651H87.535Z" fill="white"/>
<path d="M88.7005 31.4289C88.6277 31.4289 88.556 31.4022 88.5015 31.353L85.8425 28.9586C85.7837 28.9062 85.7484 28.8313 85.7441 28.7522C85.7398 28.6731 85.7676 28.5961 85.8211 28.5373L87.1586 27.069L86.69 25.883C86.6814 25.8616 86.6761 25.8402 86.6728 25.8177L86.2609 23.0704C86.201 22.6673 86.4385 22.2833 86.8259 22.1582C87.1897 22.0406 87.5845 22.1839 87.7867 22.5079L88.6812 23.9377L91.7885 22.0385C92.0057 21.9058 92.2689 21.8748 92.5107 21.9529C92.7526 22.031 92.9473 22.2106 93.0457 22.4448C93.1624 22.7229 93.1271 23.0362 92.9537 23.2822L92.6263 23.7452L93.3678 25.3451C93.753 26.176 93.523 27.1566 92.8093 27.7299L90.4082 29.6591L88.9209 31.3284C88.8685 31.3872 88.7946 31.4236 88.7155 31.4279C88.7101 31.4279 88.7048 31.4279 88.6994 31.4279L88.7005 31.4289ZM86.4621 28.7169L88.6769 30.7114L89.9823 29.2463C89.993 29.2345 90.0048 29.2228 90.0176 29.2121L92.438 27.2668C92.9387 26.8647 93.0992 26.1771 92.8296 25.5942L92.0153 23.8383C91.9704 23.742 91.9811 23.6287 92.0421 23.542L92.4679 22.9389C92.5236 22.8608 92.5343 22.7614 92.4968 22.6726C92.4647 22.5967 92.4048 22.5411 92.3267 22.5165C92.2486 22.4908 92.1673 22.5004 92.0966 22.5432L88.7379 24.5965C88.5988 24.682 88.4169 24.6382 88.3313 24.5002L87.2806 22.8213C87.2228 22.7293 87.1105 22.6876 87.0067 22.7218C86.8965 22.7571 86.8291 22.8672 86.8462 22.9817L87.2528 25.6958L87.7771 27.0219C87.8188 27.1267 87.7963 27.2476 87.7204 27.331L86.4599 28.7159L86.4621 28.7169Z" fill="#3F424A"/>
<path d="M89.4432 31.0837C89.4432 31.0837 83.7616 46.3581 78.3452 47.2093C78.2671 47.2222 78.189 47.2318 78.112 47.2382C75.4134 47.4542 74.3039 46.1453 74.0342 44.4952C73.7892 42.9991 74.2332 41.2206 74.8078 40.0443C76.9628 35.6308 85.9936 27.9097 85.9936 27.9097L89.4432 31.0837Z" fill="#EA8696"/>
<path d="M87.653 32.8996C87.5802 32.8996 87.5085 32.8728 87.4507 32.8204L84.0524 29.6689C83.9326 29.5576 83.9251 29.3694 84.0364 29.2497C84.1477 29.1299 84.336 29.1224 84.4558 29.2336L87.8541 32.3852C87.974 32.4964 87.9815 32.6846 87.8702 32.8044C87.8113 32.8675 87.7322 32.8996 87.6519 32.8996H87.653Z" fill="#3F424A"/>
<path d="M87.8766 31.6687C88.1461 31.6687 88.3645 31.4503 88.3645 31.181C88.3645 30.9117 88.1461 30.6934 87.8766 30.6934C87.6071 30.6934 87.3887 30.9117 87.3887 31.181C87.3887 31.4503 87.6071 31.6687 87.8766 31.6687Z" fill="white"/>
<path d="M87.8777 31.9662C87.8681 31.9662 87.8574 31.9662 87.8467 31.9662C87.4144 31.9491 87.0763 31.5844 87.0923 31.1524C87.1095 30.7203 87.4733 30.3835 87.9066 30.3984C88.3389 30.4155 88.677 30.7802 88.661 31.2122C88.6449 31.6347 88.2961 31.9662 87.8767 31.9662H87.8777ZM87.8777 30.992C87.7761 30.992 87.6915 31.0722 87.6873 31.1748C87.683 31.2796 87.7654 31.3684 87.8702 31.3727C87.9772 31.3759 88.0639 31.2946 88.0682 31.1898C88.0725 31.085 87.9901 30.9962 87.8852 30.992C87.8831 30.992 87.8799 30.992 87.8777 30.992Z" fill="#3F424A"/>
<path d="M79.1863 47.2639C79.0697 47.2639 78.9595 47.1955 78.9124 47.0811C78.8493 46.9292 78.9209 46.756 79.0718 46.6929C83.722 44.753 88.461 32.8076 89.0934 31.1672L85.9861 28.3086C84.6497 29.4721 77.0003 36.2287 75.0732 40.1759C75.0015 40.3235 74.8239 40.3844 74.6763 40.3128C74.5286 40.2411 74.4676 40.0636 74.5393 39.916C76.6964 35.4972 85.4287 28.0028 85.7989 27.6852C85.9134 27.5878 86.0824 27.5911 86.1937 27.6926L89.6434 30.8667C89.7322 30.9479 89.7632 31.0752 89.7204 31.1885C89.5096 31.7543 84.5063 45.0695 79.2997 47.2415C79.2623 47.2575 79.2237 47.2639 79.1852 47.2639H79.1863Z" fill="#3F424A"/>
<path d="M78.6556 46.8297C78.5582 46.9644 78.4544 47.0928 78.3442 47.2104C78.2661 47.2232 78.188 47.2328 78.111 47.2393C75.4124 47.4553 74.3028 46.1463 74.0332 44.4962C74.1391 44.2577 74.2707 44.0257 74.4312 43.8022C75.4584 42.3702 77.2368 41.8879 78.402 42.7231C79.5683 43.5594 79.6828 45.3967 78.6556 46.8286V46.8297Z" fill="#FBFEFF"/>
<path d="M124.999 43.323V57.297C124.999 57.7247 124.652 58.0712 124.225 58.0712H113.076C112.649 58.0712 112.302 57.7247 112.302 57.297V43.323C112.302 42.8963 112.649 42.5498 113.076 42.5498H124.225C124.652 42.5498 124.999 42.8963 124.999 43.323Z" fill="white"/>
<path d="M124.225 58.3675H113.076C112.485 58.3675 112.005 57.8873 112.005 57.2959V43.3219C112.005 42.7316 112.485 42.2515 113.076 42.2515H124.225C124.816 42.2515 125.296 42.7316 125.296 43.3219V57.2959C125.296 57.8863 124.816 58.3675 124.225 58.3675ZM113.076 42.8461C112.813 42.8461 112.6 43.0599 112.6 43.3219V57.2959C112.6 57.559 112.814 57.7729 113.076 57.7729H124.225C124.489 57.7729 124.701 57.559 124.701 57.2959V43.3219C124.701 43.0589 124.487 42.8461 124.225 42.8461H113.076Z" fill="#3F424A"/>
<path d="M123.559 44.2515H114.78C114.352 44.2515 114.005 44.598 114.005 45.0257V58.9997C114.005 59.4275 114.352 59.774 114.78 59.774H125.928C126.356 59.774 126.703 59.4275 126.703 58.9997V47.3945L123.559 44.2525V44.2515Z" fill="white"/>
<path d="M125.929 60.07H114.78C114.189 60.07 113.708 59.5899 113.708 58.9996V45.0256C113.708 44.4352 114.189 43.9551 114.78 43.9551H123.559C123.638 43.9551 123.713 43.9861 123.769 44.0417L126.912 47.1836C126.968 47.2392 126.999 47.3152 126.999 47.3932V58.9985C126.999 59.5888 126.519 60.069 125.928 60.069L125.929 60.07ZM114.78 44.5486C114.516 44.5486 114.302 44.7625 114.302 45.0256V58.9996C114.302 59.2626 114.516 59.4765 114.78 59.4765H125.929C126.192 59.4765 126.406 59.2626 126.406 58.9996V47.5173L123.437 44.5497H114.781L114.78 44.5486Z" fill="#3F424A"/>
<path d="M123.921 49.5791H116.786C116.482 49.5791 116.234 49.8262 116.234 50.1309C116.234 50.4357 116.482 50.6827 116.786 50.6827H123.921C124.226 50.6827 124.473 50.4357 124.473 50.1309C124.473 49.8262 124.226 49.5791 123.921 49.5791Z" fill="white"/>
<path d="M123.921 50.98H116.787C116.318 50.98 115.937 50.5993 115.937 50.1309C115.937 49.6624 116.318 49.2817 116.787 49.2817H123.921C124.39 49.2817 124.771 49.6624 124.771 50.1309C124.771 50.5993 124.39 50.98 123.921 50.98ZM116.787 49.8763C116.646 49.8763 116.532 49.9908 116.532 50.1309C116.532 50.2709 116.646 50.3854 116.787 50.3854H123.921C124.061 50.3854 124.176 50.2709 124.176 50.1309C124.176 49.9908 124.061 49.8763 123.921 49.8763H116.787Z" fill="#3F424A"/>
<path d="M123.921 52.415H116.786C116.482 52.415 116.234 52.6621 116.234 52.9669C116.234 53.2716 116.482 53.5187 116.786 53.5187H123.921C124.226 53.5187 124.473 53.2716 124.473 52.9669C124.473 52.6621 124.226 52.415 123.921 52.415Z" fill="white"/>
<path d="M123.921 53.8159H116.787C116.318 53.8159 115.937 53.4352 115.937 52.9668C115.937 52.4984 116.318 52.1177 116.787 52.1177H123.921C124.39 52.1177 124.771 52.4984 124.771 52.9668C124.771 53.4352 124.39 53.8159 123.921 53.8159ZM116.787 52.7123C116.646 52.7123 116.532 52.8267 116.532 52.9668C116.532 53.1069 116.646 53.2213 116.787 53.2213H123.921C124.061 53.2213 124.176 53.1069 124.176 52.9668C124.176 52.8267 124.061 52.7123 123.921 52.7123H116.787Z" fill="#3F424A"/>
<path d="M123.921 55.251H116.786C116.482 55.251 116.234 55.498 116.234 55.8028C116.234 56.1075 116.482 56.3546 116.786 56.3546H123.921C124.226 56.3546 124.473 56.1075 124.473 55.8028C124.473 55.498 124.226 55.251 123.921 55.251Z" fill="white"/>
<path d="M123.921 56.6509H116.787C116.318 56.6509 115.937 56.2702 115.937 55.8017C115.937 55.3333 116.318 54.9526 116.787 54.9526H123.921C124.39 54.9526 124.771 55.3333 124.771 55.8017C124.771 56.2702 124.39 56.6509 123.921 56.6509ZM116.787 55.5472C116.646 55.5472 116.532 55.6617 116.532 55.8017C116.532 55.9418 116.646 56.0563 116.787 56.0563H123.921C124.061 56.0563 124.176 55.9418 124.176 55.8017C124.176 55.6617 124.061 55.5472 123.921 55.5472H116.787Z" fill="#3F424A"/>
<path d="M123.559 46.6201C123.559 47.0479 123.905 47.3944 124.333 47.3944H126.702L123.559 44.2524V46.6201Z" fill="white"/>
<path d="M126.702 47.6907H124.333C123.743 47.6907 123.262 47.2105 123.262 46.6202V44.2525C123.262 44.1327 123.335 44.0236 123.445 43.9777C123.556 43.9317 123.684 43.9573 123.769 44.0418L126.913 47.1837C126.998 47.2682 127.023 47.3966 126.977 47.5078C126.931 47.619 126.823 47.6907 126.702 47.6907ZM123.856 44.969V46.6202C123.856 46.8832 124.07 47.0971 124.333 47.0971H125.985L123.856 44.969Z" fill="#3F424A"/>
<path d="M31.1136 2.17525C31.6004 1.9635 31.9878 1.57531 32.1996 1.0898L32.4789 0.449219L32.7582 1.0898C32.97 1.57638 33.3584 1.9635 33.8442 2.17525L34.4851 2.45436L33.8442 2.73348C33.3574 2.94522 32.97 3.33342 32.7582 3.81893L32.4789 4.45951L32.1996 3.81893C31.9878 3.33235 31.5994 2.94522 31.1136 2.73348L30.4727 2.45436L31.1136 2.17525Z" fill="#15CBB9"/>
<path d="M113.02 87.2992C113.392 87.1367 113.69 86.8405 113.851 86.4683L114.065 85.9785L114.279 86.4683C114.442 86.8405 114.738 87.1378 115.111 87.2992L115.601 87.5131L115.111 87.727C114.738 87.8896 114.441 88.1858 114.279 88.5579L114.065 89.0477L113.851 88.5579C113.689 88.1858 113.392 87.8885 113.02 87.727L112.53 87.5131L113.02 87.2992Z" fill="#EA8696"/>
<path d="M119.649 96.1922C120.238 95.9355 120.708 95.466 120.964 94.8779L121.302 94.1025L121.641 94.8779C121.897 95.466 122.367 95.9355 122.956 96.1922L123.731 96.5301L122.956 96.868C122.367 97.1247 121.897 97.5942 121.641 98.1823L121.302 98.9577L120.964 98.1823C120.708 97.5942 120.238 97.1247 119.649 96.868L118.874 96.5301L119.649 96.1922Z" fill="#15CBB9"/>
<path d="M70.5323 2.94195C71.3616 2.58049 72.0228 1.91959 72.3845 1.0908L72.8606 0L73.3368 1.0908C73.6984 1.91959 74.3597 2.58049 75.1889 2.94195L76.2803 3.41784L75.1889 3.89372C74.3597 4.25519 73.6984 4.91608 73.3368 5.74487L72.8606 6.83567L72.3845 5.74487C72.0228 4.91608 71.3616 4.25519 70.5323 3.89372L69.4409 3.41784L70.5323 2.94195Z" fill="#EA8696"/>
<path d="M106.106 20.6545C106.73 20.3829 107.228 19.8856 107.499 19.2621L107.857 18.4419L108.214 19.2621C108.486 19.8856 108.984 20.3829 109.607 20.6545L110.428 21.0117L109.607 21.3689C108.984 21.6405 108.486 22.1378 108.214 22.7612L107.857 23.5815L107.499 22.7612C107.228 22.1378 106.73 21.6405 106.106 21.3689L105.286 21.0117L106.106 20.6545Z" fill="#EA8696"/>
<path d="M65.53 29.5724C66.2049 29.5724 66.752 29.0256 66.752 28.3511C66.752 27.6767 66.2049 27.1299 65.53 27.1299C64.8552 27.1299 64.3081 27.6767 64.3081 28.3511C64.3081 29.0256 64.8552 29.5724 65.53 29.5724Z" fill="#15CBB9"/>
<path d="M37.2952 92.4679C37.97 92.4679 38.5171 91.9211 38.5171 91.2467C38.5171 90.5722 37.97 90.0254 37.2952 90.0254C36.6203 90.0254 36.0732 90.5722 36.0732 91.2467C36.0732 91.9211 36.6203 92.4679 37.2952 92.4679Z" fill="#15CBB9"/>
<path d="M67.4407 91.7923L60.7715 84.7876C60.2247 84.2133 59.2606 84.6422 59.3205 85.4325L60.0567 95.0743C60.1134 95.8164 61.0336 96.1255 61.5279 95.5694L63.0259 93.8819L64.9113 98.12C65.1007 98.5456 65.5982 98.737 66.0241 98.5477C66.4499 98.3584 66.6414 97.8612 66.4521 97.4355L64.5667 93.1975L66.8244 93.2156C67.5691 93.2221 67.9554 92.3312 67.4418 91.7923H67.4407Z" fill="white"/>
<path d="M65.6826 98.9164C65.246 98.9164 64.8277 98.664 64.6394 98.2395L62.9413 94.4227L61.7493 95.7649C61.4401 96.1135 60.9736 96.2375 60.5327 96.0889C60.0919 95.9402 59.7955 95.5595 59.7602 95.0954L59.024 85.4536C58.9866 84.967 59.2509 84.5243 59.697 84.3264C60.1432 84.1275 60.6493 84.228 60.9864 84.582L67.6557 91.5867C67.9767 91.9235 68.0612 92.3983 67.8761 92.825C67.6921 93.2485 67.2919 93.5116 66.8307 93.5116C66.8275 93.5116 66.8243 93.5116 66.8211 93.5116L65.0256 93.4966L66.7237 97.3134C66.8478 97.5914 66.8553 97.9015 66.7462 98.1849C66.637 98.4694 66.423 98.694 66.1448 98.817C65.995 98.8833 65.8378 98.9153 65.6837 98.9153L65.6826 98.9164ZM63.0258 93.5843C63.0408 93.5843 63.0558 93.5854 63.0707 93.5875C63.1703 93.6025 63.2559 93.6677 63.2965 93.7608L65.1818 97.9989C65.3038 98.2737 65.627 98.3977 65.902 98.2758C66.0357 98.217 66.1374 98.109 66.1898 97.9732C66.2422 97.8374 66.2379 97.6887 66.1791 97.5561L64.2938 93.318C64.2531 93.2261 64.2617 93.1191 64.3162 93.0347C64.3708 92.9512 64.465 92.901 64.5645 92.901H64.5666L66.8243 92.9192H66.8296C67.0533 92.9192 67.2405 92.7962 67.3293 92.5908C67.4192 92.3834 67.3796 92.162 67.2245 91.9973L60.5552 84.9927C60.3594 84.7874 60.1079 84.7948 59.9378 84.8708C59.7677 84.9467 59.5943 85.1274 59.6157 85.4108L60.3519 95.0526C60.369 95.2783 60.507 95.4558 60.7221 95.5285C60.9372 95.6002 61.1544 95.5424 61.3042 95.3735L62.8022 93.6859C62.8589 93.6218 62.9402 93.5865 63.0247 93.5865L63.0258 93.5843Z" fill="#3F424A"/>
<path d="M111.652 72.0899H111.651C111.239 72.0877 110.808 72.0631 110.371 72.0161C110.225 72 110.118 71.8685 110.134 71.722C110.15 71.5755 110.282 71.4696 110.428 71.4846C110.846 71.5295 111.258 71.553 111.653 71.5552C111.801 71.5552 111.921 71.676 111.92 71.8236C111.92 71.9712 111.8 72.0899 111.652 72.0899ZM112.901 72.0193C112.767 72.0193 112.652 71.9198 112.635 71.784C112.617 71.6375 112.722 71.5038 112.869 71.4867C113.278 71.4365 113.679 71.3584 114.056 71.2536C114.199 71.214 114.346 71.2974 114.386 71.4397C114.425 71.5819 114.342 71.7295 114.2 71.7691C113.796 71.8813 113.37 71.9648 112.934 72.0182C112.923 72.0193 112.911 72.0204 112.901 72.0204V72.0193ZM109.16 71.8311C109.145 71.8311 109.129 71.83 109.114 71.8268C108.701 71.7541 108.289 71.6953 107.889 71.6514C107.742 71.6354 107.636 71.5028 107.652 71.3563C107.668 71.2098 107.8 71.1039 107.948 71.1199C108.359 71.1648 108.782 71.2258 109.206 71.2996C109.352 71.3252 109.449 71.4632 109.423 71.6086C109.401 71.738 109.287 71.83 109.16 71.83V71.8311ZM105.412 71.5648C105.269 71.5648 105.152 71.4536 105.144 71.3092C105.138 71.1616 105.251 71.0365 105.399 71.0301C105.815 71.0108 106.247 71.0098 106.675 71.0258C106.823 71.0312 106.939 71.1552 106.933 71.3028C106.928 71.4504 106.8 71.5648 106.656 71.5605C106.243 71.5455 105.825 71.5466 105.424 71.5648C105.419 71.5648 105.415 71.5648 105.411 71.5648H105.412ZM115.301 71.3445C115.2 71.3445 115.104 71.2878 115.059 71.1916C114.996 71.0579 115.052 70.8986 115.186 70.8355C115.549 70.6644 115.898 70.459 116.223 70.227C116.343 70.1414 116.51 70.1692 116.596 70.289C116.683 70.4088 116.654 70.5756 116.534 70.6622C116.183 70.9135 115.807 71.1349 115.414 71.3199C115.378 71.337 115.338 71.3456 115.3 71.3456L115.301 71.3445ZM117.328 69.8965C117.261 69.8965 117.194 69.8709 117.141 69.8206C117.035 69.7169 117.034 69.5479 117.137 69.442C117.412 69.1608 117.673 68.8485 117.913 68.5116C117.998 68.3908 118.165 68.363 118.286 68.4485C118.407 68.5341 118.435 68.7009 118.349 68.8218C118.093 69.1811 117.815 69.5158 117.52 69.8163C117.467 69.8698 117.398 69.8965 117.328 69.8965ZM118.785 67.8657C118.743 67.8657 118.7 67.8561 118.66 67.8347C118.53 67.7663 118.48 67.6048 118.548 67.4732C118.732 67.1246 118.902 66.7492 119.055 66.3589C119.109 66.221 119.264 66.1536 119.402 66.207C119.54 66.2605 119.607 66.4156 119.554 66.5535C119.395 66.9631 119.215 67.3556 119.022 67.7224C118.974 67.8133 118.881 67.8657 118.786 67.8657H118.785ZM119.704 65.5344C119.679 65.5344 119.655 65.5312 119.63 65.5237C119.488 65.4831 119.405 65.3355 119.446 65.1932C119.556 64.8093 119.653 64.4062 119.737 63.9934C119.766 63.849 119.907 63.7549 120.053 63.7838C120.197 63.8126 120.291 63.9538 120.262 64.0992C120.177 64.5249 120.075 64.943 119.962 65.3398C119.928 65.4574 119.821 65.5333 119.705 65.5333L119.704 65.5344ZM120.205 63.0747C120.193 63.0747 120.181 63.0747 120.169 63.0726C120.023 63.0534 119.92 62.9197 119.938 62.7732C119.991 62.3689 120.031 61.954 120.058 61.5391C120.068 61.3915 120.197 61.2813 120.343 61.2899C120.49 61.2995 120.601 61.4268 120.592 61.5744C120.564 62 120.522 62.4267 120.469 62.8427C120.452 62.9774 120.336 63.0758 120.203 63.0758L120.205 63.0747ZM120.366 60.567C120.218 60.567 120.099 60.4483 120.099 60.3007C120.099 59.9788 120.087 59.7906 120.087 59.7895C120.078 59.6419 120.191 59.5157 120.338 59.5072C120.484 59.4997 120.612 59.6109 120.621 59.7585C120.621 59.7671 120.633 59.9617 120.634 60.3007C120.634 60.4483 120.515 60.568 120.367 60.5691L120.366 60.567Z" fill="#3F424A"/>
<path d="M80.6381 108.572C80.3161 108.572 79.9908 108.563 79.6719 108.543C79.5243 108.535 79.4119 108.407 79.4215 108.26C79.4301 108.112 79.5564 108.001 79.7051 108.01C80.0132 108.028 80.3278 108.037 80.6392 108.037C80.7269 108.037 80.8211 108.037 80.912 108.035H80.9356C80.9356 108.035 80.9399 108.035 80.942 108.035C81.0864 108.035 81.2052 108.151 81.2095 108.296C81.2127 108.444 81.0961 108.567 80.9484 108.57H80.9195C80.8264 108.572 80.7301 108.573 80.6381 108.573V108.572ZM82.1918 108.493C82.0569 108.493 81.9403 108.391 81.9264 108.254C81.9103 108.107 82.0173 107.975 82.1639 107.959C82.5748 107.916 82.9836 107.854 83.3773 107.773C83.5218 107.744 83.663 107.837 83.693 107.982C83.7229 108.126 83.6288 108.267 83.4843 108.297C83.0745 108.381 82.6497 108.446 82.2217 108.491C82.2121 108.491 82.2025 108.492 82.1928 108.492L82.1918 108.493ZM78.4425 108.417C78.4296 108.417 78.4168 108.417 78.404 108.414C77.9835 108.354 77.5619 108.275 77.1499 108.179C77.0066 108.145 76.9167 108.001 76.9498 107.858C76.983 107.715 77.1264 107.625 77.2708 107.658C77.6678 107.75 78.0744 107.826 78.4799 107.885C78.6265 107.906 78.7282 108.041 78.7068 108.187C78.6875 108.321 78.573 108.416 78.4425 108.416V108.417ZM84.6442 107.991C84.5308 107.991 84.4248 107.918 84.3885 107.803C84.3446 107.662 84.4227 107.512 84.5639 107.469C84.9545 107.347 85.3408 107.203 85.711 107.043C85.8469 106.984 86.0042 107.046 86.063 107.182C86.1219 107.318 86.0598 107.475 85.9239 107.534C85.5355 107.702 85.1321 107.852 84.7234 107.98C84.6966 107.988 84.6699 107.991 84.6431 107.991H84.6442ZM76.004 107.85C75.9761 107.85 75.9483 107.846 75.9216 107.837C75.5193 107.706 75.1169 107.556 74.7264 107.392C74.5905 107.334 74.5263 107.177 74.5841 107.041C74.6419 106.905 74.7992 106.842 74.935 106.899C75.3117 107.058 75.699 107.202 76.0874 107.33C76.2276 107.376 76.3046 107.526 76.2586 107.666C76.2222 107.78 76.1174 107.851 76.004 107.851V107.85ZM86.9393 106.996C86.8462 106.996 86.7564 106.948 86.7071 106.861C86.6344 106.733 86.6783 106.569 86.8067 106.496C87.1587 106.295 87.5054 106.073 87.8349 105.833C87.9548 105.747 88.1217 105.774 88.2083 105.893C88.295 106.013 88.2683 106.18 88.1484 106.267C87.8028 106.517 87.4401 106.75 87.0709 106.961C87.0292 106.984 86.9832 106.996 86.9383 106.996H86.9393ZM73.696 106.876C73.6543 106.876 73.6115 106.866 73.5719 106.845C73.1995 106.649 72.8282 106.434 72.4676 106.206C72.3424 106.126 72.3061 105.961 72.3852 105.837C72.4644 105.712 72.6292 105.675 72.7544 105.754C73.1032 105.976 73.4617 106.183 73.8212 106.372C73.9517 106.441 74.002 106.603 73.9335 106.734C73.8854 106.825 73.7923 106.877 73.6971 106.877L73.696 106.876ZM71.5785 105.535C71.5228 105.535 71.4661 105.518 71.418 105.482C71.082 105.23 70.7481 104.961 70.4261 104.681C70.3148 104.583 70.303 104.414 70.3993 104.303C70.4967 104.192 70.6658 104.18 70.777 104.276C71.0895 104.548 71.4126 104.809 71.7379 105.053C71.8567 105.142 71.8802 105.308 71.7914 105.427C71.739 105.498 71.6587 105.534 71.5774 105.534L71.5785 105.535ZM88.967 105.531C88.8931 105.531 88.8204 105.501 88.768 105.442C88.6695 105.332 88.6781 105.163 88.7883 105.065C89.0879 104.795 89.3811 104.505 89.6593 104.2C89.7588 104.091 89.9278 104.084 90.037 104.183C90.1461 104.283 90.1536 104.452 90.0541 104.561C89.7641 104.878 89.4581 105.181 89.1457 105.462C89.0943 105.508 89.0312 105.531 88.967 105.531ZM69.6835 103.891C69.615 103.891 69.5465 103.866 69.4941 103.813C69.1977 103.517 68.9045 103.205 68.6231 102.885C68.5258 102.774 68.5365 102.605 68.6477 102.508C68.759 102.41 68.9281 102.421 69.0255 102.532C69.2994 102.843 69.584 103.147 69.8718 103.435C69.9767 103.54 69.9767 103.709 69.8718 103.813C69.8194 103.866 69.7509 103.891 69.6824 103.891H69.6835ZM90.6565 103.685C90.6009 103.685 90.5441 103.668 90.496 103.632C90.3783 103.543 90.3548 103.375 90.4436 103.257C90.6865 102.935 90.9219 102.595 91.1423 102.244C91.2204 102.119 91.3862 102.082 91.5114 102.16C91.6366 102.238 91.6741 102.404 91.5959 102.529C91.368 102.891 91.1241 103.245 90.8716 103.579C90.8191 103.649 90.7389 103.685 90.6576 103.685H90.6565ZM68.0261 102.007C67.9458 102.007 67.8667 101.972 67.8142 101.903C67.5553 101.569 67.3038 101.222 67.0674 100.872C66.985 100.751 67.016 100.584 67.139 100.501C67.261 100.419 67.4279 100.45 67.5103 100.573C67.7404 100.913 67.9854 101.25 68.2379 101.576C68.3278 101.693 68.3064 101.861 68.1898 101.951C68.1406 101.989 68.0839 102.007 68.0261 102.007ZM91.9918 101.566C91.9501 101.566 91.9073 101.557 91.8677 101.535C91.7372 101.467 91.6858 101.306 91.7543 101.175C91.9416 100.817 92.1202 100.443 92.2861 100.061C92.3449 99.9249 92.5022 99.864 92.6381 99.9217C92.774 99.9805 92.8361 100.138 92.7772 100.274C92.606 100.667 92.422 101.053 92.2283 101.423C92.1802 101.514 92.0871 101.566 91.9908 101.566H91.9918ZM66.6169 99.9281C66.5249 99.9281 66.4361 99.8811 66.3858 99.7966C65.9835 99.1111 65.7876 98.6759 65.7791 98.6577C65.7192 98.5229 65.7791 98.3647 65.9139 98.3048C66.0487 98.2449 66.2071 98.3048 66.267 98.4395C66.2691 98.4438 66.4596 98.8683 66.8459 99.526C66.9208 99.6533 66.878 99.8169 66.7506 99.8918C66.7078 99.9164 66.6618 99.9281 66.6158 99.9281H66.6169ZM92.9912 99.2694C92.9613 99.2694 92.9313 99.264 92.9013 99.2533C92.7622 99.2041 92.6895 99.0512 92.7387 98.9122C92.8757 98.5283 93.0019 98.1326 93.1164 97.7348C93.1571 97.5925 93.3047 97.5102 93.447 97.5508C93.5894 97.5915 93.6717 97.7391 93.6311 97.8813C93.5145 98.2898 93.3839 98.6972 93.2437 99.0908C93.2052 99.1999 93.1014 99.2683 92.9912 99.2683V99.2694ZM93.6824 96.86C93.6632 96.86 93.6439 96.8579 93.6236 96.8536C93.4791 96.8215 93.3882 96.6782 93.4203 96.5349C93.5091 96.1371 93.5883 95.7275 93.6557 95.3179C93.6792 95.1725 93.8183 95.0741 93.9628 95.0976C94.1083 95.1211 94.2078 95.2591 94.1832 95.4045C94.1147 95.8237 94.0334 96.243 93.9424 96.6504C93.9146 96.7744 93.8044 96.86 93.6814 96.86H93.6824ZM94.0901 94.3854C94.0805 94.3854 94.0709 94.3854 94.0612 94.3843C93.9146 94.3683 93.8076 94.2367 93.8237 94.0902C93.8686 93.6806 93.9018 93.2646 93.9243 92.854C93.9328 92.7064 94.0602 92.5898 94.2057 92.6016C94.3533 92.6102 94.4667 92.7353 94.4582 92.8829C94.4357 93.3031 94.4004 93.7288 94.3555 94.148C94.3405 94.2849 94.2249 94.3864 94.0901 94.3864V94.3854ZM94.2271 91.8808C94.0794 91.8808 93.9596 91.761 93.9596 91.6135V91.5846C93.9596 91.1804 93.9489 90.774 93.9275 90.374C93.92 90.2264 94.0334 90.1003 94.18 90.0928C94.3287 90.0831 94.4539 90.1986 94.4614 90.3451C94.4828 90.7537 94.4935 91.1707 94.4935 91.5835V91.6124C94.4935 91.76 94.3737 91.8798 94.226 91.8798L94.2271 91.8808ZM94.0955 89.3773C93.9585 89.3773 93.8429 89.2736 93.829 89.1346C93.7894 88.7132 93.7584 88.2887 93.737 87.8727C93.7295 87.7251 93.8429 87.6 93.9906 87.5925C94.1383 87.585 94.2634 87.6984 94.2709 87.8459C94.2913 88.2545 94.3223 88.6715 94.3608 89.0854C94.3747 89.233 94.2667 89.3624 94.1201 89.3763C94.1115 89.3763 94.103 89.3773 94.0944 89.3773H94.0955ZM93.9681 86.8728C93.8215 86.8728 93.7017 86.7541 93.7006 86.6076C93.7006 86.5466 93.7006 86.4867 93.7006 86.4268C93.7006 86.0632 93.7081 85.6986 93.7231 85.3414C93.7285 85.1981 93.8472 85.0847 93.9906 85.0847C93.9949 85.0847 93.9981 85.0847 94.0013 85.0847C94.149 85.0911 94.2635 85.2152 94.2581 85.3628C94.2442 85.7125 94.2367 86.0707 94.2367 86.4268C94.2367 86.4856 94.2367 86.5455 94.2367 86.6044C94.2367 86.7519 94.119 86.8728 93.9713 86.8738H93.9692L93.9681 86.8728ZM94.0719 84.3671C94.0634 84.3671 94.0559 84.3671 94.0473 84.3661C93.8997 84.3522 93.7916 84.2228 93.8055 84.0752C93.844 83.6496 93.8954 83.2261 93.9553 82.8154C93.9767 82.6689 94.1126 82.5684 94.2592 82.5898C94.4058 82.6112 94.5063 82.747 94.4849 82.8935C94.4261 83.2945 94.3769 83.7084 94.3384 84.1244C94.3255 84.2634 94.2089 84.3671 94.0719 84.3671Z" fill="#3F424A"/>
<path d="M14.5958 100.426C12.7725 100.426 11.0381 99.3461 10.2987 97.5591C9.82468 96.4138 9.82575 95.1519 10.3008 94.0076C10.7759 92.8623 11.6694 91.9714 12.8153 91.4977C15.1811 90.5203 17.9021 91.6474 18.8811 94.0119C19.8602 96.3763 18.7313 99.0959 16.3656 100.074C15.7867 100.314 15.1875 100.426 14.5969 100.426H14.5958ZM14.584 91.7394C14.0694 91.7394 13.5461 91.8378 13.0422 92.0463C12.0428 92.4591 11.2638 93.2366 10.8497 94.2354C10.4356 95.2342 10.4346 96.3336 10.8487 97.3324C11.7025 99.3942 14.0747 100.378 16.1377 99.5247C18.2006 98.6713 19.185 96.3004 18.3311 94.2386C17.687 92.6805 16.1751 91.7383 14.584 91.7383V91.7394Z" fill="#3F424A"/>
<path d="M15.9944 100.146C15.5365 100.146 15.0079 99.848 14.4676 99.2748C13.8405 98.6107 13.2435 97.6365 12.7866 96.5317C11.9263 94.4528 11.6438 91.9825 12.8155 91.498C13.3462 91.2788 14.0203 91.5622 14.7137 92.2969C15.3407 92.961 15.9377 93.9352 16.3946 95.0399C17.2549 97.1189 17.5374 99.5892 16.3657 100.074C16.2491 100.122 16.125 100.146 15.9955 100.146H15.9944ZM13.1921 92.0188C13.1376 92.0188 13.0883 92.0285 13.0423 92.0466C12.4496 92.2915 12.4496 94.1651 13.3355 96.305C13.7656 97.3445 14.321 98.2546 14.8998 98.8673C15.3974 99.3946 15.8596 99.6405 16.1378 99.525C16.7306 99.2801 16.7306 97.4076 15.8446 95.2666C15.4145 94.2272 14.8592 93.3171 14.2803 92.7043C13.8641 92.2627 13.4714 92.0188 13.1911 92.0188H13.1921Z" fill="#3F424A"/>
<path d="M10.5771 97.7405C10.4604 97.7405 10.3502 97.671 10.3021 97.5566C10.2389 97.4047 10.3117 97.2315 10.4626 97.1684L18.4908 93.8489C18.6427 93.7858 18.816 93.8586 18.8792 94.0094C18.9423 94.1612 18.8695 94.3345 18.7187 94.3975L10.6905 97.717C10.653 97.732 10.6145 97.7395 10.5771 97.7395V97.7405Z" fill="#3F424A"/>
<path d="M100.886 3.41698C101.787 3.41698 102.517 2.68682 102.517 1.78612C102.517 0.885431 101.787 0.155273 100.886 0.155273C99.9845 0.155273 99.2539 0.885431 99.2539 1.78612C99.2539 2.68682 99.9845 3.41698 100.886 3.41698Z" fill="#15CBB9"/>
<path d="M108.28 3.41698C109.181 3.41698 109.912 2.68682 109.912 1.78612C109.912 0.885431 109.181 0.155273 108.28 0.155273C107.379 0.155273 106.648 0.885431 106.648 1.78612C106.648 2.68682 107.379 3.41698 108.28 3.41698Z" fill="#15CBB9"/>
<path d="M115.675 3.41698C116.576 3.41698 117.307 2.68682 117.307 1.78612C117.307 0.885431 116.576 0.155273 115.675 0.155273C114.774 0.155273 114.043 0.885431 114.043 1.78612C114.043 2.68682 114.774 3.41698 115.675 3.41698Z" fill="#15CBB9"/>
<path d="M116.297 122.911H10.6959C10.5322 122.911 10.3984 122.778 10.3984 122.614C10.3984 122.449 10.5311 122.316 10.6959 122.316H116.297C116.461 122.316 116.595 122.449 116.595 122.614C116.595 122.778 116.462 122.911 116.297 122.911Z" fill="#3F424A"/>
<path d="M86.3307 127.001H40.6622C40.4985 127.001 40.3647 126.868 40.3647 126.704C40.3647 126.539 40.4974 126.406 40.6622 126.406H86.3307C86.4944 126.406 86.6282 126.539 86.6282 126.704C86.6282 126.868 86.4955 127.001 86.3307 127.001Z" fill="#3F424A"/>
<path d="M35.4526 127.001H25.1935C25.0297 127.001 24.896 126.868 24.896 126.704C24.896 126.539 25.0287 126.406 25.1935 126.406H35.4526C35.6163 126.406 35.75 126.539 35.75 126.704C35.75 126.868 35.6174 127.001 35.4526 127.001Z" fill="#3F424A"/>
<path d="M102.812 127.001H95.9894C95.8256 127.001 95.6919 126.868 95.6919 126.704C95.6919 126.539 95.8246 126.406 95.9894 126.406H102.812C102.975 126.406 103.109 126.539 103.109 126.704C103.109 126.868 102.976 127.001 102.812 127.001Z" fill="#3F424A"/>
</g>
<defs>
<clipPath id="clip0_502_6560">
<rect width="127" height="127" fill="white"/>
</clipPath>
</defs>
</svg>
