<svg width="114" height="137" viewBox="0 0 114 137" fill="none" xmlns="http://www.w3.org/2000/svg">
<g clip-path="url(#clip0_502_5778)">
<path d="M23.3857 72.1408C25.6736 76.8501 34.5509 90.1489 34.5509 90.1489L28.2363 95.4136L30.8897 101.601C30.8897 101.601 37.8422 98.7171 42.2841 96.4462C44.3484 95.3913 45.87 94.4671 45.8988 94.0279C45.9232 93.6568 45.5001 91.9627 44.8346 89.5655C43.0228 83.0246 39.4159 71.2457 38.211 66.7856C36.5631 60.6905 34.1024 56.6796 28.1443 57.9201C21.3757 59.3282 21.0977 67.4326 23.3846 72.1419L23.3857 72.1408Z" fill="#15CBB9"/>
<path d="M40.8765 93.4455C40.8765 94.6536 41.4246 95.7331 42.2829 96.4461C44.3472 95.3912 45.8688 94.467 45.8976 94.0278C45.922 93.6567 45.4989 91.9626 44.8333 89.5654C44.7968 89.5654 44.7591 89.5654 44.7226 89.5654C42.5985 89.5654 40.8765 91.3032 40.8765 93.4466V93.4455Z" fill="#0F9386"/>
<path d="M29.8832 96.5365C29.922 96.5365 29.9608 96.5253 29.9951 96.5008L37.9565 90.96C38.0451 90.8985 38.0683 90.7778 38.0107 90.6873L26.345 72.3809C26.2852 72.2881 26.1634 72.2613 26.0714 72.3205C25.9795 72.3797 25.9529 72.5038 26.0116 72.5965L37.5733 90.7409L29.7692 96.1722C29.6795 96.2348 29.6562 96.3599 29.7182 96.4505C29.757 96.5063 29.819 96.5365 29.8821 96.5365H29.8832Z" fill="#3F424A"/>
<path d="M26.1787 72.6883C26.2241 72.6883 26.2684 72.6727 26.3038 72.6436L27.3049 71.82C28.017 71.2344 28.388 70.3337 28.295 69.4106L27.7468 63.9369C27.7357 63.8273 27.6383 63.7469 27.5297 63.7581C27.4212 63.7692 27.3415 63.8676 27.3525 63.9771L27.9007 69.4508C27.9793 70.2398 27.6637 71.0087 27.0546 71.5093L26.3326 72.1027L25.3536 63.9324C25.3403 63.8229 25.2429 63.7435 25.1332 63.7581C25.0247 63.7715 24.9472 63.8709 24.9605 63.9805L25.9826 72.5118C25.9915 72.5844 26.038 72.6459 26.1056 72.6738C26.1299 72.6839 26.1543 72.6883 26.1798 72.6883H26.1787Z" fill="#3F424A"/>
<path d="M28.9739 102.386L20.5873 106.271L19.3613 103.344L26.6859 98.5811L28.9739 102.386Z" fill="white"/>
<path d="M20.5154 106.458C20.4656 106.439 20.4257 106.399 20.4047 106.349L19.1788 103.423C19.1411 103.333 19.1732 103.229 19.2541 103.177L26.5787 98.4138C26.6241 98.3847 26.6783 98.3747 26.7304 98.387C26.7824 98.3993 26.8279 98.4317 26.8555 98.4786L29.1424 102.284C29.1712 102.333 29.1789 102.392 29.1623 102.446C29.1457 102.501 29.107 102.545 29.056 102.569L20.6694 106.455C20.6428 106.467 20.6151 106.472 20.5863 106.472C20.562 106.472 20.5376 106.468 20.5143 106.459L20.5154 106.458ZM26.6219 98.8608L19.6085 103.422L20.6893 106.003L28.6883 102.297L26.6219 98.8597V98.8608Z" fill="#3F424A"/>
<path d="M17.9405 117.857L16.7666 118.393L10.2383 103.844C10.2383 103.844 10.792 103.592 11.6846 103.241C13.8208 102.403 17.904 101.002 21.0059 101.167L23.4157 106.537C23.4157 106.537 19.8896 109.866 19.512 115.562C19.4511 116.467 18.9505 117.278 18.1853 117.729C18.1055 117.775 18.0236 117.818 17.9394 117.857H17.9405Z" fill="#15CBB9"/>
<path d="M17.9405 117.857L16.7666 118.393L10.2383 103.844C10.2383 103.844 10.792 103.591 11.6846 103.24L18.1853 117.728C18.1055 117.775 18.0236 117.817 17.9394 117.857H17.9405Z" fill="white"/>
<path d="M16.586 118.476L10.0577 103.927C10.0355 103.879 10.0344 103.823 10.0533 103.774C10.0721 103.725 10.1086 103.684 10.1574 103.662C10.1629 103.66 10.7266 103.403 11.6136 103.054C11.7122 103.015 11.8229 103.061 11.8661 103.158L18.3668 117.646C18.4089 117.74 18.3735 117.85 18.286 117.902C18.1985 117.953 18.1099 117.999 18.0224 118.039L16.8485 118.576C16.8219 118.588 16.7942 118.593 16.7666 118.593C16.6913 118.593 16.6193 118.55 16.586 118.476ZM17.8585 117.675C17.8817 117.664 17.905 117.652 17.9294 117.641L11.5826 103.497C11.0865 103.694 10.71 103.855 10.5018 103.947L16.8651 118.13L17.8585 117.676V117.675Z" fill="#3F424A"/>
<path d="M23.6337 98.3047L27.2141 104.757C27.3913 105.077 27.7844 105.204 28.1133 105.048L32.2463 103.081C32.6095 102.908 32.7513 102.461 32.5542 102.108L28.6205 95.0515C28.4223 94.6962 27.966 94.5866 27.6305 94.8146L23.8519 97.3838C23.5529 97.5872 23.4588 97.9873 23.6348 98.3036L23.6337 98.3047Z" fill="#EA8696"/>
<path d="M21.2251 116.341L18.4554 125.225L15.4819 124.179L16.8939 115.502L21.2251 116.341Z" fill="white"/>
<path d="M18.3899 125.414L15.4165 124.368C15.3257 124.335 15.2703 124.242 15.2858 124.146L16.6978 115.469C16.7066 115.415 16.7365 115.368 16.7797 115.337C16.824 115.305 16.8783 115.294 16.9303 115.304L21.2615 116.144C21.3169 116.155 21.3656 116.188 21.3944 116.238C21.4232 116.287 21.4299 116.346 21.4133 116.4L18.6447 125.283C18.628 125.334 18.5926 125.378 18.545 125.401C18.5173 125.416 18.4863 125.423 18.4564 125.423C18.4342 125.423 18.4121 125.419 18.3911 125.411L18.3899 125.414ZM17.0555 115.737L15.7044 124.046L18.3279 124.968L20.9692 116.496L17.0566 115.737H17.0555Z" fill="#3F424A"/>
<path d="M25.1973 134.975L24.8042 136.213L9.73193 131.342C9.73193 131.342 9.91688 130.757 10.258 129.854C11.0742 127.693 12.784 123.697 14.9856 121.486L20.5494 123.284C20.5494 123.284 20.6314 128.156 24.565 132.258C25.1896 132.911 25.4498 133.83 25.2682 134.705C25.2494 134.795 25.2261 134.886 25.1973 134.975Z" fill="#15CBB9"/>
<path d="M25.1973 134.975L24.8042 136.213L9.73193 131.342C9.73193 131.342 9.91688 130.757 10.258 129.854L25.2671 134.706C25.2483 134.796 25.225 134.887 25.1962 134.976L25.1973 134.975Z" fill="white"/>
<path d="M24.7433 136.405L9.67108 131.533C9.62125 131.518 9.57917 131.482 9.5548 131.434C9.53044 131.387 9.52601 131.332 9.54262 131.281C9.54483 131.275 9.7331 130.681 10.072 129.783C10.1096 129.684 10.2171 129.631 10.3178 129.664L25.327 134.515C25.4233 134.546 25.482 134.647 25.461 134.748C25.4399 134.848 25.4144 134.945 25.3856 135.037L24.9925 136.275C24.977 136.326 24.9416 136.368 24.8939 136.393C24.8651 136.407 24.8341 136.415 24.8031 136.415C24.7832 136.415 24.7622 136.412 24.7422 136.405H24.7433ZM25.008 134.915C25.0158 134.891 25.0235 134.866 25.0302 134.84L10.3765 130.104C10.1883 130.608 10.0554 130.998 9.98227 131.215L24.6747 135.963L25.0069 134.915H25.008Z" fill="#3F424A"/>
<path d="M9.81273 67.4155C10.8061 75.559 18.3788 95.354 18.3788 95.354L16.0188 113.27L22.5992 114.774L26.5018 101.194L27.3169 98.3613C27.3169 98.3613 27.338 97.2471 27.3402 95.3987C27.3468 90.838 27.2427 81.8117 26.4476 74.0548C25.3302 63.1554 25.3401 56.5932 19.9912 54.509C12.9136 51.7532 8.81714 59.2697 9.81051 67.4144L9.81273 67.4155Z" fill="#15CBB9"/>
<path d="M26.5792 75.6124C26.5859 75.6124 26.5914 75.6124 26.5981 75.6124C26.7066 75.6024 26.7874 75.5051 26.7775 75.3945C26.7354 74.9318 26.6911 74.4748 26.6457 74.0344C26.5227 72.8387 26.4142 71.701 26.3101 70.6025C26.0178 67.5315 25.7641 64.8807 25.3599 62.6389C25.34 62.5305 25.2381 62.4578 25.1296 62.478C25.0222 62.4981 24.9502 62.602 24.9701 62.7104C25.371 64.9354 25.6235 67.5795 25.9148 70.6405C26.02 71.7401 26.1285 72.8778 26.2503 74.0758C26.2957 74.5139 26.3389 74.9698 26.381 75.4314C26.391 75.5353 26.4773 75.6135 26.5781 75.6135L26.5792 75.6124Z" fill="#3F424A"/>
<path d="M14.1574 68.6166C14.2006 68.6166 14.2449 68.6021 14.2814 68.573L14.7941 68.1595C15.6856 67.4399 16.0932 66.2933 15.8584 65.1657L14.7244 59.7311C14.7022 59.6227 14.5959 59.5534 14.4896 59.5768C14.3822 59.5992 14.3135 59.7054 14.3368 59.8138L15.4708 65.2484C15.6746 66.2262 15.3213 67.2231 14.5472 67.8478L14.0344 68.2612C13.9492 68.3305 13.9348 68.4557 14.0034 68.5429C14.0422 68.592 14.0998 68.6177 14.1585 68.6177L14.1574 68.6166Z" fill="#3F424A"/>
<path d="M18.255 111.591C18.3513 111.591 18.4366 111.519 18.451 111.42L20.8098 95.5084C20.8132 95.4827 20.8121 95.4569 20.8065 95.4312L12.6126 61.2278C12.5871 61.1205 12.4786 61.0546 12.3734 61.0803C12.2671 61.106 12.2017 61.2144 12.2272 61.3216L20.4123 95.4871L18.059 111.36C18.0423 111.469 18.1177 111.571 18.2262 111.588C18.2361 111.589 18.2461 111.59 18.2561 111.59L18.255 111.591Z" fill="#3F424A"/>
<path d="M24.4639 101.914C25.1926 102.024 25.9113 101.743 26.5027 101.195L27.3178 98.3616C27.3178 98.3616 27.3388 97.2474 27.3411 95.399C26.9313 94.7095 26.3255 94.2379 25.6024 94.1295C24.0409 93.897 22.5193 95.4515 22.2047 97.6005C21.8902 99.7496 22.9024 101.682 24.4639 101.913V101.914Z" fill="#0F9386"/>
<path d="M14.6435 117.601L21.7876 119.249C22.1419 119.33 22.4985 119.122 22.6037 118.771L23.9304 114.359C24.0467 113.971 23.8131 113.564 23.421 113.475L15.5959 111.687C15.2016 111.596 14.8151 111.865 14.7586 112.269L14.113 116.82C14.0621 117.18 14.2924 117.519 14.6435 117.601Z" fill="#EA8696"/>
<path d="M33.6432 27.9072C35.7816 28.2939 44.2048 35.9602 44.2048 35.9602C44.2048 35.9602 41.7408 43.4824 36.7473 44.6904C36.7473 44.6904 32.6387 38.8915 31.2411 34.3241C29.8435 29.7567 31.3796 27.497 33.6432 27.9061V27.9072Z" fill="#EA8696"/>
<path d="M37.107 43.2587C37.1314 43.2587 37.1569 43.2542 37.1812 43.2441C39.8269 42.1691 42.5567 39.1606 42.6708 39.0332C42.745 38.9517 42.7384 38.8254 42.6575 38.7505C42.5767 38.6767 42.4515 38.6823 42.3773 38.7639C42.3497 38.7941 39.5932 41.8316 37.0328 42.8731C36.9309 42.9145 36.8822 43.0307 36.9232 43.1335C36.9542 43.2117 37.0284 43.2587 37.107 43.2587Z" fill="#3F424A"/>
<path d="M33.0359 27.8617L27.8553 28.5043L16.6757 25.7529L11.4951 46.4822L7.13184 59.9653C7.13184 59.9653 18.3114 66.2023 24.6748 65.9274C31.037 65.6525 38.036 61.8003 38.036 61.8003C38.036 61.8003 34.7636 50.1511 34.4003 44.8316C34.4003 44.8316 36.7636 40.4285 37.3085 38.3197C37.8533 36.2098 33.0359 27.8628 33.0359 27.8628V27.8617Z" fill="#EA8696"/>
<path d="M35.9463 41.9403C36.0205 41.9403 36.0914 41.8979 36.1257 41.8252C36.8356 40.3098 37.2985 39.1476 37.4989 38.3687C37.9585 36.5918 34.9275 30.8521 33.6041 28.4661C33.5509 28.37 33.4302 28.3354 33.3339 28.389C33.2386 28.4427 33.2043 28.5645 33.2574 28.6617C34.2719 30.49 37.5499 36.5862 37.1147 38.2681C36.9198 39.0224 36.4657 40.1623 35.7658 41.6554C35.7193 41.7548 35.7614 41.8744 35.8599 41.9213C35.8876 41.9347 35.9164 41.9403 35.9441 41.9403H35.9463Z" fill="#3F424A"/>
<path d="M28.2017 26.8368C30.7123 27.5889 32.1985 31.2086 29.1785 32.686C29.1785 32.686 28.9349 31.1773 28.4764 30.4386C28.4764 30.4386 28.1718 31.7931 27.4088 32.686C27.4088 32.686 24.7244 31.3316 24.3578 29.1769C23.9913 27.0223 26.2493 26.2523 28.2017 26.8368Z" fill="white"/>
<path d="M27.3204 32.8649C27.2075 32.8079 24.5419 31.4389 24.1631 29.2105C23.9826 28.1455 24.4112 27.5041 24.8032 27.152C25.5873 26.4502 26.9428 26.2513 28.2584 26.6447C29.7557 27.0928 30.9307 28.502 31.0514 29.995C31.15 31.2154 30.4988 32.2625 29.2651 32.866C29.2086 32.894 29.1433 32.8928 29.0868 32.8638C29.0314 32.8347 28.9927 32.7811 28.9827 32.7185C28.9805 32.7062 28.8199 31.7261 28.5253 30.9885C28.3625 31.4803 28.0558 32.2357 27.5596 32.8168C27.5209 32.8627 27.4655 32.8861 27.409 32.8861C27.3791 32.8861 27.3492 32.8794 27.3204 32.8649ZM28.6449 30.3325C29.0026 30.9103 29.2297 31.9038 29.3249 32.3821C30.2651 31.8401 30.7358 31.012 30.656 30.0275C30.5497 28.7143 29.4711 27.4258 28.1455 27.0291C26.9771 26.6793 25.739 26.8492 25.0668 27.4515C24.6127 27.8583 24.4356 28.4439 24.5541 29.1424C24.852 30.8969 26.8165 32.1228 27.3592 32.4313C28.007 31.5898 28.2806 30.4063 28.2828 30.394C28.3005 30.3147 28.3636 30.2543 28.4434 30.2409C28.4545 30.2387 28.4655 30.2387 28.4766 30.2387C28.5442 30.2387 28.6084 30.2733 28.6449 30.3325Z" fill="#3F424A"/>
<path d="M29.9506 24.215L29.3958 28.9433C29.3958 28.9433 28.4346 30.1078 27.3338 29.9133C26.233 29.7189 25.4434 28.2951 25.4434 28.2951L26.5873 23.1611L29.9506 24.215Z" fill="white"/>
<path d="M27.2996 30.1101C26.119 29.9012 25.304 28.4539 25.2696 28.3925C25.2453 28.3489 25.2386 28.2986 25.2486 28.2505L26.3926 23.1166C26.4048 23.0618 26.4391 23.0149 26.4867 22.9869C26.5343 22.959 26.5919 22.9523 26.6451 22.969L30.0084 24.0229C30.0992 24.0519 30.1579 24.1413 30.1468 24.2375L29.592 28.9658C29.5875 29.0038 29.572 29.0406 29.5477 29.0697C29.5089 29.1166 28.6562 30.1347 27.5864 30.1347C27.4923 30.1347 27.3959 30.1269 27.2985 30.1101H27.2996ZM29.7337 24.3559L26.7326 23.4161L25.6528 28.2606C25.8167 28.5299 26.4978 29.5625 27.3671 29.7156C28.2287 29.8676 29.0261 29.0541 29.2055 28.8563L29.7337 24.3559Z" fill="#3F424A"/>
<path d="M24.8522 64.3292C24.8854 64.3292 24.9186 64.3292 24.9518 64.3292C29.4979 64.251 35.7317 61.3789 35.7948 61.3498C35.8945 61.304 35.9376 61.1844 35.8922 61.0839C35.8468 60.9833 35.7283 60.9397 35.6287 60.9855C35.5667 61.0146 29.4071 63.852 24.9452 63.9291C24.9142 63.9291 24.8832 63.9291 24.8511 63.9291C20.3349 63.9291 9.39122 58.5481 9.28047 58.4934C9.18191 58.4453 9.06342 58.4856 9.01469 58.585C8.96596 58.6845 9.00694 58.8041 9.1055 58.8532C9.56066 59.0779 20.2419 64.3292 24.8511 64.3292H24.8522Z" fill="#3F424A"/>
<path d="M24.6685 13.7716C25.6906 15.3316 22.4946 17.4896 21.3428 18.0797C20.1922 18.6686 19.0515 21.8458 16.6329 21.4927C14.2131 21.1384 15.1113 27.1016 8.01589 27.6615C2.54736 28.0929 -2.02526 21.7273 0.928284 19.1983C3.88293 16.6693 9.77672 18.6463 12.4501 16.2994C14.1511 14.8064 15.1799 11.6527 18.809 12.7714C21.5178 13.6062 23.8611 12.5411 24.6685 13.7727V13.7716Z" fill="#3F424A"/>
<path d="M24.86 14.1915L24.2266 13.9344C24.0239 13.8529 23.7936 13.8864 23.6241 14.025C23.4281 14.1859 23.1845 14.4295 23.0494 14.7335C22.8965 15.0777 22.9552 15.451 23.0239 15.6901C23.0682 15.8443 23.1745 15.9717 23.3141 16.0477L24.0007 16.4232C24.334 16.6054 24.7504 16.4344 24.8623 16.069L25.21 14.9358C25.303 14.634 25.1502 14.3099 24.8589 14.1926L24.86 14.1915Z" fill="white"/>
<path d="M23.9063 16.5988L23.2197 16.2233C23.0303 16.1194 22.893 15.9495 22.8343 15.7461C22.7535 15.4656 22.6926 15.0477 22.8686 14.6521C23.0215 14.3068 23.2961 14.0363 23.4988 13.8698C23.7236 13.6854 24.0304 13.6396 24.3006 13.7491L24.934 14.0061C25.3183 14.1615 25.5232 14.5962 25.4003 14.9952L25.0525 16.1283C24.9816 16.3597 24.8133 16.5452 24.5896 16.6368C24.4922 16.6771 24.3892 16.6972 24.2873 16.6972C24.1566 16.6972 24.0248 16.6648 23.9063 16.5999V16.5988ZM24.1522 14.1212C24.016 14.0665 23.8609 14.0888 23.748 14.1816C23.5785 14.3202 23.3504 14.5437 23.2297 14.8163C23.1034 15.1002 23.151 15.4187 23.2142 15.6344C23.243 15.735 23.3127 15.8199 23.408 15.8724L24.0946 16.2479C24.2009 16.306 24.3271 16.3127 24.439 16.2669C24.5508 16.2211 24.6361 16.1272 24.6727 16.0099L25.0204 14.8767C25.0824 14.6755 24.9783 14.4565 24.7856 14.3783L24.1522 14.1212Z" fill="#3F424A"/>
<path d="M33.4837 21.1904C33.4981 23.4467 32.6653 26.102 29.9665 26.1959C27.982 26.2652 25.6442 23.9932 25.2931 20.9669C24.9421 17.9406 25.3075 15.3088 28.9388 15.2663C29.2633 15.263 29.8081 15.3021 30.0994 15.3479C32.2279 15.6865 33.0408 15.8262 33.4505 19.9857C33.4871 20.3534 33.4826 20.7635 33.4837 21.1893V21.1904Z" fill="white"/>
<path d="M29.8888 26.3971C29.9165 26.3971 29.9441 26.3971 29.9729 26.396C32.7305 26.2999 33.6973 23.6435 33.6817 21.1894V21.0262C33.6806 20.6507 33.6795 20.2965 33.6474 19.9668C33.2222 15.643 32.3174 15.4989 30.1302 15.1513C30.0217 15.1345 29.9209 15.2083 29.9032 15.3178C29.8866 15.4273 29.9596 15.529 30.0682 15.5469C32.1546 15.8788 32.8578 15.9906 33.2521 20.0059C33.2831 20.3166 33.2831 20.6619 33.2842 21.0262V21.1905C33.2919 22.2902 33.0727 25.8875 29.9585 25.9948C29.3417 26.016 28.6252 25.7367 27.7071 25.1153C27.6163 25.0538 27.4934 25.0784 27.4325 25.1701C27.3716 25.2617 27.3959 25.3857 27.4867 25.4472C28.4524 26.101 29.1977 26.396 29.8888 26.396V26.3971Z" fill="#3F424A"/>
<path d="M26.3197 21.3147C27.2035 20.8386 27.4925 20.091 27.5368 19.4037C27.5512 19.1332 27.5424 18.77 27.5889 18.437C29.2999 19.9334 32.332 20.6509 33.6477 20.9034C34.0707 20.985 34.5126 20.8006 34.7197 20.4207C36.0054 18.0503 33.8237 13.9534 30.9666 14.3099C27.5025 12.3487 23.859 14.3625 23.5766 17.1854C23.2654 20.3156 25.4393 21.7863 26.3197 21.3136V21.3147Z" fill="#3F424A"/>
<path d="M26.2255 21.0396C26.2255 21.0396 24.6706 19.6058 23.1623 20.1981C21.654 20.7893 22.4502 24.3956 26.221 23.7049L26.2244 21.0396H26.2255Z" fill="white"/>
<path d="M25.3185 23.99C25.6119 23.99 25.9242 23.9621 26.2565 23.9006C26.3639 23.8805 26.4359 23.7766 26.416 23.6682C26.396 23.5598 26.293 23.4871 26.1856 23.5072C24.0593 23.8961 22.9862 22.8881 22.7116 21.9069C22.5189 21.2185 22.7393 20.5782 23.2343 20.3837C24.6108 19.8439 26.0771 21.1738 26.0915 21.1872C26.1723 21.2621 26.2975 21.2565 26.3717 21.1749C26.4459 21.0933 26.4403 20.9671 26.3595 20.8922C26.2919 20.8307 24.6961 19.3824 23.0914 20.0116C22.4015 20.282 22.0814 21.1246 22.3306 22.0164C22.6241 23.0658 23.644 23.9911 25.3196 23.9911L25.3185 23.99Z" fill="#3F424A"/>
<path d="M41.8261 36.0332H26.8646C26.2744 36.0332 25.7959 36.516 25.7959 37.1116V55.8182C25.7959 56.4138 26.2744 56.8966 26.8646 56.8966H41.8261C42.4163 56.8966 42.8948 56.4138 42.8948 55.8182V37.1116C42.8948 36.516 42.4163 36.0332 41.8261 36.0332Z" fill="white"/>
<path d="M41.3763 57.1478H27.314C26.3394 57.1478 25.5454 56.3476 25.5454 55.3631V37.564C25.5454 36.5806 26.3383 35.7793 27.314 35.7793H41.3763C42.3508 35.7793 43.1448 36.5795 43.1448 37.564V55.3631C43.1448 56.3465 42.3519 57.1478 41.3763 57.1478ZM27.314 36.2844C26.6152 36.2844 26.046 36.8588 26.046 37.564V55.3631C26.046 56.0683 26.6152 56.6427 27.314 56.6427H41.3763C42.075 56.6427 42.6443 56.0683 42.6443 55.3631V37.564C42.6443 36.8588 42.075 36.2844 41.3763 36.2844H27.314Z" fill="#3F424A"/>
<path d="M31.9675 38.4926C32.2354 38.4926 32.4525 38.2735 32.4525 38.0032C32.4525 37.7328 32.2354 37.5137 31.9675 37.5137C31.6996 37.5137 31.4824 37.7328 31.4824 38.0032C31.4824 38.2735 31.6996 38.4926 31.9675 38.4926Z" fill="#EA8696"/>
<path d="M36.7229 38.4926C36.9907 38.4926 37.2079 38.2735 37.2079 38.0032C37.2079 37.7328 36.9907 37.5137 36.7229 37.5137C36.455 37.5137 36.2378 37.7328 36.2378 38.0032C36.2378 38.2735 36.455 38.4926 36.7229 38.4926Z" fill="#EA8696"/>
<path d="M18.4202 0C18.4202 1.41481 19.5576 2.56252 20.9596 2.56252C19.5576 2.56252 18.4202 3.71024 18.4202 5.12504C18.4202 3.71024 17.2829 2.56252 15.8809 2.56252C17.2829 2.56252 18.4202 1.41481 18.4202 0Z" fill="#15CBB9"/>
<path d="M51.9803 57.209C51.9803 58.6238 53.1176 59.7715 54.5196 59.7715C53.1176 59.7715 51.9803 60.9192 51.9803 62.334C51.9803 60.9192 50.8429 59.7715 49.4409 59.7715C50.8429 59.7715 51.9803 58.6238 51.9803 57.209Z" fill="#EA8696"/>
<path d="M47.0584 12.1803C47.4548 12.1803 47.7761 11.856 47.7761 11.4561C47.7761 11.0562 47.4548 10.7319 47.0584 10.7319C46.6621 10.7319 46.3408 11.0562 46.3408 11.4561C46.3408 11.856 46.6621 12.1803 47.0584 12.1803Z" fill="#15CBB9"/>
<path d="M7.83294 40.6807L6.81299 49.564C6.86836 50.2938 7.6491 51.1163 8.31578 51.4057C12.2837 53.1312 23.2341 53.3066 23.2341 53.3066C23.2341 53.3066 24.4113 54.8936 26.2109 54.5561C28.0116 54.2174 29.3693 56.2894 30.0138 55.7697C30.6584 55.2501 31.3406 53.3938 31.2032 52.7792C31.0681 52.1746 28.9529 51.3364 28.8876 51.3118L30.716 51.7164C31.0504 51.7901 31.3693 51.5409 31.3826 51.1956C31.3826 51.1699 31.3826 51.1442 31.3793 51.1196C31.3572 50.9006 31.2088 50.7128 30.995 50.6469C30.242 50.4122 28.6417 49.9361 28.0969 49.9361C27.3748 49.9361 26.2474 50.1284 26.2474 50.1284L27.5254 49.1047C27.7381 48.9337 27.7801 48.6241 27.6207 48.4018C27.511 48.2487 27.3316 48.1727 27.1555 48.1905C27.088 48.1972 27.0193 48.2185 26.9562 48.2554L23.5641 50.2066L14.0634 46.3555L14.7024 42.5771L7.83183 40.6818L7.83294 40.6807Z" fill="white"/>
<path d="M28.6605 55.5431C27.9994 55.1139 27.1755 54.5786 26.2474 54.753C24.5641 55.0692 23.4135 53.8377 23.1377 53.5058C21.9915 53.4835 12.0456 53.2465 8.23714 51.5903C7.50291 51.2718 6.67676 50.3879 6.61475 49.5799C6.61475 49.5676 6.61475 49.5542 6.61475 49.5419L7.6347 40.6586C7.64134 40.6004 7.67235 40.5479 7.72108 40.5155C7.7687 40.4831 7.8285 40.473 7.88387 40.4887L14.7544 42.384C14.853 42.4109 14.915 42.5092 14.8973 42.6109L14.2849 46.2295L23.5486 49.9844L26.8565 48.0824C26.9407 48.0332 27.037 48.0019 27.1345 47.9919C27.3859 47.965 27.6339 48.0779 27.7812 48.2847C28.0027 48.5942 27.944 49.0233 27.6483 49.2614L26.9451 49.8246C27.3095 49.7788 27.7447 49.7363 28.0946 49.7363H28.0969C28.6572 49.7363 30.1899 50.1878 31.0537 50.456C31.3405 50.5454 31.5454 50.798 31.5764 51.0997C31.5798 51.1321 31.5809 51.1646 31.5798 51.2037C31.572 51.4272 31.4668 51.635 31.2907 51.7714C31.1146 51.9088 30.8898 51.9602 30.6728 51.9122L30.5266 51.8798C30.9618 52.1446 31.3317 52.4475 31.3959 52.7358C31.5487 53.4198 30.8588 55.3442 30.1368 55.9264C30.0238 56.0169 29.9031 56.056 29.7735 56.056C29.449 56.056 29.0747 55.8124 28.6594 55.5431H28.6605ZM28.9296 51.1165L30.758 51.5211C30.8599 51.5434 30.9662 51.5199 31.0482 51.4551C31.1301 51.3903 31.18 51.2931 31.1833 51.1936C31.1833 51.1757 31.1833 51.1579 31.1811 51.14C31.1667 50.998 31.0703 50.8796 30.9352 50.8382C29.5232 50.399 28.4612 50.1364 28.0957 50.1353H28.0946C27.397 50.1353 26.2917 50.323 26.2807 50.3253C26.191 50.3409 26.1035 50.2929 26.0669 50.2091C26.0304 50.1252 26.0536 50.028 26.1245 49.971L27.4025 48.9474C27.5321 48.8423 27.5586 48.6546 27.4612 48.5182C27.397 48.4277 27.2884 48.3774 27.1777 48.3897C27.1356 48.3942 27.0935 48.4076 27.0559 48.4299L23.6638 50.3812C23.6106 50.4113 23.5475 50.4158 23.4921 50.3935L13.9914 46.5424C13.905 46.5078 13.8541 46.4161 13.8696 46.3234L14.4787 42.7238L8.00347 40.9368L7.01232 49.5687C7.07323 50.2001 7.78752 50.96 8.3944 51.2238C12.2804 52.9135 23.1278 53.1068 23.2374 53.1091C23.2983 53.1091 23.3559 53.1393 23.3925 53.1895C23.4035 53.2041 24.5143 54.6748 26.1743 54.3618C27.2585 54.1585 28.1932 54.7653 28.8754 55.2089C29.3272 55.5029 29.717 55.7554 29.8898 55.6157C30.469 55.1486 31.1301 53.3628 31.0094 52.8263C30.9341 52.4877 29.6871 51.8396 28.8156 51.5009C28.7192 51.4629 28.6672 51.3568 28.6971 51.2562C28.7226 51.1701 28.8012 51.1131 28.8865 51.1131C28.9009 51.1131 28.9153 51.1143 28.9285 51.1176L28.9296 51.1165Z" fill="#3F424A"/>
<path d="M15.721 43.051C15.721 43.051 12.1274 44.3988 6.71973 41.0931C6.71973 41.0931 11.4363 24.7759 16.6745 25.7526C21.2947 26.6142 18.7687 33.5966 17.9303 35.749C17.092 37.9014 15.721 43.051 15.721 43.051Z" fill="#EA8696"/>
<path d="M15.722 43.2513C15.8095 43.2513 15.8892 43.1921 15.9136 43.1027C15.9269 43.0513 17.2912 37.9385 18.1152 35.8219C19.886 31.2724 20.0465 28.0527 18.5781 26.5083C18.5028 26.4289 18.3765 26.4256 18.2979 26.5027C18.2193 26.5787 18.2159 26.7061 18.2924 26.7854C19.6456 28.2081 19.4574 31.2824 17.7464 35.6755C16.9136 37.8133 15.5437 42.9473 15.5304 42.9987C15.5016 43.106 15.5647 43.2155 15.6699 43.2435C15.6877 43.2479 15.7043 43.2502 15.722 43.2502V43.2513Z" fill="#3F424A"/>
<path d="M13.6177 42.2239C14.1271 42.2239 14.4394 42.1792 14.4793 42.1725C14.5878 42.1558 14.662 42.0541 14.6454 41.9445C14.6288 41.835 14.5269 41.7601 14.4195 41.7769C14.3896 41.7814 11.363 42.2105 8.15362 40.1855C8.06059 40.1274 7.93878 40.1554 7.88008 40.2492C7.8225 40.3431 7.85018 40.466 7.94321 40.5253C10.2644 41.9904 12.4538 42.2239 13.6166 42.2239H13.6177Z" fill="#3F424A"/>
<path d="M31.3384 29.4696C32.2664 29.264 33.9486 32.5931 32.9165 33.2055C31.8843 33.8179 28.85 30.0205 31.3384 29.4696Z" fill="white"/>
<path d="M31.726 33.1529C30.9364 32.583 29.9519 31.2497 30.1601 30.2283C30.2332 29.8673 30.4879 29.3991 31.2853 29.2225C32.0594 29.0526 32.8833 30.3646 33.2199 31.2318C33.633 32.2935 33.5666 33.1116 33.0428 33.4222C32.9287 33.4893 32.8002 33.5228 32.6585 33.5228C32.3849 33.5228 32.066 33.3976 31.726 33.1518V33.1529ZM31.3916 29.7153C30.9563 29.8115 30.7138 30.0126 30.6496 30.33C30.5045 31.0419 31.252 32.1907 32.0173 32.7428C32.3473 32.9808 32.643 33.0747 32.7903 32.9875C33.0704 32.821 33.056 32.1896 32.7548 31.4162C32.3739 30.4362 31.7393 29.712 31.4303 29.712C31.417 29.712 31.4049 29.7131 31.3927 29.7165L31.3916 29.7153Z" fill="#3F424A"/>
<path d="M31.2199 32.0532V32.1136L31.2221 33.9061L32.4281 32.5729L32.4602 32.5371C32.5089 32.479 32.5488 32.412 32.5787 32.336L36.3074 22.5966C36.447 22.2323 36.2665 21.821 35.9032 21.6791C35.5422 21.5383 35.1347 21.7193 34.994 22.0859L31.2653 31.823C31.2365 31.899 31.221 31.9761 31.2188 32.051L31.2199 32.0532Z" fill="white"/>
<path d="M31.1324 34.1418C31.036 34.1038 30.9729 34.011 30.9729 33.9071L30.9707 32.0542C30.9707 32.0542 30.9707 32.0486 30.9707 32.0464C30.974 31.9413 30.9951 31.8363 31.0338 31.7346L34.7626 21.9974C34.8545 21.7572 35.0328 21.5683 35.2665 21.4644C35.499 21.3604 35.7582 21.3549 35.9952 21.4465C36.2333 21.5393 36.4215 21.7203 36.5245 21.9561C36.6275 22.1908 36.633 22.4523 36.5422 22.6903L32.8124 32.4319C32.7725 32.5314 32.7193 32.623 32.644 32.7113L31.4081 34.0769C31.3594 34.1306 31.2919 34.1596 31.2232 34.1596C31.1933 34.1596 31.1623 34.1541 31.1335 34.1429L31.1324 34.1418ZM35.4691 21.9248C35.3584 21.974 35.2731 22.0645 35.2299 22.1785L31.5012 31.9156C31.4834 31.9626 31.4735 32.0106 31.4713 32.0587V33.2567L32.2465 32.4018L32.2708 32.3749C32.303 32.3369 32.3284 32.2934 32.3472 32.2464L36.076 22.507C36.1192 22.3942 36.117 22.2701 36.0671 22.1595C36.0184 22.0466 35.9287 21.9606 35.8146 21.917C35.7615 21.8969 35.7072 21.8857 35.6518 21.8857C35.5898 21.8857 35.5278 21.8991 35.4691 21.9248Z" fill="#3F424A"/>
<path d="M35.7827 28.07C35.7827 28.07 37.8392 30.2258 37.7661 31.9412C37.6919 33.6566 34.9721 35.0536 33.4925 34.0902C32.013 33.1269 31.8701 30.8147 33.0628 29.8033C33.0628 29.8033 31.6309 31.1042 31.0107 30.0436C30.3906 28.9842 33.6354 26.8173 34.6376 26.9614C35.6398 27.1056 35.7827 28.0689 35.7827 28.0689V28.07Z" fill="white"/>
<path d="M33.3564 34.3025C32.5812 33.7984 32.0817 32.9022 32.0197 31.9064C31.9909 31.4505 32.0573 31.0102 32.2057 30.619C31.9876 30.695 31.755 30.7353 31.5291 30.7006C31.2223 30.6537 30.9687 30.4715 30.7949 30.1731C30.6587 29.9407 30.5778 29.5417 30.9643 28.9584C31.6875 27.8677 33.8027 26.587 34.6731 26.7121C35.5502 26.8384 35.9223 27.5357 36.0153 27.9504C36.3487 28.3124 38.0885 30.286 38.0165 31.9523C37.9788 32.824 37.3254 33.6945 36.311 34.2242C35.7573 34.5126 35.1825 34.6578 34.6488 34.6578C34.1681 34.6578 33.7218 34.5394 33.3564 34.3025ZM31.3807 29.2389C31.2467 29.44 31.1116 29.7217 31.2257 29.9161C31.3253 30.086 31.4449 30.1765 31.6044 30.2011C32.0252 30.267 32.6089 29.8602 32.8503 29.6546C32.8669 29.6401 32.8835 29.6244 32.9012 29.6099C33.0053 29.5216 33.1615 29.5339 33.2512 29.6378C33.3409 29.7418 33.3309 29.8993 33.2301 29.991C33.2202 29.9999 33.2035 30.0156 33.1792 30.0357C32.7196 30.4536 32.4737 31.1365 32.5192 31.874C32.5712 32.7111 32.9854 33.4598 33.6277 33.8778C34.2379 34.2745 35.2003 34.2343 36.0807 33.775C36.9356 33.3291 37.486 32.6217 37.5159 31.9299C37.5846 30.343 35.6222 28.2655 35.6023 28.2443C35.5668 28.2074 35.5436 28.1593 35.5358 28.1079C35.5303 28.0755 35.4018 27.3268 34.6022 27.2117C34.5779 27.2083 34.5524 27.2061 34.5236 27.2061C33.8204 27.2061 32.0053 28.2934 31.3807 29.2378V29.2389Z" fill="#3F424A"/>
<path d="M34.1489 34.1091C38.6584 39.4867 39.9652 48.1577 42.169 49.4485C44.1757 50.623 45.6187 50.5135 46.859 49.5066C47.4703 49.0093 47.8347 48.4002 48.0229 47.7375C48.8258 44.899 44.9952 41.4167 44.9952 41.4167L37.3882 31.541L34.1489 34.1091Z" fill="white"/>
<path d="M34.0205 34.3689C34.0205 34.3689 36.1424 36.2833 37.5887 39.5599C39.035 42.8365 41.3817 49.7787 43.5677 50.2C43.5677 50.2 46.5235 51.3924 47.9997 48.0879C48.7029 46.5144 46.3064 42.3549 43.9022 39.9287C41.4979 37.5025 37.7293 31.7695 37.7293 31.7695" stroke="#3F424A" stroke-width="0.8" stroke-miterlimit="10" stroke-linecap="round"/>
<mask id="mask0_502_5778" style="mask-type:luminance" maskUnits="userSpaceOnUse" x="23" y="31" width="28" height="28">
<path d="M23.5317 46.1097C23.5317 46.1097 33.368 30.2753 35.0857 31.3783C36.8033 32.4813 49.4502 39.6503 49.4502 39.6503C49.4502 39.6503 51.324 58.3211 50.8556 58.3993C50.3871 58.4776 33.0568 47.3703 33.0568 47.3703L23.5328 46.1097H23.5317Z" fill="white"/>
</mask>
<g mask="url(#mask0_502_5778)">
<path d="M41.8744 35.9824H26.9129C26.3227 35.9824 25.8442 36.4652 25.8442 37.0608V55.7674C25.8442 56.363 26.3227 56.8458 26.9129 56.8458H41.8744C42.4646 56.8458 42.9431 56.363 42.9431 55.7674V37.0608C42.9431 36.4652 42.4646 35.9824 41.8744 35.9824Z" fill="white"/>
<path d="M41.4246 57.0985H27.3623C26.3878 57.0985 25.5938 56.2983 25.5938 55.3138V37.5147C25.5938 36.5313 26.3867 35.73 27.3623 35.73H41.4246C42.3991 35.73 43.1932 36.5301 43.1932 37.5147V55.3138C43.1932 56.2972 42.4002 57.0985 41.4246 57.0985ZM27.3623 36.2351C26.6635 36.2351 26.0943 36.8095 26.0943 37.5147V55.3138C26.0943 56.0189 26.6635 56.5934 27.3623 56.5934H41.4246C42.1234 56.5934 42.6926 56.0189 42.6926 55.3138V37.5147C42.6926 36.8095 42.1234 36.2351 41.4246 36.2351H27.3623Z" fill="#3F424A"/>
<path d="M32.0168 38.4433C32.2847 38.4433 32.5019 38.2242 32.5019 37.9538C32.5019 37.6835 32.2847 37.4644 32.0168 37.4644C31.7489 37.4644 31.5317 37.6835 31.5317 37.9538C31.5317 38.2242 31.7489 38.4433 32.0168 38.4433Z" fill="#EA8696"/>
<path d="M36.7712 38.4433C37.0391 38.4433 37.2563 38.2242 37.2563 37.9538C37.2563 37.6835 37.0391 37.4644 36.7712 37.4644C36.5033 37.4644 36.2861 37.6835 36.2861 37.9538C36.2861 38.2242 36.5033 38.4433 36.7712 38.4433Z" fill="#EA8696"/>
</g>
<path d="M83.8014 115.431L82.0372 114.282L81.6518 114.885C78.8721 114.994 75.2752 117.6 72.6539 121.698C70.0326 125.796 69.1599 130.177 70.2064 132.779L69.821 133.381L71.5852 134.53C74.3682 136.342 79.3594 133.537 82.7327 128.263C86.1059 122.989 86.5843 117.244 83.8014 115.431Z" fill="white"/>
<path d="M73.5575 135.336C72.7712 135.336 72.0591 135.138 71.4489 134.741L69.6848 133.593C69.5685 133.517 69.5353 133.36 69.6106 133.243L69.9262 132.749C69.4312 131.422 69.3913 129.697 69.8099 127.744C70.2474 125.708 71.1577 123.569 72.4434 121.56C73.7292 119.551 75.2851 117.833 76.944 116.591C78.5343 115.402 80.1091 114.728 81.5111 114.638L81.8267 114.144C81.8633 114.088 81.9198 114.048 81.9851 114.033C82.0505 114.019 82.118 114.031 82.1734 114.068L83.9375 115.217C85.365 116.147 86.0361 118.047 85.8257 120.569C85.6208 123.033 84.5965 125.813 82.9431 128.398C81.2896 130.983 79.1999 133.069 77.0592 134.273C75.8034 134.978 74.6129 135.335 73.5575 135.335V135.336ZM70.1676 133.304L71.7214 134.317C74.3848 136.051 79.2287 133.274 82.5222 128.125C85.8157 122.977 86.3285 117.378 83.6651 115.644L82.1114 114.631L81.8622 115.021C81.8179 115.09 81.7426 115.134 81.6617 115.136C78.8931 115.245 75.3582 117.937 72.8642 121.835C70.3714 125.733 69.3957 130.092 70.4378 132.683C70.4688 132.759 70.46 132.846 70.4157 132.915L70.1665 133.305L70.1676 133.304Z" fill="#3F424A"/>
<path d="M80.9676 127.108C84.3408 121.834 84.8191 116.09 82.036 114.277C79.2528 112.464 74.2621 115.27 70.8889 120.544C67.5158 125.818 67.0375 131.562 69.8206 133.375C72.6038 135.188 77.5945 132.382 80.9676 127.108Z" fill="white"/>
<path d="M71.7924 134.187C71.0062 134.187 70.2941 133.989 69.6839 133.592C68.2564 132.663 67.5853 130.762 67.7957 128.24C68.0006 125.776 69.025 122.996 70.6784 120.411C72.3318 117.826 74.4215 115.74 76.5622 114.536C78.7527 113.304 80.745 113.139 82.1725 114.069C83.6 114.999 84.2711 116.9 84.0607 119.421C83.8558 121.885 82.8314 124.665 81.178 127.25C79.5246 129.835 77.4349 131.922 75.2942 133.125C74.0383 133.83 72.8478 134.187 71.7924 134.187ZM80.0617 113.981C79.0927 113.981 77.9852 114.315 76.8058 114.979C74.736 116.142 72.7094 118.169 71.0992 120.686C67.8057 125.834 67.2929 131.433 69.9563 133.168C71.221 133.991 73.0306 133.819 75.0505 132.684C77.1203 131.52 79.1469 129.493 80.7572 126.976C84.0507 121.828 84.5634 116.229 81.9 114.495C81.374 114.152 80.7527 113.982 80.0606 113.982L80.0617 113.981Z" fill="#3F424A"/>
<path d="M79.7791 126.338C77.387 130.079 73.9307 132.193 71.7468 131.372C71.5774 131.308 71.4146 131.227 71.2617 131.127C69.1354 129.743 69.5009 125.353 72.079 121.322C74.656 117.292 78.4701 115.15 80.5963 116.534C80.7492 116.634 80.8898 116.75 81.0172 116.88C82.6595 118.55 82.1722 122.599 79.7802 126.338H79.7791Z" fill="white"/>
<path d="M72.7546 131.799C72.367 131.799 71.9993 131.737 71.6582 131.609C71.471 131.539 71.2916 131.449 71.1244 131.339C70.0148 130.616 69.4931 129.145 69.6548 127.196C69.8121 125.302 70.5973 123.168 71.8664 121.185C73.1344 119.203 74.7391 117.601 76.3825 116.677C78.0758 115.725 79.6196 115.599 80.7303 116.322C80.8976 116.43 81.0526 116.559 81.1932 116.702C82.9363 118.475 82.4181 122.677 79.9884 126.476C77.9152 129.717 75.0038 131.799 72.7535 131.799H72.7546ZM79.0858 116.364C78.356 116.364 77.5199 116.618 76.6273 117.119C75.0536 118.003 73.512 119.545 72.2883 121.459C69.7899 125.365 69.3902 129.607 71.3968 130.915C71.5331 131.003 71.6803 131.078 71.8332 131.135C72.8221 131.507 74.1433 131.229 75.5531 130.351C77.0116 129.444 78.4368 127.971 79.5686 126.202C80.6993 124.434 81.4435 122.516 81.6617 120.802C81.8732 119.144 81.5808 117.815 80.8378 117.059C80.7226 116.942 80.5952 116.837 80.459 116.749C80.067 116.493 79.603 116.367 79.0858 116.367V116.364Z" fill="#3F424A"/>
<path d="M71.7473 131.372C71.5778 131.308 71.415 131.227 71.2622 131.127C69.1359 129.743 69.5014 125.353 72.0795 121.322C74.6565 117.292 78.4705 115.15 80.5968 116.534C80.7497 116.634 80.8903 116.75 81.0177 116.88C78.8327 116.057 75.3764 118.173 72.9843 121.912C70.5922 125.652 70.1049 129.701 71.7473 131.372Z" fill="white"/>
<path d="M71.746 131.624C71.7172 131.624 71.6873 131.619 71.6597 131.609C71.4725 131.538 71.2931 131.448 71.1259 131.339C70.0162 130.616 69.4946 129.145 69.6563 127.196C69.8136 125.302 70.5987 123.168 71.8679 121.185C73.1359 119.203 74.7405 117.601 76.384 116.677C78.0773 115.725 79.621 115.599 80.7318 116.322C80.899 116.43 81.0541 116.559 81.1947 116.702C81.2778 116.787 81.2911 116.918 81.2268 117.017C81.1626 117.116 81.0386 117.158 80.9289 117.116C79.9411 116.744 78.6199 117.023 77.209 117.9C75.7505 118.807 74.3253 120.28 73.1935 122.048C72.0628 123.816 71.3186 125.735 71.1004 127.449C70.8889 129.108 71.1812 130.438 71.9243 131.192C72.0074 131.276 72.0207 131.408 71.9576 131.507C71.9099 131.581 71.8302 131.623 71.7471 131.623L71.746 131.624ZM79.0861 116.364C78.3563 116.364 77.5202 116.618 76.6276 117.119C75.054 118.003 73.5124 119.545 72.2887 121.459C70.0384 124.978 69.4902 128.769 70.8712 130.442C70.0572 128.352 70.7582 124.925 72.7726 121.774C74.786 118.626 77.59 116.572 79.8115 116.457C79.5845 116.395 79.342 116.364 79.0861 116.364Z" fill="#3F424A"/>
<path d="M73.4558 129.304C73.4171 129.299 73.375 129.332 73.3473 129.374L72.9475 130.017C72.839 130.187 72.7482 130.228 72.6662 130.175L72.2255 129.887C72.1435 129.834 72.1435 129.734 72.2521 129.563L72.684 128.922C72.7116 128.879 72.7238 128.827 72.7028 128.793C71.9774 128.04 72.1092 126.74 72.9796 125.38L73.3695 124.771C73.4691 124.616 73.5688 124.56 73.6508 124.614L74.4282 125.12C74.5101 125.174 74.5101 125.273 74.437 125.387L74.3097 125.585C73.8479 126.308 73.6951 127.091 74.2034 127.422C74.6818 127.734 75.2366 127.313 75.5999 126.746C76.2433 125.74 75.3706 124.951 75.2156 123.606C75.096 122.765 75.2189 121.862 75.9897 120.658C76.941 119.17 78.0982 118.438 79.1115 118.758C79.1503 118.763 79.1924 118.73 79.2201 118.687L79.6941 117.913C79.8026 117.743 79.8934 117.702 79.9753 117.755L80.4017 118.033C80.4837 118.086 80.4748 118.2 80.3751 118.357L79.8879 119.102C79.8602 119.145 79.848 119.197 79.869 119.231C80.6487 119.999 80.4958 121.365 79.5623 122.823L79.2633 123.291C79.1636 123.446 79.0639 123.502 78.982 123.448L78.1968 122.936C78.1148 122.883 78.106 122.797 78.1603 122.712L78.2511 122.57C78.7317 121.819 78.9421 120.993 78.4183 120.652C77.9997 120.379 77.4825 120.624 77.075 121.262C76.4858 122.183 77.075 122.768 77.4072 123.807C77.7605 124.96 77.5168 126.086 76.7195 127.333C75.7228 128.892 74.5146 129.67 73.4581 129.303L73.4558 129.304Z" fill="#EA8696"/>
<path d="M60.9167 115.186L62.4028 114.218L62.7273 114.725C65.0685 114.817 68.0973 117.013 70.3044 120.463C72.5116 123.914 73.2469 127.603 72.3654 129.793L72.6899 130.3L71.2037 131.268C68.8603 132.795 64.6576 130.432 61.8159 125.991C58.9753 121.55 58.5722 116.712 60.9156 115.186H60.9167Z" fill="white"/>
<path d="M69.5438 131.988C68.6467 131.988 67.6379 131.686 66.5747 131.089C64.7663 130.072 63.0021 128.311 61.6056 126.129C60.2103 123.946 59.3454 121.598 59.1726 119.517C58.9943 117.378 59.5658 115.766 60.7806 114.973L62.2668 114.006C62.3831 113.93 62.5381 113.963 62.6134 114.08L62.8681 114.479C65.3554 114.651 68.3411 116.929 70.515 120.325C72.6878 123.723 73.5151 127.406 72.6457 129.764L72.9004 130.163C72.9757 130.28 72.9425 130.437 72.8262 130.513L71.34 131.481C70.8207 131.819 70.2138 131.987 69.5438 131.987V131.988ZM61.053 115.399C58.8293 116.847 59.2667 121.538 62.0276 125.855C63.3798 127.968 65.0808 129.67 66.8195 130.648C68.5072 131.597 70.0167 131.742 71.0687 131.057L72.3434 130.227L72.1551 129.932C72.1108 129.862 72.1031 129.775 72.133 129.699C73.0056 127.529 72.1861 123.872 70.0931 120.601C68 117.329 65.0365 115.071 62.7164 114.979C62.6345 114.976 62.5603 114.933 62.516 114.864L62.3277 114.569L61.053 115.399Z" fill="#3F424A"/>
<path d="M72.6879 130.304C75.0317 128.778 74.629 123.94 71.7885 119.499C68.948 115.058 64.7453 112.696 62.4015 114.222C60.0577 115.749 60.4604 120.586 63.3009 125.027C66.1414 129.468 70.3441 131.831 72.6879 130.304Z" fill="white"/>
<path d="M71.0291 131.02C70.1332 131.02 69.1232 130.718 68.0601 130.122C66.2516 129.105 64.4875 127.343 63.091 125.161C61.6956 122.978 60.8307 120.63 60.658 118.549C60.4797 116.41 61.0511 114.798 62.266 114.005C63.4808 113.214 65.173 113.354 67.0313 114.398C68.8397 115.415 70.6039 117.176 72.0004 119.358C73.3957 121.541 74.2606 123.889 74.4334 125.97C74.6117 128.109 74.0403 129.721 72.8254 130.514C72.306 130.852 71.6991 131.02 71.0291 131.02ZM64.0766 114.001C63.5063 114.001 62.9858 114.14 62.5384 114.43C60.3147 115.878 60.7521 120.569 63.5129 124.886C64.8651 126.999 66.5662 128.701 68.3048 129.679C69.9926 130.628 71.502 130.773 72.5541 130.088C73.6061 129.403 74.0967 127.956 73.9339 126.012C73.7678 124.012 72.9306 121.747 71.5795 119.632C69.3735 116.184 66.3413 114.001 64.0777 114.001H64.0766Z" fill="#3F424A"/>
<path d="M64.3039 124.37C66.3183 127.52 69.2286 129.301 71.0681 128.609C71.211 128.555 71.3472 128.487 71.4767 128.403C73.2675 127.237 72.9596 123.541 70.789 120.147C68.6184 116.754 65.4069 114.949 63.6161 116.115C63.4866 116.199 63.3692 116.296 63.2618 116.406C61.8786 117.813 62.2894 121.222 64.3039 124.37Z" fill="white"/>
<path d="M70.2218 129.008C68.3126 129.008 65.8474 127.248 64.0943 124.508C62.0389 121.294 61.6048 117.733 63.0855 116.227C63.2051 116.105 63.338 115.994 63.4819 115.902C64.4299 115.285 65.7444 115.39 67.1841 116.199C68.5739 116.98 69.9294 118.333 71.0014 120.009C72.0734 121.684 72.7368 123.488 72.8697 125.088C73.0081 126.745 72.5618 127.998 71.6138 128.615C71.471 128.708 71.3171 128.786 71.1565 128.845C70.8663 128.955 70.5529 129.007 70.2229 129.007L70.2218 129.008ZM64.5152 124.234C66.4144 127.204 69.255 129.022 70.9815 128.372C71.1089 128.325 71.2296 128.264 71.3414 128.191C72.1255 127.681 72.4909 126.594 72.3691 125.133C72.2429 123.614 71.6072 121.892 70.5795 120.285C69.5518 118.678 68.2594 117.385 66.9394 116.643C65.6691 115.928 64.5384 115.817 63.7532 116.327C63.6403 116.401 63.5362 116.487 63.4421 116.583C62.1441 117.903 62.6159 121.264 64.5163 124.234H64.5152Z" fill="#3F424A"/>
<path d="M71.0676 128.609C71.2104 128.555 71.3466 128.487 71.4762 128.403C73.2669 127.237 72.9591 123.541 70.7885 120.147C68.6179 116.754 65.4063 114.949 63.6156 116.115C63.486 116.199 63.3687 116.296 63.2612 116.406C65.1007 115.713 68.0121 117.494 70.0255 120.643C72.0388 123.793 72.4497 127.203 71.0665 128.609H71.0676Z" fill="white"/>
<path d="M71.0688 128.862C70.9858 128.862 70.9049 128.819 70.8584 128.745C70.7953 128.646 70.8086 128.514 70.8916 128.43C72.1896 127.11 71.7178 123.75 69.8174 120.78C67.9171 117.809 65.0776 115.992 63.3511 116.642C63.2414 116.684 63.1174 116.642 63.0532 116.543C62.9889 116.443 63.0022 116.313 63.0853 116.228C63.2049 116.105 63.3389 115.995 63.4818 115.903C64.4297 115.286 65.7443 115.391 67.1839 116.2C68.5738 116.981 69.9293 118.334 71.0013 120.01C72.0733 121.685 72.7366 123.488 72.8695 125.089C73.008 126.746 72.5616 127.999 71.6137 128.616C71.4708 128.709 71.3169 128.787 71.1563 128.846C71.1275 128.856 71.0987 128.862 71.0688 128.862ZM64.546 116.034C66.3833 116.273 68.6158 117.969 70.2382 120.505C71.8606 123.041 72.4731 125.793 71.9315 127.581C72.3003 126.994 72.4542 126.154 72.369 125.13C72.2427 123.611 71.607 121.889 70.5793 120.282C69.5516 118.675 68.2593 117.382 66.9392 116.64C66.0499 116.141 65.2282 115.935 64.546 116.033V116.034Z" fill="#3F424A"/>
<path d="M70.2639 126.475C70.2462 126.503 70.2573 126.547 70.2794 126.583L70.6294 127.115C70.7213 127.258 70.7213 127.342 70.6526 127.388L70.2816 127.63C70.213 127.675 70.1366 127.64 70.0446 127.497L69.7058 126.941C69.6825 126.905 69.6471 126.877 69.615 126.881C68.791 127.182 67.8486 126.631 67.1144 125.486L66.7854 124.973C66.7013 124.842 66.6935 124.746 66.7622 124.7L67.4167 124.273C67.4854 124.228 67.5618 124.263 67.6227 124.358L67.7301 124.525C68.1199 125.133 68.6637 125.523 69.0911 125.243C69.4942 124.981 69.3658 124.405 69.0601 123.928C68.5175 123.081 67.616 123.484 66.5374 123.139C65.8574 122.94 65.2118 122.532 64.5628 121.518C63.761 120.267 63.6049 119.117 64.1985 118.442C64.2162 118.414 64.2051 118.369 64.183 118.333L63.7577 117.698C63.6658 117.554 63.6658 117.471 63.7345 117.425L64.0933 117.191C64.1619 117.147 64.2461 117.194 64.3303 117.324L64.7289 117.96C64.7522 117.996 64.7876 118.024 64.8197 118.019C65.6747 117.682 66.6603 118.273 67.4466 119.501L67.6991 119.895C67.7833 120.025 67.791 120.121 67.7223 120.167L67.0612 120.599C66.9914 120.643 66.9239 120.621 66.8774 120.549L66.801 120.43C66.3956 119.797 65.8408 119.348 65.4 119.636C65.0479 119.867 65.0556 120.352 65.3989 120.888C65.8951 121.664 66.544 121.409 67.4488 121.512C68.4488 121.637 69.2207 122.216 69.8929 123.265C70.7335 124.577 70.9073 125.782 70.2617 126.474L70.2639 126.475Z" fill="#0F9386"/>
<path d="M58.0542 126.925C58.7661 126.925 59.3433 126.342 59.3433 125.624C59.3433 124.906 58.7661 124.323 58.0542 124.323C57.3423 124.323 56.7651 124.906 56.7651 125.624C56.7651 126.342 57.3423 126.925 58.0542 126.925Z" fill="#0F9386"/>
<path d="M61.2146 130.261C61.6403 130.261 61.9854 129.912 61.9854 129.483C61.9854 129.053 61.6403 128.705 61.2146 128.705C60.7889 128.705 60.4438 129.053 60.4438 129.483C60.4438 129.912 60.7889 130.261 61.2146 130.261Z" fill="#0F9386"/>
<path d="M72.2602 111.328L72.5492 112.128C72.7308 112.632 73.124 113.029 73.6234 113.212L74.4164 113.504L73.6234 113.796C73.124 113.979 72.7308 114.376 72.5492 114.88L72.2602 115.68L71.9711 114.88C71.7895 114.376 71.3964 113.979 70.8969 113.796L70.104 113.504L70.8969 113.212C71.3964 113.029 71.7895 112.632 71.9711 112.128L72.2602 111.328Z" fill="#0F9386"/>
<path d="M90.9585 44.8133L87.5365 41.3701L84.0337 44.4825H65.0921C64.2471 44.4825 63.4032 45.0591 63.2061 45.771L56.8859 68.6001L51.8271 73.0949L55.1439 76.4386C55.1727 76.4721 55.2037 76.5034 55.2381 76.5336C55.4518 76.7213 55.763 76.8342 56.1362 76.8342H81.0713C81.9163 76.8342 82.7601 76.2575 82.9573 75.5456L91.1999 45.771C91.3052 45.391 91.2044 45.0502 90.9596 44.8144L90.9585 44.8133Z" fill="#1CC9B7"/>
<path d="M81.4146 73.791C81.398 73.791 81.3814 73.7888 81.3658 73.7843C81.2684 73.7564 81.2119 73.6558 81.2385 73.5574L89.0238 45.4367C89.0515 45.3384 89.1523 45.2814 89.2486 45.3093C89.3461 45.3373 89.4025 45.4379 89.376 45.5362L81.5907 73.6569C81.5685 73.7385 81.4943 73.7921 81.4146 73.7921V73.791Z" fill="#3F424A"/>
<path d="M78.4651 75.5236H55.4093C55.3085 75.5236 55.2266 75.4409 55.2266 75.3392C55.2266 75.2375 55.3085 75.1548 55.4093 75.1548H78.4651C78.5658 75.1548 78.6478 75.2375 78.6478 75.3392C78.6478 75.4409 78.5658 75.5236 78.4651 75.5236Z" fill="#3F424A"/>
<path d="M77.7187 73.4513H52.7836C51.9386 73.4513 51.4137 72.8747 51.6108 72.1628L59.8535 42.3881C60.0506 41.6763 60.8944 41.0996 61.7394 41.0996H86.6745C87.5195 41.0996 88.0444 41.6763 87.8473 42.3881L79.6046 72.1628C79.4075 72.8747 78.5636 73.4513 77.7187 73.4513Z" fill="white"/>
<path d="M77.7189 73.6359H52.7838C52.2821 73.6359 51.8524 73.447 51.6055 73.1185C51.3939 72.838 51.3341 72.4815 51.4349 72.1138L59.6776 42.3391C59.898 41.5412 60.8039 40.9165 61.7396 40.9165H86.6747C87.1764 40.9165 87.6061 41.1054 87.8531 41.4339C88.0646 41.7144 88.1244 42.0709 88.0236 42.4386L79.7809 72.2132C79.5606 73.0112 78.6547 73.6359 77.7189 73.6359ZM61.7408 41.2853C60.9744 41.2853 60.2069 41.8027 60.0309 42.4386L51.7882 72.2132C51.7173 72.4703 51.755 72.7061 51.8978 72.895C52.0761 73.1319 52.3995 73.2671 52.7849 73.2671H77.72C78.4863 73.2671 79.2538 72.7497 79.4299 72.1138L87.6725 42.3391C87.7434 42.0821 87.7058 41.8463 87.5629 41.6574C87.3846 41.4205 87.0612 41.2853 86.6758 41.2853H61.7408Z" fill="#3F424A"/>
<path d="M61.7692 60.5005H58.0206C57.5156 60.5005 57.2022 60.1563 57.3196 59.7305L58.6917 54.7754C58.8091 54.3507 59.314 54.0054 59.819 54.0054H63.5677C64.0727 54.0054 64.3861 54.3496 64.2687 54.7754L62.8966 59.7305C62.7792 60.1552 62.2742 60.5005 61.7692 60.5005Z" fill="#139184"/>
<path d="M70.7121 60.5005H66.9634C66.4584 60.5005 66.145 60.1563 66.2624 59.7305L67.6345 54.7754C67.7519 54.3507 68.2569 54.0054 68.7619 54.0054H72.5106C73.0156 54.0054 73.329 54.3496 73.2116 54.7754L71.8395 59.7305C71.7221 60.1552 71.2171 60.5005 70.7121 60.5005Z" fill="#139184"/>
<path d="M79.6545 60.5005H75.9058C75.4008 60.5005 75.0874 60.1563 75.2048 59.7305L76.5769 54.7754C76.6943 54.3507 77.1993 54.0054 77.7043 54.0054H81.453C81.958 54.0054 82.2714 54.3496 82.154 54.7754L80.7819 59.7305C80.6645 60.1552 80.1595 60.5005 79.6545 60.5005Z" fill="#139184"/>
<path d="M59.2067 69.7559H55.4581C54.9531 69.7559 54.6397 69.4117 54.7571 68.9859L56.1292 64.0307C56.2466 63.6061 56.7516 63.2607 57.2565 63.2607H61.0052C61.5102 63.2607 61.8236 63.6049 61.7062 64.0307L60.3341 68.9859C60.2167 69.4106 59.7117 69.7559 59.2067 69.7559Z" fill="#139184"/>
<path d="M68.1491 69.7559H64.4004C63.8955 69.7559 63.582 69.4117 63.6994 68.9859L65.0716 64.0307C65.1889 63.6061 65.6939 63.2607 66.1989 63.2607H69.9476C70.4526 63.2607 70.766 63.6049 70.6486 64.0307L69.2765 68.9859C69.1591 69.4106 68.6541 69.7559 68.1491 69.7559Z" fill="#139184"/>
<path d="M77.092 69.7559H73.3433C72.8383 69.7559 72.5249 69.4117 72.6423 68.9859L74.0144 64.0307C74.1318 63.6061 74.6368 63.2607 75.1418 63.2607H78.8905C79.3955 63.2607 79.7089 63.6049 79.5915 64.0307L78.2194 68.9859C78.102 69.4106 77.597 69.7559 77.092 69.7559Z" fill="#139184"/>
<path d="M82.5172 50.1597H60.8834C60.3784 50.1597 60.065 49.8155 60.1823 49.3897L61.5545 44.4345C61.6719 44.0099 62.1768 43.6646 62.6818 43.6646H84.3157C84.8207 43.6646 85.1341 44.0088 85.0167 44.4345L83.6446 49.3897C83.5272 49.8144 83.0222 50.1597 82.5172 50.1597Z" fill="#1CC9B7"/>
<path d="M82.9337 102.289C79.9758 102.289 77.5771 99.869 77.5771 96.883V75.3379H56.374V96.883C56.374 99.8679 58.7716 102.289 61.7307 102.289H82.9337Z" fill="white"/>
<path d="M82.9339 102.473H61.7308C58.6765 102.473 56.1914 99.965 56.1914 96.8828V75.3377C56.1914 75.236 56.2734 75.1533 56.3741 75.1533H77.5772C77.6779 75.1533 77.7599 75.236 77.7599 75.3377V96.8828C77.7599 99.7616 80.0811 102.104 82.9339 102.104C83.0346 102.104 83.1166 102.187 83.1166 102.288C83.1166 102.39 83.0346 102.473 82.9339 102.473ZM56.5569 75.5232V96.8839C56.5569 99.7627 58.8781 102.105 61.7308 102.105H80.9549C78.8751 101.299 77.3944 99.2632 77.3944 96.8839V75.5232H56.5569Z" fill="#3F424A"/>
<path d="M77.5771 92.708V96.8831C77.5771 99.8681 79.9748 102.289 82.9338 102.289C85.8918 102.289 88.2905 99.8692 88.2905 96.8831V92.708H77.5783H77.5771Z" fill="white"/>
<path d="M82.9339 102.473C79.8796 102.473 77.3945 99.9651 77.3945 96.883V92.7078C77.3945 92.6061 77.4765 92.5234 77.5773 92.5234H88.2895C88.3903 92.5234 88.4722 92.6061 88.4722 92.7078V96.883C88.4722 99.9651 85.9872 102.473 82.9328 102.473H82.9339ZM77.76 92.8922V96.883C77.76 99.7618 80.0812 102.104 82.9339 102.104C85.7867 102.104 88.1079 99.7618 88.1079 96.883V92.8922H77.7611H77.76Z" fill="#3F424A"/>
<path d="M74.4287 80.6719H59.5226C59.0657 80.6719 58.6953 81.0456 58.6953 81.5067V81.9559C58.6953 82.417 59.0657 82.7907 59.5226 82.7907H74.4287C74.8856 82.7907 75.256 82.417 75.256 81.9559V81.5067C75.256 81.0456 74.8856 80.6719 74.4287 80.6719Z" fill="#E88494"/>
<path d="M66.3355 87.0742H59.5226C59.0657 87.0742 58.6953 87.448 58.6953 87.909V88.3583C58.6953 88.8193 59.0657 89.1931 59.5226 89.1931H66.3355C66.7924 89.1931 67.1628 88.8193 67.1628 88.3583V87.909C67.1628 87.448 66.7924 87.0742 66.3355 87.0742Z" fill="#E88494"/>
<path d="M66.3355 93.4766H59.5226C59.0657 93.4766 58.6953 93.8503 58.6953 94.3114V94.7606C58.6953 95.2217 59.0657 95.5954 59.5226 95.5954H66.3355C66.7924 95.5954 67.1628 95.2217 67.1628 94.7606V94.3114C67.1628 93.8503 66.7924 93.4766 66.3355 93.4766Z" fill="#E88494"/>
<path d="M72.67 96.2915C72.6157 96.3049 72.588 96.3463 72.588 96.3887L72.6013 97.0101C72.6013 97.1755 72.5193 97.2448 72.3687 97.2448H71.5614C71.4108 97.2448 71.3288 97.1755 71.3288 97.0101L71.3565 96.3753C71.3565 96.334 71.3288 96.2926 71.2746 96.2792C69.7153 96.0859 68.8116 95.1337 68.8116 93.8072V93.2138C68.8116 93.0618 68.8936 92.9791 69.0442 92.9791H70.4673C70.6179 92.9791 70.6998 93.0484 70.6998 93.159V93.3524C70.6998 94.0564 71.1517 94.6644 72.0819 94.6644C72.9579 94.6644 73.3267 94.1257 73.3267 93.5736C73.3267 92.5936 71.5481 92.4416 70.2347 91.5855C69.3864 91.0614 68.7983 90.3842 68.7983 89.2108C68.7983 87.7613 69.6876 86.7388 71.2613 86.5041C71.3155 86.4907 71.3432 86.4493 71.3432 86.4068L71.3155 85.6614C71.3155 85.496 71.3975 85.4268 71.5481 85.4268H72.3277C72.4784 85.4268 72.5603 85.5095 72.5603 85.6614L72.547 86.3934C72.547 86.4348 72.5747 86.4761 72.629 86.4907C74.2713 86.6706 75.2016 87.6786 75.2016 89.1001V89.5561C75.2016 89.7081 75.1196 89.7908 74.969 89.7908H73.5326C73.382 89.7908 73.3001 89.736 73.3001 89.6522V89.5136C73.3001 88.7816 72.8892 88.1189 71.9324 88.1189C71.166 88.1189 70.7009 88.519 70.7009 89.1404C70.7009 90.0377 71.9457 90.1763 73.2325 90.7418C74.6423 91.3765 75.2569 92.2605 75.2569 93.4753C75.2569 94.994 74.34 96.0713 72.6711 96.2915H72.67Z" fill="#E88494"/>
<path d="M66.7633 26.7564H65.5573C65.2904 26.7564 65.0723 26.5373 65.0723 26.2669V23.3132C65.0723 23.0439 65.2893 22.8237 65.5573 22.8237H66.7633C67.0302 22.8237 67.2484 23.0428 67.2484 23.3132V26.2669C67.2484 26.5362 67.0313 26.7564 66.7633 26.7564Z" fill="#EA8696"/>
<path d="M72.4104 23.7033V25.5193C72.4104 26.1976 71.8666 26.7463 71.1944 26.7463H68.7027C68.366 26.7463 68.0991 26.477 68.0991 26.1373V23.3032C68.0991 23.1434 68.1589 22.9836 68.2774 22.8741L70.3638 20.7686C70.4923 20.639 70.7105 20.639 70.8389 20.7686C70.9375 20.8681 70.9674 21.0178 70.9087 21.1374L70.108 23.0428H71.7791C72.1258 23.0529 72.4115 23.3423 72.4115 23.701L72.4104 23.7033Z" fill="#EA8696"/>
<path d="M70.7976 32.933C70.6691 32.933 70.5407 32.8436 70.5108 32.7039C70.4709 32.5441 70.5706 32.3843 70.7278 32.3452C74.2683 31.4467 76.7501 28.2337 76.7501 24.5525C76.7501 22.3968 75.9295 20.3718 74.4267 18.8553C72.9239 17.3288 70.9161 16.4906 68.7809 16.4805H68.761C64.3711 16.4805 60.7908 20.0824 60.7808 24.5235C60.7708 28.2158 63.2426 31.4288 66.7732 32.3463C66.9315 32.3865 67.0301 32.5463 66.9902 32.7151C66.9503 32.8749 66.792 32.9743 66.6248 32.9341C62.8273 31.9462 60.1772 28.4941 60.1772 24.5324C60.1772 22.218 61.0776 20.0522 62.6989 18.4161C64.3202 16.7901 66.4664 15.8916 68.7499 15.8916H68.7699C71.0634 15.8916 73.2096 16.8002 74.8309 18.4362C76.4522 20.0723 77.3326 22.2482 77.3326 24.5626C77.3226 28.5243 74.6626 31.9663 70.8563 32.9341C70.8463 32.924 70.8264 32.9341 70.7965 32.9341L70.7976 32.933Z" fill="#3F424A"/>
<path d="M68.7707 31.0576H68.7608C67.0298 31.0576 65.4086 30.3692 64.1826 29.1321C62.9666 27.8949 62.2944 26.2577 62.2944 24.5121C62.3044 20.9103 65.2015 17.9868 68.7707 17.9868H68.7807C70.5116 17.9868 72.1329 18.6752 73.3589 19.9123C74.5748 21.1495 75.247 22.7867 75.247 24.5323C75.247 26.2779 74.5649 27.9151 73.3389 29.1522C72.113 30.3893 70.4906 31.0576 68.7707 31.0576ZM68.7707 18.5948C67.2081 18.5948 65.7352 19.2139 64.6178 20.3214C63.5004 21.4389 62.8869 22.9252 62.8869 24.5121C62.8869 26.099 63.4905 27.5854 64.5979 28.713C65.7053 29.8406 67.1782 30.4597 68.7508 30.4597H68.7608C70.3234 30.4597 71.7963 29.8406 72.9137 28.7331C74.0311 27.6156 74.6446 26.1292 74.6446 24.5423C74.6446 22.9554 74.041 21.4691 72.9336 20.3415C71.8262 19.2139 70.3533 18.5948 68.7807 18.5948H68.7707Z" fill="#3F424A"/>
<path d="M68.7411 39.7084C68.5728 39.7084 68.4443 39.5788 68.4443 39.4089L68.4543 32.6232C68.4543 32.4534 68.5828 32.3237 68.7511 32.3237C68.9194 32.3237 69.0479 32.4534 69.0479 32.6232L69.0379 39.4089C69.0379 39.5788 68.9095 39.7084 68.7411 39.7084Z" fill="#3F424A"/>
<path d="M109.257 37.7988V39.7445C109.257 40.0238 108.93 40.1535 108.733 39.9635L108.229 39.455L106.202 41.5001C106.044 41.6599 105.817 41.7594 105.589 41.7594C105.361 41.7594 105.134 41.67 104.975 41.5001L103.66 40.1725L101.969 41.879C101.632 42.2187 101.078 42.2187 100.743 41.879C100.406 41.5392 100.406 40.9805 100.743 40.6418L103.046 38.3174C103.383 37.9776 103.937 37.9776 104.272 38.3174L105.588 39.645L107.002 38.2179L106.597 37.8089C106.398 37.6088 106.537 37.2803 106.814 37.2803H108.742C109.029 37.2903 109.256 37.5194 109.256 37.7988H109.257Z" fill="#15CBB9"/>
<path d="M104.452 48.8155C105.924 48.8155 107.398 48.4366 108.743 47.6477C112.837 45.2628 114.25 39.9545 111.877 35.8229C109.514 31.6914 104.253 30.2654 100.159 32.6603C96.7571 34.6462 95.1258 38.6872 96.1945 42.4991C96.2343 42.659 96.4027 42.7484 96.5599 42.7092C96.7183 42.669 96.8069 42.4991 96.7681 42.3405C95.7792 38.7978 97.292 35.0261 100.466 33.18C104.283 30.9549 109.167 32.2815 111.373 36.1236C113.578 39.9757 112.263 44.9041 108.456 47.1302C105.292 48.9764 101.298 48.4176 98.746 45.7836C98.6275 45.664 98.4393 45.664 98.3307 45.7735C98.2222 45.8831 98.2122 46.0831 98.3208 46.1926C99.972 47.9293 102.197 48.8166 104.452 48.8166V48.8155Z" fill="#3F424A"/>
<path d="M98.8444 43.4265C97.9839 41.9201 97.7469 40.1533 98.2021 38.4669C98.6473 36.7805 99.7248 35.3735 101.218 34.4952C104.313 32.6892 108.278 33.7665 110.057 36.89C111.847 40.0136 110.779 44.0144 107.684 45.8103C106.665 46.3992 105.558 46.6886 104.46 46.6886C102.225 46.6886 100.04 45.5208 98.8433 43.4254L98.8444 43.4265ZM101.514 35.0249C100.15 35.8127 99.1811 37.1001 98.7757 38.6267C98.3704 40.1533 98.5775 41.7603 99.3594 43.127C100.981 45.9611 104.58 46.939 107.388 45.3018C110.197 43.6657 111.166 40.0337 109.543 37.1996C108.456 35.2942 106.478 34.2359 104.441 34.2359C103.442 34.2258 102.434 34.4851 101.514 35.0238V35.0249Z" fill="#3F424A"/>
<path d="M91.6759 47.8968C91.7257 47.8968 91.7744 47.8867 91.8243 47.8566L97.6483 44.4637C97.7867 44.3844 97.8366 44.1944 97.7568 44.0547C97.6782 43.915 97.4899 43.8647 97.3515 43.9452L91.5275 47.338C91.389 47.4174 91.3392 47.6074 91.419 47.7471C91.4788 47.8465 91.5773 47.8968 91.6759 47.8968Z" fill="#3F424A"/>
<path d="M100.334 81.5604L101.955 82.3193C102.212 82.4388 102.499 82.2299 102.459 81.9505L102.251 80.1546C102.241 80.0451 102.271 79.9445 102.34 79.8651L103.556 78.5375C103.744 78.3274 103.634 77.9888 103.357 77.9385L101.608 77.5887C101.509 77.5686 101.419 77.4993 101.361 77.4088L100.49 75.8319C100.352 75.5827 99.9964 75.5827 99.858 75.8319L98.9875 77.4088C98.9377 77.4982 98.8491 77.5686 98.7406 77.5887L96.9908 77.9385C96.714 77.9988 96.6054 78.3375 96.7926 78.5375L98.0085 79.8651C98.0772 79.9445 98.1171 80.0451 98.0971 80.1546L97.8889 81.9505C97.859 82.2299 98.1459 82.4399 98.3928 82.3193L100.014 81.5604C100.123 81.5102 100.231 81.5102 100.331 81.5604H100.334Z" fill="#EA8696"/>
<path d="M100.166 87.6476C100.878 87.6476 101.6 87.5582 102.312 87.3783C104.527 86.8094 106.396 85.3924 107.562 83.4065C109.976 79.2951 108.62 73.9767 104.547 71.5528C101.165 69.5367 96.8734 70.0854 94.1048 72.8893C93.9863 73.0089 93.9863 73.1989 94.1048 73.3084C94.2233 73.428 94.4116 73.428 94.5201 73.3084C97.1005 70.6945 101.096 70.1849 104.24 72.0713C108.028 74.3366 109.283 79.2861 107.039 83.107C105.951 84.9633 104.22 86.2697 102.154 86.8094C100.087 87.3481 97.941 87.0285 96.1027 85.9411C92.9586 84.0648 91.4747 80.283 92.5035 76.7415C92.5533 76.5817 92.4636 76.4118 92.3053 76.3727C92.1469 76.3224 91.9786 76.413 91.9398 76.5728C90.8324 80.3746 92.4249 84.4358 95.8059 86.4518C97.1503 87.2397 98.6442 87.6487 100.167 87.6487L100.166 87.6476Z" fill="#3F424A"/>
<path d="M96.8834 84.6145C95.4006 83.726 94.3419 82.309 93.9066 80.6137C93.4814 78.9273 93.7283 77.1616 94.6087 75.6641C96.4283 72.5607 100.403 71.5325 103.478 73.3687C106.554 75.2048 107.572 79.2156 105.753 82.319C104.872 83.8154 103.468 84.8838 101.788 85.323C101.254 85.4627 100.711 85.5331 100.167 85.5331C99.0197 85.523 97.8923 85.2135 96.8845 84.6156L96.8834 84.6145ZM95.1237 75.9636C94.323 77.3303 94.0949 78.9273 94.4914 80.4639C94.8767 82.0005 95.8358 83.288 97.1913 84.0959C98.5457 84.9039 100.128 85.1341 101.651 84.734C103.174 84.3451 104.449 83.3774 105.25 82.0095C106.901 79.1955 105.972 75.5434 103.184 73.8771C102.245 73.3184 101.216 73.049 100.197 73.049C98.1802 73.0591 96.2123 74.0973 95.1237 75.9625V75.9636Z" fill="#3F424A"/>
<path d="M93.2742 75.1648C93.3728 75.1648 93.4725 75.1145 93.5312 75.015C93.6098 74.8753 93.571 74.6854 93.4226 74.606L87.6385 71.1539C87.5 71.0746 87.3118 71.1137 87.2332 71.2634C87.1545 71.4031 87.1933 71.5931 87.3417 71.6725L93.1258 75.1245C93.1657 75.1547 93.2244 75.1648 93.2742 75.1648Z" fill="#3F424A"/>
</g>
<defs>
<clipPath id="clip0_502_5778">
<rect width="113.029" height="136.414" fill="white"/>
</clipPath>
</defs>
</svg>
