<svg width="133" height="120" viewBox="0 0 133 120" fill="none" xmlns="http://www.w3.org/2000/svg">
<g clip-path="url(#clip0_501_1882)">
<path d="M127.205 83.4885C127.165 83.4693 127.131 83.451 127.093 83.4328C125.117 82.3932 118.069 76.5153 113.061 73.6528C111.326 72.6598 111.71 68.5642 120.072 66.9258C120.638 66.8164 121.236 66.7171 121.877 66.6289C121.877 66.6289 130.268 70.8957 131.775 76.7737C133.258 82.5421 129.225 84.4055 127.205 83.4885Z" fill="#7C828D"/>
<path d="M123.019 79.8844C122.988 79.8844 122.958 79.8783 122.929 79.8662C122.809 79.8165 122.753 79.6787 122.803 79.5602C123.486 77.9258 124.258 77.0149 124.607 76.6562C122.8 74.9873 117.026 71.4551 116.967 71.4176C116.856 71.3508 116.821 71.2069 116.889 71.0964C116.955 70.986 117.099 70.9505 117.21 71.0184C117.466 71.1745 123.496 74.8637 125.11 76.491C125.156 76.5376 125.18 76.6005 125.178 76.6663C125.176 76.7322 125.146 76.793 125.095 76.8345C125.085 76.8426 124.083 77.71 123.235 79.7395C123.197 79.8297 123.11 79.8834 123.019 79.8834V79.8844Z" fill="#262424"/>
<path d="M127.206 83.4886C129.12 82.908 130.527 81.6434 130.477 79.168C130.347 72.897 122.595 68.2643 120.073 66.9248C120.639 66.8154 121.237 66.7161 121.878 66.6279C121.878 66.6279 130.269 70.8948 131.776 76.7727C133.259 82.5412 129.226 84.4045 127.207 83.4875L127.206 83.4886Z" fill="white"/>
<path d="M128.3 83.9486C127.881 83.9486 127.475 83.8675 127.108 83.7014C127.019 83.6608 126.965 83.5696 126.971 83.4724C126.978 83.3751 127.043 83.292 127.137 83.2636C129.239 82.6263 130.284 81.2493 130.241 79.1721C130.113 72.9953 122.34 68.3941 119.962 67.1316C119.874 67.0849 119.825 66.9887 119.84 66.8904C119.855 66.7921 119.929 66.7141 120.028 66.6948C120.614 66.5813 121.225 66.481 121.844 66.3959C121.892 66.3888 121.94 66.398 121.982 66.4192C122.329 66.5955 130.484 70.8026 132.001 76.7149C132.966 80.467 131.607 82.2869 130.711 83.0387C130.004 83.6315 129.128 83.9486 128.299 83.9486H128.3ZM127.978 83.4592C128.784 83.5524 129.706 83.2728 130.413 82.681C131.224 82.0011 132.45 80.3363 131.549 76.8325C130.154 71.3933 122.612 67.2815 121.835 66.8711C121.475 66.9218 121.117 66.9765 120.765 67.0373C123.685 68.6758 130.586 73.1787 130.711 79.164C130.753 81.23 129.834 82.6719 127.978 83.4592Z" fill="#262424"/>
<path d="M108.846 73.0675L113.958 70.96C113.958 70.96 115.337 71.5193 115.571 73.3918L110.953 76.5005L108.846 73.0665V73.0675Z" fill="white"/>
<path d="M110.953 76.7355C110.937 76.7355 110.92 76.7335 110.904 76.7304C110.841 76.7172 110.787 76.6787 110.754 76.624L108.646 73.1901C108.611 73.1313 108.601 73.0604 108.623 72.9945C108.644 72.9297 108.693 72.877 108.755 72.8506L113.867 70.7431C113.924 70.7198 113.988 70.7198 114.045 70.7431C114.105 70.7684 115.553 71.3774 115.802 73.3634C115.813 73.4505 115.773 73.5366 115.7 73.5863L111.083 76.6949C111.043 76.7213 110.999 76.7345 110.952 76.7345L110.953 76.7355ZM109.189 73.18L111.025 76.1711L115.318 73.2813C115.096 71.9235 114.222 71.3612 113.95 71.2173L109.189 73.18Z" fill="#262424"/>
<path d="M111.641 79.9483C111.641 79.9483 107.224 83.7754 102.569 86.1069C100.447 87.1678 98.2741 87.9206 96.4512 87.8548C95.4552 87.8173 94.1197 87.3806 92.5522 86.6409C84.9477 83.057 71.9749 72.4097 66.7962 66.628C65.5316 65.2165 64.4545 63.7129 63.575 62.1828C60.0945 56.1671 59.601 49.7937 62.3206 47.3771C64.568 45.379 67.6808 46.4936 71.1137 48.897C73.3986 50.4919 75.8274 52.6643 78.2399 54.8681C84.2769 60.3843 100.353 73.8069 100.353 73.8069L107.533 71.7784C113.411 73.0267 111.641 79.9473 111.641 79.9473V79.9483Z" fill="#7C828D"/>
<path d="M71.9993 53.8741L63.5741 62.1838C60.0935 56.1681 59.6001 49.7947 62.3196 47.3781C64.567 45.3799 67.6798 46.4945 71.1127 48.898L71.9993 53.8741Z" fill="#262424"/>
<path d="M102.57 86.1078C100.447 87.1687 98.2743 87.9216 96.4514 87.8557C95.4554 87.8182 94.1199 87.3815 92.5524 86.6418C92.4592 84.741 94.1817 82.3091 97.4161 82.1126C101.381 81.8694 102.62 84.4755 102.57 86.1078Z" fill="#3F424A"/>
<path d="M98.2711 79.5836C98.2387 79.5836 98.2062 79.5765 98.1758 79.5633C87.8011 74.9175 66.5602 54.3615 66.3464 54.1548C66.2541 54.0647 66.2511 53.9167 66.3413 53.8235C66.4315 53.7313 66.5804 53.7293 66.6726 53.8184C66.8844 54.0241 87.9541 74.4139 98.2843 79.0982L107.328 76.0838C107.451 76.0443 107.583 76.1091 107.623 76.2317C107.664 76.3543 107.598 76.4871 107.476 76.5276L98.3451 79.5714C98.3207 79.5795 98.2964 79.5836 98.2711 79.5836Z" fill="#262424"/>
<path d="M110.095 80.4416C110.085 80.4416 110.076 80.4416 110.068 80.4396C109.94 80.4254 109.847 80.3088 109.863 80.1802C110.531 74.3468 107.063 73.3711 106.915 73.3315C106.79 73.2991 106.715 73.1715 106.748 73.0458C106.78 72.9212 106.905 72.8452 107.032 72.8776C107.072 72.8877 111.045 73.976 110.328 80.2329C110.313 80.3524 110.213 80.4406 110.096 80.4406L110.095 80.4416Z" fill="#262424"/>
<path d="M101.028 108.51C100.56 115.896 97.9602 120.007 94.8384 119.486C94.2081 119.383 93.6924 119.165 93.2648 118.862C91.5726 117.675 91.2889 115.176 91.0386 113.14C90.7266 110.59 88.6474 100.316 88.2826 98.4154C87.9178 96.5175 88.6473 93.8831 90.8046 93.8111C92.2627 93.7645 94.9589 94.3694 96.873 94.8568C98.1314 95.178 99.0515 95.4496 99.0515 95.4496C99.0515 95.4496 101.495 101.122 101.027 108.51H101.028Z" fill="#7C828D"/>
<path d="M91.1782 110.2C91.0698 110.2 90.9715 110.124 90.9493 110.014C90.9229 109.887 91.005 109.764 91.1316 109.737C92.5401 109.447 93.8837 109.603 94.4318 109.691C94.7368 106.105 93.6111 97.4952 93.5999 97.4071C93.5827 97.2794 93.6729 97.1619 93.8016 97.1446C93.9313 97.1254 94.0468 97.2176 94.064 97.3463C94.1137 97.7192 95.2637 106.519 94.8726 109.994C94.8655 110.06 94.83 110.118 94.7773 110.158C94.7236 110.197 94.6558 110.211 94.5909 110.197C94.5747 110.193 92.9231 109.849 91.2259 110.197C91.2097 110.2 91.1945 110.202 91.1782 110.202V110.2Z" fill="#262424"/>
<path d="M101.028 108.51C100.56 115.896 97.9603 120.007 94.8385 119.486C94.651 119.455 94.4767 119.414 94.3105 119.365C95.6683 119.078 97.9937 117.632 99.0151 111.305C100.295 103.339 97.7911 96.5895 97.095 94.9136C98.2379 95.2105 99.0526 95.4506 99.0526 95.4506C99.0526 95.4506 101.497 101.123 101.028 108.512V108.51Z" fill="white"/>
<path d="M95.3712 119.766C95.1828 119.766 94.9923 119.75 94.7998 119.717C94.6073 119.685 94.4198 119.641 94.2435 119.588C94.1412 119.558 94.0733 119.462 94.0773 119.354C94.0824 119.248 94.1584 119.158 94.2627 119.136C95.5202 118.869 97.7798 117.494 98.7839 111.268C100.039 103.456 97.643 96.8438 96.879 95.0028C96.8445 94.9207 96.8597 94.8264 96.9185 94.7596C96.9763 94.6927 97.0674 94.6633 97.1546 94.6866C98.2874 94.9805 99.1112 95.2226 99.1193 95.2257C99.1862 95.2459 99.2409 95.2936 99.2682 95.3574C99.2926 95.4151 101.729 101.165 101.262 108.526C100.944 113.544 99.6067 117.339 97.5923 118.938C96.8992 119.488 96.1545 119.766 95.3712 119.766ZM95.2091 119.293C95.9458 119.335 96.6469 119.091 97.3015 118.572C99.2115 117.055 100.485 113.383 100.795 108.496C101.221 101.777 99.1973 96.4345 98.8791 95.6441C98.6674 95.5833 98.1567 95.4374 97.4869 95.2591C98.3948 97.5896 100.438 103.936 99.247 111.343C98.3908 116.654 96.5902 118.6 95.2101 119.293H95.2091Z" fill="#262424"/>
<path d="M88.9063 98.1188L86.5403 96.8573L83.0537 94.997L85.3173 91.251L86.5008 92.094L90.4687 94.9159C90.4687 94.9159 91.6391 97.2201 88.9083 98.1188H88.9063Z" fill="white"/>
<path d="M88.9064 98.3529C88.8679 98.3529 88.8304 98.3438 88.796 98.3256L82.9424 95.2037C82.8856 95.1733 82.8441 95.1207 82.8269 95.0588C82.8097 94.997 82.8188 94.9302 82.8522 94.8754L85.1158 91.1294C85.1493 91.0737 85.205 91.0342 85.2688 91.021C85.3327 91.0068 85.3985 91.021 85.4522 91.0595L90.6026 94.7245C90.633 94.7468 90.6584 94.7751 90.6756 94.8096C90.6969 94.8521 91.2025 95.8684 90.787 96.8746C90.5114 97.5434 89.9025 98.0368 88.9784 98.3408C88.9551 98.3489 88.9297 98.3519 88.9054 98.3519L88.9064 98.3529ZM83.3811 94.9069L88.9267 97.8646C89.6623 97.6042 90.1426 97.212 90.3544 96.6963C90.6432 95.9971 90.3645 95.2645 90.2804 95.071L85.3854 91.5884L83.3801 94.9069H83.3811Z" fill="#262424"/>
<path d="M86.5403 96.8583L83.0537 94.998L85.3173 91.252L86.5008 92.095C86.8757 93.3089 87.0966 94.9767 86.5414 96.8583H86.5403Z" fill="#262424"/>
<path d="M74.4698 59.4485C74.4525 59.4485 74.4363 59.4465 74.4181 59.4424L72.6621 59.0523C72.5831 59.0351 72.5192 58.9784 72.4919 58.9024L70.7754 54.0641C70.7319 53.9425 70.7957 53.8087 70.9173 53.7651C71.0399 53.7226 71.1726 53.7864 71.2162 53.907L72.8901 58.6237L74.5194 58.9855C74.6461 59.0138 74.7251 59.1385 74.6967 59.2651C74.6724 59.3746 74.5762 59.4485 74.4687 59.4485H74.4698Z" fill="#262424"/>
<path d="M88.8285 64.989C86.4088 71.4668 79.3079 83.172 79.3079 83.172L86.2538 89.4937C87.3461 97.0637 81.4155 98.7802 81.4155 98.7802C81.4155 98.7802 73.814 94.7039 69.61 91.966C68.5795 91.2953 67.7527 90.7045 67.2907 90.2739C65.405 88.5128 64.3786 86.2969 65.0716 82.4414C65.2398 81.5112 65.5053 80.4838 65.8863 79.3479C67.8368 73.4953 74.4706 59.2135 74.4706 59.2135C74.4706 59.2135 69.7914 47.411 73.9245 44.5425C78.7628 41.1866 86.2548 48.2105 88.1273 51.3323C89.9998 54.4542 91.2492 58.5123 88.8295 64.989H88.8285Z" fill="#7C828D"/>
<path d="M81.7833 79.1839C81.7438 79.1839 81.7043 79.1738 81.6668 79.1535C81.5543 79.0897 81.5158 78.9458 81.5797 78.8333C83.9791 74.6425 87.1455 68.8233 88.6087 64.9071C91.1215 58.1801 89.5631 54.1827 87.9247 51.453C86.6865 49.39 82.4379 44.953 78.2258 44.0461C76.6167 43.7006 75.2144 43.9326 74.0562 44.7351C70.1218 47.4659 74.6409 59.0119 74.6865 59.1285C74.7098 59.1882 74.7078 59.2551 74.6814 59.3129C74.6611 59.3554 72.662 63.6638 70.5625 68.4525C70.5108 68.571 70.372 68.6247 70.2545 68.573C70.1359 68.5214 70.0822 68.3836 70.1339 68.265C72.0662 63.8563 73.9144 59.854 74.2143 59.2065C73.7462 57.9977 69.7043 47.1862 73.7887 44.3501C75.0583 43.4696 76.5843 43.2142 78.3241 43.5881C82.675 44.5244 87.0533 49.0901 88.327 51.2119C90.0191 54.0318 91.6302 58.1568 89.0474 65.0712C87.5741 69.0169 84.3945 74.8593 81.987 79.0664C81.9434 79.1413 81.8644 79.1839 81.7833 79.1839Z" fill="#262424"/>
<path d="M74.4695 59.4487C74.4107 59.4487 74.3509 59.4264 74.3053 59.3818C74.2131 59.2916 74.2111 59.1437 74.3012 59.0515C74.3732 58.9785 76.1008 57.2408 80.1994 55.6793C80.32 55.6337 80.4558 55.6935 80.5014 55.8151C80.547 55.9357 80.4872 56.0715 80.3656 56.1171C76.3754 57.638 74.6529 59.3615 74.6356 59.3787C74.59 59.4254 74.5292 59.4487 74.4684 59.4487H74.4695Z" fill="#262424"/>
<path d="M71.7379 90.6276C71.1259 91.4241 70.3832 91.8385 69.609 91.9672C68.5786 91.2964 67.7517 90.7057 67.2897 90.275C65.404 88.514 64.3776 86.298 65.0707 82.4425C65.5418 81.5843 66.2501 80.9875 67.2492 80.9095C72.1685 80.5194 74.0421 87.6213 71.7379 90.6266V90.6276Z" fill="#EA8696"/>
<path d="M82.897 89.962C82.8504 89.962 82.8037 89.9478 82.7632 89.9194L73.8668 83.6767C73.7787 83.6149 73.7442 83.5004 73.7827 83.4001C76.0869 77.4553 84.5769 57.4729 85.2883 55.799C83.7765 53.3317 79.4184 48.8885 79.3739 48.8429C79.2837 48.7507 79.2847 48.6028 79.3769 48.5116C79.4691 48.4204 79.6171 48.4224 79.7082 48.5146C79.8937 48.7031 84.2709 53.1675 85.7513 55.6612C85.7898 55.725 85.7949 55.804 85.7655 55.8719C85.6753 56.0847 76.7718 77.0176 74.2853 83.3981L83.0317 89.5354C83.1371 89.6094 83.1635 89.7563 83.0895 89.8617C83.0439 89.9265 82.9709 89.961 82.897 89.961V89.962Z" fill="#262424"/>
<path d="M80.5947 97.2201C80.5035 97.2201 80.4163 97.1664 80.3788 97.0762C80.3292 96.9567 80.3859 96.8199 80.5045 96.7702C85.2374 94.7954 84.4298 88.9246 84.4207 88.8658C84.4015 88.7381 84.4906 88.6186 84.6183 88.6003C84.748 88.5831 84.8655 88.6702 84.8838 88.7979C84.8929 88.8607 85.7491 95.0892 80.6838 97.2029C80.6544 97.215 80.624 97.2211 80.5936 97.2211L80.5947 97.2201Z" fill="#262424"/>
<path d="M22.3673 25.8487L18.5605 26.9906C18.5605 26.9906 8.24853 25.6339 6.31726 25.5032C4.38599 25.3724 3.42948 28.7952 5.97073 29.8389C8.51198 30.8825 16.1266 33.8058 17.7944 33.8433C19.4623 33.8808 25.9056 32.2687 25.9056 32.2687L22.3683 25.8497L22.3673 25.8487Z" fill="white"/>
<path d="M17.8504 34.0766C17.8291 34.0766 17.8088 34.0766 17.7886 34.0766C16.0812 34.0381 8.46254 31.1158 5.88076 30.0549C4.41964 29.4551 4.01839 28.1004 4.26866 27.0233C4.52401 25.9259 5.36805 25.2075 6.33267 25.2693C8.20112 25.396 17.6741 26.6382 18.5414 26.7527L22.3006 25.625C22.405 25.5926 22.5195 25.6392 22.5732 25.7364L26.1105 32.1554C26.1459 32.2193 26.149 32.2953 26.1196 32.3621C26.0902 32.429 26.0324 32.4776 25.9615 32.4959C25.7001 32.5617 19.6155 34.0786 17.8494 34.0786L17.8504 34.0766ZM6.20905 25.7324C5.41365 25.7324 4.88473 26.4437 4.72463 27.1287C4.53414 27.9474 4.76921 29.0913 6.05909 29.6203C8.51624 30.6295 16.1775 33.5699 17.7987 33.6064C19.2071 33.6429 24.2724 32.425 25.5532 32.1119L22.254 26.1255L18.6276 27.2128C18.5961 27.2219 18.5627 27.2249 18.5303 27.2209C18.4269 27.2077 8.20416 25.8631 6.30126 25.7344C6.26985 25.7324 6.23945 25.7314 6.20905 25.7314V25.7324Z" fill="#262424"/>
<path d="M43.4788 16.8838L21.3726 25.7062C21.3726 25.7062 21.4323 34.9978 27.8767 37.9423L45.0899 28.974C45.0899 28.974 50.1957 21.7707 43.4788 16.8848V16.8838Z" fill="#15CBB9"/>
<path d="M28.5374 36.4794C28.4959 36.4794 28.4543 36.4682 28.4158 36.446C23.2107 33.2907 23.2735 26.1239 23.2745 26.0519C23.2766 25.9222 23.3921 25.8118 23.5126 25.8219C23.6423 25.824 23.7447 25.9304 23.7427 26.0601C23.7416 26.129 23.6849 33.0323 28.658 36.0457C28.7684 36.1126 28.8039 36.2565 28.737 36.3669C28.6934 36.4399 28.6154 36.4794 28.5364 36.4794H28.5374Z" fill="#262424"/>
<path d="M45.5256 16.651L55.3886 17.6197L69.4354 16.5659C69.4354 16.5659 81.2581 32.2907 88.204 46.8066C88.204 46.8066 82.5075 56.4832 71.2694 57.9667C60.0314 59.4491 55.1931 55.703 55.1931 55.703C55.1931 55.703 53.9447 46.3385 49.8866 39.9388C46.8185 35.1015 40.5849 27.9438 40.1685 21.8065C39.9658 18.8083 42.5344 16.3572 45.5256 16.651Z" fill="#15CBB9"/>
<path d="M42.9123 29.7289C42.8313 29.7289 42.7512 29.6864 42.7087 29.6104C40.9922 26.5878 40.0854 24.0405 39.9354 21.8225C39.8523 20.5944 40.2191 19.3805 40.9689 18.4038C41.0479 18.3014 41.1949 18.2822 41.2972 18.3612C41.3995 18.4402 41.4188 18.5872 41.3408 18.6895C40.6609 19.5751 40.3275 20.6765 40.4035 21.7911C40.5494 23.9382 41.436 26.4196 43.117 29.3804C43.1809 29.4929 43.1413 29.6357 43.0289 29.6996C42.9924 29.7198 42.9529 29.73 42.9134 29.73L42.9123 29.7289Z" fill="#262424"/>
<path d="M66.7302 56.6361C60.7662 56.6361 56.4984 55.0058 56.4416 54.9845C56.321 54.9379 56.2612 54.8021 56.3089 54.6815C56.3555 54.561 56.4913 54.5012 56.6118 54.5488C56.6838 54.5772 63.959 57.3495 72.7652 55.5783C81.1053 53.9003 86.351 46.081 86.4026 46.002C86.4736 45.8936 86.6195 45.8642 86.7269 45.9351C86.8353 46.006 86.8647 46.1519 86.7938 46.2593C86.7411 46.3394 81.387 54.3208 72.8574 56.0373C70.6971 56.472 68.6271 56.6371 66.7302 56.6371V56.6361Z" fill="#262424"/>
<path d="M53.9822 16.2934C51.0589 16.6116 46.7769 20.7416 50.5746 24.4876C50.5746 24.4876 51.3679 23.1218 52.4217 22.068C52.4217 22.068 52.8514 23.7064 53.6701 25.1118C53.6701 25.1118 57.2469 23.3953 58.0139 20.1174C58.7809 16.8395 55.7766 16.0989 53.9822 16.2934Z" fill="white"/>
<path d="M53.6702 25.3457C53.5892 25.3457 53.5111 25.3031 53.4676 25.2292C52.8768 24.2169 52.4898 23.1023 52.3104 22.5227C51.4299 23.4884 50.7845 24.5918 50.7774 24.604C50.7409 24.6668 50.6781 24.7083 50.6061 24.7185C50.5342 24.7276 50.4623 24.7043 50.4106 24.6536C48.5887 22.8571 48.6809 21.1184 49.0792 19.9754C49.8361 17.802 52.201 16.2507 53.958 16.0602C55.0969 15.9376 56.7586 16.1666 57.6939 17.2234C58.3444 17.958 58.5288 18.95 58.2441 20.171C57.4598 23.5198 53.9235 25.2514 53.7736 25.3234C53.7412 25.3386 53.7067 25.3467 53.6723 25.3467L53.6702 25.3457ZM52.4219 21.8337C52.4422 21.8337 52.4624 21.8368 52.4827 21.8418C52.5637 21.8641 52.6266 21.9269 52.6479 22.008C52.6519 22.0232 53.04 23.4843 53.7614 24.7975C54.5031 24.3881 57.1548 22.7578 57.7861 20.0625C58.0353 18.9986 57.8854 18.1475 57.3413 17.5324C56.5773 16.6691 55.1151 16.4047 54.0066 16.5243C52.3844 16.7006 50.1947 18.1911 49.5199 20.1284C49.0406 21.5044 49.3912 22.8733 50.5322 24.1055C50.8179 23.6515 51.4593 22.696 52.2557 21.9006C52.3003 21.856 52.3601 21.8317 52.4209 21.8317L52.4219 21.8337Z" fill="#262424"/>
<path d="M53.7759 10.6108L54.7273 13.4267L56.3556 18.2427C55.163 19.9541 53.6462 20.6472 51.726 20.0696L51.1313 17.7726L50.2305 14.294L53.7759 10.6108Z" fill="white"/>
<path d="M52.9997 20.5041C52.57 20.5041 52.1232 20.4342 51.6581 20.2954C51.5801 20.2721 51.5193 20.2093 51.499 20.1302L50.0035 14.3547C49.9832 14.2756 50.0055 14.1926 50.0612 14.1338L53.6066 10.4506C53.6633 10.3918 53.7464 10.3665 53.8265 10.3847C53.9065 10.403 53.9714 10.4607 53.9967 10.5377L56.5775 18.1696C56.6008 18.2395 56.5907 18.3175 56.5481 18.3783C55.5622 19.7938 54.3726 20.5052 53.0007 20.5052L52.9997 20.5041ZM51.9185 19.883C53.5863 20.339 54.9553 19.7888 56.0952 18.2061L53.6765 11.0515L50.4898 14.3628L51.9185 19.883Z" fill="#262424"/>
<path d="M52.5508 11.8833C52.9926 13.1509 54.6858 17.3985 51.4758 19.1048L50.2305 14.2949L52.5508 11.8833Z" fill="#262424"/>
<path d="M45.753 12.8015C46.4004 15.1189 47.5748 17.8212 50.3288 16.8911C53.6027 15.7846 55.3647 13.0275 54.8399 9.82053C54.315 6.61357 52.5246 5.06429 48.7542 6.09681C48.4178 6.18901 48.1057 6.30351 47.818 6.43726C45.7155 7.41505 44.9231 9.43651 45.4328 11.5573C45.525 11.9403 45.6283 12.3648 45.7519 12.8015H45.753Z" fill="white"/>
<path d="M49.5007 17.3622C48.9445 17.4037 48.4287 17.2953 47.9606 17.0369C46.3556 16.1513 45.6686 13.7803 45.1508 11.6261C44.4973 8.90855 45.9148 6.574 48.678 5.8171C48.832 5.77454 48.9931 5.86573 49.0356 6.02076C49.0782 6.17579 48.987 6.33589 48.832 6.37844C46.3566 7.05631 45.1336 9.06358 45.7172 11.4893C46.0698 12.9575 46.7274 15.6903 48.2423 16.5262C48.8198 16.8454 49.4724 16.8738 50.2364 16.6154C51.4563 16.203 52.4594 15.5616 53.2174 14.7095C53.3238 14.5899 53.5082 14.5777 53.6287 14.6851C53.7493 14.7915 53.7595 14.9759 53.6531 15.0965C52.8384 16.0125 51.7218 16.7279 50.4238 17.1676C50.1056 17.275 49.7976 17.3399 49.5017 17.3622H49.5007Z" fill="#262424"/>
<path d="M56.1965 10.0433C56.1965 10.0433 55.8368 10.8488 55.3292 11.5611L53.8275 11.9502L53.3553 10.8022C53.3553 10.8022 51.9651 10.9572 51.6125 10.2631C51.6125 10.2631 51.6034 10.2479 51.5892 10.2145C51.4899 9.98448 51.0816 8.95197 50.9549 7.25983C50.9549 7.25983 48.5444 8.86585 47.1481 9.26304C46.6465 9.40591 46.0153 9.31371 45.4114 9.13537C44.2036 8.77871 42.9167 7.1352 42.8975 5.87572C42.8975 5.86762 42.8975 5.85951 42.8975 5.8514C42.8914 4.00221 44.0435 5.08437 44.0435 5.08437C44.0435 5.08437 44.0597 3.59184 44.9473 3.33042C45.839 3.06899 46.6445 4.30517 46.6445 4.30517C46.6445 4.30517 48.9649 3.222 51.9124 3.16221C55.5075 3.08825 55.0556 5.6528 55.0556 5.6528C55.0556 5.6528 57.7752 6.03278 56.1955 10.0463L56.1965 10.0433Z" fill="#3F424A"/>
<path d="M53.6959 11.9673C53.3362 10.5974 54.1154 9.13528 55.4893 8.78874C55.7518 8.72288 56.0325 8.69654 56.3263 8.73099C58.0924 8.93465 58.2393 12.9553 54.0394 13.2755L53.6959 11.9673Z" fill="white"/>
<path d="M54.0393 13.5096C53.9177 13.5096 53.8154 13.4164 53.8063 13.2938C53.7961 13.1651 53.8934 13.0526 54.0221 13.0425C56.3779 12.8621 57.2382 11.5105 57.2605 10.407C57.2757 9.63694 56.8714 9.02999 56.2999 8.96413C56.0516 8.93475 55.7973 8.95299 55.547 9.01682C54.5865 9.25899 53.8863 10.1547 53.8448 11.1933C53.8397 11.323 53.7333 11.4264 53.6016 11.4182C53.4719 11.4132 53.3716 11.3037 53.3766 11.1751C53.4263 9.92977 54.2714 8.85571 55.4315 8.56288C55.7375 8.48486 56.0486 8.46358 56.3526 8.49905C57.1693 8.59328 57.7468 9.39983 57.7276 10.4161C57.7002 11.8185 56.5552 13.3191 54.0576 13.5096C54.0515 13.5096 54.0454 13.5096 54.0393 13.5096Z" fill="#262424"/>
<path d="M91.6398 100.442C91.6398 100.442 99.0183 99.5345 99.0619 89.8528C99.1055 80.1701 92.0593 79.7385 92.0593 79.7385L70.3604 79.6523C70.3604 79.6523 77.06 96.6832 81.4261 98.4979C85.7923 100.314 91.6398 100.443 91.6398 100.443V100.442Z" fill="white"/>
<path d="M91.64 100.677H91.635C91.5762 100.676 85.6922 100.525 81.3362 98.7139C76.9295 96.881 70.4183 80.4368 70.1427 79.7376C70.1144 79.6657 70.1235 79.5836 70.1671 79.5198C70.2106 79.4559 70.2836 79.4185 70.3606 79.4185L92.0595 79.5046C92.1456 79.5097 99.3388 80.0639 99.2952 89.854C99.2516 99.6299 91.7444 100.666 91.6684 100.676C91.6593 100.677 91.6491 100.678 91.64 100.678V100.677ZM70.7071 79.8866C71.6565 82.2353 77.6165 96.6601 81.5155 98.2813C85.6729 100.01 91.2722 100.197 91.6279 100.207C92.1011 100.144 98.7865 99.0686 98.8281 89.851C98.8696 80.5148 92.324 79.9889 92.0453 79.9707L70.7081 79.8866H70.7071Z" fill="#262424"/>
<path d="M84.1489 85.2271L94.393 85.53C94.393 85.53 96.7275 89.8961 93.8306 94.0454L84.3212 94.0009L84.1489 85.2281V85.2271Z" fill="white"/>
<path d="M93.8318 94.2787H93.8308L84.3213 94.2341C84.1947 94.2341 84.0913 94.1318 84.0883 94.0041L83.916 85.2313C83.915 85.1675 83.9394 85.1057 83.986 85.0601C84.0326 85.0145 84.0954 84.9922 84.1572 84.9922L94.4012 85.2941C94.4853 85.2962 94.5613 85.3438 94.6009 85.4178C94.6252 85.4623 96.9688 89.9592 94.0243 94.1774C93.9807 94.2402 93.9088 94.2777 93.8318 94.2777V94.2787ZM84.5514 93.767L93.7092 93.8096C96.1268 90.2348 94.5776 86.4705 94.2452 85.7582L84.3882 85.4674L84.5514 93.766V93.767Z" fill="#262424"/>
<path d="M92.0597 79.7375C92.0597 79.7375 87.7807 82.2443 88.1263 87.648C88.4718 93.0507 93.8319 94.0457 93.8319 94.0457L75.5051 93.9596L70.3618 79.6523L92.0608 79.7385L92.0597 79.7375Z" fill="white"/>
<path d="M93.8321 94.2785H93.831L75.5032 94.1924C75.4049 94.1924 75.3168 94.1295 75.2844 94.0373L70.1411 79.7301C70.1157 79.6582 70.1259 79.5781 70.1704 79.5153C70.214 79.4535 70.286 79.416 70.3619 79.416L92.0609 79.5021C92.1663 79.5021 92.2585 79.5731 92.2858 79.6754C92.3132 79.7767 92.2696 79.8852 92.1784 79.9378C92.1369 79.9622 88.0281 82.4426 88.3605 87.6315C88.6908 92.7849 93.6639 93.7739 93.8756 93.8134C93.9942 93.8357 94.0773 93.9451 94.0651 94.0657C94.054 94.1863 93.9526 94.2775 93.8321 94.2775V94.2785ZM75.6694 93.7242L92.3618 93.8033C90.694 93.0828 88.1305 91.3775 87.8923 87.6619C87.6218 83.4407 90.1408 80.9177 91.3354 79.9682L70.6943 79.8852L75.6694 93.7242Z" fill="#262424"/>
<path d="M44.501 27.0459C44.501 27.0459 49.1964 29.2508 49.621 35.2584C50.0456 41.267 46.0685 44.5946 46.0685 44.5946L37.9858 44.1619C37.9858 44.1619 35.8458 29.8111 44.501 27.0449V27.0459Z" fill="white"/>
<path d="M46.0684 44.8299C46.0684 44.8299 46.0603 44.8299 46.0562 44.8299L37.9735 44.3982C37.862 44.3921 37.7708 44.309 37.7546 44.1986C37.7323 44.0527 35.6855 29.6188 44.431 26.8243C44.4877 26.806 44.5485 26.8101 44.6022 26.8354C44.6508 26.8577 49.4263 29.1689 49.856 35.2434C50.2836 41.3007 46.2609 44.7417 46.2204 44.7762C46.1778 44.8116 46.1251 44.8309 46.0704 44.8309L46.0684 44.8299ZM38.1923 43.9402L45.9853 44.3567C46.498 43.8865 49.7678 40.6613 49.3878 35.2758C49.0079 29.8995 45.0936 27.6227 44.4816 27.2995C36.7484 29.8711 37.9856 42.2552 38.1923 43.9402Z" fill="#262424"/>
<path d="M42.7826 36.9443C42.7826 36.9443 43.3014 41.7856 46.0676 44.5954L37.9848 44.1627L36.9473 36.5552L42.7826 36.9443Z" fill="white"/>
<path d="M46.0687 44.8297C46.0687 44.8297 46.0606 44.8297 46.0566 44.8297L37.9738 44.398C37.8613 44.3919 37.7691 44.3068 37.7539 44.1964L36.7164 36.5888C36.7072 36.5189 36.7295 36.449 36.7772 36.3973C36.8248 36.3456 36.8937 36.3183 36.9636 36.3234L42.799 36.7124C42.9124 36.7205 43.0036 36.8077 43.0158 36.9212C43.0209 36.9688 43.5599 41.7159 46.2349 44.4325C46.3028 44.5014 46.321 44.6047 46.2815 44.6929C46.244 44.777 46.1599 44.8307 46.0677 44.8307L46.0687 44.8297ZM38.1917 43.94L45.5084 44.3311C43.3208 41.7767 42.6976 38.0662 42.575 37.1654L37.2189 36.8087L38.1917 43.94Z" fill="#262424"/>
<path d="M91.6397 100.443H47.3218C47.3218 100.443 37.1193 96.8972 32.969 85.8334C28.8197 74.7666 17.2372 64.2196 11.184 58.3427C5.13378 52.4638 -3.0807 37.1616 6.04065 25.2314L44.4999 27.0472C44.4999 27.0472 36.9136 32.2108 39.8004 42.3798C41.9475 49.9479 48.3594 55.6606 56.7441 62.3187C65.1288 68.9758 70.8345 75.7191 73.8611 83.9305C76.6932 91.6201 83.9217 99.9116 91.6397 100.444V100.443Z" fill="white"/>
<path d="M91.6399 100.676H47.322C47.2957 100.676 47.2704 100.672 47.245 100.663C47.1417 100.628 36.8905 96.9547 32.7504 85.9153C28.9436 75.7634 18.6732 65.8791 12.5369 59.9728C12.0019 59.4581 11.4942 58.9697 11.021 58.5097C5.27079 52.9216 -3.55773 37.4005 5.85544 25.0884C5.90205 25.0276 5.97602 24.9951 6.05202 24.9972L44.5113 26.8129C44.6116 26.818 44.6977 26.8859 44.7261 26.9831C44.7534 27.0804 44.7159 27.1838 44.6329 27.2405C44.5589 27.2912 37.2219 32.4355 40.0266 42.3158C42.2041 49.9912 48.9524 55.8326 56.8902 62.1351C65.7522 69.1712 71.2147 76.0705 74.0812 83.8493C76.8565 91.3849 83.9594 99.6794 91.6562 100.209C91.7818 100.217 91.8781 100.325 91.874 100.45C91.8689 100.577 91.7656 100.676 91.6399 100.676ZM47.3636 100.208H89.0014C82.1599 98.2507 76.1513 90.8245 73.6414 84.0104C70.8053 76.3167 65.3895 69.4823 56.5984 62.5009C48.5957 56.1468 41.7917 50.2526 39.5757 42.4424C37.1226 33.8014 42.196 28.6601 43.8628 27.2506L6.15334 25.4704C-2.94876 37.517 5.70954 52.6956 11.3473 58.1743C11.8205 58.6333 12.3271 59.1217 12.8621 59.6354C19.0268 65.569 29.3458 75.5 33.1891 85.7501C37.1276 96.2515 46.6989 99.9611 47.3636 100.207V100.208Z" fill="#262424"/>
<path d="M7.3672 33.3464C6.85044 33.396 6.43804 36.3932 6.78356 38.3823C7.12908 40.3703 7.60532 40.9762 7.77757 41.1485C7.94982 41.3207 14.8663 41.6237 15.2118 41.5811C15.5574 41.5376 15.0386 39.3763 14.996 37.907C14.9525 36.4378 15.1693 34.4062 15.1693 34.1033C15.1693 33.8003 8.03696 33.2815 7.3672 33.3464Z" fill="#EA8696"/>
<path d="M19.2556 38.3265C19.2668 38.8463 19.6751 39.2699 20.1939 39.3013L33.957 40.124C34.6085 40.1625 35.1486 39.6235 35.1101 38.972C35.0777 38.4157 34.6298 37.9729 34.0725 37.9476L20.2993 37.3082C19.7217 37.2818 19.2425 37.749 19.2546 38.3275L19.2556 38.3265Z" fill="#15CBB9"/>
<path d="M10.6209 47.2511C10.1254 47.3322 10.8641 49.9039 11.9726 51.5646C13.0811 53.2253 13.7873 53.7026 14.0265 53.8363C14.2656 53.9701 21.2784 53.7117 21.6067 53.6489C21.935 53.586 20.5873 51.7926 19.9804 50.5493C19.3724 49.306 18.808 47.5673 18.6925 47.3109C18.577 47.0546 11.2653 47.1458 10.6219 47.2501L10.6209 47.2511Z" fill="#EA8696"/>
<path d="M24.5764 50.6263C24.5876 51.1461 24.9959 51.5697 25.5147 51.6011L39.2778 52.4238C39.9293 52.4623 40.4694 51.9233 40.4309 51.2718C40.3985 50.7155 39.9506 50.2727 39.3933 50.2474L25.6201 49.608C25.0425 49.5817 24.5633 50.0488 24.5754 50.6273L24.5764 50.6263Z" fill="#15CBB9"/>
<path d="M19.6092 58.7799C19.1137 58.861 19.8524 61.4327 20.9609 63.0934C22.0694 64.7541 22.7756 65.2314 23.0148 65.3651C23.2539 65.4989 30.2667 65.2405 30.5949 65.1777C30.9232 65.1148 29.5756 63.3214 28.9687 62.0781C28.3607 60.8348 27.7963 59.0961 27.6808 58.8397C27.5643 58.5834 20.2536 58.6746 19.6102 58.7789L19.6092 58.7799Z" fill="#EA8696"/>
<path d="M33.5649 62.1561C33.5973 62.6749 34.0219 63.0822 34.5417 63.0924L48.3271 63.3629C48.9796 63.3761 49.4974 62.8158 49.4336 62.1652C49.3788 61.61 48.9138 61.1864 48.3554 61.1824L34.568 61.0952C33.9895 61.0912 33.5294 61.5786 33.5649 62.1551V62.1561Z" fill="#15CBB9"/>
<path d="M30.0371 70.9152C29.5456 71.0165 30.3907 73.5558 31.5671 75.1689C32.7435 76.782 33.469 77.2298 33.7132 77.3534C33.9574 77.4771 40.9539 76.9279 41.2792 76.8519C41.6044 76.7759 40.1838 75.0392 39.5252 73.8222C38.8666 72.6053 38.2303 70.8919 38.1036 70.6406C37.977 70.3893 30.6754 70.7835 30.0371 70.9152Z" fill="#EA8696"/>
<path d="M44.1212 73.0693C44.1749 73.5861 44.6167 73.9762 45.1354 73.964L58.9198 73.6631C59.5723 73.6489 60.0668 73.0673 59.9756 72.4208C59.8976 71.8686 59.4153 71.4643 58.858 71.4836L45.0787 71.9679C44.5011 71.9882 44.0614 72.4938 44.1212 73.0683V73.0693Z" fill="#15CBB9"/>
<path d="M37.6879 82.0505C37.1965 82.1518 38.0416 84.691 39.218 86.3041C40.3943 87.9172 41.1198 88.3651 41.364 88.4887C41.6082 88.6123 48.6048 88.0631 48.93 87.9871C49.2553 87.9111 47.8347 86.1744 47.1761 84.9575C46.5175 83.7406 45.8811 82.0271 45.7545 81.7759C45.6278 81.5246 38.3263 81.9187 37.6879 82.0505Z" fill="#EA8696"/>
<path d="M51.7711 84.2051C51.8248 84.7218 52.2666 85.1119 52.7853 85.0998L66.5697 84.7988C67.2222 84.7846 67.7167 84.203 67.6255 83.5566C67.5475 83.0044 67.0652 82.6001 66.5079 82.6193L52.7286 83.1036C52.151 83.1239 51.7113 83.6295 51.7711 84.204V84.2051Z" fill="#15CBB9"/>
<path d="M45.8618 91.946C45.3703 92.0473 46.2154 94.5865 47.3918 96.1996C48.5682 97.8127 49.2937 98.2606 49.5379 98.3842C49.7821 98.5078 56.7786 97.9586 57.1039 97.8826C57.4291 97.8067 56.0085 96.0699 55.3499 94.853C54.6913 93.6361 54.055 91.9227 53.9283 91.6714C53.8017 91.4201 46.5001 91.8142 45.8618 91.946Z" fill="#EA8696"/>
<path d="M59.9454 94.1006C59.9991 94.6173 60.4409 95.0074 60.9597 94.9953L74.744 94.6943C75.3966 94.6802 75.891 94.0985 75.7998 93.4521C75.7218 92.8999 75.2395 92.4956 74.6822 92.5148L60.9029 92.9992C60.3254 93.0194 59.8856 93.525 59.9454 94.0996V94.1006Z" fill="#15CBB9"/>
<path d="M83.2099 36.3497C83.2099 36.3497 82.4297 40.5639 75.6398 40.6419C71.2007 40.6915 69.0972 38.3104 68.1731 36.6527C67.6827 35.7752 63.5435 25.9709 63.2314 23.1611C62.9194 20.3514 63.9336 16.1372 69.4336 16.5648C74.5252 16.9641 82.1794 34.002 83.1156 36.1309C83.1217 36.1491 83.1278 36.1653 83.1379 36.1805C83.144 36.1896 83.147 36.1987 83.1501 36.2058C83.1815 36.2839 83.2028 36.3335 83.2058 36.3467L83.2089 36.3497H83.2099Z" fill="#15CBB9"/>
<path d="M75.5039 40.8759C70.9443 40.8759 68.8276 38.3073 67.9683 36.7651C67.4891 35.9069 63.3185 26.0621 62.9983 23.1855C62.901 22.31 62.745 19.3158 64.8201 17.5436C64.9184 17.4595 65.0664 17.4707 65.1505 17.57C65.2346 17.6683 65.2224 17.8162 65.1241 17.9003C63.2243 19.5225 63.3732 22.3161 63.4644 23.1338C63.7694 25.8777 67.9096 35.6982 68.3777 36.5372C69.3656 38.3093 71.4013 40.4078 75.5009 40.4078C75.5465 40.4078 75.5911 40.4078 75.6377 40.4078C79.3736 40.3652 81.2268 39.046 82.1225 37.9476C82.2046 37.8473 82.3526 37.8321 82.4519 37.9142C82.5522 37.9963 82.5664 38.1432 82.4853 38.2435C81.5257 39.4199 79.559 40.8313 75.6428 40.8759C75.5972 40.8759 75.5506 40.8759 75.505 40.8759H75.5039Z" fill="#262424"/>
<path d="M68.481 34.6324C68.4223 34.6324 68.3635 34.6101 68.3179 34.5666C68.2247 34.4764 68.2227 34.3285 68.3129 34.2362C68.3615 34.1866 73.2211 29.2804 80.6229 32.152C80.7435 32.1986 80.8033 32.3344 80.7567 32.4549C80.7101 32.5755 80.5743 32.6343 80.4537 32.5887C73.3498 29.8326 68.6959 34.5149 68.6493 34.5625C68.6037 34.6101 68.5418 34.6334 68.481 34.6334V34.6324Z" fill="#262424"/>
<path d="M83.2096 36.3499C83.2096 36.3499 82.5763 39.7778 77.4725 40.5083C76.9172 40.5863 76.3083 40.633 75.6405 40.6421C71.2014 40.6917 69.0979 38.3106 68.1738 36.6529C68.7666 35.9041 69.9784 34.6608 72.0009 33.8401C73.0902 33.3973 74.4165 33.0751 76.0063 33.0193C76.4805 33.0041 76.9243 33.0102 77.3388 33.0386C81.4121 33.2949 82.7769 35.4359 83.1164 36.1321C83.1224 36.1503 83.1285 36.1665 83.1386 36.1817C83.1447 36.1908 83.1478 36.1999 83.1508 36.207C83.1853 36.2851 83.2035 36.3317 83.2065 36.3479L83.2096 36.3509V36.3499Z" fill="#0F9386"/>
<path d="M75.5049 40.8759C70.9452 40.8759 68.8275 38.3072 67.9682 36.7651C67.9226 36.682 67.9307 36.5796 67.9895 36.5057C68.6775 35.6373 69.9157 34.4315 71.9118 33.6219C73.1511 33.1184 74.525 32.8357 75.9963 32.784C76.4766 32.7688 76.9335 32.7749 77.353 32.8032C79.2681 32.9238 80.8295 33.4618 81.9907 34.4042C82.091 34.4852 82.1062 34.6332 82.0252 34.7335C81.9441 34.8338 81.7962 34.849 81.6959 34.7679C80.6117 33.8884 79.1394 33.3848 77.3226 33.2703C76.9163 33.243 76.4756 33.2369 76.0115 33.2521C74.596 33.3018 73.2757 33.5723 72.0871 34.0556C70.2785 34.7902 69.1244 35.8612 68.4546 36.6739C69.481 38.4349 71.545 40.4442 75.6366 40.4067C76.2729 40.3976 76.8798 40.353 77.4392 40.275C80.0443 39.9021 81.4233 38.8027 82.1224 37.9465C82.2045 37.8462 82.3525 37.831 82.4518 37.9131C82.5521 37.9952 82.5673 38.1421 82.4852 38.2424C81.7344 39.1635 80.2601 40.3439 77.505 40.7381C76.9254 40.8191 76.2993 40.8657 75.6427 40.8748C75.5971 40.8748 75.5505 40.8748 75.5049 40.8748V40.8759Z" fill="#262424"/>
<path d="M77.8016 39.5138C77.7672 39.8452 77.6577 40.1816 77.4703 40.5068C76.5209 42.1584 73.553 43.5253 68.3206 42.6853C64.0659 42.0014 57.27 39.1896 53.3497 37.4539C51.4984 36.6362 50.2876 36.0586 50.2876 36.0586L51.0526 33.3461C51.0526 33.3461 51.2309 33.3461 51.5521 33.3492C54.2991 33.3775 67.6123 33.5204 71.9987 33.8396C73.0879 33.3968 74.4153 33.0746 76.0041 33.0188C76.4783 33.0036 76.9221 33.0097 77.3365 33.0381L77.5149 35.245L77.7803 38.5472L77.7895 38.6475C77.827 38.9535 77.83 39.2463 77.8016 39.5148V39.5138Z" fill="white"/>
<path d="M71.32 43.1759C70.4091 43.1759 69.3989 43.0959 68.2843 42.9175C63.9516 42.2214 57.0087 39.3306 53.2556 37.6689C51.4226 36.8593 50.1996 36.2766 50.1875 36.2706C50.0841 36.2219 50.0324 36.1054 50.0628 35.996L50.8279 33.2835C50.8562 33.1822 50.9484 33.1132 51.0528 33.1132C51.0528 33.1132 51.2311 33.1132 51.5544 33.1163C56.3278 33.1649 67.8374 33.3098 71.9614 33.6027C73.1874 33.1112 74.5442 32.8366 75.9952 32.785C76.4755 32.7698 76.9314 32.7758 77.3519 32.8042C77.4674 32.8123 77.5596 32.9035 77.5698 33.019L78.0217 38.6254C78.0602 38.9385 78.0643 39.2475 78.0339 39.5393C77.9953 39.9112 77.8738 40.276 77.6721 40.6245C76.9031 41.962 74.8634 43.1769 71.318 43.1769L71.32 43.1759ZM50.5675 35.9321C50.9697 36.1216 52.0225 36.612 53.4451 37.2403C57.178 38.8929 64.0782 41.7675 68.3593 42.4545C73.5725 43.2914 76.3792 41.9367 77.2678 40.3905C77.436 40.0987 77.5374 39.7957 77.5688 39.4907C77.5951 39.2333 77.5921 38.9598 77.5566 38.676L77.5465 38.5696L77.1199 33.2602C76.7713 33.2429 76.4005 33.2409 76.0114 33.2541C74.5959 33.3037 73.2756 33.5743 72.087 34.0576C72.0536 34.0718 72.0181 34.0779 71.9817 34.0738C67.805 33.7709 55.2872 33.6229 51.5503 33.5844C51.4186 33.5834 51.3112 33.5824 51.2301 33.5814L50.5675 35.9321Z" fill="#262424"/>
<path d="M53.3506 37.4539C51.4994 36.6362 50.2886 36.0587 50.2886 36.0587L51.0536 33.3462C51.0536 33.3462 51.2319 33.3462 51.5531 33.3492L53.3517 37.4539H53.3506Z" fill="#262424"/>
<path d="M77.5162 35.244C74.8594 34.1486 72 33.8396 72 33.8396C73.0893 33.3968 74.4156 33.0746 76.0054 33.0188C76.4796 33.0036 76.9234 33.0097 77.3378 33.0381L77.5162 35.245V35.244Z" fill="#262424"/>
<path d="M47.1708 30.275C47.1708 30.275 43.9071 30.7715 43.5352 29.9558C43.1644 29.1402 44.5971 27.9253 47.8233 27.9486C51.0496 27.9719 50.4852 29.8322 50.4852 29.8322C50.4852 29.8322 51.9179 30.8809 51.5906 33.7616C51.2634 36.6423 50.4274 37.8714 46.5831 37.5999C42.7388 37.3273 43.4532 32.3481 43.7855 31.498C44.1179 30.6469 47.1708 30.276 47.1708 30.276V30.275Z" fill="white"/>
<path d="M47.552 37.8695C47.246 37.8695 46.9187 37.8573 46.5671 37.832C45.408 37.7499 44.5345 37.2575 43.9712 36.3668C42.8718 34.6291 43.3379 31.9997 43.5679 31.411C43.6935 31.0877 44.0958 30.8324 44.5903 30.6338C43.9874 30.571 43.4838 30.4058 43.3227 30.0522C43.1899 29.7604 43.2274 29.429 43.4281 29.12C43.8769 28.4279 45.2681 27.6994 47.8256 27.7136C49.1398 27.7227 50.0294 28.0307 50.4692 28.6296C50.7833 29.0561 50.7752 29.5101 50.7418 29.7431C51.0984 30.0775 52.1107 31.2651 51.8229 33.7871C51.5149 36.4975 50.76 37.8695 47.551 37.8695H47.552ZM46.8245 30.5588C45.6501 30.7402 44.1789 31.1343 44.0036 31.5812C43.809 32.0797 43.3916 34.5754 44.3663 36.1165C44.8456 36.8734 45.5964 37.2939 46.5996 37.3649C50.3101 37.6273 51.0427 36.5097 51.3578 33.7344C51.6638 31.0411 50.4003 30.0603 50.3466 30.0198C50.2676 29.961 50.2331 29.8576 50.2615 29.7634C50.2665 29.7462 50.3891 29.3044 50.0872 28.9011C49.7417 28.4391 48.9584 28.1898 47.8215 28.1817C45.4505 28.1584 44.184 28.814 43.8202 29.3753C43.7067 29.5506 43.6824 29.7127 43.7483 29.8586C43.9165 30.2295 45.3766 30.265 46.7627 30.0947C46.9289 30.0694 47.0606 30.0522 47.1417 30.0431C47.2693 30.0299 47.3848 30.117 47.4021 30.2437C47.4193 30.3703 47.3321 30.4879 47.2055 30.5071C47.1042 30.5223 46.9745 30.5406 46.8235 30.5598L46.8245 30.5588Z" fill="#262424"/>
<path d="M7.21731 25.1208C7.21731 25.1208 9.14959 27.7978 9.99161 27.4918C10.8336 27.1858 10.6968 25.3113 8.42106 23.0254C6.14528 20.7395 5.21207 22.4448 5.21207 22.4448C5.21207 22.4448 3.46014 22.156 1.63324 24.4075C-0.193666 26.6589 -0.486498 28.116 2.40028 30.6694C5.28705 33.2228 8.34101 29.2255 8.7149 28.3926C9.08981 27.5597 7.21629 25.1208 7.21629 25.1208H7.21731Z" fill="white"/>
<path d="M4.43406 31.7453C3.65689 31.7453 2.92329 31.4444 2.24643 30.8445C-0.791316 28.1564 -0.430596 26.5797 1.45204 24.2594C3.05197 22.2886 4.60733 22.1771 5.09673 22.1994C5.2396 22.013 5.55776 21.6887 6.08263 21.6148C6.81826 21.5104 7.66129 21.9289 8.5874 22.86C10.392 24.6728 10.8429 26.1795 10.6636 26.984C10.5835 27.3437 10.3728 27.6021 10.0718 27.7115C9.70604 27.8433 9.23488 27.6001 8.76878 27.214C8.97346 27.7065 9.07275 28.1726 8.92989 28.4877C8.67049 29.0642 7.12021 31.2377 5.1099 31.6703C4.88192 31.719 4.65596 31.7443 4.43406 31.7443V31.7453ZM4.99236 22.6645C4.5212 22.6645 3.20903 22.8367 1.8158 24.5542C0.0557681 26.7236 -0.229971 28.0277 2.55649 30.4939C3.30934 31.1597 4.13616 31.4018 5.0106 31.2134C6.79394 30.8303 8.28241 28.7846 8.50229 28.2962C8.69988 27.8585 7.95007 26.5321 7.257 25.5665C7.16479 25.4459 7.08677 25.3395 7.02699 25.2564C6.95201 25.1531 6.9743 25.0082 7.07664 24.9312C7.17898 24.8541 7.32387 24.8744 7.40189 24.9767C7.45154 25.0416 7.53159 25.147 7.62886 25.2817C8.47899 26.3923 9.52872 27.4106 9.90971 27.2708C10.0597 27.2161 10.159 27.0853 10.2046 26.8817C10.3505 26.2291 9.92693 24.8704 8.25404 23.1894C7.45154 22.3838 6.72504 21.9988 6.15356 22.0758C5.65402 22.1437 5.42502 22.5399 5.41489 22.5571C5.36626 22.6432 5.27 22.6908 5.17171 22.6746C5.15955 22.6726 5.09673 22.6635 4.99034 22.6635L4.99236 22.6645Z" fill="#262424"/>
<path d="M117.705 48.3579C115.627 48.3579 113.943 50.042 113.943 52.1202C113.943 50.042 112.259 48.3579 110.181 48.3579C112.259 48.3579 113.943 46.6739 113.943 44.5957C113.943 46.6739 115.627 48.3579 117.705 48.3579Z" fill="#15CBB9"/>
<path d="M107.515 59.074C106.677 59.074 105.997 59.7539 105.997 60.5919C105.997 59.7539 105.317 59.074 104.479 59.074C105.317 59.074 105.997 58.3941 105.997 57.5562C105.997 58.3941 106.677 59.074 107.515 59.074Z" fill="#15CBB9"/>
<path d="M32.2972 2.82294C30.7378 2.82294 29.4743 4.08647 29.4743 5.64588C29.4743 4.08647 28.2108 2.82294 26.6514 2.82294C28.2108 2.82294 29.4743 1.55941 29.4743 0C29.4743 1.55941 30.7378 2.82294 32.2972 2.82294Z" fill="#15CBB9"/>
<path d="M17.5179 79.6501C15.6161 79.6501 14.0749 81.1913 14.0749 83.0931C14.0749 81.1913 12.5337 79.6501 10.6318 79.6501C12.5337 79.6501 14.0749 78.1089 14.0749 76.207C14.0749 78.1089 15.6161 79.6501 17.5179 79.6501Z" fill="#15CBB9"/>
<path d="M88.5252 30.3268C89.4312 30.3268 90.1657 29.5924 90.1657 28.6864C90.1657 27.7804 89.4312 27.0459 88.5252 27.0459C87.6192 27.0459 86.8848 27.7804 86.8848 28.6864C86.8848 29.5924 87.6192 30.3268 88.5252 30.3268Z" fill="#EA8696"/>
<path d="M99.988 51.8007C100.505 51.8007 100.924 51.3815 100.924 50.8645C100.924 50.3474 100.505 49.9282 99.988 49.9282C99.4709 49.9282 99.0518 50.3474 99.0518 50.8645C99.0518 51.3815 99.4709 51.8007 99.988 51.8007Z" fill="#EA8696"/>
<path d="M1.81356 94.6564C2.58917 94.6564 3.21793 94.0276 3.21793 93.252C3.21793 92.4764 2.58917 91.8477 1.81356 91.8477C1.03794 91.8477 0.40918 92.4764 0.40918 93.252C0.40918 94.0276 1.03794 94.6564 1.81356 94.6564Z" fill="#EA8696"/>
<path d="M2.51665 14.6539C3.50771 14.6539 4.31113 13.8505 4.31113 12.8594C4.31113 11.8684 3.50771 11.0649 2.51665 11.0649C1.52558 11.0649 0.722168 11.8684 0.722168 12.8594C0.722168 13.8505 1.52558 14.6539 2.51665 14.6539Z" fill="#EA8696"/>
<path d="M23.5095 18.3998C24.0266 18.3998 24.4457 17.9807 24.4457 17.4636C24.4457 16.9465 24.0266 16.5273 23.5095 16.5273C22.9924 16.5273 22.5732 16.9465 22.5732 17.4636C22.5732 17.9807 22.9924 18.3998 23.5095 18.3998Z" fill="#EA8696"/>
</g>
<defs>
<clipPath id="clip0_501_1882">
<rect width="132.334" height="119.766" fill="white"/>
</clipPath>
</defs>
</svg>
