<svg width="154" height="111" viewBox="0 0 154 111" fill="none" xmlns="http://www.w3.org/2000/svg">
<g clip-path="url(#clip0_501_2518)">
<path d="M54.5208 49.8824C56.8726 52.2857 64.9683 55.0684 64.9683 55.0684C65.5315 54.9269 66.0994 54.7713 66.6579 54.6046C70.2875 53.5245 73.5958 52.0478 73.5958 52.0478C73.5958 52.0478 75.2599 50.9485 74.8782 49.1817C74.8782 49.1817 74.0252 46.925 71.9783 46.9942C69.9314 47.0635 60.5463 45.9813 60.5463 45.9813C60.5463 45.9813 58.1398 43.572 56.0871 43.9505C54.0332 44.328 52.169 47.4771 54.5208 49.8824Z" fill="#15CBB9"/>
<path d="M67.4218 52.7605C67.1409 52.2142 67.6194 51.501 68.4907 51.1676C69.3619 50.8343 70.2959 51.0069 70.5768 51.5532C70.8577 52.0996 70.3792 52.8127 69.5079 53.1461C68.6367 53.4795 67.7027 53.3068 67.4218 52.7605Z" fill="white"/>
<path d="M68.6186 53.5154C68.9351 53.5154 69.2726 53.4561 69.6007 53.3306C70.0662 53.1519 70.4479 52.8689 70.6748 52.5305C70.9145 52.1722 70.9553 51.7967 70.7888 51.4725C70.6224 51.1482 70.2722 50.9213 69.8032 50.835C69.3622 50.7537 68.8618 50.8069 68.3952 50.9846C67.4084 51.362 66.8754 52.1963 67.2082 52.8428C67.4305 53.2744 67.9832 53.5163 68.6198 53.5163L68.6186 53.5154ZM69.3808 51.1984C69.4925 51.1984 69.6007 51.2074 69.7043 51.2275C70.0231 51.2867 70.2571 51.4313 70.3618 51.6351C70.4665 51.8389 70.4339 52.0858 70.271 52.3298C70.0941 52.5938 69.7881 52.8197 69.4122 52.9632C68.6593 53.2513 67.861 53.1238 67.633 52.6791C67.4049 52.2344 67.8308 51.6391 68.5837 51.351C68.8478 51.2496 69.1225 51.1984 69.382 51.1984H69.3808Z" fill="#3F424A"/>
<path d="M72.3718 49.6606C72.4998 49.6606 72.6045 49.5712 72.6045 49.4598C72.6045 49.3493 72.5009 49.259 72.3718 49.259C72.2926 49.259 64.4576 49.2319 60.0635 47.7291C59.9437 47.6879 59.8087 47.7391 59.761 47.8415C59.7133 47.9449 59.7726 48.0614 59.8913 48.1025C64.368 49.6334 72.0448 49.6606 72.3694 49.6606H72.3718Z" fill="#3F424A"/>
<path d="M54.521 49.8824C56.8728 52.2857 64.9685 55.0684 64.9685 55.0684C65.5318 54.9269 66.0996 54.7713 66.6582 54.6046C62.9531 53.5365 57.663 50.3783 57.663 50.3783C61.4694 49.0994 60.5466 45.9813 60.5466 45.9813C60.5466 45.9813 58.1401 43.572 56.0874 43.9505C54.0335 44.328 52.1692 47.4771 54.521 49.8824Z" fill="white"/>
<path d="M64.9685 55.2692C64.9906 55.2692 65.0127 55.2662 65.0337 55.2612C65.5829 55.1236 66.1555 54.966 66.735 54.7944C66.8293 54.7663 66.8921 54.69 66.8921 54.6036C66.8921 54.5173 66.8281 54.441 66.7327 54.4139C63.6454 53.5235 59.3864 51.1342 58.147 50.4185C61.6369 49.011 60.7828 45.9633 60.7723 45.9311C60.763 45.901 60.7467 45.8729 60.7234 45.8498C60.621 45.7474 58.2029 43.3552 56.0396 43.7537C54.94 43.9555 53.9252 44.85 53.4551 46.0325C52.9035 47.4199 53.227 48.8705 54.3441 50.0119C56.7064 52.4262 64.5508 55.1407 64.8836 55.2551C64.9115 55.2642 64.9406 55.2692 64.9697 55.2692H64.9685ZM65.9507 54.5976C65.6225 54.69 65.2979 54.7763 64.9813 54.8566C64.1644 54.5705 56.8682 51.9694 54.6991 49.7529C53.6913 48.7219 53.3981 47.4139 53.895 46.163C54.3069 45.128 55.2064 44.3179 56.135 44.1472C57.9003 43.822 60.0276 45.7846 60.3324 46.0767C60.4302 46.4662 60.9387 49.0622 57.578 50.1916C57.4977 50.2187 57.4419 50.2819 57.4314 50.3552C57.4209 50.4285 57.4593 50.5018 57.5303 50.5439C57.5803 50.5741 62.313 53.3869 65.9507 54.5976Z" fill="#3F424A"/>
<path d="M77.416 49.2895L73.648 50.4761C73.648 50.4761 71.5208 49.9089 72.1271 47.7837L75.8765 46.0249L77.416 49.2895Z" fill="white"/>
<path d="M73.6471 50.6776C73.6738 50.6776 73.7006 50.6736 73.7273 50.6656L77.4953 49.479C77.5547 49.4599 77.6024 49.4218 77.628 49.3716C77.6536 49.3214 77.6548 49.2652 77.6303 49.215L76.0908 45.9504C76.0663 45.8972 76.0163 45.856 75.9535 45.8369C75.8906 45.8179 75.822 45.8219 75.7638 45.85L72.0144 47.6088C71.9574 47.6359 71.9155 47.6821 71.8992 47.7373C71.2464 50.0201 73.5528 50.6636 73.5772 50.6696C73.5993 50.6756 73.6226 50.6786 73.6459 50.6786L73.6471 50.6776ZM77.109 49.1728L73.6459 50.264C73.3073 50.1506 71.9085 49.5744 72.3298 47.918L75.758 46.3098L77.109 49.1728Z" fill="#3F424A"/>
<path d="M74.3068 44.2376C74.3068 44.2376 74.6163 48.3194 78.2633 50.3944L95.175 43.3672C95.175 43.3672 113.794 50.2609 120.156 52.5356C126.516 54.8114 142.964 47.1147 130.629 41.2922C130.629 41.2922 107.932 35.4185 98.2867 33.1789C95.9687 32.6398 94.4047 32.3115 94.0893 32.3246C93.6785 32.3417 92.2158 33.1086 90.2573 34.246C84.4564 37.615 74.3068 44.2376 74.3068 44.2376Z" fill="#15CBB9"/>
<path d="M90.2572 34.246C91.1277 34.7931 92.3658 35.1354 93.7401 35.1354C95.8685 35.1354 97.6722 34.3133 98.2866 33.1789C95.9686 32.6398 94.4046 32.3115 94.0892 32.3246C93.6785 32.3417 92.2157 33.1086 90.2572 34.246Z" fill="#0F9386"/>
<path d="M78.0305 46.7773C78.0689 46.7773 78.1073 46.7692 78.1434 46.7522L94.5792 38.9009L121.424 46.5293C121.546 46.5645 121.678 46.5072 121.718 46.4018C121.759 46.2964 121.693 46.183 121.571 46.1489L94.6292 38.4933C94.5675 38.4762 94.5 38.4812 94.4442 38.5083L77.92 46.4028C77.8071 46.457 77.7663 46.5785 77.8292 46.6759C77.8711 46.7421 77.9514 46.7793 78.0328 46.7793L78.0305 46.7773Z" fill="#3F424A"/>
<path d="M94.9948 42.8351C95.0018 42.8351 95.0099 42.8351 95.0181 42.8351C95.1461 42.8241 95.2392 42.7267 95.2275 42.6163L94.52 36.3471C94.5072 36.2366 94.3932 36.1563 94.2663 36.1664C94.1383 36.1774 94.0452 36.2748 94.0569 36.3852L94.7644 42.6544C94.776 42.7578 94.8773 42.8361 94.996 42.8361L94.9948 42.8351Z" fill="#3F424A"/>
<path d="M79.0383 48.9549C79.114 48.9549 79.1885 48.9238 79.2327 48.8645C79.3037 48.7722 79.2746 48.6477 79.1675 48.5864C76.7645 47.2152 76.2106 44.1704 76.2048 44.1403C76.1862 44.0309 76.0686 43.9546 75.9406 43.9716C75.8138 43.9877 75.7265 44.0901 75.7451 44.1995C75.7684 44.332 76.3328 47.4501 78.9115 48.9217C78.9511 48.9438 78.9953 48.9549 79.0395 48.9549H79.0383Z" fill="#3F424A"/>
<path d="M91.1798 110.695C94.8256 110.661 102.467 107.047 102.467 107.047C102.7 106.582 102.921 106.106 103.128 105.628C104.474 102.526 105.26 99.3846 105.26 99.3846C105.26 99.3846 105.337 97.5776 103.515 96.7073C103.515 96.7073 100.955 95.8379 99.713 97.2433C98.4714 98.6488 91.5289 104.203 91.5289 104.203C91.5289 104.203 87.8435 104.27 86.8742 105.877C85.9037 107.483 87.5328 110.728 91.1798 110.695Z" fill="#15CBB9"/>
<path d="M101.97 103.95C101.303 103.789 100.97 103.017 101.227 102.225C101.484 101.433 102.233 100.922 102.9 101.083C103.567 101.244 103.9 102.016 103.643 102.808C103.387 103.6 102.638 104.111 101.97 103.95Z" fill="white"/>
<path d="M102.212 104.176C102.911 104.176 103.61 103.639 103.864 102.858C104.001 102.434 103.989 102 103.832 101.634C103.665 101.247 103.355 100.981 102.958 100.885C102.562 100.789 102.137 100.878 101.761 101.135C101.407 101.377 101.136 101.744 100.999 102.167C100.861 102.591 100.873 103.026 101.03 103.391C101.198 103.779 101.507 104.045 101.904 104.141C102.006 104.166 102.11 104.177 102.214 104.177L102.212 104.176ZM102.643 101.25C102.707 101.25 102.771 101.257 102.832 101.272C103.081 101.332 103.281 101.511 103.395 101.775C103.518 102.061 103.525 102.407 103.415 102.75C103.193 103.433 102.571 103.883 102.029 103.753C101.78 103.692 101.579 103.514 101.465 103.25C101.342 102.964 101.335 102.617 101.446 102.275C101.556 101.933 101.77 101.639 102.048 101.45C102.242 101.318 102.446 101.25 102.643 101.25Z" fill="#3F424A"/>
<path d="M93.7397 106.345C93.7781 106.345 93.8166 106.337 93.8515 106.32C98.0698 104.317 102.982 99.2261 103.189 99.0103C103.27 98.925 103.257 98.7985 103.157 98.7272C103.058 98.6559 102.912 98.668 102.829 98.7533C102.779 98.8055 97.7661 104.001 93.6257 105.967C93.5128 106.02 93.4721 106.143 93.5338 106.24C93.5757 106.306 93.656 106.345 93.7374 106.345H93.7397Z" fill="#3F424A"/>
<path d="M91.8003 104.771C91.8421 104.771 91.8852 104.761 91.9236 104.741C95.9395 102.576 100.884 97.8593 100.934 97.8122C101.02 97.7298 101.012 97.6023 100.917 97.5281C100.821 97.4538 100.674 97.4608 100.588 97.5431C100.539 97.5903 95.6369 102.265 91.6781 104.401C91.5687 104.46 91.5361 104.583 91.6036 104.678C91.6478 104.739 91.7235 104.772 91.8014 104.772L91.8003 104.771Z" fill="#3F424A"/>
<path d="M91.1798 110.695C94.8256 110.661 102.467 107.047 102.467 107.047C102.7 106.582 102.921 106.105 103.128 105.628C99.8143 107.413 93.6235 108.921 93.6235 108.921C94.9035 105.575 91.5289 104.203 91.5289 104.203C91.5289 104.203 87.8435 104.27 86.8742 105.877C85.9037 107.483 87.5328 110.728 91.1798 110.695Z" fill="white"/>
<path d="M91.1262 110.896C91.1448 110.896 91.1635 110.896 91.1821 110.896C94.8442 110.861 102.265 107.371 102.579 107.222C102.625 107.201 102.661 107.167 102.68 107.126C102.907 106.671 103.132 106.191 103.346 105.698C103.381 105.617 103.353 105.526 103.275 105.472C103.198 105.417 103.089 105.411 103.005 105.457C100.244 106.944 95.3958 108.255 93.9668 108.625C94.9315 105.407 91.6615 104.035 91.6278 104.021C91.5952 104.008 91.5603 104.002 91.523 104.002C91.3671 104.005 87.6876 104.091 86.667 105.784C86.1468 106.644 86.3005 107.888 87.058 108.953C87.9377 110.19 89.4179 110.896 91.1251 110.896H91.1262ZM91.1774 110.494C89.6146 110.512 88.2578 109.87 87.456 108.743C86.7927 107.811 86.6414 106.695 87.0801 105.97C87.9133 104.589 91.0215 104.423 91.4777 104.406C91.8884 104.589 94.5323 105.903 93.4024 108.859C93.3756 108.929 93.3954 109.007 93.4547 109.06C93.5141 109.115 93.6037 109.135 93.6863 109.115C93.7445 109.101 99.2731 107.743 102.671 106.094C102.544 106.371 102.415 106.642 102.285 106.904C101.509 107.265 94.5393 110.463 91.1763 110.495L91.1774 110.494Z" fill="#3F424A"/>
<path d="M105.357 95.3187L104.019 98.5813C104.019 98.5813 102.157 99.6354 100.644 97.8786L101.459 94.2646L105.357 95.3187Z" fill="white"/>
<path d="M102.706 99.092C103.523 99.092 104.135 98.7557 104.147 98.7487C104.19 98.7246 104.221 98.6894 104.239 98.6483L105.577 95.3857C105.598 95.3345 105.594 95.2773 105.565 95.2291C105.537 95.1799 105.487 95.1437 105.427 95.1277L101.529 94.0736C101.466 94.0565 101.397 94.0636 101.34 94.0927C101.283 94.1218 101.243 94.171 101.231 94.2272L100.416 97.8412C100.403 97.8964 100.418 97.9536 100.458 97.9988C101.198 98.8581 102.024 99.093 102.707 99.093L102.706 99.092ZM103.828 98.4455C103.51 98.5991 102.106 99.1623 100.893 97.8281L101.638 94.5234L105.058 95.4479L103.828 98.4465V98.4455Z" fill="#3F424A"/>
<path d="M99.9077 93.6287C102.933 97.5097 107.975 95.7027 107.975 95.7027C110.846 90.1483 117.44 73.0151 117.44 73.0151L138.851 52.3353C138.851 52.3353 143.273 44.4388 136.602 41.1591C129.931 37.8794 124.345 44.8403 124.345 44.8403L109.829 64.6719L107.199 68.2638L105.776 73.2129L99.9077 93.6287Z" fill="#15CBB9"/>
<path d="M119.486 51.6807C119.562 51.6807 119.638 51.6475 119.682 51.5873L124.542 44.9477C124.551 44.9366 126.006 43.1437 128.265 41.8407C128.373 41.7794 128.402 41.6539 128.329 41.5626C128.258 41.4702 128.114 41.4451 128.007 41.5074C125.672 42.8536 124.215 44.6505 124.154 44.7268L119.289 51.3735C119.22 51.4668 119.253 51.5913 119.361 51.6506C119.399 51.6716 119.442 51.6817 119.486 51.6817V51.6807Z" fill="#3F424A"/>
<path d="M121.933 48.3368C121.949 48.3368 121.964 48.3358 121.98 48.3327C122.106 48.3097 122.186 48.2032 122.161 48.0948L121.724 46.2969C121.622 45.8773 121.709 45.4446 121.97 45.0792L125.164 40.5939C125.232 40.4995 125.197 40.376 125.087 40.3178C124.978 40.2596 124.835 40.2897 124.767 40.384L121.573 44.8694C121.251 45.3231 121.143 45.8592 121.268 46.3792L121.705 48.1771C121.728 48.2715 121.825 48.3368 121.933 48.3368Z" fill="#3F424A"/>
<path d="M105.776 73.2129C105.834 73.2349 105.894 73.256 105.954 73.2751C108.065 73.9447 110.604 72.5473 111.624 70.154C112.613 67.8311 111.809 65.4218 109.829 64.6719L107.199 68.2637L105.776 73.2129Z" fill="#0F9386"/>
<path d="M106.774 93.0596C106.869 93.0596 106.959 93.0084 106.992 92.9261C109.758 86.2192 114.783 73.0483 115.087 72.2532L136.703 49.9883C136.786 49.9029 136.773 49.7764 136.674 49.7052C136.575 49.6339 136.429 49.6449 136.346 49.7303L114.702 72.0244C114.683 72.0434 114.668 72.0665 114.659 72.0906C114.606 72.2281 109.391 85.913 106.554 92.7905C106.511 92.8949 106.573 93.0094 106.694 93.0465C106.72 93.0546 106.747 93.0586 106.772 93.0586L106.774 93.0596Z" fill="#3F424A"/>
<path d="M116.974 73.1486C117.062 73.1486 117.146 73.1055 117.186 73.0312C117.239 72.9308 117.188 72.8113 117.071 72.7652L113.036 71.176C112.92 71.1298 112.781 71.174 112.728 71.2754C112.674 71.3768 112.725 71.4952 112.843 71.5414L116.877 73.1306C116.909 73.1426 116.941 73.1486 116.974 73.1486Z" fill="#3F424A"/>
<path d="M105.881 94.5885C107.023 94.5885 107.844 94.4078 107.92 94.3907C108.044 94.3626 108.118 94.2522 108.085 94.1457C108.052 94.0383 107.926 93.9741 107.801 94.0032C107.762 94.0122 103.779 94.8816 101.079 92.647C100.985 92.5697 100.839 92.5727 100.749 92.653C100.661 92.7333 100.663 92.8598 100.756 92.9371C102.388 94.2873 104.403 94.5895 105.882 94.5895L105.881 94.5885Z" fill="#3F424A"/>
<path d="M134.507 13.9038C134.507 13.9038 117.321 21.472 116.274 25.3871C115.226 29.3023 121.998 30.4678 128.282 25.6994C134.565 20.9309 134.507 13.9038 134.507 13.9038Z" fill="#EA8696"/>
<path d="M121.163 24.1763C121.899 24.4463 121.92 25.5988 121.551 26.9871C121.182 28.3755 117.633 28.3594 117.245 27.8575C116.858 27.3556 117.032 25.4653 117.458 24.9462C117.885 24.4272 120.251 23.842 121.162 24.1763H121.163Z" fill="white"/>
<path d="M118.705 28.3697C119.05 28.3697 119.407 28.3426 119.736 28.2904C120.886 28.1087 121.612 27.662 121.779 27.0315C122.093 25.8479 122.257 24.3592 121.255 23.9908C120.261 23.6264 117.758 24.2357 117.269 24.829C116.801 25.3992 116.591 27.3718 117.052 27.9681C117.263 28.2412 117.954 28.3687 118.705 28.3687V28.3697ZM121.072 24.3612C121.607 24.558 121.702 25.5227 121.325 26.9422C121.153 27.5907 120.098 27.8246 119.653 27.8949C118.574 28.0655 117.558 27.8979 117.441 27.7453C117.124 27.3357 117.265 25.5297 117.65 25.0619C117.999 24.6373 120.229 24.051 121.074 24.3612H121.072Z" fill="#3F424A"/>
<path d="M122.851 24.2437C123.827 24.3842 123.355 26.3347 123.083 27.2553C122.812 28.1758 121.221 28.5101 121.28 27.2553C121.338 26.0004 121.687 24.076 122.851 24.2437Z" fill="white"/>
<path d="M121.962 28.2762C122.498 28.2762 123.13 27.9138 123.31 27.3045C123.749 25.8197 123.791 24.8279 123.435 24.3581C123.304 24.1854 123.116 24.077 122.89 24.0449C122.589 24.0017 122.314 24.0649 122.073 24.2346C121.248 24.8138 121.082 26.5345 121.049 27.2472C121.01 28.0985 121.632 28.2441 121.823 28.2682C121.868 28.2742 121.915 28.2762 121.963 28.2762H121.962ZM122.813 24.4414C122.911 24.4555 122.986 24.4986 123.045 24.5779C123.314 24.9343 123.246 25.892 122.859 27.2051C122.731 27.6387 122.241 27.9138 121.889 27.8696C121.539 27.8255 121.503 27.4701 121.514 27.2623C121.562 26.2042 121.813 24.9343 122.367 24.5458C122.503 24.4504 122.646 24.4163 122.813 24.4404V24.4414Z" fill="#3F424A"/>
<path d="M138.153 55.48C138.153 55.48 131.714 45.8428 115.965 37.0759L125.275 31.1862C125.275 31.1862 127.447 22.1342 134.506 13.9024C134.506 13.9024 140.557 12.5803 144.048 12.8484C147.539 13.1164 152.506 19.5412 152.506 19.5412C152.506 19.5412 149.248 37.2777 147.231 43.1675C145.214 49.0572 138.154 55.48 138.154 55.48H138.153Z" fill="#EA8696"/>
<path d="M139.426 23.0941C139.535 23.0941 139.63 23.0821 139.701 23.055C139.843 23.0007 139.965 22.9536 140.815 20.3284C141.223 19.0736 141.602 17.8147 141.606 17.8027C141.638 17.6953 141.564 17.5858 141.439 17.5577C141.315 17.5296 141.188 17.5939 141.155 17.7013C140.499 19.8777 139.705 22.3041 139.471 22.6936C139.311 22.7026 138.847 22.6373 138.483 22.4617C138.293 22.3693 138.173 22.2659 138.145 22.1705C138.072 21.8684 138.826 19.4741 139.596 17.3349C139.634 17.2295 139.566 17.116 139.442 17.0839C139.319 17.0508 139.189 17.11 139.151 17.2164C138.772 18.2715 137.543 21.7519 137.693 22.2689C137.761 22.5008 137.992 22.7056 138.365 22.8622C138.68 22.9947 139.113 23.0951 139.426 23.0951V23.0941Z" fill="#3F424A"/>
<path d="M138.851 52.5359C138.901 52.5359 138.951 52.5219 138.994 52.4938C139.095 52.4255 139.114 52.299 139.035 52.2117C138.935 52.1013 128.934 41.0917 118.765 36.6215C118.651 36.5713 118.51 36.6104 118.452 36.7088C118.394 36.8072 118.439 36.9287 118.553 36.9789C128.63 41.408 138.567 52.3472 138.666 52.4576C138.711 52.5088 138.78 52.5349 138.85 52.5349L138.851 52.5359Z" fill="#3F424A"/>
<path d="M127.021 26.3546C127.117 26.3546 127.206 26.3034 127.24 26.2221C128.426 23.3912 130.539 19.1488 133.871 15.0138C133.944 14.9225 133.919 14.798 133.813 14.7348C133.707 14.6715 133.562 14.6936 133.489 14.7849C130.13 18.955 127.999 23.2326 126.804 26.0856C126.76 26.19 126.822 26.3054 126.943 26.3426C126.969 26.3506 126.996 26.3546 127.023 26.3546H127.021Z" fill="#3F424A"/>
<path d="M138.407 14.6306C138.493 15.761 139.625 16.6364 139.625 16.6364C139.863 16.016 140.614 14.987 141.391 14.1387C141.391 14.1387 141.712 15.6476 141.92 16.9185C142.778 17.0741 146.236 17.056 147.2 15.3163C147.2 15.3163 147.04 11.5688 142.895 11.3048C141.111 11.1903 138.976 12.6118 138.407 14.6306Z" fill="white"/>
<path d="M142.86 17.1833C144.297 17.1833 146.607 16.851 147.409 15.4034C147.425 15.3743 147.434 15.3422 147.431 15.309C147.43 15.2699 147.215 11.3789 142.912 11.1048C140.915 10.9773 138.748 12.5695 138.18 14.5832C138.174 14.6033 138.172 14.6234 138.174 14.6435C138.265 15.8421 139.42 16.7476 139.469 16.7858C139.528 16.8309 139.609 16.848 139.685 16.8299C139.76 16.8129 139.821 16.7627 139.845 16.6984C140.033 16.2095 140.58 15.4084 141.253 14.6224C141.364 15.1655 141.551 16.1121 141.688 16.9464C141.702 17.0297 141.776 17.097 141.871 17.115C142.082 17.1532 142.432 17.1823 142.859 17.1823L142.86 17.1833ZM146.963 15.2759C146.086 16.7536 143.112 16.855 142.126 16.7456C141.92 15.5179 141.622 14.1185 141.62 14.1034C141.604 14.0261 141.536 13.9639 141.446 13.9448C141.358 13.9257 141.265 13.9528 141.208 14.0151C140.598 14.6816 139.893 15.5881 139.542 16.2728C139.227 15.9646 138.709 15.3562 138.642 14.6485C139.225 12.6417 141.298 11.404 142.878 11.5054C144.509 11.6098 145.692 12.2804 146.393 13.4991C146.853 14.2971 146.946 15.0761 146.963 15.2749V15.2759Z" fill="#3F424A"/>
<path d="M133.13 30.9699L131.327 30.1999C131.327 30.1999 128.999 27.5728 128.554 27.105C128.108 26.6372 124.093 28.1761 123.861 28.4432C123.628 28.7102 123.802 29.1629 124.151 29.2794C124.151 29.2794 123.143 30.3335 123.628 31.8061C124.113 33.2788 127.099 31.9899 127.099 31.9899C127.099 31.9899 127.894 33.9304 128.767 34.1311C129.639 34.3319 131.947 33.8802 131.947 33.8802L133.13 30.9689V30.9699Z" fill="white"/>
<path d="M129.361 34.3831C130.419 34.3831 131.92 34.092 131.998 34.0769C132.076 34.0618 132.14 34.0127 132.166 33.9474L133.349 31.0362C133.388 30.9408 133.339 30.8344 133.233 30.7902L131.478 30.0413C131.181 29.707 129.153 27.4192 128.733 26.9775C128.625 26.864 128.442 26.8108 128.177 26.8169C127.003 26.839 123.934 28.0235 123.673 28.3237C123.523 28.4964 123.481 28.7282 123.558 28.9591C123.607 29.1087 123.7 29.2392 123.822 29.3356C123.542 29.7151 123.005 30.6537 123.403 31.8624C123.517 32.2087 123.758 32.4536 124.119 32.5912C125.013 32.9305 126.415 32.4737 126.969 32.2649C127.213 32.805 127.894 34.1412 128.707 34.3279C128.884 34.368 129.11 34.3851 129.363 34.3851L129.361 34.3831ZM131.77 33.7095C131.059 33.841 129.456 34.0829 128.826 33.9384C128.277 33.8119 127.609 32.6353 127.318 31.9236C127.296 31.8694 127.248 31.8262 127.185 31.8041C127.124 31.782 127.054 31.7851 126.994 31.8101C126.502 32.022 125.06 32.5088 124.305 32.2217C124.075 32.1334 123.926 31.9798 123.85 31.7509C123.407 30.4037 124.292 29.447 124.33 29.4069C124.376 29.3567 124.394 29.2904 124.375 29.2282C124.356 29.1659 124.304 29.1157 124.234 29.0917C124.132 29.0575 124.043 28.9632 124.005 28.8467C123.969 28.7393 123.984 28.6329 124.046 28.5626C124.404 28.2504 127.96 26.9966 128.38 27.2375C128.811 27.6912 131.119 30.2943 131.142 30.3214C131.164 30.3455 131.192 30.3656 131.223 30.3796L132.842 31.0703L131.77 33.7085V33.7095Z" fill="#3F424A"/>
<path d="M124.15 29.4802C124.181 29.4802 124.212 29.4752 124.241 29.4642L127.441 28.2926C127.56 28.2495 127.615 28.131 127.564 28.0296C127.514 27.9272 127.377 27.88 127.26 27.9232L124.059 29.0947C123.941 29.1379 123.886 29.2564 123.936 29.3578C123.973 29.434 124.059 29.4802 124.15 29.4802Z" fill="#3F424A"/>
<path d="M130.629 34.4001C130.629 34.4001 138.799 41.874 142.657 44.0835C142.847 44.1929 143.028 44.2893 143.197 44.3716C145.424 45.4578 147.683 45.7088 149.689 43.1549C150.894 41.619 152.009 39.0661 152.971 35.0687C155.532 24.4276 152.506 19.5427 152.506 19.5427C150.333 18.572 145.019 19.9774 144.515 24.3945C144.011 28.8115 142.382 33.7978 142.382 33.7978L132.568 30.3846L130.629 34.4001Z" fill="#EA8696"/>
<path d="M142.086 43.9388C142.158 43.9388 142.228 43.9107 142.273 43.8565C142.349 43.7671 142.326 43.6416 142.223 43.5764C138.507 41.2283 131.815 35.186 130.903 34.3568L132.695 30.6454L142.296 33.9843C142.358 34.0054 142.427 34.0034 142.486 33.9783C142.545 33.9532 142.589 33.907 142.607 33.8528C142.623 33.8026 144.248 28.7983 144.748 24.4144C144.968 22.4849 146.113 21.3174 147.034 20.678C148.291 19.8046 150.009 19.3328 151.409 19.4763C151.537 19.4894 151.652 19.4111 151.667 19.3006C151.682 19.1902 151.592 19.0908 151.464 19.0778C149.923 18.9202 148.113 19.4141 146.741 20.3657C145.751 21.0534 144.52 22.3072 144.284 24.3752C143.846 28.208 142.542 32.5237 142.226 33.5276L132.654 30.1987C132.535 30.1576 132.401 30.2058 132.353 30.3081L130.414 34.3237C130.379 34.3969 130.396 34.4813 130.459 34.5385C130.534 34.6067 137.941 41.3689 141.947 43.9006C141.989 43.9267 142.037 43.9398 142.084 43.9398L142.086 43.9388Z" fill="#3F424A"/>
<path d="M145.757 40.0208C145.775 40.0208 145.794 40.0187 145.813 40.0147C145.937 39.9886 146.014 39.8802 145.984 39.7718C145.95 39.6523 145.133 36.8244 142.956 34.377C142.878 34.2886 142.731 34.2726 142.63 34.3398C142.528 34.4071 142.509 34.5336 142.587 34.6209C144.702 37.0001 145.524 39.838 145.532 39.8672C145.558 39.9585 145.653 40.0198 145.758 40.0198L145.757 40.0208Z" fill="#3F424A"/>
<path d="M142.653 43.9699C142.653 44.0081 142.655 44.0452 142.657 44.0834C142.848 44.1928 143.028 44.2892 143.197 44.3715C145.424 45.4577 147.683 45.7087 149.689 43.1548C149.215 42.1128 147.86 41.3599 146.261 41.3599C144.269 41.3599 142.653 42.5284 142.653 43.9699Z" fill="white"/>
<path d="M133.498 35.5376C133.574 35.5376 133.647 35.5064 133.693 35.4482C134.959 33.8099 134.973 31.8393 134.973 31.756C134.973 31.6455 134.869 31.5552 134.74 31.5552C134.612 31.5552 134.507 31.6445 134.507 31.756C134.507 31.775 134.491 33.6914 133.305 35.2254C133.234 35.3177 133.263 35.4422 133.369 35.5034C133.409 35.5265 133.454 35.5376 133.498 35.5376Z" fill="#3F424A"/>
<path d="M132.471 34.4661C132.117 34.4661 131.831 34.2189 131.831 33.9139C131.831 33.609 132.117 33.3618 132.471 33.3618C132.824 33.3618 133.111 33.609 133.111 33.9139C133.111 34.2189 132.824 34.4661 132.471 34.4661Z" fill="white"/>
<path d="M132.471 34.6669C132.953 34.6669 133.344 34.3296 133.344 33.914C133.344 33.4984 132.953 33.1611 132.471 33.1611C131.989 33.1611 131.598 33.4984 131.598 33.914C131.598 34.3296 131.989 34.6669 132.471 34.6669ZM132.471 33.5627C132.696 33.5627 132.878 33.7203 132.878 33.914C132.878 34.1078 132.696 34.2654 132.471 34.2654C132.246 34.2654 132.064 34.1078 132.064 33.914C132.064 33.7203 132.246 33.5627 132.471 33.5627Z" fill="#3F424A"/>
<path d="M145.529 6.96289L145.359 9.16238L145.071 12.9249C143.562 13.7601 142.129 13.8043 140.792 12.8647L141.075 11.122L141.503 8.48276L145.529 6.96389V6.96289Z" fill="white"/>
<path d="M142.875 13.7603C143.617 13.7603 144.392 13.5385 145.197 13.0938C145.258 13.0596 145.298 13.0014 145.304 12.9382L145.762 6.97715C145.768 6.90688 145.731 6.83962 145.663 6.79947C145.597 6.75931 145.511 6.75229 145.436 6.77939L141.41 8.29826C141.335 8.32636 141.284 8.38559 141.273 8.45486L140.562 12.8368C140.55 12.906 140.583 12.9763 140.645 13.0205C141.347 13.5144 142.093 13.7614 142.875 13.7614V13.7603ZM144.846 12.8087C143.444 13.5525 142.198 13.5425 141.041 12.7776L141.715 8.6205L145.271 7.27832L144.845 12.8077L144.846 12.8087Z" fill="#3F424A"/>
<path d="M137.782 6.98211C137.941 8.79913 138.487 10.9796 141.017 10.6965C144.025 10.3602 146.015 8.57527 146.114 6.11677C146.213 3.65828 144.94 2.24281 141.517 2.44961C141.212 2.46768 140.924 2.50683 140.654 2.56305C138.676 2.97665 137.647 4.35999 137.721 6.01036C137.735 6.30851 137.75 6.63879 137.782 6.98111V6.98211Z" fill="white"/>
<path d="M140.589 10.9225C140.736 10.9225 140.889 10.9135 141.047 10.8964C142.274 10.7589 143.381 10.3764 144.251 9.78913C144.352 9.72087 144.369 9.59438 144.29 9.50704C144.211 9.41971 144.065 9.40465 143.963 9.47291C143.16 10.016 142.132 10.3704 140.987 10.4979C140.291 10.5752 139.738 10.4617 139.295 10.1505C138.337 9.47793 138.104 8.01127 138.013 6.96724C137.983 6.62692 137.967 6.30468 137.953 6.00352C137.88 4.37322 138.935 3.13042 140.707 2.75899C140.832 2.73289 140.909 2.62447 140.878 2.51605C140.848 2.40863 140.722 2.34238 140.597 2.36848C138.595 2.7871 137.404 4.1865 137.486 6.01857C137.499 6.3097 137.517 6.65001 137.548 6.99735C137.646 8.11467 137.903 9.69075 139 10.4617C139.435 10.7679 139.968 10.9215 140.587 10.9215L140.589 10.9225Z" fill="#3F424A"/>
<path d="M146.993 6.59908C146.993 6.59908 146.548 7.13916 145.994 7.5889L144.48 7.63708L144.185 6.70749C144.185 6.70749 143.227 6.65027 143.045 6.0871C143.045 6.0871 143.041 6.07505 143.034 6.04795C142.988 5.86424 142.816 5.04407 142.997 3.78019C142.997 3.78019 140.666 4.60839 139.408 4.69472C138.955 4.72584 138.433 4.56522 137.949 4.34537C136.979 3.90568 136.161 2.50627 136.359 1.57668C136.36 1.57066 136.361 1.56464 136.362 1.55861C136.672 0.196352 137.47 1.16208 137.47 1.16208C137.47 1.16208 137.739 0.0658481 138.541 0.00360772C139.346 -0.0576287 139.822 0.970341 139.822 0.970341C139.822 0.970341 141.987 0.514581 144.511 0.904085C147.591 1.37892 146.767 3.19895 146.767 3.19895C146.767 3.19895 149.022 3.87857 146.99 6.60008L146.993 6.59908Z" fill="#3F424A"/>
<path d="M144.813 7.50298C144.713 6.473 145.579 5.53639 146.773 5.44403C147.016 5.42496 147.268 5.44102 147.526 5.50627C148.991 5.88172 148.517 8.83713 144.913 8.53195L144.813 7.50198V7.50298Z" fill="white"/>
<path d="M145.41 8.75597C147.246 8.75597 148.277 7.86955 148.491 6.92289C148.662 6.16898 148.284 5.49237 147.591 5.31468C147.322 5.24542 147.039 5.22233 146.752 5.24441C145.444 5.3458 144.47 6.36574 144.581 7.5202C144.592 7.63063 144.706 7.71395 144.833 7.70391C144.961 7.69487 145.056 7.5975 145.046 7.48707C144.955 6.55246 145.739 5.72627 146.794 5.64496C147.023 5.62689 147.247 5.64496 147.459 5.70017C147.918 5.81762 148.16 6.29949 148.035 6.8466C147.856 7.63866 146.936 8.50299 144.936 8.33434C144.809 8.3233 144.694 8.40461 144.681 8.51504C144.669 8.62547 144.763 8.72385 144.891 8.73489C145.071 8.74995 145.245 8.75697 145.411 8.75697L145.41 8.75597Z" fill="#3F424A"/>
<path d="M110.436 24.2605L121.718 30.9496C122.385 31.3453 122.554 32.1327 122.096 32.7084L122.095 32.7093C121.636 33.285 120.724 33.4309 120.056 33.0353L108.774 26.3462C108.107 25.9505 107.938 25.1631 108.397 24.5874L108.397 24.5865C108.856 24.0108 109.769 23.8649 110.436 24.2605Z" fill="white"/>
<path d="M120.883 33.4589C120.986 33.4589 121.091 33.4509 121.196 33.4338C121.643 33.3626 122.029 33.1457 122.286 32.8225C122.543 32.5002 122.639 32.1097 122.556 31.7252C122.473 31.3397 122.222 31.0065 121.847 30.7846L110.565 24.0958C110.192 23.8739 109.739 23.7916 109.294 23.8629C108.847 23.9342 108.46 24.151 108.203 24.4742C107.946 24.7965 107.851 25.187 107.933 25.5715C108.016 25.956 108.267 26.2902 108.642 26.5121L119.924 33.2009C120.21 33.3706 120.543 33.4589 120.883 33.4589ZM109.608 24.2383C109.854 24.2383 110.096 24.3026 110.304 24.4261L121.585 31.1149C122.146 31.4472 122.288 32.1117 121.903 32.5946C121.717 32.8285 121.435 32.9861 121.111 33.0383C120.787 33.0905 120.459 33.0303 120.187 32.8687L108.905 26.1798C108.634 26.0192 108.451 25.7763 108.391 25.4962C108.33 25.2171 108.4 24.934 108.587 24.6991C108.773 24.4652 109.055 24.3076 109.38 24.2554C109.455 24.2433 109.532 24.2373 109.607 24.2373L109.608 24.2383Z" fill="#3F424A"/>
<path d="M120.803 30.4083L138.191 40.7176C138.858 41.1133 139.028 41.9008 138.569 42.4765L138.568 42.4773C138.11 43.053 137.197 43.199 136.529 42.8033L119.141 32.494C118.474 32.0983 118.305 31.3109 118.764 30.7351L118.764 30.7343C119.223 30.1586 120.136 30.0126 120.803 30.4083Z" fill="white"/>
<path d="M137.356 43.2258C137.46 43.2258 137.564 43.2178 137.669 43.2007C138.116 43.1294 138.502 42.9126 138.759 42.5893C139.29 41.9228 139.093 41.0082 138.322 40.5505L120.934 30.2416C120.161 29.7839 119.101 29.9535 118.571 30.6191C118.04 31.2857 118.237 32.2002 119.008 32.658L136.396 42.9668C136.682 43.1364 137.015 43.2248 137.355 43.2248L137.356 43.2258ZM119.975 30.3852C120.222 30.3852 120.464 30.4494 120.671 30.5729L138.059 40.8817C138.62 41.214 138.762 41.8786 138.377 42.3625C138.19 42.5964 137.909 42.754 137.584 42.8062C137.261 42.8574 136.932 42.7981 136.66 42.6365L119.272 32.3277C118.712 31.9954 118.57 31.3309 118.955 30.847C119.141 30.6131 119.423 30.4555 119.747 30.4033C119.823 30.3912 119.9 30.3852 119.974 30.3852H119.975Z" fill="#3F424A"/>
<path d="M116.355 9.05199L125.822 14.6647C126.452 15.0391 126.741 15.7157 126.54 16.3532L122.242 29.9949C122.078 30.5159 121.366 30.7417 120.85 30.4356L111.384 24.8229C110.753 24.4484 110.465 23.7718 110.666 23.1344L114.963 9.49269C115.127 8.97168 115.84 8.74581 116.355 9.05199Z" fill="white"/>
<path d="M121.362 30.7769C121.495 30.7769 121.629 30.7568 121.759 30.7157C122.11 30.6043 122.369 30.3613 122.468 30.0491L126.765 16.4074C126.992 15.6887 126.665 14.9227 125.954 14.5001L116.488 8.88739C116.179 8.70469 115.8 8.66353 115.447 8.77496C115.096 8.88639 114.837 9.12933 114.739 9.44153L110.441 23.0832C110.214 23.802 110.541 24.5679 111.252 24.9906L120.719 30.6033C120.913 30.7187 121.136 30.7779 121.362 30.7779V30.7769ZM115.843 9.11427C115.977 9.11427 116.108 9.1494 116.223 9.21767L125.69 14.8303C126.239 15.1556 126.491 15.7469 126.316 16.301L122.019 29.9427C121.96 30.1274 121.808 30.271 121.598 30.3372C121.39 30.4035 121.166 30.3784 120.983 30.27L111.516 24.6573C110.967 24.332 110.716 23.7408 110.89 23.1866L115.188 9.54493C115.246 9.36022 115.398 9.21666 115.608 9.15041C115.685 9.12631 115.764 9.11427 115.843 9.11427Z" fill="#3F424A"/>
<path d="M115.252 8.39721L124.719 14.0099C125.349 14.3843 125.638 15.0609 125.437 15.6984L121.139 29.3401C120.975 29.8611 120.263 30.087 119.747 29.7808L110.281 24.1681C109.65 23.7937 109.362 23.117 109.563 22.4796L113.86 8.83791C114.024 8.3169 114.737 8.09102 115.252 8.39721Z" fill="white"/>
<path d="M120.259 30.1222C120.392 30.1222 120.526 30.1021 120.656 30.0609C121.007 29.9495 121.266 29.7066 121.365 29.3943L125.662 15.7527C125.889 15.0339 125.562 14.2679 124.851 13.8453L115.385 8.23263C115.075 8.04892 114.697 8.00876 114.344 8.11919C113.993 8.23062 113.734 8.47356 113.636 8.78576L109.338 22.4274C109.111 23.1462 109.438 23.9122 110.149 24.3348L119.616 29.9475C119.81 30.0629 120.033 30.1222 120.259 30.1222ZM114.739 8.4595C114.873 8.4595 115.004 8.49464 115.119 8.5629L124.586 14.1756C125.135 14.5008 125.386 15.0921 125.212 15.6463L120.914 29.2879C120.856 29.4726 120.704 29.6162 120.494 29.6825C120.285 29.7487 120.061 29.7236 119.879 29.6152L110.412 24.0025C109.863 23.6773 109.612 23.086 109.786 22.5318L114.084 8.89017C114.142 8.70545 114.294 8.5619 114.504 8.49564C114.58 8.47155 114.66 8.4595 114.739 8.4595Z" fill="#3F424A"/>
<path d="M4.29754 62.7171C4.42554 62.7171 4.53027 62.6268 4.53027 62.5163V61.4884C4.53027 61.3779 4.42554 61.2876 4.29754 61.2876C4.16953 61.2876 4.0648 61.3779 4.0648 61.4884V62.5163C4.0648 62.6268 4.16953 62.7171 4.29754 62.7171Z" fill="#3F424A"/>
<path d="M2.49949 63.2399H3.69109C3.8191 63.2399 3.92383 63.1496 3.92383 63.0392C3.92383 62.9287 3.8191 62.8384 3.69109 62.8384H2.49949C2.37148 62.8384 2.26675 62.9287 2.26675 63.0392C2.26675 63.1496 2.37148 63.2399 2.49949 63.2399Z" fill="#3F424A"/>
<path d="M4.29754 64.7904C4.42554 64.7904 4.53027 64.7 4.53027 64.5896V63.5616C4.53027 63.4512 4.42554 63.3608 4.29754 63.3608C4.16953 63.3608 4.0648 63.4512 4.0648 63.5616V64.5896C4.0648 64.7 4.16953 64.7904 4.29754 64.7904Z" fill="#3F424A"/>
<path d="M4.90378 63.2399H6.09539C6.22339 63.2399 6.32812 63.1496 6.32812 63.0392C6.32812 62.9287 6.22339 62.8384 6.09539 62.8384H4.90378C4.77578 62.8384 4.67105 62.9287 4.67105 63.0392C4.67105 63.1496 4.77578 63.2399 4.90378 63.2399Z" fill="#3F424A"/>
<path d="M84.4679 16.7978C84.596 16.7978 84.7007 16.7075 84.7007 16.5971V15.1866C84.7007 15.0762 84.596 14.9858 84.4679 14.9858C84.3399 14.9858 84.2352 15.0762 84.2352 15.1866V16.5971C84.2352 16.7075 84.3399 16.7978 84.4679 16.7978Z" fill="#3F424A"/>
<path d="M82.0034 17.5148H83.6384C83.7664 17.5148 83.8711 17.4245 83.8711 17.3141C83.8711 17.2036 83.7664 17.1133 83.6384 17.1133H82.0034C81.8754 17.1133 81.7707 17.2036 81.7707 17.3141C81.7707 17.4245 81.8754 17.5148 82.0034 17.5148Z" fill="#3F424A"/>
<path d="M84.4679 19.6416C84.596 19.6416 84.7007 19.5512 84.7007 19.4408V18.0304C84.7007 17.9199 84.596 17.8296 84.4679 17.8296C84.3399 17.8296 84.2352 17.9199 84.2352 18.0304V19.4408C84.2352 19.5512 84.3399 19.6416 84.4679 19.6416Z" fill="#3F424A"/>
<path d="M85.2988 17.5148H86.9338C87.0618 17.5148 87.1665 17.4245 87.1665 17.3141C87.1665 17.2036 87.0618 17.1133 86.9338 17.1133H85.2988C85.1708 17.1133 85.0661 17.2036 85.0661 17.3141C85.0661 17.4245 85.1708 17.5148 85.2988 17.5148Z" fill="#3F424A"/>
<path d="M18.4679 10.4664C18.596 10.4664 18.7007 10.376 18.7007 10.2656V9.10312C18.7007 8.99269 18.596 8.90234 18.4679 8.90234C18.3399 8.90234 18.2352 8.99269 18.2352 9.10312V10.2656C18.2352 10.376 18.3399 10.4664 18.4679 10.4664Z" fill="#3F424A"/>
<path d="M16.4358 11.0578H17.7834C17.9114 11.0578 18.0161 10.9675 18.0161 10.857C18.0161 10.7466 17.9114 10.6562 17.7834 10.6562H16.4358C16.3078 10.6562 16.2031 10.7466 16.2031 10.857C16.2031 10.9675 16.3078 11.0578 16.4358 11.0578Z" fill="#3F424A"/>
<path d="M18.4679 12.8106C18.596 12.8106 18.7007 12.7203 18.7007 12.6098V11.4474C18.7007 11.3369 18.596 11.2466 18.4679 11.2466C18.3399 11.2466 18.2352 11.3369 18.2352 11.4474V12.6098C18.2352 12.7203 18.3399 12.8106 18.4679 12.8106Z" fill="#3F424A"/>
<path d="M19.1531 11.0578H20.5007C20.6287 11.0578 20.7334 10.9675 20.7334 10.857C20.7334 10.7466 20.6287 10.6562 20.5007 10.6562H19.1531C19.0251 10.6562 18.9204 10.7466 18.9204 10.857C18.9204 10.9675 19.0251 11.0578 19.1531 11.0578Z" fill="#3F424A"/>
<path d="M128.168 5.49723C127.615 5.49723 127.167 5.11025 127.167 4.63289C127.167 4.15553 127.615 3.76855 128.168 3.76855C128.722 3.76855 129.17 4.15553 129.17 4.63289C129.17 5.11025 128.722 5.49723 128.168 5.49723Z" fill="#15CBB9"/>
<path d="M20.5857 35.244C19.416 35.244 18.4678 34.426 18.4678 33.4169C18.4678 32.4078 19.416 31.5898 20.5857 31.5898C21.7554 31.5898 22.7036 32.4078 22.7036 33.4169C22.7036 34.426 21.7554 35.244 20.5857 35.244Z" fill="#EA8696"/>
<path d="M134.74 101.001C133.892 101.001 133.205 100.408 133.205 99.6767C133.205 98.9454 133.892 98.3525 134.74 98.3525C135.588 98.3525 136.275 98.9454 136.275 99.6767C136.275 100.408 135.588 101.001 134.74 101.001Z" fill="#EA8696"/>
<path d="M130.347 78.2355C129.897 78.2355 129.532 77.9209 129.532 77.5328C129.532 77.1447 129.897 76.8301 130.347 76.8301C130.797 76.8301 131.162 77.1447 131.162 77.5328C131.162 77.9209 130.797 78.2355 130.347 78.2355Z" fill="#15CBB9"/>
<path d="M80.4715 92.3215C80.5518 92.3215 80.6297 92.2854 80.6728 92.2212C80.7379 92.1248 80.6995 92.0023 80.589 91.9471L74.1201 88.7046L78.8865 86.3314C78.9587 86.2953 79.0029 86.229 79.0029 86.1577C79.0029 86.0865 78.9587 86.0202 78.8865 85.9841L71.8277 82.4454C71.7159 82.3892 71.574 82.4223 71.51 82.5177C71.446 82.6141 71.4832 82.7365 71.5938 82.7917L78.3047 86.1567L73.5383 88.5299C73.4661 88.566 73.4219 88.6323 73.4219 88.7036C73.4219 88.7748 73.4661 88.8411 73.5383 88.8772L80.3539 92.2944C80.3912 92.3125 80.4307 92.3215 80.4703 92.3215H80.4715Z" fill="#3F424A"/>
<path d="M95.3275 89.5423C95.4078 89.5423 95.4846 89.5072 95.5288 89.4429C95.594 89.3475 95.5568 89.2241 95.4462 89.1678L87.1713 84.9686L95.5125 80.8146C95.5847 80.7785 95.6289 80.7122 95.6289 80.6409C95.6289 80.5696 95.5847 80.5034 95.5125 80.4673L86.0763 75.736C85.9657 75.6808 85.8226 75.7129 85.7586 75.8083C85.6934 75.9046 85.7318 76.0271 85.8424 76.0823L94.9319 80.6389L86.5929 84.792C86.5208 84.8281 86.4766 84.8933 86.4766 84.9646C86.4766 85.0359 86.5196 85.1021 86.5918 85.1383L95.2111 89.5122C95.2484 89.5313 95.2891 89.5403 95.3287 89.5403L95.3275 89.5423Z" fill="#3F424A"/>
<path d="M95.9371 91.2931C97.2067 91.2931 98.2017 90.8112 98.2017 90.1959C98.2017 89.5805 97.2067 89.0986 95.9371 89.0986C94.6676 89.0986 93.6726 89.5805 93.6726 90.1959C93.6726 90.8112 94.6676 91.2931 95.9371 91.2931ZM95.9371 89.5012C96.9973 89.5012 97.7362 89.8676 97.7362 90.1969C97.7362 90.5261 96.9973 90.8926 95.9371 90.8926C94.877 90.8926 94.1381 90.5261 94.1381 90.1969C94.1381 89.8676 94.877 89.5012 95.9371 89.5012Z" fill="#3F424A"/>
<path d="M92.4282 71.3024H98.9308C99.0588 71.3024 99.1636 71.2121 99.1636 71.1017C99.1636 70.9912 99.0588 70.9009 98.9308 70.9009H92.4282C92.3002 70.9009 92.1955 70.9912 92.1955 71.1017C92.1955 71.2121 92.3002 71.3024 92.4282 71.3024Z" fill="#3F424A"/>
<path d="M100.964 72.1989C102.234 72.1989 103.229 71.717 103.229 71.1016C103.229 70.4863 102.234 70.0044 100.964 70.0044C99.6944 70.0044 98.6995 70.4863 98.6995 71.1016C98.6995 71.717 99.6944 72.1989 100.964 72.1989ZM100.964 70.4069C102.024 70.4069 102.763 70.7734 102.763 71.1026C102.763 71.4319 102.024 71.7983 100.964 71.7983C99.9039 71.7983 99.165 71.4319 99.165 71.1026C99.165 70.7734 99.9039 70.4069 100.964 70.4069Z" fill="#3F424A"/>
<path d="M22.7576 92.3215C22.7972 92.3215 22.8379 92.3125 22.874 92.2944L29.6896 88.8772C29.7618 88.8411 29.806 88.7748 29.806 88.7036C29.806 88.6323 29.7618 88.566 29.6896 88.5299L24.9232 86.1567L31.6341 82.7917C31.7459 82.7355 31.7831 82.6131 31.7179 82.5177C31.6539 82.4223 31.5108 82.3892 31.4002 82.4454L24.3414 85.9841C24.2692 86.0202 24.225 86.0865 24.225 86.1577C24.225 86.229 24.2692 86.2953 24.3414 86.3314L29.1078 88.7046L22.6389 91.9471C22.5272 92.0033 22.49 92.1258 22.5551 92.2212C22.5982 92.2854 22.6762 92.3215 22.7565 92.3215H22.7576Z" fill="#3F424A"/>
<path d="M5.25972 90.8136C5.29928 90.8136 5.34001 90.8046 5.37609 90.7865L16.637 85.1417C16.7091 85.1055 16.7534 85.0393 16.7534 84.968C16.7534 84.8967 16.7091 84.8305 16.637 84.7943L8.29808 80.6413L17.3876 76.0847C17.4993 76.0285 17.5365 75.906 17.4714 75.8107C17.4073 75.7153 17.2642 75.6822 17.1537 75.7384L7.71741 80.4696C7.64526 80.5058 7.60104 80.572 7.60104 80.6433C7.60104 80.7146 7.64526 80.7808 7.71741 80.817L16.0563 84.97L5.14335 90.4411C5.03164 90.4974 4.99439 90.6198 5.05956 90.7152C5.10261 90.7795 5.18058 90.8156 5.26087 90.8156L5.25972 90.8136Z" fill="#3F424A"/>
<path d="M4.651 92.5656C5.92057 92.5656 6.91553 92.0837 6.91553 91.4683C6.91553 90.853 5.92057 90.3711 4.651 90.3711C3.38143 90.3711 2.38649 90.853 2.38649 91.4683C2.38649 92.0837 3.38143 92.5656 4.651 92.5656ZM4.651 90.7736C5.71111 90.7736 6.45006 91.1401 6.45006 91.4693C6.45006 91.7986 5.71111 92.165 4.651 92.165C3.59089 92.165 2.85196 91.7986 2.85196 91.4693C2.85196 91.1401 3.59089 90.7736 4.651 90.7736Z" fill="#3F424A"/>
<path d="M31.5169 50.7469C31.5972 50.7469 31.6752 50.7107 31.7182 50.6465C31.7822 50.5501 31.745 50.4276 31.6344 50.3724L24.9235 47.0074L29.6899 44.6343C29.7621 44.5981 29.8063 44.5319 29.8063 44.4606C29.8063 44.3893 29.7621 44.3231 29.6899 44.2869L22.8743 40.8697C22.7626 40.8135 22.6206 40.8466 22.5566 40.942C22.4926 41.0384 22.5298 41.1609 22.6404 41.2161L29.1093 44.4586L24.3428 46.8318C24.2707 46.8679 24.2265 46.9341 24.2265 47.0054C24.2265 47.0767 24.2707 47.143 24.3428 47.1791L31.4017 50.7178C31.4389 50.7358 31.4785 50.7449 31.5181 50.7449L31.5169 50.7469Z" fill="#3F424A"/>
<path d="M19.4195 60.7488C19.4998 60.7488 19.5777 60.7126 19.6208 60.6484C19.6848 60.552 19.6475 60.4295 19.537 60.3743L11.8416 56.5154L20.1805 52.3614C20.2527 52.3252 20.2969 52.259 20.2969 52.1877C20.2969 52.1164 20.2527 52.0502 20.1805 52.014L8.91959 46.3692C8.80788 46.313 8.66591 46.3461 8.60191 46.4415C8.53791 46.5369 8.57514 46.6604 8.68569 46.7156L19.5987 52.1867L11.2597 56.3397C11.1876 56.3759 11.1434 56.4421 11.1434 56.5134C11.1434 56.5847 11.1876 56.6509 11.2597 56.6871L19.3031 60.7197C19.3403 60.7377 19.3799 60.7468 19.4195 60.7468V60.7488Z" fill="#3F424A"/>
<path d="M8.1935 46.7858C9.46307 46.7858 10.458 46.3039 10.458 45.6885C10.458 45.0732 9.46307 44.5913 8.1935 44.5913C6.92392 44.5913 5.92898 45.0732 5.92898 45.6885C5.92898 46.3039 6.92392 46.7858 8.1935 46.7858ZM8.1935 44.9939C9.25361 44.9939 9.99254 45.3603 9.99254 45.6895C9.99254 46.0188 9.25361 46.3852 8.1935 46.3852C7.13338 46.3852 6.39445 46.0188 6.39445 45.6895C6.39445 45.3603 7.13338 44.9939 8.1935 44.9939Z" fill="#3F424A"/>
<path d="M83.4241 59.4183C83.4636 59.4183 83.5044 59.4093 83.5404 59.3912L91.3836 55.459C91.4558 55.4229 91.5 55.3566 91.5 55.2854C91.5 55.2141 91.4558 55.1478 91.3836 55.1117L84.5098 51.6885L88.0509 49.8945C88.1614 49.8383 88.1986 49.7149 88.1335 49.6195C88.0683 49.5241 87.9263 49.492 87.8146 49.5482L83.9291 51.5168C83.8581 51.5529 83.8139 51.6192 83.8139 51.6905C83.8139 51.7618 83.8581 51.828 83.9303 51.8631L90.8018 55.2864L83.3065 59.0439C83.1948 59.1001 83.1576 59.2226 83.2228 59.3179C83.2658 59.3822 83.3438 59.4183 83.4241 59.4183Z" fill="#3F424A"/>
<path d="M88.4381 49.9548C89.5332 49.9548 90.3594 49.5482 90.3594 49.0091C90.3594 48.47 89.5332 48.0635 88.4381 48.0635C87.3431 48.0635 86.5169 48.47 86.5169 49.0091C86.5169 49.5482 87.3431 49.9548 88.4381 49.9548ZM88.4381 48.465C89.2713 48.465 89.8939 48.7521 89.8939 49.0091C89.8939 49.2661 89.2713 49.5532 88.4381 49.5532C87.6049 49.5532 86.9824 49.2661 86.9824 49.0091C86.9824 48.7521 87.6049 48.465 88.4381 48.465Z" fill="#3F424A"/>
<path d="M4.29735 71.3024H10.8C10.928 71.3024 11.0327 71.2121 11.0327 71.1017C11.0327 70.9912 10.928 70.9009 10.8 70.9009H4.29735C4.16934 70.9009 4.06461 70.9912 4.06461 71.1017C4.06461 71.2121 4.16934 71.3024 4.29735 71.3024Z" fill="#3F424A"/>
<path d="M2.26575 72.1989C3.53532 72.1989 4.53027 71.717 4.53027 71.1016C4.53027 70.4863 3.53532 70.0044 2.26575 70.0044C0.996173 70.0044 0.0012331 70.4863 0.0012331 71.1016C0.0012331 71.717 0.996173 72.1989 2.26575 72.1989ZM2.26575 70.4069C3.32586 70.4069 4.0648 70.7734 4.0648 71.1026C4.0648 71.4319 3.32586 71.7983 2.26575 71.7983C1.20564 71.7983 0.466704 71.4319 0.466704 71.1026C0.466704 70.7734 1.20564 70.4069 2.26575 70.4069Z" fill="#3F424A"/>
<path d="M51.738 100.472C51.866 100.472 51.9707 100.382 51.9707 100.272V93.1812C51.9707 93.0708 51.866 92.9805 51.738 92.9805C51.61 92.9805 51.5052 93.0708 51.5052 93.1812V100.272C51.5052 100.382 51.61 100.472 51.738 100.472Z" fill="#3F424A"/>
<path d="M51.7379 103.192C53.0075 103.192 54.0024 102.71 54.0024 102.094C54.0024 101.479 53.0075 100.997 51.7379 100.997C50.4683 100.997 49.4734 101.479 49.4734 102.094C49.4734 102.71 50.4683 103.192 51.7379 103.192ZM51.7379 101.4C52.798 101.4 53.537 101.766 53.537 102.095C53.537 102.425 52.798 102.791 51.7379 102.791C50.6778 102.791 49.9389 102.425 49.9389 102.095C49.9389 101.766 50.6778 101.4 51.7379 101.4Z" fill="#3F424A"/>
<path d="M13.5224 66.5801L51.6143 85.6768L89.9517 66.5821L51.861 47.4854L13.5224 66.5801Z" fill="#15CBB9"/>
<path d="M51.6143 85.8777C51.655 85.8777 51.6946 85.8686 51.7306 85.8506L90.0692 66.7558C90.1413 66.7197 90.1855 66.6534 90.1855 66.5822C90.1855 66.5109 90.1413 66.4446 90.0692 66.4085L51.9785 47.3127C51.9063 47.2766 51.8179 47.2766 51.7458 47.3127L13.4072 66.4075C13.3351 66.4436 13.2908 66.5099 13.2908 66.5812C13.2908 66.6524 13.3351 66.7187 13.4072 66.7548L51.4979 85.8506C51.534 85.8686 51.5747 85.8777 51.6143 85.8777ZM89.4885 66.5812L51.6154 85.445L13.9879 66.5812L51.861 47.7173L89.4885 66.5812Z" fill="#15CBB9"/>
<path d="M60.4458 73.2357L66.6749 70.1327C66.7587 70.0905 66.8623 70.0905 66.9461 70.1327L74.8579 74.1L74.3168 74.3691L66.8099 70.6055L61.1207 73.4385L64.8398 75.3027L68.6287 77.202L68.0876 77.472L64.5675 75.7072L60.4423 73.6412C60.3596 73.5991 60.3084 73.5218 60.3084 73.4395C60.3084 73.3571 60.3596 73.2788 60.4434 73.2377L60.4458 73.2357Z" fill="white"/>
<path d="M45.1306 75.9966L51.4063 79.1417L44.9723 82.3461L45.5134 82.6172L51.9474 79.4128L58.0485 82.4716H58.0497L58.5908 82.2026L52.0835 78.941L45.269 75.5248C45.1853 75.4826 45.0805 75.4826 44.9967 75.5248L38.159 78.9309L38.6977 79.201L45.1317 75.9976L45.1306 75.9966Z" fill="white"/>
<path d="M17.2766 68.4615L17.8154 68.7325L29.0496 63.1379L38.6941 67.9746L43.3698 70.3176L32.1368 75.9122L32.6779 76.1833L44.0459 70.5204C44.1297 70.4782 44.1809 70.4019 44.1809 70.3186C44.1809 70.2353 44.1297 70.158 44.0471 70.1168L39.3691 67.7708L58.5965 58.1948L82.6137 70.2363L83.1548 69.9663L58.7327 57.722C58.7327 57.722 58.7269 57.72 58.7257 57.719C58.7164 57.716 58.7071 57.7119 58.6978 57.7089C58.6908 57.7069 58.6826 57.7039 58.6757 57.7019C58.6663 57.6999 58.6582 57.6989 58.6489 57.6959L58.6244 57.6929H58.5732C58.5639 57.6939 58.5546 57.6949 58.5453 57.6979C58.5372 57.6989 58.529 57.6999 58.5209 57.7029C58.5127 57.7039 58.5046 57.7079 58.4964 57.7099C58.4883 57.7129 58.4802 57.717 58.4708 57.72C58.4685 57.721 58.465 57.722 58.4627 57.723L38.8303 67.5007L29.1869 62.6651C29.1043 62.6229 28.9995 62.6229 28.9157 62.6651L17.2778 68.4615H17.2766Z" fill="white"/>
<path d="M35.4066 55.681L39.0966 57.5311L39.903 57.1286L46.6593 53.7636L42.9693 51.9134L43.5104 51.6444L47.2004 53.4945L55.5521 49.3345L56.0933 49.6055L47.3366 53.9664L39.2339 58.0019C39.2118 58.012 39.1908 58.021 39.1676 58.025C39.1443 58.0311 39.121 58.0331 39.0989 58.0331C39.0908 58.0331 39.0838 58.0311 39.0756 58.0311C39.0593 58.0301 39.0442 58.029 39.0291 58.025C39.0209 58.024 39.014 58.02 39.0058 58.018C38.9918 58.013 38.9779 58.009 38.9639 58.0019H38.9628L34.8666 55.948L35.4077 55.679L35.4066 55.681Z" fill="white"/>
<path d="M66.2374 58.1895L69.7366 56.4468L70.2777 56.7178L66.9135 58.3923L75.7982 62.8465L79.1624 61.172L79.7012 61.4421L75.9332 63.3193C75.8913 63.3404 75.8447 63.3504 75.7982 63.3504C75.7516 63.3504 75.7051 63.3404 75.6609 63.3193L66.2351 58.5941C66.1525 58.5519 66.1013 58.4746 66.1013 58.3923C66.1013 58.31 66.1525 58.2307 66.2362 58.1905L66.2374 58.1895Z" fill="white"/>
<path d="M51.6146 85.6768L51.6519 90.1972L89.9893 71.1015L89.952 66.582L51.6146 85.6768Z" fill="white"/>
<path d="M51.6519 90.3982C51.6926 90.3982 51.7322 90.3892 51.7682 90.3711L90.1068 71.2764C90.1789 71.2403 90.2231 71.173 90.2231 71.1007L90.1859 66.5803C90.1859 66.509 90.1405 66.4427 90.0684 66.4076C89.9962 66.3714 89.9078 66.3725 89.8368 66.4076L51.4983 85.5023C51.4261 85.5385 51.3819 85.6057 51.3819 85.678L51.4191 90.1985C51.4191 90.2697 51.4645 90.336 51.5367 90.3711C51.5727 90.3892 51.6123 90.3972 51.6519 90.3972V90.3982ZM89.7565 70.9873L51.8823 89.8511L51.8485 85.7924L89.7228 66.9286L89.7565 70.9873Z" fill="#3F424A"/>
<path d="M51.688 85.6773L51.6519 90.1977L13.4868 71.102L13.5228 66.5825L51.688 85.6773Z" fill="white"/>
<path d="M51.6519 90.3985C51.6915 90.3985 51.731 90.3895 51.7671 90.3724C51.8393 90.3373 51.8835 90.2711 51.8846 90.1998L51.9219 85.6793C51.9219 85.607 51.8777 85.5408 51.8055 85.5047L13.6404 66.4099C13.5682 66.3738 13.4798 66.3738 13.4076 66.4099C13.3355 66.4451 13.2913 66.5113 13.2901 66.5826L13.2529 71.103C13.2529 71.1753 13.2971 71.2416 13.3692 71.2777L51.5344 90.3724C51.5704 90.3905 51.6112 90.3996 51.6507 90.3996L51.6519 90.3985ZM51.4552 85.7928L51.4215 89.8504L13.7195 70.9876L13.7532 66.9299L51.4552 85.7928Z" fill="#3F424A"/>
<path d="M33.5075 61.3337L51.6725 70.4409L69.9551 61.3347L51.7901 52.2275L33.5075 61.3337Z" fill="white"/>
<path d="M51.6727 70.6417C51.7134 70.6417 51.753 70.6327 51.7891 70.6146L70.0716 61.5084C70.1438 61.4723 70.188 61.406 70.188 61.3348C70.188 61.2635 70.1438 61.1972 70.0716 61.1611L51.9066 52.0549C51.8345 52.0188 51.746 52.0188 51.6739 52.0549L33.3913 61.1611C33.3192 61.1972 33.275 61.2635 33.275 61.3348C33.275 61.406 33.3192 61.4723 33.3913 61.5084L51.5563 70.6156C51.5924 70.6337 51.6331 70.6427 51.6727 70.6427V70.6417ZM69.4909 61.3338L51.6727 70.208L33.972 61.3338L51.7902 52.4595L69.4909 61.3338Z" fill="#3F424A"/>
<path d="M51.6693 58.0942L51.6902 72.9205L72.8052 62.4039L72.7854 47.5776L51.6693 58.0942Z" fill="#EA8696"/>
<path d="M70.3789 53.2686L63.2164 56.8353V62.6769L70.3882 59.1061L70.3789 53.2686Z" fill="white"/>
<path d="M63.2166 62.8778C63.2573 62.8778 63.2969 62.8687 63.333 62.8507L70.5047 59.2789C70.5769 59.2427 70.6211 59.1765 70.6211 59.1042L70.6118 53.2677C70.6118 53.1964 70.5676 53.1301 70.4954 53.094C70.4233 53.0579 70.3348 53.0579 70.2627 53.094L63.0991 56.6608C63.0269 56.6969 62.9827 56.7632 62.9827 56.8344V62.676C62.9827 62.7473 63.0269 62.8145 63.0991 62.8497C63.1352 62.8677 63.1747 62.8768 63.2154 62.8768L63.2166 62.8778ZM70.1556 58.9898L63.4493 62.3297V56.9519L70.1475 53.616L70.1556 58.9898Z" fill="#3F424A"/>
<path d="M54.0875 61.3828L54.0945 67.2214L61.2593 63.6526V57.811L54.0875 61.3828Z" fill="white"/>
<path d="M54.0947 67.4224C54.1354 67.4224 54.175 67.4133 54.2111 67.3952L61.3758 63.8265C61.448 63.7903 61.4922 63.7241 61.4922 63.6528V57.8112C61.4922 57.74 61.448 57.6727 61.3758 57.6376C61.3037 57.6024 61.2152 57.6014 61.1431 57.6376L53.9713 61.2094C53.8992 61.2455 53.855 61.3118 53.855 61.383L53.8619 67.2216C53.8619 67.2929 53.9062 67.3591 53.9783 67.3952C54.0144 67.4133 54.054 67.4224 54.0947 67.4224ZM61.0267 63.5373L54.3263 66.8742L54.3193 61.4995L61.0256 58.1596V63.5373H61.0267Z" fill="#3F424A"/>
<path d="M51.7114 58.0942L51.6905 72.9205L30.671 62.4039L30.6907 47.5776L51.7114 58.0942Z" fill="white"/>
<path d="M51.6904 73.1214C51.7299 73.1214 51.7706 73.1123 51.8067 73.0943C51.8789 73.0581 51.9231 72.9919 51.9231 72.9206L51.9429 58.0943C51.9429 58.0231 51.8987 57.9568 51.8265 57.9207L30.807 47.4041C30.7348 47.3679 30.6464 47.3679 30.5742 47.4041C30.5021 47.4402 30.4579 47.5065 30.4579 47.5777L30.4381 62.404C30.4381 62.4753 30.4823 62.5415 30.5545 62.5777L51.574 73.0943C51.6101 73.1123 51.6508 73.1214 51.6904 73.1214ZM51.4774 58.2098L51.4576 72.5722L30.9036 62.2885L30.9234 47.9261L51.4774 58.2098Z" fill="#3F424A"/>
<path d="M33.0016 53.2686L40.1641 56.8353V62.6769L32.9923 59.1061L33.0016 53.2686Z" fill="#15CBB9"/>
<path d="M49.293 61.3828L49.286 67.2214L42.1212 63.6526V57.811L49.293 61.3828Z" fill="#15CBB9"/>
<path d="M30.6907 47.5767L51.6695 58.0943L72.7856 47.5777L51.8057 37.0601L30.6907 47.5767Z" fill="white"/>
<path d="M51.6694 58.2952C51.7101 58.2952 51.7497 58.2861 51.7858 58.268L72.9007 47.7514C72.9729 47.7153 73.0171 47.649 73.0171 47.5778C73.0171 47.5065 72.9729 47.4402 72.9007 47.4041L51.9219 36.8865C51.8498 36.8503 51.7613 36.8503 51.6892 36.8865L30.5743 47.4031C30.5021 47.4392 30.4579 47.5055 30.4579 47.5768C30.4579 47.648 30.5021 47.7143 30.5743 47.7504L51.553 58.268C51.5891 58.2861 51.6299 58.2952 51.6694 58.2952ZM72.32 47.5768L51.6694 57.8625L31.1549 47.5778L51.8056 37.292L72.32 47.5768Z" fill="#3F424A"/>
<path d="M40.8472 47.5768L51.7031 53.0198L62.6289 47.5778L51.773 42.1348L40.8472 47.5768Z" fill="white"/>
<path d="M51.7031 53.2206C51.7438 53.2206 51.7834 53.2116 51.8195 53.1935L62.7464 47.7515C62.8186 47.7154 62.8628 47.6491 62.8628 47.5778C62.8628 47.5066 62.8186 47.4403 62.7464 47.4042L51.8905 41.9622C51.8183 41.926 51.7299 41.926 51.6577 41.9622L40.7308 47.4042C40.6587 47.4403 40.6144 47.5066 40.6144 47.5778C40.6144 47.6491 40.6587 47.7154 40.7308 47.7515L51.5867 53.1935C51.6228 53.2116 51.6636 53.2206 51.7031 53.2206ZM62.1658 47.5768L51.7043 52.788L41.3126 47.5778L51.7741 42.3667L62.1658 47.5768Z" fill="#3F424A"/>
<path d="M51.6727 52.0798L51.6901 56.6334L69.9727 47.5272L69.9552 42.9736L51.6727 52.0798Z" fill="white"/>
<path d="M51.6903 56.8344C51.731 56.8344 51.7706 56.8253 51.8067 56.8073L70.0892 47.7011C70.1613 47.665 70.2056 47.5987 70.2056 47.5264L70.1881 42.9738C70.1881 42.9026 70.1439 42.8363 70.0717 42.8002C69.9996 42.764 69.9112 42.765 69.839 42.8002L51.5565 51.9063C51.4843 51.9425 51.4401 52.0087 51.4401 52.081L51.4575 56.6336C51.4575 56.7049 51.5018 56.7711 51.5739 56.8073C51.61 56.8253 51.6496 56.8344 51.6903 56.8344ZM69.7401 47.412L51.9219 56.2862L51.9056 52.1954L69.7238 43.3212L69.7401 47.412Z" fill="#3F424A"/>
<path d="M51.7075 52.0798L51.6901 56.6334L33.4075 47.5272L33.425 42.9736L51.7075 52.0798Z" fill="white"/>
<path d="M51.6902 56.8343C51.7298 56.8343 51.7705 56.8252 51.8066 56.8071C51.8788 56.771 51.923 56.7058 51.923 56.6335L51.9404 52.0809C51.9404 52.0086 51.8962 51.9424 51.8241 51.9062L33.5415 42.8001C33.4694 42.7639 33.3809 42.7639 33.3088 42.8001C33.2366 42.8362 33.1924 42.9014 33.1924 42.9737L33.1749 47.5263C33.1749 47.5986 33.2192 47.6648 33.2913 47.701L51.5739 56.8071C51.6099 56.8252 51.6495 56.8343 51.6902 56.8343ZM51.475 52.1963L51.4587 56.2871L33.6404 47.4129L33.6567 43.3221L51.475 52.1963Z" fill="#3F424A"/>
<path d="M33.508 42.9738L51.673 52.08L69.9556 42.9738L51.7905 33.8677L33.508 42.9738Z" fill="white"/>
<path d="M51.6727 52.2809C51.7134 52.2809 51.753 52.2719 51.7891 52.2538L70.0716 43.1476C70.1438 43.1115 70.188 43.0452 70.188 42.974C70.188 42.9027 70.1438 42.8364 70.0716 42.8003L51.9066 33.6931C51.8345 33.657 51.746 33.657 51.6739 33.6931L33.3913 42.7993C33.3192 42.8354 33.275 42.9017 33.275 42.973C33.275 43.0442 33.3192 43.1105 33.3913 43.1466L51.5563 52.2538C51.5924 52.2719 51.6331 52.2809 51.6727 52.2809ZM69.4909 42.973L51.6727 51.8472L33.972 42.973L51.7902 34.0987L69.4909 42.973Z" fill="#3F424A"/>
<path d="M51.6693 39.7334L51.6902 54.5597L72.8052 44.0431L72.7854 29.2168L51.6693 39.7334Z" fill="#EA8696"/>
<path d="M70.3789 34.9087L63.2164 38.4755V44.317L70.3882 40.7452L70.3789 34.9087Z" fill="white"/>
<path d="M63.2166 44.5179C63.2573 44.5179 63.2969 44.5089 63.333 44.4908L70.5047 40.919C70.5769 40.8829 70.6211 40.8166 70.6211 40.7453L70.6118 34.9088C70.6118 34.8375 70.5676 34.7713 70.4954 34.7351C70.4233 34.699 70.3348 34.699 70.2627 34.7351L63.0991 38.3019C63.0269 38.338 62.9827 38.4043 62.9827 38.4756V44.3171C62.9827 44.3884 63.0269 44.4546 63.0991 44.4908C63.1352 44.5089 63.1747 44.5179 63.2154 44.5179H63.2166ZM70.1556 40.6299L63.4493 43.9698V38.592L70.1475 35.2561L70.1556 40.6299Z" fill="#3F424A"/>
<path d="M54.0875 43.023L54.0945 48.8615L61.2593 45.2927V39.4512L54.0875 43.023Z" fill="white"/>
<path d="M54.0947 49.0624C54.1354 49.0624 54.175 49.0533 54.2111 49.0353L61.3758 45.4665C61.448 45.4304 61.4922 45.3641 61.4922 45.2928V39.4513C61.4922 39.38 61.448 39.3137 61.3758 39.2776C61.3037 39.2415 61.2152 39.2415 61.1431 39.2776L53.9713 42.8494C53.8992 42.8855 53.855 42.9518 53.855 43.0231L53.8619 48.8616C53.8619 48.9329 53.9062 48.9991 53.9783 49.0353C54.0144 49.0533 54.054 49.0624 54.0947 49.0624ZM61.0267 45.1774L54.3263 48.5143L54.3193 43.1395L61.0256 39.7996V45.1774H61.0267Z" fill="#3F424A"/>
<path d="M51.7114 39.7334L51.6905 54.5597L30.671 44.0431L30.6907 29.2168L51.7114 39.7334Z" fill="white"/>
<path d="M51.6904 54.7605C51.7299 54.7605 51.7706 54.7515 51.8067 54.7334C51.8789 54.6973 51.9231 54.631 51.9231 54.5597L51.9429 39.7335C51.9429 39.6622 51.8987 39.596 51.8265 39.5598L30.807 29.0432C30.7348 29.0071 30.6464 29.0071 30.5742 29.0432C30.5021 29.0794 30.4579 29.1456 30.4579 29.2169L30.4381 44.0431C30.4381 44.1144 30.4823 44.1807 30.5545 44.2168L51.574 54.7334C51.6101 54.7515 51.6508 54.7605 51.6904 54.7605ZM51.4774 39.8489L51.4576 54.2114L30.9036 43.9277L30.9234 29.5652L51.4774 39.8489Z" fill="#3F424A"/>
<path d="M33.0016 34.9087L40.1641 38.4755V44.317L32.9923 40.7452L33.0016 34.9087Z" fill="#15CBB9"/>
<path d="M49.293 43.023L49.286 48.8615L42.1212 45.2927V39.4512L49.293 43.023Z" fill="#15CBB9"/>
<path d="M30.6907 29.2168L51.6695 39.7334L72.7856 29.2168L51.8057 18.6992L30.6907 29.2168Z" fill="white"/>
<path d="M51.6694 39.9343C51.7101 39.9343 51.7497 39.9253 51.7858 39.9072L72.9007 29.3906C72.9729 29.3545 73.0171 29.2882 73.0171 29.2169C73.0171 29.1457 72.9729 29.0794 72.9007 29.0433L51.9219 18.5256C51.8498 18.4895 51.7613 18.4895 51.6892 18.5256L30.5743 29.0423C30.5021 29.0784 30.4579 29.1446 30.4579 29.2159C30.4579 29.2872 30.5021 29.3535 30.5743 29.3896L51.553 39.9072C51.5891 39.9253 51.6299 39.9343 51.6694 39.9343ZM72.32 29.2159L51.6694 39.5016L31.1549 29.2169L51.8056 18.9312L72.32 29.2159Z" fill="#3F424A"/>
<path d="M40.8472 29.2169L51.7031 34.6589L62.6289 29.2169L51.773 23.7749L40.8472 29.2169Z" fill="white"/>
<path d="M51.7031 34.8598C51.7438 34.8598 51.7834 34.8508 51.8195 34.8327L62.7464 29.3907C62.8186 29.3546 62.8628 29.2883 62.8628 29.217C62.8628 29.1458 62.8186 29.0795 62.7464 29.0434L51.8905 23.6003C51.8183 23.5642 51.7299 23.5642 51.6577 23.6003L40.7308 29.0424C40.6587 29.0785 40.6144 29.1448 40.6144 29.216C40.6144 29.2873 40.6587 29.3536 40.7308 29.3897L51.5867 34.8327C51.6228 34.8508 51.6636 34.8598 51.7031 34.8598ZM62.1658 29.216L51.7043 34.4272L41.3126 29.217L51.7741 24.0059L62.1658 29.216Z" fill="#3F424A"/>
<path d="M51.6727 33.7199L51.6901 38.2725L69.9727 29.1664L69.9552 24.6138L51.6727 33.7199Z" fill="white"/>
<path d="M51.6903 38.4735C51.731 38.4735 51.7706 38.4645 51.8067 38.4464L70.0892 29.3403C70.1613 29.3041 70.2056 29.2379 70.2056 29.1656L70.1881 24.613C70.1881 24.5417 70.1439 24.4755 70.0717 24.4393C69.9996 24.4032 69.9112 24.4042 69.839 24.4393L51.5565 33.5455C51.4843 33.5816 51.4401 33.6479 51.4401 33.7202L51.4575 38.2727C51.4575 38.344 51.5018 38.4103 51.5739 38.4464C51.61 38.4645 51.6496 38.4735 51.6903 38.4735ZM69.7401 29.0511L51.9219 37.9254L51.9056 33.8356L69.7238 24.9613L69.7401 29.0511Z" fill="#3F424A"/>
<path d="M51.7075 33.7199L51.6901 38.2725L33.4075 29.1664L33.425 24.6138L51.7075 33.7199Z" fill="white"/>
<path d="M51.6902 38.4734C51.7298 38.4734 51.7705 38.4644 51.8066 38.4463C51.8788 38.4102 51.923 38.3449 51.923 38.2726L51.9404 33.7201C51.9404 33.6478 51.8962 33.5815 51.8241 33.5454L33.5415 24.4392C33.4694 24.4031 33.3809 24.4031 33.3088 24.4392C33.2366 24.4754 33.1924 24.5406 33.1924 24.6129L33.1749 29.1655C33.1749 29.2377 33.2192 29.304 33.2913 29.3401L51.5739 38.4463C51.6099 38.4644 51.6495 38.4734 51.6902 38.4734ZM51.475 33.8355L51.4587 37.9253L33.6404 29.051L33.6567 24.9612L51.475 33.8355Z" fill="#3F424A"/>
<path d="M33.508 24.613L51.673 33.7202L69.9556 24.614L51.7905 15.5068L33.508 24.613Z" fill="white"/>
<path d="M51.6727 33.921C51.7134 33.921 51.753 33.912 51.7891 33.8939L70.0716 24.7878C70.1438 24.7516 70.188 24.6854 70.188 24.6141C70.188 24.5428 70.1438 24.4766 70.0716 24.4404L51.9066 15.3333C51.8345 15.2971 51.746 15.2971 51.6739 15.3333L33.3913 24.4394C33.3192 24.4756 33.275 24.5418 33.275 24.6131C33.275 24.6844 33.3192 24.7506 33.3913 24.7868L51.5563 33.8939C51.5924 33.912 51.6331 33.921 51.6727 33.921ZM69.4909 24.6131L51.6727 33.4874L33.972 24.6131L51.7902 15.7388L69.4909 24.6131Z" fill="#3F424A"/>
<path d="M51.6693 21.3735L51.6902 36.1998L72.8052 25.6822L72.7854 10.8569L51.6693 21.3735Z" fill="#EA8696"/>
<path d="M70.3789 16.5479L63.2164 20.1146V25.9562L70.3882 22.3844L70.3789 16.5479Z" fill="white"/>
<path d="M63.2166 26.157C63.2573 26.157 63.2969 26.148 63.333 26.1299L70.5047 22.5582C70.5769 22.522 70.6211 22.4558 70.6211 22.3845L70.6118 16.5479C70.6118 16.4767 70.5676 16.4104 70.4954 16.3743C70.4233 16.3381 70.3348 16.3381 70.2627 16.3743L63.0991 19.941C63.0269 19.9772 62.9827 20.0434 62.9827 20.1147V25.9563C62.9827 26.0275 63.0269 26.0938 63.0991 26.1299C63.1352 26.148 63.1747 26.157 63.2154 26.157H63.2166ZM70.1556 22.269L63.4493 25.6089V20.2312L70.1475 16.8953L70.1556 22.269Z" fill="#3F424A"/>
<path d="M54.0875 24.6621L54.0945 30.5007L61.2593 26.9319V21.0903L54.0875 24.6621Z" fill="white"/>
<path d="M54.0947 30.7015C54.1354 30.7015 54.175 30.6925 54.2111 30.6744L61.3758 27.1057C61.448 27.0695 61.4922 27.0033 61.4922 26.932V21.0904C61.4922 21.0191 61.448 20.9529 61.3758 20.9168C61.3037 20.8806 61.2152 20.8806 61.1431 20.9168L53.9713 24.4885C53.8992 24.5247 53.855 24.5909 53.855 24.6622L53.8619 30.5008C53.8619 30.572 53.9062 30.6383 53.9783 30.6744C54.0144 30.6925 54.054 30.7015 54.0947 30.7015ZM61.0267 26.8165L54.3263 30.1534L54.3193 24.7787L61.0256 21.4388V26.8165H61.0267Z" fill="#3F424A"/>
<path d="M51.7114 21.3735L51.6905 36.1998L30.671 25.6822L30.6907 10.8569L51.7114 21.3735Z" fill="white"/>
<path d="M51.6904 36.4007C51.7299 36.4007 51.7706 36.3916 51.8067 36.3736C51.8789 36.3374 51.9231 36.2712 51.9231 36.1999L51.9429 21.3736C51.9429 21.3024 51.8987 21.2361 51.8265 21.2L30.807 10.6834C30.7348 10.6472 30.6464 10.6472 30.5742 10.6834C30.5021 10.7195 30.4579 10.7858 30.4579 10.857L30.4381 25.6833C30.4381 25.7546 30.4823 25.8208 30.5545 25.8569L51.574 36.3736C51.6101 36.3916 51.6508 36.4007 51.6904 36.4007ZM51.4774 21.4891L51.4576 35.8515L30.9036 25.5678L30.9234 11.2054L51.4774 21.4891Z" fill="#3F424A"/>
<path d="M33.0016 16.5479L40.1641 20.1146V25.9562L32.9923 22.3844L33.0016 16.5479Z" fill="#15CBB9"/>
<path d="M49.293 24.6621L49.286 30.5007L42.1212 26.9319V21.0903L49.293 24.6621Z" fill="#15CBB9"/>
<path d="M30.6907 10.856L51.6695 21.3736L72.7856 10.857L51.8057 0.339355L30.6907 10.856Z" fill="white"/>
<path d="M51.6694 21.5744C51.7101 21.5744 51.7497 21.5654 51.7858 21.5473L72.9007 11.0307C72.9729 10.9946 73.0171 10.9283 73.0171 10.8571C73.0171 10.7858 72.9729 10.7195 72.9007 10.6834L51.9231 0.165777C51.8509 0.129637 51.7625 0.129637 51.6904 0.165777L30.5754 10.6824C30.5033 10.7185 30.459 10.7848 30.459 10.8561C30.459 10.9273 30.5033 10.9936 30.5754 11.0297L51.5542 21.5473C51.5903 21.5654 51.631 21.5744 51.6706 21.5744H51.6694ZM72.32 10.8561L51.6694 21.1418L31.1549 10.8571L51.8056 0.571343L72.32 10.8561Z" fill="#3F424A"/>
<path d="M40.8472 10.8561L51.7031 16.2991L62.6289 10.8571L51.773 5.41406L40.8472 10.8561Z" fill="#15CBB9"/>
</g>
<defs>
<clipPath id="clip0_501_2518">
<rect width="154" height="110.895" fill="white" transform="matrix(-1 0 0 1 154 0)"/>
</clipPath>
</defs>
</svg>
