<svg width="142" height="116" viewBox="0 0 142 116" fill="none" xmlns="http://www.w3.org/2000/svg">
<g clip-path="url(#clip0_619_662)">
<path d="M138.814 66.0222C138.661 66.0222 138.536 65.8971 138.536 65.743V64.9164C138.536 64.7623 138.661 64.6372 138.814 64.6372C138.968 64.6372 139.093 64.7623 139.093 64.9164V65.743C139.093 65.8971 138.968 66.0222 138.814 66.0222Z" fill="#3F424A"/>
<path d="M140.058 66.4423H139.234C139.081 66.4423 138.956 66.3172 138.956 66.163C138.956 66.0089 139.081 65.8838 139.234 65.8838H140.058C140.212 65.8838 140.336 66.0089 140.336 66.163C140.336 66.3172 140.212 66.4423 140.058 66.4423Z" fill="#3F424A"/>
<path d="M138.814 67.6887C138.661 67.6887 138.536 67.5636 138.536 67.4095V66.583C138.536 66.4288 138.661 66.3037 138.814 66.3037C138.968 66.3037 139.093 66.4288 139.093 66.583V67.4095C139.093 67.5636 138.968 67.6887 138.814 67.6887Z" fill="#3F424A"/>
<path d="M138.396 66.4423H137.572C137.419 66.4423 137.294 66.3172 137.294 66.163C137.294 66.0089 137.419 65.8838 137.572 65.8838H138.396C138.55 65.8838 138.674 66.0089 138.674 66.163C138.674 66.3172 138.55 66.4423 138.396 66.4423Z" fill="#3F424A"/>
<path d="M78.8676 21.433C78.714 21.433 78.5894 21.3079 78.5894 21.1537V19.5844C78.5894 19.4303 78.714 19.3052 78.8676 19.3052C79.0212 19.3052 79.1459 19.4303 79.1459 19.5844V21.1537C79.1459 21.3079 79.0212 21.433 78.8676 21.433Z" fill="#3F424A"/>
<path d="M81.225 22.2304H79.6611C79.5075 22.2304 79.3828 22.1053 79.3828 21.9511C79.3828 21.797 79.5075 21.6719 79.6611 21.6719H81.225C81.3786 21.6719 81.5033 21.797 81.5033 21.9511C81.5033 22.1053 81.3786 22.2304 81.225 22.2304Z" fill="#3F424A"/>
<path d="M78.8676 24.5975C78.714 24.5975 78.5894 24.4724 78.5894 24.3183V22.749C78.5894 22.5948 78.714 22.4697 78.8676 22.4697C79.0212 22.4697 79.1459 22.5948 79.1459 22.749V24.3183C79.1459 24.4724 79.0212 24.5975 78.8676 24.5975Z" fill="#3F424A"/>
<path d="M78.0727 22.2304H76.5087C76.3551 22.2304 76.2305 22.1053 76.2305 21.9511C76.2305 21.797 76.3551 21.6719 76.5087 21.6719H78.0727C78.2263 21.6719 78.351 21.797 78.351 21.9511C78.351 22.1053 78.2263 22.2304 78.0727 22.2304Z" fill="#3F424A"/>
<path d="M33.9277 48.7587C33.7741 48.7587 33.6494 48.6336 33.6494 48.4794V47.186C33.6494 47.0318 33.7741 46.9067 33.9277 46.9067C34.0813 46.9067 34.206 47.0318 34.206 47.186V48.4794C34.206 48.6336 34.0813 48.7587 33.9277 48.7587Z" fill="#3F424A"/>
<path d="M35.8715 49.4154H34.5825C34.4289 49.4154 34.3042 49.2903 34.3042 49.1362C34.3042 48.982 34.4289 48.8569 34.5825 48.8569H35.8715C36.0251 48.8569 36.1497 48.982 36.1497 49.1362C36.1497 49.2903 36.0251 49.4154 35.8715 49.4154Z" fill="#3F424A"/>
<path d="M33.9277 51.3656C33.7741 51.3656 33.6494 51.2405 33.6494 51.0863V49.7929C33.6494 49.6388 33.7741 49.5137 33.9277 49.5137C34.0813 49.5137 34.206 49.6388 34.206 49.7929V51.0863C34.206 51.2405 34.0813 51.3656 33.9277 51.3656Z" fill="#3F424A"/>
<path d="M33.2733 49.4154H31.9843C31.8307 49.4154 31.7061 49.2903 31.7061 49.1362C31.7061 48.982 31.8307 48.8569 31.9843 48.8569H33.2733C33.4269 48.8569 33.5516 48.982 33.5516 49.1362C33.5516 49.2903 33.4269 49.4154 33.2733 49.4154Z" fill="#3F424A"/>
<path d="M37.0668 8.80377C37.5961 8.80377 38.0252 8.3732 38.0252 7.84207C38.0252 7.31094 37.5961 6.88037 37.0668 6.88037C36.5375 6.88037 36.1084 7.31094 36.1084 7.84207C36.1084 8.3732 36.5375 8.80377 37.0668 8.80377Z" fill="#15CBB9"/>
<path d="M139.974 41.9026C141.093 41.9026 142 40.9925 142 39.8698C142 38.7471 141.093 37.8369 139.974 37.8369C138.855 37.8369 137.948 38.7471 137.948 39.8698C137.948 40.9925 138.855 41.9026 139.974 41.9026Z" fill="#15CBB9"/>
<path d="M139.916 105.866C140.524 105.866 141.017 105.371 141.017 104.761C141.017 104.151 140.524 103.657 139.916 103.657C139.308 103.657 138.815 104.151 138.815 104.761C138.815 105.371 139.308 105.866 139.916 105.866Z" fill="#EA8696"/>
<path d="M34.9833 89.7361C35.4136 89.7361 35.7625 89.386 35.7625 88.9542C35.7625 88.5224 35.4136 88.1724 34.9833 88.1724C34.553 88.1724 34.2041 88.5224 34.2041 88.9542C34.2041 89.386 34.553 89.7361 34.9833 89.7361Z" fill="#EA8696"/>
<path d="M130.306 39.21H45.8826C45.1319 39.21 44.5234 39.8206 44.5234 40.5738V101.774C44.5234 102.527 45.1319 103.138 45.8826 103.138H130.306C131.056 103.138 131.665 102.527 131.665 101.774V40.5738C131.665 39.8206 131.056 39.21 130.306 39.21Z" fill="white"/>
<path d="M130.305 103.4H45.8824C44.9886 103.4 44.2617 102.671 44.2617 101.774V40.5736C44.2617 39.6766 44.9886 38.9473 45.8824 38.9473H130.305C131.199 38.9473 131.926 39.6766 131.926 40.5736V101.775C131.926 102.672 131.199 103.401 130.305 103.401V103.4ZM45.8824 39.4722C45.2769 39.4722 44.7849 39.9659 44.7849 40.5736V101.775C44.7849 102.383 45.2769 102.876 45.8824 102.876H130.305C130.911 102.876 131.403 102.383 131.403 101.775V40.5736C131.403 39.9659 130.911 39.4722 130.305 39.4722H45.8824Z" fill="#3F424A"/>
<path d="M122.626 54.6919H98.7517C98.1087 54.6919 97.5874 55.215 97.5874 55.8602V79.8167C97.5874 80.462 98.1087 80.9851 98.7517 80.9851H122.626C123.269 80.9851 123.79 80.462 123.79 79.8167V55.8602C123.79 55.215 123.269 54.6919 122.626 54.6919Z" fill="#EA8696"/>
<path d="M89.2881 49.8877H55.8401C55.1971 49.8877 54.6758 50.4108 54.6758 51.056V84.6195C54.6758 85.2647 55.1971 85.7878 55.8401 85.7878H89.2881C89.9311 85.7878 90.4524 85.2647 90.4524 84.6195V51.056C90.4524 50.4108 89.9311 49.8877 89.2881 49.8877Z" fill="#15CBB9"/>
<path d="M121.876 79.3264C121.809 79.3264 121.742 79.3007 121.691 79.2493L99.3175 56.7985C99.2151 56.6957 99.2151 56.5304 99.3175 56.4277C99.4199 56.3249 99.5847 56.3249 99.6871 56.4277L122.061 78.8785C122.163 78.9812 122.163 79.1466 122.061 79.2493C122.009 79.3007 121.943 79.3264 121.876 79.3264Z" fill="white"/>
<path d="M99.5008 79.3259C99.4341 79.3259 99.3673 79.3002 99.3161 79.2488C99.2137 79.1461 99.2137 78.9808 99.3161 78.878L109.41 68.7494C109.512 68.6467 109.677 68.6467 109.779 68.7494C109.882 68.8522 109.882 69.0175 109.779 69.1203L99.6856 79.2488C99.6344 79.3002 99.5676 79.3259 99.5008 79.3259Z" fill="white"/>
<path d="M111.51 67.2741C111.443 67.2741 111.377 67.2484 111.325 67.197C111.223 67.0942 111.223 66.9289 111.325 66.8262L121.69 56.4262C121.792 56.3234 121.957 56.3234 122.059 56.4262C122.162 56.529 122.162 56.6943 122.059 56.797L111.695 67.197C111.644 67.2484 111.577 67.2741 111.51 67.2741Z" fill="white"/>
<path d="M105.386 91.311H55.2405C54.6368 91.311 54.1475 91.8021 54.1475 92.4079C54.1475 93.0137 54.6368 93.5047 55.2405 93.5047H105.386C105.99 93.5047 106.479 93.0137 106.479 92.4079C106.479 91.8021 105.99 91.311 105.386 91.311Z" fill="#EA8696"/>
<path d="M105.386 95.293H55.2405C54.6368 95.293 54.1475 95.784 54.1475 96.3898C54.1475 96.9956 54.6368 97.4867 55.2405 97.4867H105.386C105.99 97.4867 106.479 96.9956 106.479 96.3898C106.479 95.784 105.99 95.293 105.386 95.293Z" fill="#EA8696"/>
<path d="M120.947 91.311H110.688C110.085 91.311 109.595 91.8021 109.595 92.4079C109.595 93.0137 110.085 93.5047 110.688 93.5047H120.947C121.55 93.5047 122.04 93.0137 122.04 92.4079C122.04 91.8021 121.55 91.311 120.947 91.311Z" fill="#15CBB9"/>
<path d="M120.947 95.293H110.688C110.085 95.293 109.595 95.784 109.595 96.3898C109.595 96.9956 110.085 97.4867 110.688 97.4867H120.947C121.55 97.4867 122.04 96.9956 122.04 96.3898C122.04 95.784 121.55 95.293 120.947 95.293Z" fill="#15CBB9"/>
<path d="M130.237 34.9062H45.9516C45.1628 34.9062 44.5234 35.5478 44.5234 36.3393V42.4077C44.5234 43.1992 45.1628 43.8408 45.9516 43.8408H130.237C131.025 43.8408 131.665 43.1992 131.665 42.4077V36.3393C131.665 35.5478 131.025 34.9062 130.237 34.9062Z" fill="white"/>
<path d="M130.235 44.1019H45.9514C45.0197 44.1019 44.2617 43.3413 44.2617 42.4064V36.3391C44.2617 35.4042 45.0197 34.6436 45.9514 34.6436H130.235C131.167 34.6436 131.925 35.4042 131.925 36.3391V42.4064C131.925 43.3413 131.167 44.1019 130.235 44.1019ZM45.9514 35.1674C45.308 35.1674 44.7838 35.6924 44.7838 36.3391V42.4064C44.7838 43.052 45.3069 43.5781 45.9514 43.5781H130.235C130.879 43.5781 131.403 43.0531 131.403 42.4064V36.3391C131.403 35.6935 130.88 35.1674 130.235 35.1674H45.9514Z" fill="#3F424A"/>
<path d="M50.9814 41.2771C52.0295 41.2771 52.8792 40.4244 52.8792 39.3727C52.8792 38.3209 52.0295 37.4683 50.9814 37.4683C49.9332 37.4683 49.0835 38.3209 49.0835 39.3727C49.0835 40.4244 49.9332 41.2771 50.9814 41.2771Z" fill="#15CBB9"/>
<path d="M59.4633 41.2771C60.5115 41.2771 61.3612 40.4244 61.3612 39.3727C61.3612 38.3209 60.5115 37.4683 59.4633 37.4683C58.4151 37.4683 57.5654 38.3209 57.5654 39.3727C57.5654 40.4244 58.4151 41.2771 59.4633 41.2771Z" fill="#15CBB9"/>
<path d="M67.9443 41.2771C68.9924 41.2771 69.8421 40.4244 69.8421 39.3727C69.8421 38.3209 68.9924 37.4683 67.9443 37.4683C66.8961 37.4683 66.0464 38.3209 66.0464 39.3727C66.0464 40.4244 66.8961 41.2771 67.9443 41.2771Z" fill="#EA8696"/>
<path d="M86.6116 65.1799L82.679 64.9431C82.4564 64.1579 82.1447 63.4095 81.7562 62.7103L84.3709 59.7504C84.6325 59.4544 84.6192 59.0042 84.3398 58.725L81.6472 56.0231C81.3678 55.7427 80.9203 55.7293 80.6253 55.9918L77.6767 58.6155C76.9799 58.2257 76.2341 57.913 75.4516 57.6885L75.2156 53.7423C75.1922 53.3469 74.8661 53.0386 74.4709 53.0386H70.6629C70.2678 53.0386 69.9416 53.3469 69.9183 53.7423L69.6823 57.6885C68.8987 57.9119 68.154 58.2257 67.4572 58.6155L64.5085 55.9918C64.2136 55.7293 63.765 55.7427 63.4867 56.0231L60.7941 58.725C60.5147 59.0054 60.5013 59.4544 60.7629 59.7504L63.3776 62.7092C62.9891 63.4084 62.6775 64.1568 62.4537 64.942L58.5211 65.1788C58.127 65.2022 57.8198 65.5295 57.8198 65.926V69.7471C57.8198 70.1436 58.127 70.4709 58.5211 70.4944L62.4537 70.7312C62.6763 71.5175 62.9891 72.2647 63.3765 72.9651L60.7618 75.9239C60.5002 76.2199 60.5136 76.67 60.793 76.9493L63.4856 79.6512C63.765 79.9315 64.2124 79.9449 64.5074 79.6825L67.4561 77.0587C68.1529 77.4485 68.8987 77.7613 69.6823 77.9858L69.9183 81.9309C69.9416 82.3263 70.2678 82.6346 70.6629 82.6346H74.4709C74.8661 82.6346 75.1922 82.3263 75.2156 81.9309L75.4516 77.9858C76.2352 77.7624 76.9799 77.4485 77.6778 77.0587L80.6264 79.6825C80.9214 79.9449 81.37 79.9315 81.6483 79.6512L84.3409 76.9493C84.6203 76.6689 84.6336 76.2199 84.3721 75.9239L81.7573 72.9651C82.1458 72.2659 82.4575 71.5175 82.6801 70.7323L86.6128 70.4955C87.0068 70.472 87.314 70.1448 87.314 69.7482V65.9271C87.314 65.5306 87.0068 65.2033 86.6128 65.1799H86.6116ZM72.5652 71.723C70.4258 71.723 68.6916 69.9839 68.6916 67.8382C68.6916 65.6926 70.4258 63.9512 72.5652 63.9512C74.7047 63.9512 76.4367 65.6915 76.4367 67.8382C76.4367 69.985 74.7024 71.723 72.5652 71.723Z" fill="white"/>
<path d="M26.8037 97.5105L28.2842 105.847L31.1838 105.593L30.4046 96.5454L26.8037 97.5105Z" fill="white"/>
<path d="M28.2841 106.127C28.1505 106.127 28.0347 106.03 28.0103 105.896L26.5298 97.5595C26.5042 97.4165 26.5921 97.278 26.7324 97.2412L30.3333 96.2761C30.4124 96.2549 30.4981 96.2694 30.5649 96.3174C30.6316 96.3644 30.6751 96.4403 30.6817 96.5218L31.4609 105.569C31.4743 105.722 31.3607 105.857 31.2082 105.872L28.3086 106.127C28.3008 106.127 28.2919 106.127 28.2841 106.127ZM27.1231 97.7136L28.5145 105.547L30.8843 105.338L30.1575 96.9005L27.1242 97.7136H27.1231Z" fill="#3F424A"/>
<path d="M39.3553 113.598C39.2807 113.415 39.1661 113.245 39.0136 113.098C37.5443 111.678 34.0602 108.032 32.5353 104.084L27.8034 103.986C27.8034 103.986 26.264 109.989 26.3798 115.044L39.1338 115.214L39.4032 114.606C39.5112 114.27 39.4911 113.916 39.3553 113.598Z" fill="#EA8696"/>
<path d="M39.3553 113.598L26.3942 113.431C26.3741 113.974 26.3674 114.513 26.3797 115.044L39.1337 115.214L39.4031 114.606C39.5111 114.27 39.4911 113.916 39.3553 113.598Z" fill="white"/>
<path d="M39.134 115.493C39.134 115.493 39.1284 115.493 39.1251 115.493L26.371 115.323C26.223 115.319 26.105 115.199 26.1016 115.051C26.0894 114.534 26.0949 113.985 26.1161 113.421C26.1217 113.271 26.2452 113.152 26.3944 113.152H26.3977L39.3588 113.318C39.469 113.319 39.5681 113.386 39.6115 113.488C39.7751 113.87 39.7952 114.298 39.6683 114.692L39.3989 115.3C39.361 115.415 39.2542 115.493 39.134 115.493ZM26.6537 114.774L38.9347 114.929L39.1395 114.521C39.2074 114.308 39.2141 114.088 39.1585 113.876L26.6649 113.716C26.6548 114.079 26.6515 114.433 26.6548 114.775L26.6537 114.774Z" fill="#3F424A"/>
<path d="M31.7016 97.421C29.334 98.1001 26.9608 98.4765 25.7275 98.6429C24.6556 95.3356 22.574 88.7914 22.2991 86.983C21.924 84.5313 22.9213 78.4216 22.9213 78.4216C22.9213 78.4216 14.6598 58.7095 15.0338 53.3783C15.4089 48.047 19.2826 40.7466 24.6611 41.7519C24.9539 41.8066 25.2444 41.8502 25.5116 41.9462C29.3852 43.3402 29.8104 59.8075 30.2556 75.15C30.318 77.3046 30.3814 79.4369 30.4538 81.5021C30.6797 87.8934 31.0003 93.6423 31.7016 97.421Z" fill="#15CBB9"/>
<path d="M27.1633 95.577C27.0375 95.577 26.924 95.491 26.8928 95.3636L25.0016 87.6019C24.8469 86.9675 24.7768 86.314 24.7946 85.6606L24.966 79.103C24.9827 78.4563 24.9081 77.8107 24.7434 77.1852L19.2246 56.2456C19.1856 56.097 19.2735 55.944 19.4227 55.9038C19.5718 55.8647 19.7232 55.9529 19.7633 56.1026L25.2821 77.0422C25.4602 77.7191 25.5415 78.4172 25.5237 79.1175L25.3523 85.6752C25.3367 86.2794 25.4012 86.8826 25.5437 87.469L27.4349 95.2307C27.4716 95.3804 27.3803 95.5312 27.2312 95.568C27.2089 95.5736 27.1867 95.5759 27.1644 95.5759L27.1633 95.577Z" fill="#3F424A"/>
<path d="M30.4537 81.502C28.9477 81.4741 27.7344 80.06 27.7344 78.3198C27.7344 76.5796 28.843 75.2918 30.2556 75.1499C30.3179 77.3045 30.3814 79.4368 30.4537 81.502Z" fill="white"/>
<path d="M31.5546 98.8127L24.9594 99.0886C24.4763 99.1087 24.0678 98.7591 24.0467 98.3067L23.8563 94.327C23.8352 93.8746 24.2081 93.4926 24.6912 93.4725L31.2864 93.1966C31.7695 93.1765 32.178 93.5261 32.1991 93.9785L32.3895 97.9582C32.4106 98.4106 32.0377 98.7926 31.5546 98.8127Z" fill="#EA8696"/>
<path d="M3.62988 96.7683L3.66105 105.22L6.61192 105.405L7.40668 96.3584L3.62988 96.7683Z" fill="white"/>
<path d="M6.61285 105.684C6.60729 105.684 6.60172 105.684 6.59504 105.684L3.64418 105.5C3.49836 105.491 3.38371 105.369 3.38371 105.222L3.35254 96.7695C3.35254 96.6265 3.4594 96.5059 3.60076 96.4903L7.37756 96.0792C7.46104 96.0703 7.54341 96.0993 7.60241 96.1574C7.6614 96.2155 7.69257 96.2982 7.68478 96.3808L6.89002 105.427C6.87777 105.572 6.75644 105.682 6.61285 105.682V105.684ZM3.93915 104.958L6.35906 105.109L7.10039 96.6723L3.9091 97.0197L3.93915 104.959V104.958Z" fill="#3F424A"/>
<path d="M14.5058 113.598C14.4301 113.415 14.3132 113.245 14.1596 113.098C12.668 111.678 9.13052 108.032 7.58218 104.084L2.77687 103.986C2.77687 103.986 1.21405 109.989 1.33204 115.044L14.282 115.214L14.5547 114.606C14.6638 114.27 14.6438 113.916 14.5069 113.598H14.5058Z" fill="#EA8696"/>
<path d="M14.5059 113.598L1.34558 113.432C1.32444 113.974 1.31887 114.514 1.33111 115.045L14.2811 115.214L14.5538 114.607C14.6629 114.27 14.6428 113.916 14.5059 113.598Z" fill="white"/>
<path d="M14.281 115.493C14.281 115.493 14.2755 115.493 14.2721 115.493L1.32217 115.324C1.17412 115.319 1.05613 115.2 1.05279 115.051C1.04055 114.534 1.04611 113.985 1.06726 113.421C1.07283 113.271 1.19861 113.154 1.34888 113.153L14.5092 113.32C14.6183 113.321 14.7174 113.387 14.7608 113.487C14.9267 113.87 14.9467 114.299 14.8187 114.695L14.5449 115.302C14.507 115.417 14.4001 115.494 14.281 115.494V115.493ZM1.6049 114.773L14.0818 114.928L14.2899 114.519C14.359 114.307 14.3656 114.087 14.3089 113.875L1.61492 113.714C1.6049 114.077 1.60156 114.431 1.6049 114.773Z" fill="#3F424A"/>
<path d="M21.2727 53.434L19.16 56.6888C19.16 56.6888 16.2347 65.6435 13.482 75.8915C12.9366 77.9188 12.3989 79.9975 11.8914 82.0672C10.4922 87.7737 9.32785 93.4144 8.8993 97.7459C6.387 97.8252 3.95373 97.6108 2.69814 97.4723C2.57904 94.0175 2.38424 87.1918 2.62468 85.3779C2.9497 82.9194 5.64901 77.2632 5.64901 77.2632C5.64901 77.2632 3.10888 56.2175 4.97891 51.161C6.84894 46.1045 12.7062 39.9981 17.6951 42.2778C17.9667 42.4018 18.2261 42.5336 18.4743 42.6732C22.457 44.9139 23.6681 49.7425 21.2716 53.434H21.2727Z" fill="#15CBB9"/>
<path d="M7.65141 57.4037C7.52451 57.4037 7.40986 57.3155 7.37981 57.1859C7.34641 57.0351 7.43991 56.8866 7.59019 56.8519L8.34042 56.6822C9.27433 56.4711 10.0157 55.7663 10.275 54.8425L11.2913 51.2314C11.3336 51.0829 11.4872 50.9969 11.6341 51.0382C11.7822 51.0806 11.8679 51.2348 11.8267 51.3822L10.8104 54.9933C10.4954 56.1148 9.5949 56.9703 8.46175 57.2261L7.71151 57.3959C7.69148 57.4004 7.67033 57.4026 7.65029 57.4026L7.65141 57.4037Z" fill="#3F424A"/>
<path d="M5.12349 94.4039C4.96988 94.4039 4.84521 94.2788 4.84521 94.1247V87.2186C4.84521 85.4594 5.12683 83.7203 5.68339 82.0515L6.48595 79.6423C7.02247 78.0305 7.29518 76.3517 7.29518 74.6517V58.7161C7.29518 57.5846 7.41317 56.4509 7.64692 55.344L8.74891 50.1144C8.78119 49.9636 8.92812 49.8664 9.07839 49.8988C9.22866 49.9312 9.32439 50.0786 9.29322 50.2294L8.19124 55.459C7.96639 56.5279 7.85174 57.6237 7.85174 58.7149V74.6506C7.85174 76.4109 7.57012 78.1489 7.01356 79.8176L6.21101 82.2269C5.67449 83.8387 5.40177 85.5174 5.40177 87.2174V94.1236C5.40177 94.2777 5.2771 94.4028 5.12349 94.4028V94.4039Z" fill="#3F424A"/>
<path d="M17.6917 61.6259C17.6639 61.6259 17.6372 61.6215 17.6093 61.6137C17.4624 61.5679 17.38 61.4115 17.4257 61.264C18.3039 58.4158 18.8905 56.6197 18.8961 56.6019C18.9039 56.5784 18.9139 56.5572 18.9273 56.536L21.04 53.2812C21.6689 52.3116 22.0518 51.2539 22.1776 50.1358C22.1943 49.9828 22.3312 49.8722 22.4848 49.8901C22.6373 49.9068 22.7475 50.0453 22.7297 50.1984C22.5939 51.4036 22.182 52.5428 21.5052 53.5861L19.4126 56.8096C19.3269 57.0721 18.7659 58.8012 17.9566 61.4282C17.9199 61.5478 17.8097 61.6248 17.6906 61.6248L17.6917 61.6259Z" fill="#3F424A"/>
<path d="M13.4828 75.8918C12.9374 77.919 12.3997 79.9977 11.8922 82.0674C11.8298 82.0596 11.7675 82.0496 11.7052 82.0361C10.1947 81.7156 9.31641 80.0658 9.74385 78.3535C10.1724 76.6401 11.7441 75.5109 13.2557 75.8326C13.3336 75.8493 13.4082 75.8694 13.4828 75.8918Z" fill="white"/>
<path d="M9.50461 92.9888H2.65673C2.20612 92.9888 1.84082 93.3553 1.84082 93.8075V97.7917C1.84082 98.2439 2.20612 98.6104 2.65673 98.6104H9.50461C9.95523 98.6104 10.3205 98.2439 10.3205 97.7917V93.8075C10.3205 93.3553 9.95523 92.9888 9.50461 92.9888Z" fill="#EA8696"/>
<path d="M42.7101 31.3709C42.7101 31.3709 44.5089 31.687 45.8635 28.392L41.7817 26.2329L42.7101 31.3709Z" fill="white"/>
<path d="M42.8414 31.658C42.739 31.658 42.6755 31.6479 42.6622 31.6457C42.5475 31.6256 42.4574 31.5351 42.4362 31.4201L41.5079 26.2821C41.4889 26.1771 41.5312 26.0698 41.617 26.0073C41.7027 25.9447 41.8173 25.9358 41.9108 25.9861L45.9926 28.1451C46.1195 28.2122 46.1752 28.3652 46.1206 28.4981C44.9296 31.3955 43.3679 31.658 42.8414 31.658ZM42.1579 26.7467L42.9438 31.0973C43.3879 31.0626 44.5266 30.7432 45.5073 28.5193L42.1579 26.7478V26.7467Z" fill="#3F424A"/>
<path d="M54.4198 15.1076L44.6219 13.1448C44.4489 13.1101 44.2806 13.2228 44.2461 13.3964L41.4565 27.4179C41.4219 27.5915 41.5342 27.7603 41.7072 27.795L51.5052 29.7578C51.6782 29.7925 51.8465 29.6798 51.881 29.5062L54.6706 15.4847C54.7051 15.3111 54.5929 15.1423 54.4198 15.1076Z" fill="#15CBB9"/>
<path d="M53.5416 16.549L53.2756 17.8882L51.2442 28.0927C51.2097 28.2659 51.0405 28.3787 50.8679 28.344L42.8335 26.7345C42.6598 26.6999 42.5474 26.5301 42.5819 26.357L44.6122 16.1525L44.8794 14.8132C44.9139 14.6401 45.0831 14.5273 45.2556 14.5619L53.2901 16.1714C53.4637 16.2061 53.5761 16.3759 53.5416 16.549Z" fill="white"/>
<path d="M50.9313 28.6288C50.8923 28.6288 50.8523 28.6243 50.8133 28.6165L42.7789 27.0069C42.6219 26.9757 42.4872 26.8852 42.3982 26.7512C42.3091 26.6171 42.278 26.4574 42.3091 26.301L44.6066 14.7573C44.6378 14.6009 44.7279 14.4646 44.8615 14.3764C44.994 14.2881 45.1542 14.2558 45.3101 14.287L53.3445 15.8966C53.5015 15.9278 53.6362 16.0183 53.7252 16.1523C53.8143 16.2853 53.8454 16.4461 53.8143 16.6025L51.5168 28.1462C51.4856 28.3037 51.3955 28.4389 51.2619 28.5271C51.1628 28.593 51.0482 28.6276 50.9313 28.6276V28.6288ZM45.1932 14.8343C45.1832 14.8343 45.1754 14.8377 45.1698 14.841C45.1631 14.8455 45.1554 14.8533 45.152 14.8667L44.8849 16.206L42.8545 26.4105C42.8523 26.4239 42.8568 26.4351 42.8612 26.4418C42.8657 26.4485 42.8735 26.4574 42.8879 26.4596L50.9224 28.0692C50.9358 28.0725 50.9469 28.0669 50.9536 28.0625C50.9602 28.058 50.968 28.0502 50.9714 28.0368L53.2688 16.493C53.2711 16.4796 53.2666 16.4684 53.2622 16.4617C53.2577 16.455 53.2499 16.4461 53.2355 16.4439L45.201 14.8343C45.201 14.8343 45.1954 14.8343 45.1932 14.8343Z" fill="#3F424A"/>
<path d="M53.5417 16.5485L53.2757 17.8877L44.6123 16.152L44.8795 14.8127C44.914 14.6396 45.0832 14.5268 45.2557 14.5614L53.2901 16.171C53.4638 16.2056 53.5762 16.3754 53.5417 16.5485Z" fill="white"/>
<path d="M53.2755 18.1672C53.2577 18.1672 53.2388 18.165 53.221 18.1616L44.5576 16.4259C44.4853 16.4113 44.4218 16.3689 44.3806 16.3075C44.3394 16.246 44.325 16.1701 44.3394 16.0975L44.6066 14.7582C44.6378 14.6019 44.7279 14.4656 44.8615 14.3774C44.994 14.2891 45.1542 14.2567 45.3101 14.288L53.3445 15.8975C53.5015 15.9288 53.6362 16.0193 53.7252 16.1533C53.8143 16.2862 53.8454 16.4471 53.8143 16.6035L53.5482 17.9427C53.5338 18.0153 53.4915 18.079 53.4303 18.1203C53.3846 18.1516 53.3301 18.1672 53.2755 18.1672ZM44.9394 15.9333L53.0562 17.5596L53.2677 16.494C53.27 16.4806 53.2655 16.4694 53.2611 16.4627C53.2566 16.456 53.2488 16.4471 53.2343 16.4449L45.1999 14.8353C45.1865 14.832 45.1754 14.8376 45.1687 14.842C45.162 14.8465 45.1542 14.8543 45.1509 14.8677L44.9383 15.9333H44.9394Z" fill="#3F424A"/>
<path d="M42.2269 25.7114C42.2269 25.7114 44.472 29.5649 42.71 31.371C42.71 31.371 40.4147 36.8296 37.8078 39.5237C36.6624 40.7077 34.7646 40.6865 33.6247 39.498C32.2756 38.0918 30.7551 36.2108 29.288 34.159C25.3632 28.6714 22.9544 24.1979 24.0831 22.1372C25.6203 19.3336 27.2655 18.9751 28.9107 19.9669L37.0665 31.3297L39.8526 29.2857C39.8526 29.2857 39.9272 25.5997 40.3346 24.9664C40.7431 24.3342 43.4513 22.8073 43.6739 22.7325C43.8966 22.6588 44.157 22.8822 44.0079 23.5892C43.8598 24.2962 42.2269 25.7114 42.2269 25.7114Z" fill="white"/>
<path d="M35.7373 40.6786H35.7306C34.8535 40.6763 34.0343 40.3256 33.4243 39.6901C32.083 38.2916 30.5736 36.4353 29.062 34.3209C24.437 27.8548 22.7773 23.9399 23.8392 22.0019C24.693 20.4449 25.6069 19.5536 26.6354 19.2755C27.4012 19.0688 28.2149 19.2207 29.0542 19.7267C29.0865 19.7457 29.1143 19.7725 29.1366 19.8027L37.1287 30.9376L39.5776 29.1404C39.5987 28.2815 39.6978 25.4399 40.1007 24.8133C40.5638 24.0974 43.3098 22.5582 43.5859 22.4666C43.7673 22.4063 43.9588 22.4465 44.099 22.5727C44.256 22.7135 44.4141 23.0139 44.2805 23.6461C44.1436 24.3018 43.0271 25.3651 42.5785 25.7717C43.026 26.6127 44.5532 29.8072 42.9459 31.5274C42.6987 32.1071 40.5215 37.1211 38.007 39.718C37.407 40.3379 36.6011 40.6797 35.7362 40.6797L35.7373 40.6786ZM27.3155 19.7435C27.1341 19.7435 26.956 19.7669 26.779 19.8149C25.9174 20.0484 25.0915 20.8749 24.3257 22.2711C23.3929 23.9756 25.0893 27.8101 29.5128 33.9958C31.0099 36.089 32.5004 37.9242 33.8239 39.3036C34.3281 39.8286 35.0049 40.119 35.7306 40.1201H35.7362C36.4486 40.1201 37.1131 39.8386 37.6074 39.3282C40.1475 36.7033 42.4294 31.3163 42.4527 31.2615C42.4661 31.2291 42.4861 31.2001 42.5106 31.1744C44.1035 29.5414 42.0075 25.8878 41.9863 25.851C41.9184 25.7348 41.9429 25.5863 42.0442 25.4991C42.6487 24.9753 43.6415 23.9778 43.7351 23.5311C43.8063 23.1949 43.7607 23.0519 43.7384 23.0061C43.3777 23.1669 40.9155 24.5799 40.5682 25.1171C40.3033 25.5293 40.1597 27.8961 40.1308 29.2901C40.1286 29.3772 40.0874 29.4588 40.0172 29.5101L37.2311 31.5542C37.171 31.5977 37.0964 31.6156 37.023 31.6044C36.9495 31.5933 36.8838 31.5519 36.8404 31.4916L28.7191 20.1757C28.2249 19.8864 27.7607 19.7423 27.3166 19.7423L27.3155 19.7435Z" fill="#3F424A"/>
<path d="M35.7619 36.546C35.7386 36.546 35.7141 36.5426 35.6907 36.537C35.5426 36.4979 35.4536 36.3449 35.4926 36.1952L36.7971 31.2583C36.8361 31.1097 36.9886 31.0204 37.1377 31.0595C37.2858 31.0986 37.3748 31.2516 37.3359 31.4013L36.0313 36.3382C35.9979 36.4633 35.8855 36.546 35.7619 36.546Z" fill="#3F424A"/>
<path d="M26.8871 17.6035C26.8871 17.6035 26.886 17.6023 26.8849 17.6023C25.4111 17.1846 24.0408 17.7609 22.9467 19.9077C21.6499 22.4522 24.7911 29.0914 28.717 34.5801L36.2784 29.0187C34.2503 26.0074 29.1111 18.6176 26.8871 17.6035Z" fill="#EA8696"/>
<path d="M28.3863 33.7155C28.3017 33.7155 28.2171 33.6764 28.1626 33.6027C28.0713 33.4787 28.0969 33.3045 28.2204 33.2118L34.9759 28.1833C35.0995 28.0917 35.2742 28.1174 35.3655 28.2413C35.4568 28.3653 35.4312 28.5396 35.3076 28.6323L28.5521 33.6608C28.5021 33.6977 28.4442 33.7155 28.3863 33.7155Z" fill="#3F424A"/>
<path d="M18.1271 14.4062C21.6712 14.4062 27.7522 18.0285 27.7522 18.0285L27.947 20.3674C27.947 20.3674 29.5398 24.7828 29.5398 26.447C29.5398 28.1113 26.7114 31.9291 26.7114 31.9291C26.7114 31.9291 28.7272 45.0064 29.5398 51.4021C29.5398 51.4021 19.947 57.5364 2.77832 51.9896L8.89154 31.5705L7.52575 18.2799C7.52575 18.2799 13.4219 14.4074 18.1259 14.4074L18.1271 14.4062Z" fill="#EA8696"/>
<path d="M27.4136 31.2009C27.3602 31.2009 27.3068 31.1853 27.2589 31.1529C27.1309 31.0669 27.0975 30.8938 27.1832 30.7653C28.5034 28.7961 29.2614 27.2212 29.2614 26.446C29.2614 24.8499 27.7008 20.5049 27.6852 20.4614C27.6763 20.4379 27.6719 20.4145 27.6696 20.3899L27.5583 19.0574C27.545 18.9032 27.6596 18.7692 27.8121 18.7558C27.9646 18.7435 28.0993 18.8574 28.1127 19.0105L28.2206 20.3061C28.382 20.7574 29.818 24.813 29.818 26.446C29.818 27.5954 28.6358 29.5992 27.6452 31.0769C27.5917 31.1574 27.5038 31.1998 27.4136 31.1998V31.2009Z" fill="#3F424A"/>
<path d="M17.4525 52.6643C15.9465 52.6643 14.5139 52.5749 13.2383 52.4487C8.55539 51.9851 4.91996 50.9296 4.88323 50.9196C4.73518 50.876 4.65058 50.7207 4.694 50.5733C4.73741 50.4259 4.89102 50.341 5.03906 50.3834C5.07468 50.3935 8.67004 51.4367 13.3028 51.8947C17.5605 52.3158 23.5913 52.3146 28.1473 49.9255C28.2831 49.854 28.4512 49.9065 28.5224 50.0439C28.5937 50.1801 28.5414 50.3488 28.4044 50.4203C25.1007 52.1538 21.0646 52.6643 17.4514 52.6643H17.4525Z" fill="#3F424A"/>
<path d="M17.8878 13.1017C19.8781 13.2323 21.009 14.5593 21.1392 15.6472C21.2695 16.7351 20.4892 17.7359 19.7523 17.9526C19.7523 17.9526 19.0154 15.8862 18.4522 15.8862C17.8889 15.8862 17.4771 18.2787 17.4771 18.2787C17.4771 18.2787 14.8112 18.2787 14.0954 15.9946C13.6023 14.4197 15.5692 12.9497 17.8889 13.1017H17.8878Z" fill="white"/>
<path d="M17.4758 18.558C17.4468 18.558 14.5962 18.5301 13.8281 16.0784C13.63 15.4473 13.7658 14.7872 14.2099 14.2198C14.9512 13.2726 16.4016 12.7242 17.9043 12.8236C19.9836 12.9598 21.2648 14.3627 21.414 15.6137C21.5598 16.8312 20.6949 17.9649 19.8289 18.2207C19.6875 18.262 19.5384 18.1861 19.4883 18.0465C19.161 17.1294 18.6779 16.2515 18.4587 16.1689C18.2527 16.3051 17.9255 17.2947 17.7485 18.3257C17.7251 18.4597 17.6094 18.5569 17.4747 18.5569L17.4758 18.558ZM17.5659 13.3709C16.3671 13.3709 15.2217 13.8322 14.6485 14.5649C14.4169 14.8609 14.1787 15.3345 14.3591 15.9108C14.8878 17.5986 16.6176 17.9225 17.2454 17.985C17.4602 16.8468 17.8364 15.607 18.4509 15.607C19.0653 15.607 19.5885 16.7407 19.9113 17.5807C20.4311 17.2847 20.9654 16.5363 20.863 15.6796C20.7405 14.652 19.6497 13.4971 17.8698 13.3798C17.7685 13.3731 17.6672 13.3698 17.5671 13.3698L17.5659 13.3709Z" fill="#3F424A"/>
<path d="M19.1889 14.4064C19.1889 14.4064 19.1199 15.0922 18.2683 15.4184C18.2683 15.4184 16.9292 15.4832 15.9219 14.4064L16.159 10.0659L16.9682 10.2368L18.9384 10.6512L19.1466 13.7731L19.1889 14.4064Z" fill="white"/>
<path d="M18.2204 15.6976C17.9299 15.6976 16.6888 15.6339 15.7181 14.5963C15.6658 14.5404 15.6391 14.4656 15.6435 14.3896L15.8806 10.0491C15.8851 9.9676 15.9252 9.89276 15.9886 9.8425C16.0532 9.79335 16.1355 9.77437 16.2157 9.79112L18.9951 10.3764C19.1176 10.4021 19.2077 10.506 19.2155 10.6311L19.466 14.3863C19.466 14.4019 19.466 14.4176 19.466 14.4332C19.4626 14.4678 19.368 15.2944 18.3673 15.6775C18.3395 15.6875 18.3106 15.6942 18.2816 15.6954C18.2749 15.6954 18.2538 15.6965 18.2204 15.6965V15.6976ZM16.2057 14.298C17.006 15.0866 17.9978 15.138 18.2126 15.1391C18.7781 14.9045 18.8905 14.489 18.9083 14.393L18.6746 10.8802L16.4183 10.4054L16.2057 14.298Z" fill="#3F424A"/>
<path d="M19.1463 13.7731C16.7865 13.5397 16.5884 10.5205 16.5884 10.5205C16.7142 10.4133 16.8411 10.3195 16.968 10.2368L18.9382 10.6512L19.1463 13.7731Z" fill="#3F424A"/>
<path d="M13.2916 0.0558996C14.7787 0.573051 13.7269 3.67596 13.2516 4.66781C12.7763 5.65855 13.6322 8.38058 11.819 9.39589C10.0057 10.4112 13.6612 13.9464 9.16086 17.9953C5.6935 21.1161 -0.645683 19.2151 0.0533533 15.9893C0.752389 12.7635 5.73914 11.0367 6.34245 8.07788C6.72647 6.19469 5.80704 3.54751 8.82692 2.41826C11.081 1.57608 12.1173 -0.35179 13.2916 0.0558996Z" fill="#3F424A"/>
<path d="M21.1779 7.78518C21.1779 7.78518 22.0416 6.49844 22.9689 6.93517C23.8961 7.37302 23.5844 10.4759 21.3003 10.0526L21.1768 7.78518H21.1779Z" fill="white"/>
<path d="M21.7102 10.3718C21.5655 10.3718 21.4119 10.3573 21.2505 10.3283C21.1236 10.3048 21.0301 10.1976 21.0234 10.0692L20.8998 7.80173C20.8965 7.74142 20.9132 7.6811 20.9466 7.63084C20.9867 7.57052 21.9562 6.15087 23.0871 6.68477C23.7461 6.99529 23.8674 8.08097 23.6025 8.90864C23.3643 9.65253 22.7498 10.3741 21.7091 10.3741L21.7102 10.3718ZM21.5666 9.80778C22.5862 9.88932 22.958 9.09852 23.0737 8.73662C23.2997 8.03071 23.1394 7.32591 22.8511 7.18964C22.2645 6.91263 21.6434 7.63642 21.462 7.8721L21.5666 9.8089V9.80778Z" fill="#3F424A"/>
<path d="M14.7453 1.88855L14.2165 1.63723C14.0473 1.55681 13.8481 1.57357 13.6967 1.68191C13.5208 1.80813 13.3004 2.00248 13.168 2.25379C13.0188 2.53862 13.05 2.85918 13.0967 3.06582C13.1268 3.19874 13.2103 3.31267 13.326 3.38527L13.8937 3.74046C14.1698 3.91359 14.5338 3.78961 14.6495 3.48468L15.0057 2.53862C15.1003 2.28619 14.9868 2.0036 14.7442 1.88743L14.7453 1.88855Z" fill="white"/>
<path d="M21.7593 8.29702C21.6546 10.2171 20.8042 12.432 18.49 12.3694C16.7892 12.3237 14.9069 10.2685 14.7644 7.676C14.6208 5.08354 15.0705 2.86415 18.1806 3.0194C18.4578 3.03281 18.9219 3.09536 19.169 3.15009C20.9723 3.54996 21.6602 3.71192 21.7949 7.27166C21.8071 7.58664 21.7815 7.93513 21.7604 8.29702H21.7593Z" fill="white"/>
<path d="M18.5857 12.6496C18.5512 12.6496 18.5167 12.6496 18.4822 12.6485C16.719 12.6005 14.6442 10.5531 14.4861 7.69034C14.4104 6.31089 14.4516 4.59748 15.4534 3.58552C16.069 2.96338 16.9906 2.67855 18.1928 2.73887C18.4778 2.75339 18.9608 2.81705 19.2269 2.87625C21.2338 3.32192 21.9351 3.65924 22.0709 7.26031C22.082 7.54848 22.0642 7.8523 22.0442 8.1751L22.0364 8.31248C21.9206 10.4213 20.9522 12.6496 18.5857 12.6496ZM17.8733 3.28953C16.9717 3.28953 16.3072 3.51627 15.8486 3.97981C15.1963 4.63881 14.9392 5.80826 15.0416 7.66018C15.1785 10.1465 16.9795 12.0498 18.4978 12.09C21.0657 12.1604 21.432 9.19264 21.4821 8.28121L21.4898 8.1427C21.5077 7.83442 21.5255 7.54402 21.5154 7.28265C21.3897 3.92954 20.8609 3.81226 19.1078 3.42356C18.8707 3.37107 18.421 3.31187 18.1661 3.29846C18.0659 3.294 17.9691 3.29064 17.8744 3.29064L17.8733 3.28953Z" fill="#3F424A"/>
<path d="M14.6863 1.4708L14.1631 1.22172C13.9951 1.14242 13.7992 1.15805 13.6478 1.2664C13.4741 1.3915 13.2548 1.58473 13.1246 1.83381C12.9777 2.1164 13.0077 2.43362 13.0545 2.63914C13.0845 2.77094 13.1669 2.88375 13.2816 2.95524L13.8437 3.30708C14.1175 3.47797 14.4782 3.35622 14.5928 3.05353L14.9457 2.1164C15.0403 1.8662 14.9267 1.58585 14.6863 1.4708Z" fill="white"/>
<path d="M15.5146 7.45698C16.2848 7.13418 16.5843 6.53884 16.6744 5.97478C16.7078 5.7525 16.729 5.45204 16.7935 5.18062C18.0981 6.55112 20.5603 7.38326 21.6333 7.69601C21.9784 7.79653 22.3602 7.67925 22.5606 7.38214C23.8128 5.52576 22.3201 1.97049 19.9191 2.03862C17.1942 0.145378 14.0118 1.52147 13.5577 3.83134C13.0546 6.3914 14.7465 7.77866 15.5146 7.45698Z" fill="#3F424A"/>
<path d="M18.1049 0.10498C20.9077 0.10498 23.1829 2.38804 23.1829 5.20054V5.70764C23.1829 5.91316 23.0171 6.07958 22.8122 6.07958H13.3975C13.1927 6.07958 13.0269 5.91316 13.0269 5.70764V5.20054C13.0269 2.38804 15.3021 0.10498 18.1049 0.10498Z" fill="#EA8696"/>
<path d="M19.6675 6.08076H24.9737C24.9737 6.08076 22.4692 2.90637 19.6675 6.08076Z" fill="#EA8696"/>
<path d="M19.9527 6.05835C19.8804 6.05835 19.8091 6.03042 19.7546 5.97569C19.6466 5.86623 19.6477 5.68975 19.7568 5.58029C20.6206 4.72358 21.5467 4.32595 22.5096 4.39855C22.6632 4.40972 22.7778 4.54375 22.7667 4.69789C22.7556 4.85203 22.6231 4.96596 22.4684 4.95591C21.6736 4.89559 20.8933 5.23962 20.1486 5.97793C20.0941 6.03154 20.024 6.05835 19.9527 6.05835Z" fill="#3F424A"/>
<path d="M21.4808 5.07637C21.3506 5.07637 21.2348 4.98478 21.2081 4.85186C20.4779 1.18712 17.1118 1.03075 16.9682 1.02628C16.8146 1.0207 16.6944 0.892248 16.6989 0.738108C16.7033 0.583968 16.8346 0.465571 16.9849 0.467805C17.0239 0.468921 20.9354 0.635348 21.7524 4.7424C21.7824 4.89319 21.6845 5.04063 21.5342 5.07078C21.5153 5.07413 21.4975 5.07637 21.4797 5.07637H21.4808Z" fill="#3F424A"/>
<path d="M15.558 7.78538C15.558 7.78538 14.3024 6.48412 12.9811 6.90745C11.6598 7.33078 12.4279 10.4203 15.6904 10.0316L15.558 7.78426V7.78538Z" fill="white"/>
<path d="M15.1417 10.3453C13.3863 10.3453 12.3589 9.32435 12.1329 8.28112C11.9637 7.50148 12.2709 6.84248 12.8954 6.64142C14.3647 6.17007 15.7004 7.53275 15.7561 7.59084C15.863 7.70141 15.8596 7.87789 15.7494 7.98624C15.6392 8.09347 15.4634 8.09012 15.3565 7.97954C15.3398 7.96278 14.1989 6.80897 13.0646 7.17309C12.6483 7.30601 12.5949 7.78965 12.6761 8.1616C12.8742 9.07527 13.8905 9.96437 15.657 9.75326C15.8106 9.73428 15.9476 9.84485 15.9665 9.99788C15.9843 10.1509 15.8752 10.2894 15.7227 10.3084C15.5212 10.333 15.3264 10.3441 15.1405 10.3441L15.1417 10.3453Z" fill="#3F424A"/>
<path d="M27.5051 47.5828C27.4617 48.1904 26.7315 48.1681 26.412 47.9246C26.412 47.9246 26.6435 48.645 25.2377 49.5118C23.8307 50.3808 22.2734 50.1395 21.6523 49.0282C21.0323 47.9168 20.3266 47.7995 20.3266 47.7995C20.3266 47.7995 4.26101 45.7264 2.27411 43.1552C1.34799 41.9567 1.45151 37.3883 2.17504 32.4816C3.1312 25.9999 5.16932 18.9295 7.341 18.2593C14.5774 16.0254 12.2176 27.0598 10.3319 33.8353C9.5138 36.774 9.06076 38.7678 9.06076 38.7678L21.6813 45.1579C21.6813 45.1579 24.7568 43.8254 25.2243 43.8075C25.6907 43.7907 27.5485 46.9763 27.5051 47.5839V47.5828Z" fill="white"/>
<path d="M23.5515 50.307C23.2988 50.3115 23.0517 50.2825 22.8169 50.2222C22.208 50.0635 21.7104 49.6871 21.4166 49.161C20.8967 48.2295 20.3413 48.0809 20.2823 48.0664C19.4953 47.9648 4.08315 45.9386 2.06062 43.3205C0.97311 41.912 1.26809 36.7773 1.90813 32.4413C2.64278 27.4642 4.5963 18.8223 7.26221 17.9991C8.99755 17.464 10.3299 17.6349 11.2249 18.5095C13.1573 20.3983 12.9502 25.4347 10.5926 33.9068C9.93479 36.2702 9.50958 38.0384 9.37267 38.6203L21.6915 44.8574C22.405 44.5502 24.7526 43.5528 25.2156 43.5349C25.3759 43.5305 25.534 43.6209 25.7366 43.8309C26.4111 44.5313 27.8225 46.9405 27.7758 47.6007C27.7535 47.9123 27.5944 48.1513 27.3272 48.272C27.1335 48.3591 26.8898 48.3736 26.6627 48.3233C26.5703 48.6808 26.2664 49.1946 25.3815 49.7407C24.796 50.1026 24.1582 50.2959 23.5537 50.3059L23.5515 50.307ZM8.99087 18.2392C8.52225 18.247 7.99798 18.3397 7.42027 18.5185C6.51865 18.7966 5.50126 20.4877 4.55734 23.2789C3.71026 25.7843 2.93887 29.153 2.44131 32.5217C1.67103 37.7502 1.68884 41.9567 2.48695 42.9899C4.00412 44.9535 14.8414 46.8199 20.3602 47.5314C20.4036 47.5381 21.2118 47.6855 21.8874 48.8963C22.1112 49.2973 22.4796 49.5743 22.9527 49.6983C23.6094 49.8692 24.3908 49.7173 25.0965 49.2817C26.2675 48.559 26.154 48.0039 26.1529 47.9983C26.1061 47.8855 26.1462 47.7704 26.243 47.6956C26.3399 47.6208 26.479 47.6353 26.577 47.7101C26.6972 47.8017 26.9487 47.852 27.1046 47.7816C27.1614 47.7559 27.227 47.709 27.237 47.5649C27.2704 47.0735 25.6687 44.3369 25.2056 44.0811C24.8661 44.1303 23.2309 44.7815 21.7895 45.407C21.716 45.4393 21.6325 45.436 21.5613 45.4003L8.94078 39.0101C8.82947 38.9543 8.77159 38.8292 8.79942 38.7086C8.80387 38.6885 9.26359 36.6746 10.0739 33.7638C12.3413 25.6145 12.6029 20.6139 10.8498 18.9005C10.3878 18.4481 9.7656 18.228 8.9931 18.2403L8.99087 18.2392Z" fill="#3F424A"/>
<path d="M10.6718 33.6565L1.49414 32.3865C2.45031 25.9048 4.72551 19.1528 7.34133 18.2581C14.5076 15.8064 12.5574 26.8799 10.6718 33.6565Z" fill="#EA8696"/>
<path d="M10.6761 33.9267C10.6627 33.9267 10.6482 33.9267 10.6349 33.9244L1.45725 32.6545C1.38601 32.6444 1.32145 32.6064 1.27804 32.5483C1.23463 32.4903 1.21682 32.4177 1.22684 32.3462C2.14627 26.1158 4.42482 18.9695 7.25324 18.0011C8.9986 17.4035 10.3533 17.5465 11.2794 18.4256C13.9709 20.9789 12.2166 29.1092 10.931 33.729C10.8987 33.8463 10.7929 33.9256 10.6761 33.9267ZM1.80232 32.1552L10.4746 33.3548C11.5031 29.6063 13.4355 21.2146 10.9087 18.8187C10.1395 18.0893 8.96855 17.9866 7.428 18.5138C4.96468 19.3571 2.74958 25.965 1.80121 32.1552H1.80232Z" fill="#EA8696"/>
<path d="M11.0769 32.4186C11.0536 32.4186 11.0302 32.4164 11.0057 32.4108C10.861 32.374 10.7742 32.2265 10.8109 32.0813C11.7893 28.2189 13.1251 21.3853 11.087 19.0062C10.5371 18.3651 9.78462 18.1015 8.78505 18.2009C8.63589 18.2154 8.50454 18.1071 8.49007 17.9585C8.4756 17.81 8.58357 17.6771 8.73162 17.6625C9.90261 17.5453 10.8321 17.8792 11.4955 18.6544C13.5837 21.0905 12.5596 27.3734 11.333 32.2154C11.3018 32.336 11.1949 32.4175 11.0758 32.4198L11.0769 32.4186Z" fill="#3F424A"/>
<path d="M10.2452 31.7931C10.2318 31.7931 10.2184 31.7931 10.2051 31.7908L2.1172 30.7197C1.96915 30.6996 1.86563 30.5644 1.88455 30.4159C1.90348 30.2673 2.03928 30.1634 2.18732 30.1824L10.2752 31.2536C10.4233 31.2737 10.5268 31.4088 10.5079 31.5574C10.49 31.6925 10.3765 31.7908 10.2452 31.7931Z" fill="#3F424A"/>
</g>
<defs>
<clipPath id="clip0_619_662">
<rect width="142" height="115.493" fill="white"/>
</clipPath>
</defs>
</svg>
